<svg xmlns="http://www.w3.org/2000/svg" viewBox="0 0 480 480"><linearGradient id="a" gradientUnits="userSpaceOnUse" x1="-42.875" y1="618.542" x2="-42.875" y2="554.145" gradientTransform="matrix(8 0 0 -8 455 4941)"><stop offset="0" stop-color="#fc5c7d"/><stop offset=".129" stop-color="#f35e85"/><stop offset=".343" stop-color="#d9659b"/><stop offset=".616" stop-color="#b070bf"/><stop offset=".934" stop-color="#777ff0"/><stop offset="1" stop-color="#6a82fb"/></linearGradient><path d="M104 400h16v16h-16v-16z" fill="url(#a)"/><linearGradient id="b" gradientUnits="userSpaceOnUse" x1="-46.875" y1="618.542" x2="-46.875" y2="554.145" gradientTransform="matrix(8 0 0 -8 455 4941)"><stop offset="0" stop-color="#fc5c7d"/><stop offset=".129" stop-color="#f35e85"/><stop offset=".343" stop-color="#d9659b"/><stop offset=".616" stop-color="#b070bf"/><stop offset=".934" stop-color="#777ff0"/><stop offset="1" stop-color="#6a82fb"/></linearGradient><path d="M72 400h16v16H72v-16z" fill="url(#b)"/><linearGradient id="c" gradientUnits="userSpaceOnUse" x1="-42.875" y1="618.542" x2="-42.875" y2="554.145" gradientTransform="matrix(8 0 0 -8 455 4941)"><stop offset="0" stop-color="#fc5c7d"/><stop offset=".129" stop-color="#f35e85"/><stop offset=".343" stop-color="#d9659b"/><stop offset=".616" stop-color="#b070bf"/><stop offset=".934" stop-color="#777ff0"/><stop offset="1" stop-color="#6a82fb"/></linearGradient><path d="M104 368h16v16h-16v-16z" fill="url(#c)"/><linearGradient id="d" gradientUnits="userSpaceOnUse" x1="-46.875" y1="618.542" x2="-46.875" y2="554.145" gradientTransform="matrix(8 0 0 -8 455 4941)"><stop offset="0" stop-color="#fc5c7d"/><stop offset=".129" stop-color="#f35e85"/><stop offset=".343" stop-color="#d9659b"/><stop offset=".616" stop-color="#b070bf"/><stop offset=".934" stop-color="#777ff0"/><stop offset="1" stop-color="#6a82fb"/></linearGradient><path d="M72 368h16v16H72v-16z" fill="url(#d)"/><linearGradient id="e" gradientUnits="userSpaceOnUse" x1="-38.875" y1="618.542" x2="-38.875" y2="554.145" gradientTransform="matrix(8 0 0 -8 455 4941)"><stop offset="0" stop-color="#fc5c7d"/><stop offset=".129" stop-color="#f35e85"/><stop offset=".343" stop-color="#d9659b"/><stop offset=".616" stop-color="#b070bf"/><stop offset=".934" stop-color="#777ff0"/><stop offset="1" stop-color="#6a82fb"/></linearGradient><path d="M136 368h16v16h-16v-16z" fill="url(#e)"/><linearGradient id="f" gradientUnits="userSpaceOnUse" x1="-34.875" y1="618.542" x2="-34.875" y2="554.145" gradientTransform="matrix(8 0 0 -8 455 4941)"><stop offset="0" stop-color="#fc5c7d"/><stop offset=".129" stop-color="#f35e85"/><stop offset=".343" stop-color="#d9659b"/><stop offset=".616" stop-color="#b070bf"/><stop offset=".934" stop-color="#777ff0"/><stop offset="1" stop-color="#6a82fb"/></linearGradient><path d="M168 368h16v16h-16v-16z" fill="url(#f)"/><linearGradient id="g" gradientUnits="userSpaceOnUse" x1="-30.875" y1="618.542" x2="-30.875" y2="554.145" gradientTransform="matrix(8 0 0 -8 455 4941)"><stop offset="0" stop-color="#fc5c7d"/><stop offset=".129" stop-color="#f35e85"/><stop offset=".343" stop-color="#d9659b"/><stop offset=".616" stop-color="#b070bf"/><stop offset=".934" stop-color="#777ff0"/><stop offset="1" stop-color="#6a82fb"/></linearGradient><path d="M200 368h16v16h-16v-16z" fill="url(#g)"/><linearGradient id="h" gradientUnits="userSpaceOnUse" x1="-26.875" y1="618.542" x2="-26.875" y2="554.145" gradientTransform="matrix(8 0 0 -8 455 4941)"><stop offset="0" stop-color="#fc5c7d"/><stop offset=".129" stop-color="#f35e85"/><stop offset=".343" stop-color="#d9659b"/><stop offset=".616" stop-color="#b070bf"/><stop offset=".934" stop-color="#777ff0"/><stop offset="1" stop-color="#6a82fb"/></linearGradient><path d="M232 368h16v16h-16v-16z" fill="url(#h)"/><linearGradient id="i" gradientUnits="userSpaceOnUse" x1="-22.875" y1="618.542" x2="-22.875" y2="554.145" gradientTransform="matrix(8 0 0 -8 455 4941)"><stop offset="0" stop-color="#fc5c7d"/><stop offset=".129" stop-color="#f35e85"/><stop offset=".343" stop-color="#d9659b"/><stop offset=".616" stop-color="#b070bf"/><stop offset=".934" stop-color="#777ff0"/><stop offset="1" stop-color="#6a82fb"/></linearGradient><path d="M264 368h16v16h-16v-16z" fill="url(#i)"/><linearGradient id="j" gradientUnits="userSpaceOnUse" x1="-18.875" y1="618.542" x2="-18.875" y2="554.145" gradientTransform="matrix(8 0 0 -8 455 4941)"><stop offset="0" stop-color="#fc5c7d"/><stop offset=".129" stop-color="#f35e85"/><stop offset=".343" stop-color="#d9659b"/><stop offset=".616" stop-color="#b070bf"/><stop offset=".934" stop-color="#777ff0"/><stop offset="1" stop-color="#6a82fb"/></linearGradient><path d="M296 368h16v16h-16v-16z" fill="url(#j)"/><linearGradient id="k" gradientUnits="userSpaceOnUse" x1="-14.875" y1="618.542" x2="-14.875" y2="554.145" gradientTransform="matrix(8 0 0 -8 455 4941)"><stop offset="0" stop-color="#fc5c7d"/><stop offset=".129" stop-color="#f35e85"/><stop offset=".343" stop-color="#d9659b"/><stop offset=".616" stop-color="#b070bf"/><stop offset=".934" stop-color="#777ff0"/><stop offset="1" stop-color="#6a82fb"/></linearGradient><path d="M328 368h16v16h-16v-16z" fill="url(#k)"/><linearGradient id="l" gradientUnits="userSpaceOnUse" x1="-10.875" y1="618.542" x2="-10.875" y2="554.145" gradientTransform="matrix(8 0 0 -8 455 4941)"><stop offset="0" stop-color="#fc5c7d"/><stop offset=".129" stop-color="#f35e85"/><stop offset=".343" stop-color="#d9659b"/><stop offset=".616" stop-color="#b070bf"/><stop offset=".934" stop-color="#777ff0"/><stop offset="1" stop-color="#6a82fb"/></linearGradient><path d="M360 368h16v16h-16v-16z" fill="url(#l)"/><linearGradient id="m" gradientUnits="userSpaceOnUse" x1="-6.875" y1="618.542" x2="-6.875" y2="554.145" gradientTransform="matrix(8 0 0 -8 455 4941)"><stop offset="0" stop-color="#fc5c7d"/><stop offset=".129" stop-color="#f35e85"/><stop offset=".343" stop-color="#d9659b"/><stop offset=".616" stop-color="#b070bf"/><stop offset=".934" stop-color="#777ff0"/><stop offset="1" stop-color="#6a82fb"/></linearGradient><path d="M392 368h16v16h-16v-16z" fill="url(#m)"/><linearGradient id="n" gradientUnits="userSpaceOnUse" x1="-42.875" y1="618.542" x2="-42.875" y2="554.145" gradientTransform="matrix(8 0 0 -8 455 4941)"><stop offset="0" stop-color="#fc5c7d"/><stop offset=".129" stop-color="#f35e85"/><stop offset=".343" stop-color="#d9659b"/><stop offset=".616" stop-color="#b070bf"/><stop offset=".934" stop-color="#777ff0"/><stop offset="1" stop-color="#6a82fb"/></linearGradient><path d="M104 336h16v16h-16v-16z" fill="url(#n)"/><linearGradient id="o" gradientUnits="userSpaceOnUse" x1="-38.875" y1="618.542" x2="-38.875" y2="554.145" gradientTransform="matrix(8 0 0 -8 455 4941)"><stop offset="0" stop-color="#fc5c7d"/><stop offset=".129" stop-color="#f35e85"/><stop offset=".343" stop-color="#d9659b"/><stop offset=".616" stop-color="#b070bf"/><stop offset=".934" stop-color="#777ff0"/><stop offset="1" stop-color="#6a82fb"/></linearGradient><path d="M136 336h16v16h-16v-16z" fill="url(#o)"/><linearGradient id="p" gradientUnits="userSpaceOnUse" x1="-34.875" y1="618.542" x2="-34.875" y2="554.145" gradientTransform="matrix(8 0 0 -8 455 4941)"><stop offset="0" stop-color="#fc5c7d"/><stop offset=".129" stop-color="#f35e85"/><stop offset=".343" stop-color="#d9659b"/><stop offset=".616" stop-color="#b070bf"/><stop offset=".934" stop-color="#777ff0"/><stop offset="1" stop-color="#6a82fb"/></linearGradient><path d="M168 336h16v16h-16v-16z" fill="url(#p)"/><linearGradient id="q" gradientUnits="userSpaceOnUse" x1="-30.875" y1="618.542" x2="-30.875" y2="554.145" gradientTransform="matrix(8 0 0 -8 455 4941)"><stop offset="0" stop-color="#fc5c7d"/><stop offset=".129" stop-color="#f35e85"/><stop offset=".343" stop-color="#d9659b"/><stop offset=".616" stop-color="#b070bf"/><stop offset=".934" stop-color="#777ff0"/><stop offset="1" stop-color="#6a82fb"/></linearGradient><path d="M200 336h16v16h-16v-16z" fill="url(#q)"/><linearGradient id="r" gradientUnits="userSpaceOnUse" x1="-26.875" y1="618.542" x2="-26.875" y2="554.145" gradientTransform="matrix(8 0 0 -8 455 4941)"><stop offset="0" stop-color="#fc5c7d"/><stop offset=".129" stop-color="#f35e85"/><stop offset=".343" stop-color="#d9659b"/><stop offset=".616" stop-color="#b070bf"/><stop offset=".934" stop-color="#777ff0"/><stop offset="1" stop-color="#6a82fb"/></linearGradient><path d="M232 336h16v16h-16v-16z" fill="url(#r)"/><linearGradient id="s" gradientUnits="userSpaceOnUse" x1="-22.875" y1="618.542" x2="-22.875" y2="554.145" gradientTransform="matrix(8 0 0 -8 455 4941)"><stop offset="0" stop-color="#fc5c7d"/><stop offset=".129" stop-color="#f35e85"/><stop offset=".343" stop-color="#d9659b"/><stop offset=".616" stop-color="#b070bf"/><stop offset=".934" stop-color="#777ff0"/><stop offset="1" stop-color="#6a82fb"/></linearGradient><path d="M264 336h16v16h-16v-16z" fill="url(#s)"/><linearGradient id="t" gradientUnits="userSpaceOnUse" x1="-18.875" y1="618.542" x2="-18.875" y2="554.145" gradientTransform="matrix(8 0 0 -8 455 4941)"><stop offset="0" stop-color="#fc5c7d"/><stop offset=".129" stop-color="#f35e85"/><stop offset=".343" stop-color="#d9659b"/><stop offset=".616" stop-color="#b070bf"/><stop offset=".934" stop-color="#777ff0"/><stop offset="1" stop-color="#6a82fb"/></linearGradient><path d="M296 336h16v16h-16v-16z" fill="url(#t)"/><linearGradient id="u" gradientUnits="userSpaceOnUse" x1="-14.875" y1="618.542" x2="-14.875" y2="554.145" gradientTransform="matrix(8 0 0 -8 455 4941)"><stop offset="0" stop-color="#fc5c7d"/><stop offset=".129" stop-color="#f35e85"/><stop offset=".343" stop-color="#d9659b"/><stop offset=".616" stop-color="#b070bf"/><stop offset=".934" stop-color="#777ff0"/><stop offset="1" stop-color="#6a82fb"/></linearGradient><path d="M328 336h16v16h-16v-16z" fill="url(#u)"/><linearGradient id="v" gradientUnits="userSpaceOnUse" x1="-10.875" y1="618.542" x2="-10.875" y2="554.145" gradientTransform="matrix(8 0 0 -8 455 4941)"><stop offset="0" stop-color="#fc5c7d"/><stop offset=".129" stop-color="#f35e85"/><stop offset=".343" stop-color="#d9659b"/><stop offset=".616" stop-color="#b070bf"/><stop offset=".934" stop-color="#777ff0"/><stop offset="1" stop-color="#6a82fb"/></linearGradient><path d="M360 336h16v16h-16v-16z" fill="url(#v)"/><linearGradient id="w" gradientUnits="userSpaceOnUse" x1="-38.875" y1="618.542" x2="-38.875" y2="554.145" gradientTransform="matrix(8 0 0 -8 455 4941)"><stop offset="0" stop-color="#fc5c7d"/><stop offset=".129" stop-color="#f35e85"/><stop offset=".343" stop-color="#d9659b"/><stop offset=".616" stop-color="#b070bf"/><stop offset=".934" stop-color="#777ff0"/><stop offset="1" stop-color="#6a82fb"/></linearGradient><path d="M136 400h16v16h-16v-16z" fill="url(#w)"/><linearGradient id="x" gradientUnits="userSpaceOnUse" x1="-26.875" y1="618.542" x2="-26.875" y2="554.145" gradientTransform="matrix(8 0 0 -8 455 4941)"><stop offset="0" stop-color="#fc5c7d"/><stop offset=".129" stop-color="#f35e85"/><stop offset=".343" stop-color="#d9659b"/><stop offset=".616" stop-color="#b070bf"/><stop offset=".934" stop-color="#777ff0"/><stop offset="1" stop-color="#6a82fb"/></linearGradient><path d="M168 400h144v16H168v-16z" fill="url(#x)"/><linearGradient id="y" gradientUnits="userSpaceOnUse" x1="-14.875" y1="618.542" x2="-14.875" y2="554.145" gradientTransform="matrix(8 0 0 -8 455 4941)"><stop offset="0" stop-color="#fc5c7d"/><stop offset=".129" stop-color="#f35e85"/><stop offset=".343" stop-color="#d9659b"/><stop offset=".616" stop-color="#b070bf"/><stop offset=".934" stop-color="#777ff0"/><stop offset="1" stop-color="#6a82fb"/></linearGradient><path d="M328 400h16v16h-16v-16z" fill="url(#y)"/><linearGradient id="z" gradientUnits="userSpaceOnUse" x1="-6.875" y1="618.542" x2="-6.875" y2="554.145" gradientTransform="matrix(8 0 0 -8 455 4941)"><stop offset="0" stop-color="#fc5c7d"/><stop offset=".129" stop-color="#f35e85"/><stop offset=".343" stop-color="#d9659b"/><stop offset=".616" stop-color="#b070bf"/><stop offset=".934" stop-color="#777ff0"/><stop offset="1" stop-color="#6a82fb"/></linearGradient><path d="M392 400h16v16h-16v-16z" fill="url(#z)"/><linearGradient id="A" gradientUnits="userSpaceOnUse" x1="-10.875" y1="618.542" x2="-10.875" y2="554.145" gradientTransform="matrix(8 0 0 -8 455 4941)"><stop offset="0" stop-color="#fc5c7d"/><stop offset=".129" stop-color="#f35e85"/><stop offset=".343" stop-color="#d9659b"/><stop offset=".616" stop-color="#b070bf"/><stop offset=".934" stop-color="#777ff0"/><stop offset="1" stop-color="#6a82fb"/></linearGradient><path d="M360 400h16v16h-16v-16z" fill="url(#A)"/><linearGradient id="B" gradientUnits="userSpaceOnUse" x1="-43.875" y1="618.542" x2="-43.875" y2="554.145" gradientTransform="matrix(8 0 0 -8 455 4941)"><stop offset="0" stop-color="#fc5c7d"/><stop offset=".129" stop-color="#f35e85"/><stop offset=".343" stop-color="#d9659b"/><stop offset=".616" stop-color="#b070bf"/><stop offset=".934" stop-color="#777ff0"/><stop offset="1" stop-color="#6a82fb"/></linearGradient><path d="M96 32h16v16H96V32z" fill="url(#B)"/><linearGradient id="C" gradientUnits="userSpaceOnUse" x1="-39.875" y1="618.542" x2="-39.875" y2="554.145" gradientTransform="matrix(8 0 0 -8 455 4941)"><stop offset="0" stop-color="#fc5c7d"/><stop offset=".129" stop-color="#f35e85"/><stop offset=".343" stop-color="#d9659b"/><stop offset=".616" stop-color="#b070bf"/><stop offset=".934" stop-color="#777ff0"/><stop offset="1" stop-color="#6a82fb"/></linearGradient><path d="M128 32h16v16h-16V32z" fill="url(#C)"/><linearGradient id="D" gradientUnits="userSpaceOnUse" x1="-35.875" y1="618.542" x2="-35.875" y2="554.145" gradientTransform="matrix(8 0 0 -8 455 4941)"><stop offset="0" stop-color="#fc5c7d"/><stop offset=".129" stop-color="#f35e85"/><stop offset=".343" stop-color="#d9659b"/><stop offset=".616" stop-color="#b070bf"/><stop offset=".934" stop-color="#777ff0"/><stop offset="1" stop-color="#6a82fb"/></linearGradient><path d="M160 32h16v16h-16V32z" fill="url(#D)"/><linearGradient id="E" gradientUnits="userSpaceOnUse" x1="-42.021" y1="618.542" x2="-42.021" y2="554.145" gradientTransform="matrix(8 0 0 -8 455 4941)"><stop offset="0" stop-color="#fc5c7d"/><stop offset=".129" stop-color="#f35e85"/><stop offset=".343" stop-color="#d9659b"/><stop offset=".616" stop-color="#b070bf"/><stop offset=".934" stop-color="#777ff0"/><stop offset="1" stop-color="#6a82fb"/></linearGradient><path d="M122.344 98.344l-16 16a8 8 0 0 0 0 11.312l16 16 11.312-11.312L123.312 120l10.344-10.344-11.312-11.312z" fill="url(#E)"/><linearGradient id="F" gradientUnits="userSpaceOnUse" x1="-33.729" y1="618.542" x2="-33.729" y2="554.145" gradientTransform="matrix(8 0 0 -8 455 4941)"><stop offset="0" stop-color="#fc5c7d"/><stop offset=".129" stop-color="#f35e85"/><stop offset=".343" stop-color="#d9659b"/><stop offset=".616" stop-color="#b070bf"/><stop offset=".934" stop-color="#777ff0"/><stop offset="1" stop-color="#6a82fb"/></linearGradient><path d="M181.656 141.656l16-16a8 8 0 0 0 0-11.312l-16-16-11.312 11.312L180.688 120l-10.344 10.344 11.312 11.312z" fill="url(#F)"/><linearGradient id="G" gradientUnits="userSpaceOnUse" x1="-43.445" y1="613.729" x2="-104.538" y2="593.352" gradientTransform="scale(8 -8) rotate(71.56 412.967 350.65)"><stop offset="0" stop-color="#fc5c7d"/><stop offset=".129" stop-color="#f35e85"/><stop offset=".343" stop-color="#d9659b"/><stop offset=".616" stop-color="#b070bf"/><stop offset=".934" stop-color="#777ff0"/><stop offset="1" stop-color="#6a82fb"/></linearGradient><path d="M136.405 141.467l16.009-48.001 15.178 5.062-16.009 48.001-15.178-5.062z" fill="url(#G)"/><linearGradient id="H" gradientUnits="userSpaceOnUse" x1="-28.875" y1="618.542" x2="-28.875" y2="554.145" gradientTransform="matrix(8 0 0 -8 455 4941)"><stop offset="0" stop-color="#fc5c7d"/><stop offset=".129" stop-color="#f35e85"/><stop offset=".343" stop-color="#d9659b"/><stop offset=".616" stop-color="#b070bf"/><stop offset=".934" stop-color="#777ff0"/><stop offset="1" stop-color="#6a82fb"/></linearGradient><path d="M216 128h16v16h-16v-16z" fill="url(#H)"/><linearGradient id="I" gradientUnits="userSpaceOnUse" x1="-42.875" y1="618.542" x2="-42.875" y2="554.145" gradientTransform="matrix(8 0 0 -8 455 4941)"><stop offset="0" stop-color="#fc5c7d"/><stop offset=".129" stop-color="#f35e85"/><stop offset=".343" stop-color="#d9659b"/><stop offset=".616" stop-color="#b070bf"/><stop offset=".934" stop-color="#777ff0"/><stop offset="1" stop-color="#6a82fb"/></linearGradient><path d="M104 160h16v16h-16v-16z" fill="url(#I)"/><linearGradient id="J" gradientUnits="userSpaceOnUse" x1="-42.875" y1="618.542" x2="-42.875" y2="554.145" gradientTransform="matrix(8 0 0 -8 455 4941)"><stop offset="0" stop-color="#fc5c7d"/><stop offset=".129" stop-color="#f35e85"/><stop offset=".343" stop-color="#d9659b"/><stop offset=".616" stop-color="#b070bf"/><stop offset=".934" stop-color="#777ff0"/><stop offset="1" stop-color="#6a82fb"/></linearGradient><path d="M104 192h16v16h-16v-16z" fill="url(#J)"/><linearGradient id="K" gradientUnits="userSpaceOnUse" x1="-42.875" y1="618.542" x2="-42.875" y2="554.145" gradientTransform="matrix(8 0 0 -8 455 4941)"><stop offset="0" stop-color="#fc5c7d"/><stop offset=".129" stop-color="#f35e85"/><stop offset=".343" stop-color="#d9659b"/><stop offset=".616" stop-color="#b070bf"/><stop offset=".934" stop-color="#777ff0"/><stop offset="1" stop-color="#6a82fb"/></linearGradient><path d="M104 224h16v16h-16v-16z" fill="url(#K)"/><linearGradient id="L" gradientUnits="userSpaceOnUse" x1="-27.875" y1="618.542" x2="-27.875" y2="554.145" gradientTransform="matrix(8 0 0 -8 455 4941)"><stop offset="0" stop-color="#fc5c7d"/><stop offset=".129" stop-color="#f35e85"/><stop offset=".343" stop-color="#d9659b"/><stop offset=".616" stop-color="#b070bf"/><stop offset=".934" stop-color="#777ff0"/><stop offset="1" stop-color="#6a82fb"/></linearGradient><path d="M136 160h192v16H136v-16z" fill="url(#L)"/><linearGradient id="M" gradientUnits="userSpaceOnUse" x1="-24.875" y1="618.542" x2="-24.875" y2="554.145" gradientTransform="matrix(8 0 0 -8 455 4941)"><stop offset="0" stop-color="#fc5c7d"/><stop offset=".129" stop-color="#f35e85"/><stop offset=".343" stop-color="#d9659b"/><stop offset=".616" stop-color="#b070bf"/><stop offset=".934" stop-color="#777ff0"/><stop offset="1" stop-color="#6a82fb"/></linearGradient><path d="M248 128h16v16h-16v-16z" fill="url(#M)"/><linearGradient id="N" gradientUnits="userSpaceOnUse" x1="-20.875" y1="618.542" x2="-20.875" y2="554.145" gradientTransform="matrix(8 0 0 -8 455 4941)"><stop offset="0" stop-color="#fc5c7d"/><stop offset=".129" stop-color="#f35e85"/><stop offset=".343" stop-color="#d9659b"/><stop offset=".616" stop-color="#b070bf"/><stop offset=".934" stop-color="#777ff0"/><stop offset="1" stop-color="#6a82fb"/></linearGradient><path d="M280 128h16v16h-16v-16z" fill="url(#N)"/><linearGradient id="O" gradientUnits="userSpaceOnUse" x1="-16.875" y1="618.542" x2="-16.875" y2="554.145" gradientTransform="matrix(8 0 0 -8 455 4941)"><stop offset="0" stop-color="#fc5c7d"/><stop offset=".129" stop-color="#f35e85"/><stop offset=".343" stop-color="#d9659b"/><stop offset=".616" stop-color="#b070bf"/><stop offset=".934" stop-color="#777ff0"/><stop offset="1" stop-color="#6a82fb"/></linearGradient><path d="M312 128h16v16h-16v-16z" fill="url(#O)"/><linearGradient id="P" gradientUnits="userSpaceOnUse" x1="-37.875" y1="618.542" x2="-37.875" y2="554.145" gradientTransform="matrix(8 0 0 -8 455 4941)"><stop offset="0" stop-color="#fc5c7d"/><stop offset=".129" stop-color="#f35e85"/><stop offset=".343" stop-color="#d9659b"/><stop offset=".616" stop-color="#b070bf"/><stop offset=".934" stop-color="#777ff0"/><stop offset="1" stop-color="#6a82fb"/></linearGradient><path d="M136 192h32v16h-32v-16z" fill="url(#P)"/><linearGradient id="Q" gradientUnits="userSpaceOnUse" x1="-37.875" y1="618.542" x2="-37.875" y2="554.145" gradientTransform="matrix(8 0 0 -8 455 4941)"><stop offset="0" stop-color="#fc5c7d"/><stop offset=".129" stop-color="#f35e85"/><stop offset=".343" stop-color="#d9659b"/><stop offset=".616" stop-color="#b070bf"/><stop offset=".934" stop-color="#777ff0"/><stop offset="1" stop-color="#6a82fb"/></linearGradient><path d="M136 224h32v16h-32v-16z" fill="url(#Q)"/><linearGradient id="R" gradientUnits="userSpaceOnUse" x1="-31.875" y1="618.542" x2="-31.875" y2="554.145" gradientTransform="matrix(8 0 0 -8 455 4941)"><stop offset="0" stop-color="#fc5c7d"/><stop offset=".129" stop-color="#f35e85"/><stop offset=".343" stop-color="#d9659b"/><stop offset=".616" stop-color="#b070bf"/><stop offset=".934" stop-color="#777ff0"/><stop offset="1" stop-color="#6a82fb"/></linearGradient><path d="M184 224h32v16h-32v-16z" fill="url(#R)"/><linearGradient id="S" gradientUnits="userSpaceOnUse" x1="-31.875" y1="618.542" x2="-31.875" y2="554.145" gradientTransform="matrix(8 0 0 -8 455 4941)"><stop offset="0" stop-color="#fc5c7d"/><stop offset=".129" stop-color="#f35e85"/><stop offset=".343" stop-color="#d9659b"/><stop offset=".616" stop-color="#b070bf"/><stop offset=".934" stop-color="#777ff0"/><stop offset="1" stop-color="#6a82fb"/></linearGradient><path d="M184 192h32v16h-32v-16z" fill="url(#S)"/><linearGradient id="T" gradientUnits="userSpaceOnUse" x1="-25.875" y1="618.542" x2="-25.875" y2="554.145" gradientTransform="matrix(8 0 0 -8 455 4941)"><stop offset="0" stop-color="#fc5c7d"/><stop offset=".129" stop-color="#f35e85"/><stop offset=".343" stop-color="#d9659b"/><stop offset=".616" stop-color="#b070bf"/><stop offset=".934" stop-color="#777ff0"/><stop offset="1" stop-color="#6a82fb"/></linearGradient><path d="M232 192h32v16h-32v-16z" fill="url(#T)"/><linearGradient id="U" gradientUnits="userSpaceOnUse" x1="-11.875" y1="618.542" x2="-11.875" y2="554.145" gradientTransform="matrix(8 0 0 -8 455 4941)"><stop offset="0" stop-color="#fc5c7d"/><stop offset=".129" stop-color="#f35e85"/><stop offset=".343" stop-color="#d9659b"/><stop offset=".616" stop-color="#b070bf"/><stop offset=".934" stop-color="#777ff0"/><stop offset="1" stop-color="#6a82fb"/></linearGradient><path d="M344 160h32v16h-32v-16z" fill="url(#U)"/><linearGradient id="V" gradientUnits="userSpaceOnUse" x1="-55.875" y1="618.542" x2="-55.875" y2="554.145" gradientTransform="matrix(8 0 0 -8 455 4941)"><stop offset="0" stop-color="#fc5c7d"/><stop offset=".129" stop-color="#f35e85"/><stop offset=".343" stop-color="#d9659b"/><stop offset=".616" stop-color="#b070bf"/><stop offset=".934" stop-color="#777ff0"/><stop offset="1" stop-color="#6a82fb"/></linearGradient><path d="M0 264h16v16H0v-16z" fill="url(#V)"/><linearGradient id="W" gradientUnits="userSpaceOnUse" x1="-26.875" y1="618.542" x2="-26.875" y2="554.145" gradientTransform="matrix(8 0 0 -8 455 4941)"><stop offset="0" stop-color="#fc5c7d"/><stop offset=".129" stop-color="#f35e85"/><stop offset=".343" stop-color="#d9659b"/><stop offset=".616" stop-color="#b070bf"/><stop offset=".934" stop-color="#777ff0"/><stop offset="1" stop-color="#6a82fb"/></linearGradient><path d="M464 320c0 8.837-7.163 16-16 16h-9.752l-6.488-25.944A8.001 8.001 0 0 0 424 304H56a8.001 8.001 0 0 0-7.76 6.056L41.752 336H32c-8.837 0-16-7.163-16-16v-24H0v24c0 17.673 14.327 32 32 32h5.752L16.24 438.056l.144.04A7.593 7.593 0 0 0 16 440v32a8 8 0 0 0 8 8h432a8 8 0 0 0 8-8v-32a7.602 7.602 0 0 0-.384-1.904l.144-.04L442.248 352H448c17.673 0 32-14.327 32-32V208h-16v112zm-401.752 0h355.504l28 112H34.248l28-112zM448 464H32v-16h416v16z" fill="url(#W)"/><linearGradient id="X" gradientUnits="userSpaceOnUse" x1="2.125" y1="618.542" x2="2.125" y2="554.145" gradientTransform="matrix(8 0 0 -8 455 4941)"><stop offset="0" stop-color="#fc5c7d"/><stop offset=".129" stop-color="#f35e85"/><stop offset=".343" stop-color="#d9659b"/><stop offset=".616" stop-color="#b070bf"/><stop offset=".934" stop-color="#777ff0"/><stop offset="1" stop-color="#6a82fb"/></linearGradient><path d="M464 176h16v16h-16v-16z" fill="url(#X)"/><linearGradient id="Y" gradientUnits="userSpaceOnUse" x1="-26.875" y1="618.542" x2="-26.875" y2="554.145" gradientTransform="matrix(8 0 0 -8 455 4941)"><stop offset="0" stop-color="#fc5c7d"/><stop offset=".129" stop-color="#f35e85"/><stop offset=".343" stop-color="#d9659b"/><stop offset=".616" stop-color="#b070bf"/><stop offset=".934" stop-color="#777ff0"/><stop offset="1" stop-color="#6a82fb"/></linearGradient><path d="M448 96h-32V32c0-17.673-14.327-32-32-32H96C78.327 0 64 14.327 64 32v64H32c-17.673 0-32 14.327-32 32v120h16V128c0-8.837 7.163-16 16-16h32v136c0 17.673 14.327 32 32 32h288c17.673 0 32-14.327 32-32V112h32c8.837 0 16 7.163 16 16v32h16v-32c0-17.673-14.327-32-32-32zM96 16h288c8.837 0 16 7.163 16 16v32H80V32c0-8.837 7.163-16 16-16zm288 248H96c-8.837 0-16-7.163-16-16V80h320v168c0 8.837-7.163 16-16 16z" fill="url(#Y)"/></svg>