<svg width="648" height="427" viewBox="0 0 648 427" fill="none" xmlns="http://www.w3.org/2000/svg"><g clip-path="url(#clip0)"><path fill="#fff" d="M0 0h648v427H0z"/><g clip-path="url(#clip1)"><path fill="#fff" d="M0 0h648v427H0z"/><path fill="#0D0F29" d="M-24-16h711v469H-24z"/><path d="M77.935 68.617v11.52h28.032v17.088H77.935v21.504H55.279v-67.2h54.624v17.088H77.935zm94.923-2.4v52.512h-20.64v-4.992a19.145 19.145 0 0 1-6.72 4.512c-2.56.96-5.28 1.44-8.16 1.44-6.656 0-12-2.016-16.032-6.048-4.032-4.096-6.048-10.24-6.048-18.432V66.217h21.696v25.248c0 3.584.576 6.144 1.728 7.68 1.152 1.536 2.848 2.304 5.088 2.304 2.112 0 3.872-.832 5.28-2.496 1.408-1.728 2.112-4.416 2.112-8.064V66.217h21.696zm9.624-18.72h21.696v71.232h-21.696V47.497zm31.312 0h21.696v71.232h-21.696V47.497zm85.822 72.768a72.903 72.903 0 0 1-16.32-1.824c-5.248-1.28-9.568-2.976-12.96-5.088l7.296-16.512c3.2 1.856 6.784 3.36 10.752 4.512 3.968 1.088 7.776 1.632 11.424 1.632 3.136 0 5.376-.288 6.72-.864 1.344-.64 2.016-1.568 2.016-2.784 0-1.408-.896-2.464-2.688-3.168-1.728-.704-4.608-1.472-8.64-2.304-5.184-1.088-9.504-2.24-12.96-3.456-3.456-1.28-6.464-3.328-9.024-6.144-2.56-2.88-3.84-6.752-3.84-11.616 0-4.224 1.184-8.064 3.552-11.52 2.368-3.456 5.888-6.176 10.56-8.16 4.736-1.984 10.464-2.976 17.184-2.976 4.608 0 9.12.512 13.536 1.536 4.48.96 8.416 2.4 11.808 4.32l-6.816 16.416c-6.592-3.328-12.832-4.992-18.72-4.992-5.824 0-8.736 1.408-8.736 4.224 0 1.344.864 2.368 2.592 3.072 1.728.64 4.576 1.344 8.544 2.112 5.12.96 9.44 2.08 12.96 3.36 3.52 1.216 6.56 3.232 9.12 6.048 2.624 2.816 3.936 6.656 3.936 11.52 0 4.224-1.184 8.064-3.552 11.52-2.368 3.392-5.92 6.112-10.656 8.16-4.672 1.984-10.368 2.976-17.088 2.976zm76.054-3.36c-3.264 1.856-7.712 2.784-13.344 2.784-7.36 0-13.024-1.76-16.992-5.28-3.968-3.584-5.952-8.928-5.952-16.032v-13.44h-7.2v-15.84h7.2V54.409h21.696v14.688h10.752v15.84h-10.752v13.248c0 1.6.416 2.848 1.248 3.744.832.896 1.92 1.344 3.264 1.344 1.856 0 3.488-.48 4.896-1.44l5.184 15.072zm28.988-51.648c9.216 0 16.256 2.08 21.12 6.24 4.864 4.096 7.296 10.432 7.296 19.008v28.224h-20.16v-6.912c-2.496 5.248-7.456 7.872-14.88 7.872-4.16 0-7.712-.704-10.656-2.112-2.88-1.472-5.088-3.424-6.624-5.856-1.472-2.496-2.208-5.28-2.208-8.352 0-5.184 1.984-9.12 5.952-11.808 3.968-2.688 9.984-4.032 18.048-4.032h8.736c-.704-4.096-4-6.144-9.888-6.144-2.368 0-4.768.384-7.2 1.152-2.432.704-4.512 1.696-6.24 2.976l-6.912-14.304c3.008-1.856 6.624-3.296 10.848-4.32 4.288-1.088 8.544-1.632 12.768-1.632zm-.096 41.376c1.536 0 2.912-.416 4.128-1.248 1.216-.832 2.112-2.08 2.688-3.744v-3.648h-5.376c-4.416 0-6.624 1.472-6.624 4.416 0 1.216.448 2.24 1.344 3.072.96.768 2.24 1.152 3.84 1.152zm67.05 13.056c-5.952 0-11.296-1.152-16.032-3.456-4.672-2.304-8.352-5.536-11.04-9.696-2.624-4.16-3.936-8.864-3.936-14.112 0-5.248 1.312-9.92 3.936-14.016 2.688-4.16 6.368-7.392 11.04-9.696 4.736-2.304 10.08-3.456 16.032-3.456 6.4 0 11.872 1.376 16.416 4.128 4.544 2.752 7.68 6.56 9.408 11.424l-16.8 8.256c-2.048-4.608-5.088-6.912-9.12-6.912-2.56 0-4.704.896-6.432 2.688-1.664 1.792-2.496 4.32-2.496 7.584 0 3.328.832 5.888 2.496 7.68 1.728 1.792 3.872 2.688 6.432 2.688 4.032 0 7.072-2.304 9.12-6.912l16.8 8.256c-1.728 4.864-4.864 8.672-9.408 11.424-4.544 2.752-10.016 4.128-16.416 4.128zm55.99-17.088l-3.456 3.744v12.384H502.45V47.497h21.696v33.984l15.072-15.264h25.632l-21.696 22.752 23.424 29.76H540.37l-12.768-16.128z" fill="#fff"/></g><path d="M362.016 334.665H145.965c-2.614 0-4.792-2.178-4.792-4.792V204.57c0-2.614 2.178-4.792 4.792-4.792h216.196c2.613 0 4.791 2.178 4.791 4.792v125.303c0 2.614-2.178 4.792-4.936 4.792z" fill="#969696"/><path d="M279.549 352.232c-.871-2.177-1.162-4.501-1.162-6.824v-10.744h-47.188v10.744c0 2.323-.291 4.647-1.162 6.824-1.161 3.05-3.339 6.389-7.26 6.389h64.032c-3.921-.145-6.099-3.485-7.26-6.389z" fill="#9B9B9B"/><path d="M645.588 372.997h-536.7c-1.378 0-2.412-1.307-2.412-3.05v-8.421c0-1.742 1.034-3.049 2.412-3.049h536.7c1.378 0 2.412 1.307 2.412 3.049v8.421c0 1.743-1.034 3.05-2.412 3.05z" fill="#FFC107"/><path d="M166.584 372.996h-15.536v182.037l15.536-1.262V372.996zm424.986 0h-15.536l-.483 179 11.328 3.037 4.691-182.037z" fill="#211F1D"/><path d="M362.016 313.176H145.965c-2.614 0-4.792-2.178-4.792-4.792V183.081c0-2.614 2.178-4.792 4.792-4.792h216.196c2.613 0 4.791 2.178 4.791 4.792v125.158a4.896 4.896 0 0 1-4.936 4.937z" fill="#615E5E"/><path d="M358.534 185.549H149.888v118.624h208.646V185.549z" fill="#FAFAFA"/><path d="M599.119 334.665H383.068c-2.613 0-4.791-2.178-4.791-4.792V204.57c0-2.614 2.178-4.792 4.791-4.792h216.196c2.614 0 4.792 2.178 4.792 4.792v125.303c0 2.614-2.178 4.792-4.937 4.792z" fill="#969696"/><path d="M516.652 352.232c-.871-2.177-1.162-4.501-1.162-6.824v-10.744h-47.188v10.744c0 2.323-.291 4.647-1.162 6.824-1.161 3.05-3.339 6.389-7.26 6.389h64.032c-4.066-.145-6.099-3.485-7.26-6.389z" fill="#9B9B9B"/><path d="M599.119 313.176H383.068c-2.613 0-4.791-2.178-4.791-4.792V183.081c0-2.614 2.178-4.792 4.791-4.792h216.196c2.614 0 4.792 2.178 4.792 4.792v125.158a4.896 4.896 0 0 1-4.937 4.937z" fill="#615E5E"/><path d="M595.494 185.549H386.848v118.624h208.646V185.549z" fill="#A2CAE3"/><path d="M553.24 289.217H432.437a9.109 9.109 0 0 1-9.147-9.147v-71.436a9.109 9.109 0 0 1 9.147-9.147H553.24a9.109 9.109 0 0 1 9.147 9.147v71.436a9.109 9.109 0 0 1-9.147 9.147z" fill="#FAFAFA"/><path d="M496.469 236.22h-23.957v5.227h23.957v-5.227zm50.38 23.23h-40.8v5.227h40.8v-5.227zm-.145 11.762h-20.327v5.227h20.327v-5.227zm-50.816-11.762h-23.376v5.227h23.376v-5.227zm10.164-11.614h-33.54v5.227h33.54v-5.227zm-19.747 23.376h-13.793v5.227h13.793v-5.227zm9.44 5.227h21.198v-5.227h-21.198v5.227zm41.089-28.603h-19.892v5.227h19.892v-5.227zm-10.458-11.616h-20.327v5.227h20.327v-5.227zm-76.515-27.007h-7.695v5.227h7.695v-5.227zm12.632 0h-7.696v5.227h7.696v-5.227zm12.488 0h-7.696v5.227h7.696v-5.227zm-23.378 27.007h-9.437v5.227h9.437v-5.227zm0 11.616h-9.437v5.227h9.437v-5.227zm0 11.614h-9.437v5.227h9.437v-5.227zm0 11.762h-9.437v5.227h9.437v-5.227z" fill="#A2CAE3"/><path d="M269.238 282.249c.146.145.436 0 .581-.145l3.92-3.92 2.904 5.662c.145.146.291.291.436.291h.29l2.323-1.307c.146 0 .291-.145.291-.29v-.436l-2.759-5.227h5.227c.291 0 .436-.145.581-.436.145-.29 0-.435-.145-.58l-13.213-12.052c-.145-.145-.436-.145-.581-.145-.145.145-.29.291-.29.581v17.569c0 .145.145.29.435.435z" fill="#000"/><path d="M202.739 211.249h-32.814v16.698h32.814v-16.698zm97.574 0h-89.44v16.698h89.44v-16.698zm-.002 24.974H169.925v4.792h130.386v-4.792zm0 12.923H169.925v4.792h130.386v-4.792zm-62.725 13.066h-67.661v4.792h67.661v-4.792zm0 12.923h-67.661v4.792h67.661v-4.792z" fill="#A2CAE3"/><path d="M432.22 352.09l-119.351 7.695c-10.309.726-19.166-7.115-19.747-17.424-.726-10.308 7.115-19.165 17.424-19.746l119.35-7.696c6.244-.435 11.616 4.356 12.052 10.6l.871 14.519c.435 6.244-4.211 11.616-10.599 12.052z" fill="#FBC39D"/><path d="M356.138 281.233l-59.094 41.526c-7.841 5.517-9.873 16.262-4.646 24.247 3.92 6.099 11.325 9.148 18.44 7.696 25.99-5.227 85.81-17.424 85.229-19.456-.435-1.598-7.114-25.264-12.487-44.285-3.484-11.761-17.423-16.843-27.442-9.728z" fill="#000"/><path d="M396.215 352.09l119.351 7.695c10.309.726 19.166-7.115 19.746-17.424.726-10.308-7.114-19.165-17.423-19.746l-119.351-7.696c-6.243-.435-11.615 4.356-12.051 10.6l-.871 14.519c-.436 6.244 4.356 11.616 10.599 12.052z" fill="#FBC39D"/><path d="M472.443 281.233l59.094 41.526c7.841 5.517 9.874 16.262 4.646 24.247-3.92 6.099-11.325 9.148-18.439 7.696-25.99-5.227-85.811-17.424-85.23-19.456.436-1.598 7.115-25.264 12.487-44.285 3.339-11.761 17.278-16.843 27.442-9.728z" fill="#000"/><path d="M368.046 205.007c-6.388 0-11.615 5.372-11.615 12.051s5.227 12.052 11.615 12.052c6.389 0 11.616-5.373 11.616-12.052-.145-6.679-5.227-12.051-11.616-12.051zm87.408 0c-6.388 0-11.615 5.372-11.615 12.051s5.227 12.052 11.615 12.052c6.389 0 11.616-5.373 11.616-12.052-.145-6.679-5.227-12.051-11.616-12.051z" fill="#F9AC7F"/><path d="M408.123 281.38c1.162.145 2.323.29 3.63.29 3.63 0 7.26-.436 10.744-1.307v-.145c18.876-4.937 32.96-22.796 32.96-43.994v-53.142c0-25.119-19.602-21.053-43.559-21.053-24.102 0-43.559-3.92-43.559 21.053v53.142c-.29 23.812 17.279 43.268 39.784 45.156z" fill="#FBC39D"/><path d="M446.452 218.799v14.375h-15.536s-3.775-10.309-19.311-10.309-19.311 10.309-19.311 10.309h-15.536v-14.375c0-5.662-5.227-7.55-8.857-8.131v25.555c0 23.812 17.569 43.268 40.074 45.155l-.145.146c1.162.145 2.468.145 3.63.145s2.468 0 3.63-.145l-.145-.146c22.36-1.887 40.074-21.343 40.074-45.155v-25.555c-3.34.581-8.567 2.469-8.567 8.131z" fill="#B28204"/><path d="M443.693 144.605c-11.906-1.743-30.491-1.888-44.139 9.292l-.871.871h-10.745c-11.035 0-20.037 7.841-20.037 17.424v60.111c2.033 0 3.63-1.743 3.63-3.775V189.76s.726-12.341 11.906-12.341h54.594c11.906 0 13.358 10.744 13.503 12.196v38.767c0 2.178 1.597 3.775 3.63 3.775v-59.094l.145-15.1c.145-6.679-4.791-12.487-11.616-13.358z" fill="#B28204"/><path d="M454.729 170.884H370.37v73.033h84.359v-73.033z" fill="#B38204"/><path d="M435.416 509.626h-47.624c-33.25 0-60.256-29.184-60.256-65.047l15.1-130.241c5.227-34.701 37.315-57.062 69.984-57.062 32.96 0 65.338 22.796 70.13 58.079l13.212 129.224c-.29 35.863-27.296 65.047-60.546 65.047z" fill="#F16A51"/><path d="M423.141 553.954l-18.35-5.394-8.145-2.158V369.894c0-2.471 1.742-4.447 3.92-4.447h22.36c2.178 0 3.92 1.976 3.92 4.447l-.293 185.139-3.412-1.079z" fill="#211F1D"/><path d="M430.479 381.564h-38.767a7.5 7.5 0 0 1-7.55-7.55v-17.133a7.5 7.5 0 0 1 7.55-7.551h38.767a7.5 7.5 0 0 1 7.551 7.551v17.133c.145 4.21-3.34 7.55-7.551 7.55z" fill="#211F1D"/></g><defs><clipPath id="clip0"><path fill="#fff" d="M0 0h648v427H0z"/></clipPath><clipPath id="clip1"><path fill="#fff" d="M0 0h648v427H0z"/></clipPath></defs></svg>