<svg contentScriptType="text/ecmascript" height="15" viewBox="0 0 1536 2048" width="15" xmlns="http://www.w3.org/2000/svg"><path d="M1284 862c0-18.667-6-34-18-46l-91-90c-12.667-12.667-27.667-19-45-19s-32.333 6.333-45 19l-408 407-226-226c-12.667-12.667-27.667-19-45-19s-32.333 6.333-45 19l-91 90c-12 12-18 27.333-18 46 0 18 6 33 18 45l362 362c12.667 12.667 27.667 19 45 19 18 0 33.333-6.333 46-19l543-543c12-12 18-27 18-45zm252 162c0 139.333-34.333 267.833-103 385.5s-161.833 210.833-279.5 279.5-246.167 103-385.5 103-267.833-34.333-385.5-103-210.833-161.833-279.5-279.5S0 1163.333 0 1024s34.333-267.833 103-385.5S264.833 427.667 382.5 359 628.667 256 768 256s267.833 34.333 385.5 103 210.833 161.833 279.5 279.5 103 246.167 103 385.5z" fill="#1d55c4"/></svg>