<svg width="648" height="427" viewBox="0 0 648 427" fill="none" xmlns="http://www.w3.org/2000/svg"><path fill="#fff" d="M0 0h648v427H0z"/><path fill="#332E2F" d="M0 0h648v427H0z"/><path d="M73.484 136.016c-6.888 0-13.146-1.092-18.774-3.276-5.544-2.268-10.122-5.544-13.734-9.828l16.002-18.9c2.352 2.94 4.662 5.124 6.93 6.552s4.62 2.142 7.056 2.142c3.108 0 5.46-.924 7.056-2.772 1.68-1.848 2.52-4.578 2.52-8.19V68.228H50.552V45.8h59.346v54.18c0 12.012-3.108 21.042-9.324 27.09-6.132 5.964-15.162 8.946-27.09 8.946zm80.038-72.198c12.096 0 21.336 2.73 27.72 8.19 6.384 5.376 9.576 13.692 9.576 24.948V134h-26.46v-9.072c-3.276 6.888-9.786 10.332-19.53 10.332-5.46 0-10.122-.924-13.986-2.772-3.78-1.932-6.678-4.494-8.694-7.686-1.932-3.276-2.898-6.93-2.898-10.962 0-6.804 2.604-11.97 7.812-15.498 5.208-3.528 13.104-5.292 23.688-5.292h11.466c-.924-5.376-5.25-8.064-12.978-8.064-3.108 0-6.258.504-9.45 1.512-3.192.924-5.922 2.226-8.19 3.906l-9.072-18.774c3.948-2.436 8.694-4.326 14.238-5.67 5.628-1.428 11.214-2.142 16.758-2.142zm-.126 54.306c2.016 0 3.822-.546 5.418-1.638 1.596-1.092 2.772-2.73 3.528-4.914v-4.788h-7.056c-5.796 0-8.694 1.932-8.694 5.796 0 1.596.588 2.94 1.764 4.032 1.26 1.008 2.94 1.512 5.04 1.512zm125.232-53.046L250.908 134h-29.484l-27.72-68.922h29.232l13.86 36.918 14.868-36.918h26.964zm32.763-1.26c12.096 0 21.336 2.73 27.72 8.19 6.384 5.376 9.576 13.692 9.576 24.948V134h-26.46v-9.072c-3.276 6.888-9.786 10.332-19.53 10.332-5.46 0-10.122-.924-13.986-2.772-3.78-1.932-6.678-4.494-8.694-7.686-1.932-3.276-2.898-6.93-2.898-10.962 0-6.804 2.604-11.97 7.812-15.498 5.208-3.528 13.104-5.292 23.688-5.292h11.466c-.924-5.376-5.25-8.064-12.978-8.064-3.108 0-6.258.504-9.45 1.512-3.192.924-5.922 2.226-8.19 3.906l-9.072-18.774c3.948-2.436 8.694-4.326 14.238-5.67 5.628-1.428 11.214-2.142 16.758-2.142zm-.126 54.306c2.016 0 3.822-.546 5.418-1.638 1.596-1.092 2.772-2.73 3.528-4.914v-4.788h-7.056c-5.796 0-8.694 1.932-8.694 5.796 0 1.596.588 2.94 1.764 4.032 1.26 1.008 2.94 1.512 5.04 1.512z" fill="#fff"/><path d="M584.09 360.636c-1.087 27.168-58.956 48.767-129.459 48.496-70.503-.272-126.742-22.55-125.791-49.719 1.086-27.169 58.956-48.768 129.459-48.496 70.502.407 126.878 22.686 125.791 49.719z" fill="#A2B2B2"/><path d="M582.46 358.326c-.951 26.49-58.277 47.681-127.965 47.274-69.688-.272-125.384-22.007-124.433-48.496.951-26.49 58.277-47.682 127.965-47.274 69.824.272 125.384 22.007 124.433 48.496z" fill="#fff"/><path opacity=".4" d="M536.273 349.768c-.679 16.437-36.134 29.478-79.197 29.342-43.198-.271-77.567-13.72-77.023-30.021.679-16.437 36.134-29.478 79.197-29.342 43.198.135 77.702 13.584 77.023 30.021z" fill="#404041"/><path d="M389.426 296.789c-.815-.679-1.766-1.223-2.717-1.63-1.63-.679-3.939-1.494-5.841-1.63-3.396-.408-6.792-.815-10.188-1.359a194.709 194.709 0 0 1-21.871-4.483c-12.634-3.396-36.95-10.052-42.248-20.919-4.618-9.102 3.125-20.92 16.573-18.339 6.928 1.358 12.634 7.471 19.698 9.237 25.402 6.656 9.509-23.365-.544-28.935-9.373-5.298-22.55-5.433-33.417-2.717-28.12 7.064-32.331 29.886-24.18 46.867 7.743 16.301 27.304 26.082 46.594 32.466 9.237 2.989 19.018 5.162 28.799 6.657 10.052 1.494 20.376 3.26 29.342-1.495 6.249-3.668 6.113-10.324 0-13.72z" fill="#DDDDDC"/><path d="M336.99 284.291c.951 2.853 1.087 5.842.136 8.694-.407 1.223-1.086 2.31-1.902 3.125-2.988 1.902-7.063 2.988-11.41 3.26-4.483-.272-9.374-1.494-13.856-2.853 6.656 3.532 13.991 6.385 21.191 8.83 9.102 2.989 18.611 5.026 28.256 6.521 1.086-7.472-4.076-16.302-7.879-22.143-.272-.543-.68-1.087-1.087-1.63a35.669 35.669 0 0 0-1.766-.408c-3.124-.95-7.336-2.037-11.683-3.396z" fill="#C8D8D8"/><path opacity=".5" d="M310.637 271.794c-1.766-1.63-3.261-3.261-4.076-5.027-4.618-9.101 3.125-20.919 16.573-18.338 6.928 1.358 12.634 7.471 19.698 9.237 1.901.543 7.471 2.038 9.237.543 1.63-1.358-.543-3.939-.815-5.569-1.358-6.249-2.717-11.683-5.705-17.796-2.038-4.211-4.755-13.584-12.362-13.312-5.842.135-6.792 6.792-7.064 10.188-.272 3.803.951 6.52-4.755 8.015-3.396.951-7.064.271-10.46 1.358-6.792 2.174-11.003 7.607-11.818 13.313-.815 6.384 4.211 14.399 11.547 17.388z" fill="#A4BABA"/><path d="M585.041 216.641c-2.717-8.83-11.683-17.524-19.154-22.414-12.905-8.286-28.663-11.683-43.47-14.807-32.874-6.928-66.835-8.422-100.253-5.026-25.81 2.581-55.424 5.841-76.48 22.55-9.373 7.471-15.078 18.203-16.708 29.885-.951 6.793.407 13.857 2.037 20.377 2.174 8.83 4.619 17.796 6.657 26.625 8.014 33.961 22.006 66.971 60.178 86.125 35.727 17.796 81.642 17.252 117.641.544 15.35-7.064 28.799-16.573 37.9-28.799 8.287-11.139 14.128-23.094 19.29-35.184 10.188-24.587 20.513-53.93 12.362-79.876z" fill="#DDDDDC"/><path opacity=".3" d="M574.309 292.578c2.853-6.928 5.57-14.264 7.879-21.735-129.051 72.404-225.772 11.954-246.013-2.581.408 1.902.951 3.803 1.359 5.705a324.986 324.986 0 0 0 4.075 15.486c27.984 18.068 116.554 63.983 232.7 3.125zm-254.435-61.537c-13.177-3.125-27.033 4.89-31.244 14.671-2.581 5.977-3.124 12.09-1.766 18.339 1.087 5.162 4.619 11.954 10.053 15.078 2.037 1.223 4.754-.407 4.754-2.173.136-4.076-3.803-8.015-5.434-11.819-2.173-5.162-1.63-10.731.272-15.893 1.902-5.027 6.249-8.83 12.226-10.868 4.211-1.494 8.422-2.173 11.954-4.619 1.223-.815.544-2.309-.815-2.716z" fill="#fff"/><path opacity=".2" d="M520.515 265.952s42.248-6.656 61.537-26.489c0 0-13.448 118.456-109.354 125.519 0 .136 35.591-25.402 47.817-99.03z" fill="#fff"/><path d="M339.299 224.928c.408 1.086 7.743-5.977 8.287-6.928 1.902-4.076 4.075-4.483 10.052-7.608 6.521-3.396 15.758-5.569 24.588-7.199 20.105-3.532 42.112-8.151 63.439-8.694 24.724-.544 48.36.407 72.133 4.211 12.769 2.038 24.995 5.026 36.406 8.422 5.434 1.63 10.46 3.668 14.671 5.977 4.076 2.31 4.347 4.891 4.619 7.743.136 1.902 6.792 5.162 8.694 2.989 0 0 17.252-43.878-118.863-43.878-137.61 0-125.927 41.704-124.026 44.965z" fill="#CCCBCB"/><path d="M575.939 219.766c-6.928 14.807-36.135 21.327-53.93 29.206-.543.272-.815.679-.815.951 5.705-1.223 11.275-2.581 16.709-4.347 14.535-4.483 29.478-9.781 38.579-17.66 9.102-7.879 6.657-15.214-1.222-21.463 2.309 4.347 2.852 8.83.679 13.313z" fill="#878F8C"/><path d="M582.324 220.309c0 19.697-54.201 35.591-121.036 35.591-66.835 0-121.037-16.03-121.037-35.591 0-19.697 54.202-35.591 121.037-35.591 66.835-.136 121.036 15.894 121.036 35.591z" fill="#AA784B"/><path d="M358.893 198.435c9.066-4.263 19.891-7.46 29.499-9.325 21.379-3.996 44.789-5.861 67.116-5.994 28.281-.266 55.073 1.332 81.865 5.861 20.162 3.33 43.572 10.79 47.36 24.111 3.654 13.054-11.231 22.645-28.686 29.439-31.529 12.122-73.882 16.651-111.094 14.919-20.973-.932-41.812-3.863-60.215-9.857-14.749-4.796-30.04-10.524-39.376-18.916-13.126-11.855-2.707-22.645 13.531-30.238z" fill="#AA784B"/><path d="M458.163 246.663c-4.89 0-9.781-.136-14.671-.272-22.142-1.087-41.84-4.483-58.277-10.188-13.448-4.619-28.255-10.46-36.406-18.339-1.902-1.766-2.445-2.989-2.581-3.396.543-1.495 3.804-5.842 14.128-11.004 7.879-3.939 17.931-7.335 27.712-9.237 19.561-3.939 42.383-6.113 66.02-6.249h5.298c27.712 0 52.435 2.038 75.529 6.113 27.305 4.89 39.123 13.72 40.481 18.611.951 3.803-5.841 11.139-23.229 18.339-24.723 9.916-58.956 15.622-94.004 15.622z" fill="#C28F5F"/><path d="M457.756 249.515c-5.434 0-10.868-.135-16.301-.407-24.452-1.494-47.682-2.989-65.885-11.003-11.546-5.163-25.674-5.842-32.738-23.094 1.766-1.494 3.939-3.124 6.792-5.026 8.423-5.298 19.154-9.917 29.614-12.498 21.735-5.569 47.138-8.558 73.492-8.83h5.841c30.972 0 58.549 2.853 84.359 8.694 21.327 4.891 32.466 12.091 37.221 16.573-2.989 3.261-7.471 11.819-17.931 17.252-26.49 13.992-65.613 18.339-104.464 18.339z" fill="url(#paint0_radial)"/><path d="M455.446 254.813c-5.433 0-10.867-.136-16.165-.543-24.18-1.766-45.236-7.879-64.118-15.079-7.336-2.852-10.868-4.483-15.894-7.335-3.94-2.31-13.041-8.151-10.324-14.943 1.494-3.94 17.524-9.781 22.414-11.139 19.969-5.706 38.58-9.645 58.277-11.139 7.064-.544 13.992-.816 21.056-.951h5.841c25.539 0 51.213 2.309 76.208 8.286 6.793 1.63 13.449 3.125 20.105 5.298 4.076 1.358 18.475 4.755 17.388 11.818-.815 5.162-6.249 8.694-9.645 10.732-26.625 16.437-66.699 24.995-105.143 24.995z" fill="#131416"/><path d="M363.48 199.253s-13.177 4.891-18.746 11.004l.951.95c-.136 0 12.226-9.78 17.795-11.954zm202.407 3.125s5.841 2.852 8.966 5.569l-.272.679-8.694-6.248z" fill="#B18661"/><path d="M459.385 177.111c-69.008 0-125.112 17.388-125.112 38.987 0 27.304 55.968 42.247 125.112 42.247 69.009 0 125.113-9.237 125.113-42.247-.136-21.599-56.104-38.987-125.113-38.987zm0 69.687c-63.303 0-114.516-14.806-114.516-33.145 0-18.339 51.213-33.146 114.516-33.146 63.304 0 114.517 14.807 114.517 33.146 0 18.203-51.213 33.145-114.517 33.145z" fill="#DDDDDC"/><path opacity=".5" d="M441.047 250.059c0 .271-.136.543-.408.815-2.037 3.396-13.72.679-16.844.407-11.683-1.358-23.365-2.717-34.912-5.162-5.841-1.222-11.683-2.717-17.252-4.483-22.279-6.928-35.184-16.301-35.184-25.538 0-7.607 8.558-15.215 23.909-21.599-11.547 5.569-17.796 12.09-17.796 19.018 0 9.916 12.498 18.882 35.048 25.403 17.66 5.162 35.999 7.471 54.337 8.829 1.631.136 9.645 0 9.102 2.31z" fill="#fff"/><path opacity=".2" d="M556.242 217.864c0 9.781-30.157 17.659-67.378 17.659-37.221 0-21.192-15.893-12.77-17.659 45.236-9.645-24.451-17.66 12.77-17.66 37.221 0 67.378 11.683 67.378 17.66z" fill="#fff"/><path opacity=".5" d="M501.497 247.07s-10.188.815-12.225 2.853c-2.174 2.038 7.063 4.483 27.032.679 19.969-3.804 42.791-10.596 48.089-17.116 5.162-6.521-3.804-1.63-15.486 3.26-11.954 4.755-47.41 10.324-47.41 10.324z" fill="#fff"/><g opacity=".5" fill="#fff"><path opacity=".5" d="M419.583 16s41.976 29.07 22.686 64.39c-19.29 35.455 0 67.922 0 67.922-2.853-5.162-2.038-15.486-1.766-20.92.543-13.313 3.124-26.626 8.966-38.852 3.939-8.15 9.645-15.757 10.595-24.859 1.495-15.486-11.682-27.304-23.501-35.998A412.591 412.591 0 0 0 419.583 16zm45.236 24.452s18.339 18.339 5.977 36.27c-12.498 17.931-1.494 36.27-1.494 36.27-1.223-2.988-.136-8.422.271-11.41 1.087-7.064 3.261-14.128 7.064-20.377 2.581-4.075 6.113-7.879 7.2-12.77 1.766-8.286-4.619-15.35-10.596-20.783-2.717-2.31-5.434-4.755-8.422-7.2z"/><path opacity=".5" d="M461.831 79.439s-18.203 41.976-3.94 67.379c13.449 24.18-2.037 38.443-2.037 38.443s24.316-10.731 11.139-37.628c-16.437-33.146-5.162-68.194-5.162-68.194z"/></g><path opacity=".7" d="M445.258 150.757s13.584 10.867 4.347 21.599c-9.238 10.596-1.087 21.599-1.087 21.599-.951-1.766-.136-5.026.272-6.792.815-4.211 2.445-8.422 5.298-12.09 1.901-2.445 4.482-4.755 5.298-7.607 1.222-4.891-3.397-9.102-7.744-12.362-2.173-1.494-4.211-2.989-6.384-4.347z" fill="#fff"/><path d="M179.72 263.695v3.368h-76.372c-9.131-.001-16.534 7.402-16.533 16.533v69.413c0 9.131-7.404 16.534-16.537 16.533h-1.74C59.404 369.543 52 362.14 52 353.009v-108.36c0-9.133 7.405-16.535 16.537-16.533h37.098c4.643 0 9.072 1.952 12.206 5.378l11.26 12.32a4.136 4.136 0 0 0 3.053 1.346h31.029c9.132-.001 16.537 7.402 16.537 16.535z" fill="#E9B78A"/><path d="M200 283.596v69.413c0 9.131-7.405 16.534-16.537 16.533H70.278c9.133.001 16.537-7.402 16.537-16.533v-69.413c-.001-9.131 7.402-16.534 16.533-16.533h80.115c9.132-.001 16.537 7.4 16.537 16.533z" fill="#AA784B"/><path d="M115.601 334.792a2.727 2.727 0 0 1-1.769-4.801l15.202-12.947-15.202-12.946a2.727 2.727 0 0 1 3.536-4.152l17.639 15.022a2.727 2.727 0 0 1 0 4.152l-17.639 15.022c-.493.42-1.12.652-1.767.65zm55.613 2.516h-35.053a2.725 2.725 0 1 1 0-5.452h35.053a2.725 2.725 0 1 1 0 5.452z" fill="#424345"/><defs><radialGradient id="paint0_radial" cx="0" cy="0" r="1" gradientUnits="userSpaceOnUse" gradientTransform="matrix(129.627 0 0 33.6846 463.068 218.671)"><stop offset=".267" stop-color="#131416"/><stop offset=".451" stop-color="#151617"/><stop offset=".552" stop-color="#1D1B1A"/><stop offset=".633" stop-color="#2B2520"/><stop offset=".703" stop-color="#3F3328"/><stop offset=".766" stop-color="#584433"/><stop offset=".825" stop-color="#775A40"/><stop offset=".878" stop-color="#9B744F"/><stop offset=".925" stop-color="#C28F5F"/></radialGradient></defs></svg>