<svg version="1.1" id="Layer_1" xmlns="http://www.w3.org/2000/svg" x="0" y="0" viewBox="-4 52 30 20" xml:space="preserve"><style>.st0{fill:#1b7fd0}.st1{display:none}.st2{fill:#1d9000}.st2,.st4,.st5{display:inline}.st4{fill:#fff}.st5{fill:#fefefe}</style><g id="Layer_7"><path id="XMLID_62_" class="st0" d="M11 62.6L-2 52h26z"/><path id="XMLID_61_" class="st0" d="M6.5 61.7L-4 70.8V53.1z"/><path id="XMLID_60_" class="st0" d="M8.2 63.1l2.8 2.3 2.9-2.4 10.3 9H-2.1z"/><path id="XMLID_59_" class="st0" d="M15.6 61.6L26 53.1v17.6z"/></g><g id="Layer_5" class="st1"><circle id="XMLID_17_" class="st2" cx="-271" cy="472.9" r="17.5"/></g><g id="Layer_2" class="st1"><circle id="XMLID_20_" class="st2" cx="-271" cy="472.9" r="20"/><path id="XMLID_18_" d="M-257.9 457.8c3 3.5 4.9 8.1 4.9 13.1 0 11-9 20-20 20-5 0-9.6-1.9-13.1-4.9 3.7 4.2 9.1 6.9 15.1 6.9 11 0 20-9 20-20 0-6-2.7-11.4-6.9-15.1z" display="inline" fill="#86c724"/><path id="XMLID_94_" class="st4" d="M241.5 1129.9c-.1.2-.1.3-.1.5-2.4 9.5-2.7 11.6-5.2 16-1.2 2.1-2.5 4.1-4 6-.2.2-.3.5-.7.4s-.4-.4-.4-.7c-.4-2.9-.6-5.8-.5-8.7.1-3.8.6-5.1 5.5-25.7.1-.3 0-.6-.1-.9-1.2-3.2-1.4-6.4-.4-9.6 2.2-7 10.2-7.6 11.6-1.8.9 3.6-1.4 8.3-3.1 15.2-1.4 5.7 5.3 9.8 11 5.6 5.3-3.8 7.4-13.1 7-19.6-.8-13-15.1-15.8-24.1-11.6-10.4 4.8-12.7 17.7-8.1 23.6.6.7 1.1 1.2.9 2-.3 1.2-.6 2.4-.9 3.5-.2.9-1 1.2-1.9.8-1.7-.7-3.2-1.8-4.3-3.2-4-4.9-5.1-14.7.1-22.9 5.8-9.2 16.7-12.9 26.6-11.7 11.8 1.3 19.3 9.4 20.7 18.6.6 4.2.2 14.5-5.7 21.8-6.7 8.4-17.7 8.9-22.7 3.8-.5-.5-.8-1-1.2-1.4z"/></g><g id="Layer_6" class="st1"><path id="XMLID_16_" class="st4" d="M-272.5 476.4c0 .1 0 .1-.1.2-.8 3.3-.9 4-1.8 5.6-.4.7-.9 1.4-1.4 2.1-.1.1-.1.2-.2.1-.1 0-.1-.1-.2-.2-.1-1-.2-2-.2-3 0-1.3.2-1.8 1.9-8.9v-.3c-.4-1.1-.5-2.2-.1-3.4.8-2.4 3.5-2.6 4-.6.3 1.2-.5 2.9-1.1 5.3-.5 2 1.8 3.4 3.8 2 1.8-1.3 2.6-4.6 2.4-6.8-.3-4.5-5.2-5.5-8.4-4.1-3.6 1.7-4.4 6.2-2.8 8.2.2.3.4.4.3.7l-.3 1.2c-.1.3-.3.4-.6.3-.6-.2-1.1-.6-1.5-1.1-1.4-1.7-1.8-5.1.1-8 2-3.2 5.8-4.5 9.3-4.1 4.1.5 6.7 3.3 7.2 6.5.2 1.5.1 5-2 7.6-2.4 2.9-6.2 3.1-7.9 1.3-.1-.3-.2-.4-.4-.6z"/></g><g id="Layer_4" class="st1"><path id="XMLID_3_" class="st5" d="M-259.7 467c-.8.4-1.7.6-2.6.7 1-.6 1.7-1.5 2-2.5-.9.5-1.9.9-2.9 1.1-.8-.9-2-1.4-3.4-1.4-2.5 0-4.6 2-4.6 4.5 0 .4 0 .7.1 1-3.8-.2-7.2-2-9.5-4.8-.4.7-.6 1.5-.6 2.3 0 1.6.8 3 2.1 3.8-.8 0-1.5-.2-2.1-.6v.1c0 .6.1 1.1.3 1.7.6 1.4 1.8 2.5 3.4 2.8-.4.1-.8.2-1.2.2-.3 0-.6 0-.9-.1.6 1.8 2.3 3.1 4.3 3.2-1.6 1.2-3.6 2-5.7 2-.4 0-.7 0-1.1-.1 2 1.3 4.5 2 7.1 2 7.2 0 11.7-5 12.8-10.2.2-.9.3-1.8.3-2.8v-.6c.8-.6 1.5-1.4 2.2-2.3z"/></g><g id="Layer_3" class="st1"><path id="XMLID_1_" class="st5" d="M-269.4 468.5v-1.8c0-.9.6-1.1 1-1.1h2.5v-3.8h-3.4c-3.8 0-4.6 2.8-4.6 4.6v2h-2.2v4.4h2.2v11h4.4v-11h3.3l.2-1.7.2-2.7-3.6.1z"/></g></svg>