<svg version="1.0" xmlns="http://www.w3.org/2000/svg" width="685.333" height="568" viewBox="0 0 514 426"><path d="M0 161c0 125.9.3 160.9 1.2 160.8.7-.2 2 1.3 3 3.2l1.8 3.5 6.2-.3c3.5-.2 6.9-.9 7.7-1.5 1-.9 2.4 0 6.3 4.1 2.7 2.9 5.2 5.2 5.5 5.2.4 0 1.4.7 2.4 1.6 1.6 1.4 2.1 1.5 4.8.1 2.6-1.3 3.2-1.3 4.2-.1.6.8 1.5 1.2 1.9.9.5-.3 1.2.4 1.5 1.6.4 1.1 1.6 3 2.6 4 1.4 1.4 1.7 2.4 1.1 3.7-.5.9-.7 2.2-.5 2.9.2.6-.4 1.3-1.4 1.6-1.6.4-1.6.5.2.6 1.1.1 3.4 1.2 5 2.6 2.2 1.8 2.5 2.3 1 1.9-1.5-.4-1.7-.4-.6.4.8.6 2 .8 2.8.5.7-.3 1.3 0 1.3.7s.9 1 2.3.7c1.2-.2 3.3-.1 4.7.4 2.1.7 1.9.8-1 .4s-3.2-.3-1.7.6c1.1.6 3.1.9 4.5.6 1.6-.3 3.5.1 4.7.9 1.9 1.5 1.8 1.5-1 .9-1.6-.3-.3.5 3 1.9 6.3 2.7 7.9 3.1 7.1 1.8-.7-1.1-.7-14.5-.3-44.2.2-12.9 0-25.9-.5-28.7-.6-3.5-.5-7.4.3-11.5 1.3-7.3 1.4-42.9.1-50.4-.5-2.9-.5-7.6-.1-10.5 1.1-8 1-37.3-.1-46.6-.7-5.3-.7-10.4-.1-14.5.5-3.5.6-9.8.2-14-.3-4.3-.3-12.1.1-17.4.4-5.9.2-11.8-.4-15.3-1.1-5.8-1.3-9.1-1-17.6.1-2.8-.1-8.5-.4-12.8-.4-4.6-.2-10.8.5-15.3.7-4.1 1.2-10.1 1.1-13.2-.3-7.2-.2-16.2.1-18.2.1-.8.1-9.5.1-19.3L80 0h-9c-6.5 0-9 .3-9.1 1.2-.1.7 0 3 .1 5 .1 2.2-.3 3.8-.9 3.8-1.1 0-1.4-1.1-1.5-6.5l-.1-3L29.8.2 0 0v161zM60.5 14.9c-.9 4.2-4.4 7.1-7.2 6-1.3-.4-2.3-1.6-2.3-2.6.1-2.7 3.3-8.8 4.7-8.8.6 0 1.5-.3 1.9-.7 1.4-1.4 3.6 3.1 2.9 6.1zm-4 19.2c.4.6.4 3 .1 5.4-.8 4.7-2.4 5.8-6.3 4.2-4.6-2-4-7.7 1-9.4 4.4-1.4 4.5-1.4 5.2-.2zM52 69.4c0 3.2-2.3 8.7-4 9.6-3.5 1.9-4.8 1.2-5.2-2.8-.5-3.9 2.6-11.7 4.3-10.6.5.3.9 0 .9-.7s.9-.2 2 1.1 2 2.8 2 3.4zM43.5 93c.4 1.1 1.1 1.8 1.6 1.4.7-.4.9.7.7 2.7-.3 3.5-3.7 6.2-6.4 5.2-2-.8-1.7-7.3.4-9.4 2.2-2.3 2.9-2.3 3.7.1zm-4.3 33.7c.3 2.2 0 4.1-.6 4.5-.6.5-.7.8-.1.8 2 .1-2.1 2-4.2 2-2.7 0-3.6-1.4-2.8-4 .4-1.3 1.5-2 3.1-2 1.9 0 2.4-.5 2.4-2.5 0-3.9 1.7-2.9 2.2 1.2zM52 132c0 .5-.4 1-1 1-.5 0-1-.5-1-1 0-.6.5-1 1-1 .6 0 1 .4 1 1zm-16.3 4.1c-.8.5-2.2.6-3.1.3-2.7-1.1-1.7-2.1 1.5-1.6 2.4.4 2.8.7 1.6 1.3zm-2 15.7c1.6 1.6 1.7 7.2.1 7.2-.6 0-.8.3-.5.7.8.7-3.4 3.9-4.5 3.5-.5-.1-.8 2-.8 4.6 0 2.7-.7 9.9-1.5 16.2-.8 6.2-1.5 15.6-1.5 20.9-.1 14.3-4.4 40.2-6.5 39.1-.6-.3-.9-1.2-.8-2 .2-.8.5-5.1.8-9.5.3-4.4 1-8.2 1.5-8.3 1.5-.5 1.2-1.6-1-4.2-2.4-2.8-2.5-5.7-.4-13 .8-3 1.6-6.2 1.6-7 .1-3 3.9-28.5 4.5-30 1.1-2.7 3.2-14.5 3.3-18.8 0-.6.7-1.2 1.5-1.2s1.5-.6 1.6-1.3c0-.7.3-.6.6.3.4.8 1.2 2.1 2 2.8zM14 271.1c1.4 2.1.2 6.5-2.1 7.6-4.7 2.5-6.1 1.8-5.7-3 .5-5.7 1.4-6.8 4.6-6 1.5.3 2.9 1 3.2 1.4zm17.4 34.1c-.3.4 1.5.8 4 .8s4.7.4 5 .9c.3.5 1.5.7 2.6.4 2.7-.7 3.5 1.7 2 6.2s-3.3 4-4.1-1.1c-.6-3.8-.6-3.8-.8-.6-.1 2.9-.3 3.2-2 2.2-1.1-.5-3.1-1-4.5-1-2.7 0-9.5-3-9.6-4.3 0-.4.7-.7 1.5-.7s1.9-.8 2.4-1.8c.6-1 1.7-1.9 2.5-1.9s1.3.4 1 .9zm23.7 42.3c-.1 1.5-2.4 1.2-2.9-.3-.3-.9.2-1.3 1.2-1 1 .1 1.7.7 1.7 1.3zM113.5 5.2c-.3 2.9-.1 15.4.5 27.8s1 24.1.9 26c-.6 11.5-.1 19.2 1.6 25.3 1 3.7 2.2 7 2.7 7.3 1.3.8.9 2.4-.5 2.4-3.3 0-4.2 10.5-1.7 18.3.6 1.9.6 4.5-.1 7.5-1.3 5.6-1.3 20.5-.1 24.7.5 1.7.8 16.3.6 32.4l-.3 29.3 2.7 3.6c2.6 3.4 2.6 3.5.5 3-2-.5-2.1-.3-1.8 4.1.2 2.5.1 4-.2 3.3-.8-2.1-2.3-1.3-2.3 1.3 0 1.8-.7 2.6-2.5 3.1-2.1.5-2.4 1-1.9 3.3.4 1.4.7 2.8.6 3.1 0 2.2-.5 2.7-2.9 2.4-1.6-.2-2-.1-1 .2 1.9.6 2.3 2.4.5 2.4-.6 0-.3 1 .8 2.2 1.9 2.1 1.9 2.1-.3 1.6-1.3-.4-2.6-.2-2.9.3-.3.5.7.9 2.3 1l2.8.1-2.7.9-2.7 1 2.2 2.2 2.2 2.2-2.2.3c-1.3.2-2.3.7-2.3 1.2s1 1.5 2.3 2.1c3.4 1.8 5 4.9 2.5 4.9-.7 0-2.6-1.4-4.1-3.2-2.4-2.8-2.7-3-2.2-1 .5 1.5.3 2.2-.6 2-1.5-.4-3.1 7.3-1.8 8.6.6.6.9.3.9-.8 0-1 .5-1.4 1.1-1 .8.4.9 0 .4-1.5-.7-2.5.2-2.6 3-.5 1.7 1.2 1.8 1.6.5 2.4-1.2.8-1.2 1 .3 1.6.9.3 2.4.1 3.2-.6 1-.9 1.5-.9 1.5-.1 0 .6-.4 1.1-.9 1.1s-1.7.7-2.6 1.6c-1.3 1.4-1.4 1.9-.3 2.6.8.6.9 1.1.2 1.4-1.6.7-.4 6.6 1.2 6 .8-.3 1.4.1 1.4.9 0 .9-1 1.5-2.4 1.5-2.8 0-4.5 1.9-2.6 3 .8.5.7.9-.4 1.3-.9.4-1.6 1.8-1.6 3.3 0 1.5-.3 2.5-.6 2.1-1-.9-5.4 4.9-5.3 6.9.1 1.4.3 1.2.9-.6l.8-2.5.1 2.6c.1 1.9-.5 2.8-1.9 3.2-1.3.3-1.8 1-1.4 2.1.3.9.1 1.6-.5 1.6-.7 0-.9 1-.5 2.7l.6 2.8-1.4-2.5c-1.5-2.6-1.8-9.6-.5-11.7.4-.7.5-2.4.1-3.8-.7-2.7 1.2-3.5 3.3-1.4.7.7 1.6.1 3.1-2.3s1.8-3.5.9-4c-2-1.3-2.4-.9-1.9 1.8.4 2.3.2 2.6-2.4 2.3-3.7-.4-5.6.8-4.9 3.1.3 1 .2 2.1-.3 2.4-.5.3-1 2.8-1.1 5.7-.1 2.8-.4 5.5-.6 6-.3.4.2 1.5 1.1 2.3 1 1.1 1.3 2.1.7 2.9-.5.7-1 3.1-1.1 5.4-.1 3.3.2 4.1 1.4 3.6 2.1-.8 1.7 1.7-.6 3.7-2 1.7-2 1.8 1.5 3.5 6.2 2.9 22.2-.2 25.7-5 .4-.6.8-.8.8-.5.4 8 .5 51.9.1 58.2l-.6 8.8 3 1.4c1.6.9 9.5 4 17.5 7.1 8 3.1 17 6.7 20.1 8 3.1 1.4 6.2 2.5 6.8 2.5.7 0 2.9.9 5.1 2 4.6 2.3 5.1 1.8 5.7-5.1.4-5.3-.3-6.1-6.8-7.3-2.1-.4-4.1-1.2-4.7-1.9-3.1-4-3.5-37.6-.5-47.2 1.6-5.2 1.8-7.8 1.2-19.5-.4-7.4-.4-20.7.1-29.5.4-8.8.5-16.4.1-16.8-.5-.4-2.3.9-4 3-6.1 7.2-9.4 10.3-10.7 10.3-2.2 0-1.6-1.5 1-3 2.9-1.5 3.6-3.6 3.6-10.8 0-3.9-.7-6.5-2.5-9.6-2.5-4.2-12.2-14-15.9-16.1-1.8-1.1-1.8-1.6 1.2-15.5 1.7-8 3.3-17.2 3.7-20.5.4-3.2 1.5-8 2.4-10.5 1-2.5 1.6-5.3 1.3-6.3-.5-2.4 2.1-6.2 5.7-8.3 1.6-1 3.2-2.5 3.4-3.4.3-1 2.3-2.2 5.1-2.9 2.5-.6 4.6-1.5 4.6-1.9 0-1.4-5.6-2.9-7.9-2-1.2.4-4.2.5-6.7.3-4.1-.5-6.1.6-3.1 1.8.9.4.9.8-.2 1.5-1.1.8-.9 1.1.9 1.4 3.6.5 3.5 2.4-.2 3.5-2.9 1-3 1.1-.9 1.2l2.5.1-2.2 2c-2.2 2.1-3.7 2.7-2.7 1 .9-1.4-.7-1.2-2.7.4-2.3 1.7-2.3 2.6-.1 2.6 1.5 0 1.4.2-.3 1.5-1.6 1.2-1.7 1.6-.5 2.4 1.1.7.9 1-1 1.3-1.9.2-2.4.9-2.4 3.3 0 1.6-.6 3.4-1.2 3.8-.7.4-1.3 1.7-1.3 2.7 0 1.1-1 2.4-2.1 3.1-1.7.9-1.9 1.3-.8 2 1.1.7 1 .9-.3.9-1 0-1.8.4-1.8.9s.8 1.2 1.8 1.4c1 .3.6.5-1 .6-1.6 0-3.1.1-3.4 0-.4 0-1.4 1.1-2.3 2.5-1.3 1.9-2 2.3-2.8 1.5-.9-.9-.6-1.9 1-4.1 1.8-2.5 1.9-3 .7-3.9-1.3-.8-1-1.4 1.4-3.5 3.8-3.4 5-10.8 1.8-11.6-1.4-.4-2.2 0-2.5 1.1-.4 1.4-.5 1.4-.6-.1 0-.9.3-2 .9-2.3.5-.3 1-1.4 1-2.5 0-2.2 2.7-3.4 3.7-1.6.5.7 1.6 1.6 2.7 1.9 1.5.6 1.7.3 1.3-1.3-.3-1.1-.1-1.8.3-1.5 1.5 1 4.8-2.6 4.3-4.6-.3-1.1-.1-2.5.5-3.2 1.3-1.6.7-4.6-1.3-6.6-1.4-1.4-1.7-1.4-2.5-.1-.5.8-.9 1.9-.9 2.5 0 .5.3.4.6-.3.2-.6.9-.9 1.5-.6.6.4.1 1.2-1.3 2-1.3.7-1.8 1.3-1.1 1.4.6 0 1.2.7 1.2 1.6 0 .8-.4 1.2-1 .9-.5-.3-1 .1-1 .9 0 .9-.4 1.6-1 1.6-.5 0-1-.8-1-1.7 0-2.5-2.1-.1-2.3 2.6-.1 1.6-.6 2.1-1.9 1.8-1-.3-1.8 0-1.8.6s-.3.7-.6.4c-.4-.4-.1-1.4.7-2.3 2.7-3.3 4-9.3 5.5-26.4 1.5-17.4 2.5-21 5.9-21 .6 0 3-1.2 5.3-2.8l4.3-2.7.3-9.5c.4-10.7 4.4-27.9 7.3-31.3 1.7-2 1.7-2.1 0-.8-1.5 1.2-2 1.2-3 0-.7-.7-.8-1-.3-.6s1.4-.3 2.1-1.6c.9-1.8.8-2.4-.4-3.5-1.4-1.1-1.4-1.3.2-2.3.9-.5 1.7-1.5 1.7-2 0-.6-.4-.8-.9-.5-1.3.8-3.1-5-3-9.3.1-2 .3-2.8.6-1.9.2 1 1.3 1.8 2.3 1.8 1 0 2 .7 2.4 1.5.3.8.1 1.5-.4 1.5-.6 0-1 1.2-1 2.6 0 1.4.4 2.3.9 2 1.4-.9 2.3 2.7.9 3.6-.8.5-.1.7 1.7.3 1.7-.3 2.4-.2 1.6.1-1 .5-.6 1.1 1.5 2l2.9 1.3-3-.6c-1.6-.3-2.6-.2-2.2.3.4.4 5.4 1.1 11 1.5 5.6.4 11.5 1.1 13.1 1.5 2.1.5 2.7.4 2.2-.5-1.2-1.9.6-1.2 2.5 1 1.2 1.4 2.4 1.9 3.8 1.4 1.5-.5 2.1-.2 2.1 1s-.5 1.5-2.2 1c-1.8-.6-2-.4-1.4 1.1 3.5 8.8 5.1 37.5 2.3 39.7-.8.7-2 2.1-2.6 3.2-1.1 1.8-1.2 1.6-.6-1 .4-1.6 1.1-3.3 1.7-3.6.6-.4.7-2.3.3-4.9-.5-3.2-2-5.6-5.3-9.2-4-4.2-7.4-6.5-5.7-3.8.8 1.4-.8 1.3-2.2-.1-.6-.6-3.7-1.1-7-1.1-9.3 0-20.3 6.4-19 11.1.3 1.1-.1 2.8-.9 3.8-2.2 2.9-1.8 4.4 1 3.4 2.2-.9 6.4-.7 14.4.5 3.3.5 3.3.6 1.6 2.5-.9 1-1.2 1.9-.6 1.9s1.4.9 1.7 2c.4 1.2 1.5 2 2.7 2 1.9 0 2-.2.6-1.8-2-2.2-1.9-5.2.1-5.2 2.3 0 6.1 2.8 6.1 4.5 0 2.5-4.3 4.5-8.5 4-2.2-.2-5.7-.4-7.8-.4-2.3-.1-3.6-.5-3.2-1.1.9-1.5-4.8-1.2-8.8.5-2 .8-5.3 1.5-7.2 1.5-2 0-3.4.4-3.1.8.3.5 5 .7 10.5.5 5.5-.1 10.8 0 11.7.4 1.5.6 1.5.7-.2 2-2.5 1.9-.8 1.6 2.1-.3 1.5-1 2.5-1.2 2.5-.5 0 .6.8 1 1.8.9 3.3-.3 5.3.2 4.7 1.1-1.2 2 1.4 2 2.8 0 1.2-1.7 2.2-2 4.5-1.4 2.5.5 3.5.1 6.1-2.7 1.7-1.8 3.1-2.8 3.1-2.1 0 .6-1.3 2.2-3 3.6-2.5 2.1-2.7 2.7-1.5 3.7.8.6 1.8.9 2.3.6.5-.3.9 0 .9.7s.4 1.9.7 2.8c1.1 2.5-2 4.9-6.2 4.9-2.8 0-3.3-.3-2.2-1 .8-.5 2.4-1 3.4-1 1.5 0 1.7-.3.8-1.2-.8-.8-1.5-.8-2.7.2-1.1.9-1.8 1-2.8.1-.8-.6-1.8-.7-2.2-.3-.5.4-.5.1-.1-.6.4-.6 1.4-1.2 2.2-1.2.8 0 1.2.4.9 1-.3.5-.2 1 .4 1 .5 0 1.3-.4 1.6-1 .8-1.4-4-6.4-5.4-5.6-1.9 1.2-1.2 2.8.9 2.1 1.1-.3 2-.2 2 .3s-1 .9-2.2.8c-1.3-.1-2.5.2-2.8.5-.3.4-3.1.1-6.3-.6-5.7-1.3-6.7-1.3-22.2 1.4-2.2.3-3.5 1-2.9 1.3.6.4 4.6 0 8.8-.9 7.5-1.6 7.8-1.6 15.4.6 7.7 2.2 11.2 4.1 7.8 4.1-.9 0-1.4.5-1.1 1 .4.6 1.2.7 1.8.3.8-.4.7-.1-.1.9-1.1 1.4-1 1.8.5 2.8 1.6 1 1.6 1.1.1.6-1-.3-2-.1-2.3.4-.4.6.3 1 1.4 1 1.8 0 3.8 1.7 3 2.5-.8.7-7.9-2.8-7.3-3.6.3-.5-.2-.6-1-.3-.9.3-1.6 1.5-1.6 2.6 0 1.5.5 1.9 2 1.5 1.2-.3 1.7-.1 1.4.5-.3.5.2 1.8 1.1 2.8 1.3 1.5 1.4 2.3.5 3.9-.9 1.8-.8 2.1.9 2.1 4.2 0 18-5.1 21.6-8 2.1-1.7 5.5-3.3 7.7-3.6 2.1-.4 4.1-1 4.4-1.5.3-.5 2.2-1.3 4.4-1.9 2.5-.7 4.7-2.2 6.2-4.3 1.2-1.7 4-5 6-7.2 2.1-2.1 3.8-4.3 3.8-4.7 0-1-5.7-19-8.2-25.5-1.8-4.8-2.1-5.2-4.6-4.7-2.2.4-3.5-.3-7.3-4.3-2.5-2.6-5.2-6.4-5.9-8.3-.7-1.9-1.9-5-2.7-6.8-1.6-3.6-1.4-10.3.3-10.9 1.2-.4 8.4 6.3 8.4 7.8 0 .5-.7 1.2-1.6 1.6-.8.3-1.3 1.2-1 1.9.3.8 0 1.3-.6 1.1-1.9-.3-2.1 2.9-.3 4.7.9.9 2.6 1.6 3.9 1.6 2 0 2.2-.4 1.8-3.7-.4-3.2-.3-3.6 1-2.5 2.4 1.9 4.1-2.9 3.2-9.5-.4-3.3-.3-5.3.4-5.3 1.2 0 5.5-9.7 4.8-10.9-.3-.4-.1-2.2.4-4 .5-2 .5-4.2-.2-6.1-1.5-4.4-.3-7.5 3.8-10.1 5-3.1 17-3.2 23.1-.2 2.4 1.2 5.6 2 7.3 1.9 1.6-.1 3 .1 3 .5s.3 1.5.7 2.5c.5 1.4.1 1.6-2.5 1.2-2.1-.3-3.2 0-3.2.8s1.1 1.1 3.3.8c5.3-.8 5.8-1.2 5.2-3.7-.5-1.9-.2-2.5 1.5-3 1.3-.3 1.9-1 1.5-1.6-.3-.6-1.2-.8-1.8-.4-.6.4-.1-.6 1.1-2.2 5.3-6.9 5.5-7.5 4.4-9.8-1-2.1-1.1-2.1-1.2-.2-.1 1.8-.1 1.9-1.1.2-.5-.9-.8-2.1-.5-2.5.2-.4 0-1.4-.6-2.2-.8-1.2-.9-1.1-.4.5.4 1.5 0 1.2-1.9-1-2.4-2.9-2.6-5-.3-2.7 2.1 2.1 2.9 1.3 1.3-1.2-1.5-2.3-1.5-2.3 1.1-2 1.5.1 3.1.9 3.5 1.6.7 1.1.9 1.1.9 0 0-.9 1.4-.4 4.3 1.3 2.3 1.5 5 2.9 6 3.2.9.3 1.7 1.1 1.7 1.8s.3 1.5.8 1.7c.4.1 1.5 1.8 2.5 3.5 1.7 3.1 1.3 4.2-.9 2.5-.5-.4.1.3 1.3 1.5 1.3 1.2 2.3 2.8 2.3 3.6 0 .7.5 1.8 1.2 2.5s.8 1.2.4 1.2c-.5 0-.2.8.5 1.7 1.2 1.5 1.2 1.6-.3 1-2.3-.8-2.3-.1.2 3 2.4 3.1 2.6 4.5.3 3.6-1.2-.5-1.4-.3-.7.8 1.1 1.8 1.5 8.1.4 7.4-.5-.3-.1 1.4.8 3.7l1.7 4.2.7-4.2c.4-2.3 1-4.6 1.3-5.1.3-.5-.2-1.7-1.1-2.5-.8-.9-1.1-1.6-.5-1.6 1.3 0 1.2-8.8-.1-11.3-.5-.9-.5-1.7-.1-1.6 2 .3 2.4-.2 1.2-1.9-1-1.3-1-1.4 0-.6.7.7 2.9 1 5.2.7 3.6-.5 4.3-.2 7.5 3.2 2.3 2.6 3.4 4.7 3.4 6.9 0 5.6 1.3 13.6 2 13.1.4-.3 1 .2 1.4 1 .3.8.1 1.5-.4 1.5-.6 0-1 1-1 2.2v2.3l1.9-2.4c1.7-2.2 2.3-4.8 3.5-15.3.1-1.5 1.7-4.2 3.4-6l3.2-3.2 4.3 2.1c2.4 1.2 7 2.4 10.1 2.8 3.4.5 6 1.3 6.3 2.1.3.8 1.4 1.4 2.5 1.4 1.5 0 1.8.5 1.3 2-.3 1.1-.2 2 .3 2s1.5 2.8 2.2 6.2c1.6 8 2.9 10.6 4.1 8.7.5-.8.9-2.9.9-4.7 0-1.9.8-4 2-5.2 1.1-1.1 2-2.6 2-3.4 0-2.3 4.1-2.6 8.9-.6 2.5 1.1 6.6 2.1 9.1 2.3 6.1.5 9.3 2 10.9 5.1.8 1.4 1.8 2.6 2.3 2.6.4 0 .8.9.8 2 0 1.3.7 2 2 2 2.2 0 2.7-1.6.8-2.3-.7-.2.1-1 1.7-1.7 1.7-.7 4-1.7 5.2-2.3 1.6-.7 3.4-.5 7 .7 2.6 1 7 2.2 9.8 2.6 2.7.5 5.1 1.4 5.3 2 .2.5.8 1 1.4 1 1.8 0 6.8 5.4 6.8 7.4 0 1.8.1 1.8 2.3-.2 3.1-2.9 8.6-4.5 11.2-3.3 2.2 1.1 14.4 4.1 16.3 4.1.7 0 2.8 1.4 4.7 3.2 2.4 2.2 3.3 3.7 2.9 5-.3 1.1 0 1.8.8 1.8 1 0 1.2 1.6 1.1 6.2-.3 6.3-.2 6.3 1.1 2.8.7-1.9.9-3.7.5-3.8-1.9-.7-.9-4.2 1.1-4.2 1.3 0 2-.7 2-2 0-3.5 4.5-4.4 11-2.4 3 1 6.6 1.8 8 1.8 2.9.1 9 4.4 9 6.3 0 .7.9 1.3 2 1.3s2 .7 2 1.5.6 1.5 1.4 1.5c.8 0 1.7.8 1.9 1.7.3 1.1.5.7.6-1 0-1.5.6-2.7 1.1-2.7.6 0 1-3 1-7s-.4-7-1-7c-.5 0-1-1.3-1-2.9 0-1.6-.6-3.4-1.4-4.1-.8-.6-1.6-2.1-1.8-3.3-.4-2.9-2.2-2.8-2.6 0-.2 1.3-.8 2.3-1.3 2.3s-.9.9-.9 1.9c0 3-5.9 4.6-10.1 2.7-1.9-.8-6.8-2.1-10.9-2.7-4.1-.7-6.9-1.4-6.2-1.7.8-.2-.2-1.5-2.6-3.3-2.7-2-4.1-3.9-4.4-5.9-.3-1.6-.1-3.1.3-3.2.4-.2.1-1.2-.8-2.3-1.5-2-1.5-2-1 .3.3 1.5-.1 3-1.1 4-.9.9-1.7 2.3-1.7 3.1 0 .8-.7 1.5-1.5 1.7-.8.1-2.3.5-3.2.9-1.1.4-1.8.3-1.8-.4 0-.6-1-1.1-2.2-1.1-1.3 0-3.2-.7-4.2-1.5-2.1-1.6-5.1-2.1-4.2-.7.2.4-.5.9-1.7.9-1.8.2-1.9 0-.7-.8s1.1-.9-.5-.6c-3.8.7-14.1-6.4-11.2-7.7.8-.3.6-1-.5-1.9-1-.8-1.8-2.2-1.8-3.2 0-1.3-.7-.8-2.3 1.6-2.7 4-7.4 6.9-8.5 5.3-.7-1-11.9-4-13.6-3.5-5.2 1.3-14.7-9-15-16.4-.2-4.3-2.1-2.3-2.4 2.5-.3 4.4-.6 5-2.1 4.5-1.3-.4-2.1.1-2.6 1.7-.5 1.7-.8 1.9-1.1.7-.3-1-1.7-1.5-4-1.6-1.9-.1-4-.6-4.7-1.2-.8-.6-3.9-1.3-7-1.5-6.2-.5-11.7-3.5-11.7-6.5 0-.9-.5-2.2-1-2.7-.6-.6-1.1-3.6-1.2-6.8-.2-6.3-1.1-7.7-3.6-5.2-.9.9-1.2 1.6-.7 1.6.6 0 1.1 1.9 1.2 4.3.2 3.8-.1 4.4-3 6.4-3.9 2.7-6.4 2.9-10.3.8-1.6-.8-4.6-1.5-6.6-1.5-2.1 0-3.8-.5-3.8-1.1 0-.5-.8-.9-1.7-.8-2.4.3-5-.9-7.9-3.6-2.8-2.6-6.8-13.8-6.1-17.2.2-1.3 0-2.3-.4-2.3-.5 0-.9.2-.9.4s-.4 2.7-1 5.5c-1.1 6.1-3.7 10-6.5 10-3.4 0-5.4-2.3-9.6-10.7-2-3.9-3-4.7-5.3-4.3-.5.1-1.6-.5-2.5-1.2-.9-.8-3.1-1.8-4.8-2.2-1.8-.3-3.5-1.1-3.9-1.6-.9-1.5.6-4.9 2.2-4.9.8 0 1.4-.5 1.4-1 0-.6 1-1 2.3-1 3.5 0 10-4.8 9.1-6.8-.3-1-.9-2.7-1.1-4l-.5-2.2h-72c-68 0-71.9.1-71.4 1.7.3 1 .8 4 1.1 6.8.5 4.4.5 4.8-.8 3.2-.8-.9-1.7-1.7-2.1-1.7-1.5 0-4.5-4.6-4.6-6.9 0-1.6.4-2.2 1.5-1.7.8.3 1.5.1 1.5-.4 0-.6-6-1-14.9-1h-15l-.6 5.2zm122 19.8c.3.5.2 1-.4 1-.5 0-1.3-.5-1.6-1-.3-.6-.2-1 .4-1 .5 0 1.3.4 1.6 1zm-2.5 2c0 .5-.8 1-1.7 1-1.5 0-1.6-.2-.3-1 1.9-1.2 2-1.2 2 0zm-4.3 1.6c-.3.3-1.2.4-1.9.1-.8-.3-.5-.6.6-.6 1.1-.1 1.7.2 1.3.5zm32.6 12.3c2.4 4.1 2.1 4.9-.5 1.5-1.2-1.6-2.7-3.2-3.3-3.6-.6-.5-.4-.8.5-.8s2.3 1.3 3.3 2.9zM152.7 62.2c-.3.8-.6.5-.6-.6-.1-1.1.2-1.7.5-1.3.3.3.4 1.2.1 1.9zm4.3.8c0 .5-.4 1-1 1-.5 0-1-.5-1-1 0-.6.5-1 1-1 .6 0 1 .4 1 1zm-2 2c0 .5.6.7 1.4.4 2-.8 2.5 1.8 1.3 6.4-1.2 4.4-2.7 5.6-2.7 2.2 0-1.2-.7-2-1.6-2-1.1 0-1.5-.6-1.1-2 .3-1 0-1.8-.5-1.7-.6.1-1.3-.4-1.6-1.2-.3-1 0-1.2 1.2-.8 1 .4 1.6.1 1.6-.8 0-.8.5-1.5 1-1.5.6 0 1 .4 1 1zm39.7 14.2c-.3.8-.6.5-.6-.6-.1-1.1.2-1.7.5-1.3.3.3.4 1.2.1 1.9zM132 90.9c0 .5-.9 1.1-2 1.4-1.2.3-2 0-2-.7 0-.6.9-1.2 2-1.3 1.1-.1 2 .2 2 .6zm59.7 4.3c-.3.8-.6.5-.6-.6-.1-1.1.2-1.7.5-1.3.3.3.4 1.2.1 1.9zm-4 33c-.3.7-.5.2-.5-1.2s.2-1.9.5-1.3c.2.7.2 1.9 0 2.5zm-62.3 23.3c.3.8.1 1.5-.3 1.5-.5 0-1.1-.7-1.5-1.5-.3-.8-.1-1.5.3-1.5.5 0 1.1.7 1.5 1.5zm59.6 17.7c0 2.8-2.4 4.8-3.8 3.3-.4-.4-.1-1 .6-1.2 1.4-.5 1.7-3.3.3-3.3-.5 0-1.2.6-1.5 1.2-.4.7-.4.2-.2-1.1.3-1.4 0-3.2-.7-4-.8-1-.2-.9 2.1.4 2.4 1.5 3.2 2.6 3.2 4.7zm-23 12.2c0 .2-.8 1-1.7 1.7-1.6 1.3-1.7 1.2-.4-.4 1.3-1.6 2.1-2.1 2.1-1.3zm-6 5.8c0 .4-1 1.3-2.2 1.9-2.3 1.2-2.3 1.2-.4-1 1.2-1.3 1.4-2.1.7-2.1s-.9-.5-.5-1.1c.6-1.1 2.3.6 2.4 2.3zm-30.5 10.7c-.3 1.2-1 2.1-1.5 2.1-.4 0-.3-1.1.3-2.4 1.4-2.9 2.2-2.7 1.2.3zm-2 6.1c-.4 1.3-.2 2 .7 2 .7 0 .2.7-1 1.6-2.7 1.9-4.1 1.2-2.2-1.1.9-1.1.9-1.5.1-1.5s-.8-.4.1-1.5c1.9-2.1 3-1.8 2.3.5zm.1 22.5c1.2.9 1.4 1.4.6 1.5-.7 0-2-.7-2.8-1.5-2-1.9-.4-2 2.2 0zm-2.7 7.8l-.1 3.2-1.3-3c-1.3-3.1-1.1-5 .6-4 .5.4.9 2.1.8 3.8zm-3.8 2.8c2.5 2.5 3.2 5.6 1.8 7.8-.8 1.3-.9 1.2-.4-.5.3-1.3 0-2.8-.8-3.6-1.7-1.6-4-5.8-3.2-5.8.3 0 1.4.9 2.6 2.1zm-2.4 6.6c.5-.3.9.3.9 1.3 0 1.8-.2 1.8-1.8.3-1-.9-1.8-2.1-1.8-2.7 0-.6.4-.5.9.3.5.7 1.3 1.1 1.8.8zm-3.2 37.2c-.6.5-2.5-1-2.5-2 0-.5.6-.4 1.4.3.8.7 1.2 1.5 1.1 1.7z"/><path d="M306.9 3.6c1.2 1.9 1.9 4 1.6 4.5-.4.5-.1.9.6.9.8 0 .8.4-.2 1.6-1.1 1.3-1 1.7.5 2.6 1.3.7 1.4 1.3.6 2.3-1.4 1.7.4 6.5 2.4 6.5s2.9-3.4 2.7-9.7c-.1-4.6.2-5.7 2.7-8.3 3.4-3.5 3.5-3.5 5.7-1.4.9 1 3.3 1.8 5.3 1.9 6.2.4 15.3 2.6 14.7 3.6-.4.5-.3.9.2.9 1.2 0 4.3 5.9 4.3 8.2 0 2.6 1.8 9.5 3.4 12.7.8 1.9.8 2.5-.2 2.8-.6.3-1 .9-.6 1.4.3.5 1.3.5 2.5-.1 1.4-.8 1.9-2.1 1.9-5.6 0-2.5-.5-5.4-1-6.4-1.1-2.1.6-6 2.6-6 .6 0 1.7-.7 2.4-1.5 1.6-2 4.9-1.9 7.2.2 1.7 1.5 1.8 1.5 1.8-.3.1-1.8.2-1.8 1.4-.2 1 1.3 10.3 3.7 14.7 3.8.3 0 1.1 1.1 1.7 2.5.6 1.4 1.8 2.5 2.7 2.5.8 0 1.5.8 1.5 1.8 0 3.3 1 3.1 5-.8 3.6-3.5 4.2-3.7 7.5-3 2 .5 4.4 1.5 5.3 2.3 1.8 1.6 8.2 2.8 8.2 1.6 0-.4 1.8 0 4 .9s4 2 4 2.3c0 .4 1.7 2.5 3.8 4.7l3.8 4.1 1.9-3.2c1.5-2.5 2-2.8 2.3-1.5.2 1 .8 1.8 1.4 1.8.5 0 .8-.6.5-1.4-.7-1.9 4.5-1.2 8 1.1 3.7 2.4 9 4.2 11.1 3.7 2.1-.5 3 .1 6.9 5.2 2 2.6 3.3 5.4 3.5 7.7.3 4.4 1.8 5 1.8.7 0-1.8.5-3 1.3-3 .7 0 2.1-1.4 3-3 2-3.4 5.9-4 9.3-1.5 1 .8 2.8 1.5 4 1.5 6.1.1 17.2 5.9 17.3 9.1.1.9 1.2 2.1 2.5 2.9 2.1 1.1 2.7 1 4.1-.4.9-.9 2.1-1.6 2.6-1.6 1 0 1.3-8.9.3-11.4-.3-.9-1.5-1.6-2.5-1.6-1.2 0-1.9-.7-1.9-2 0-3-.1-3.4-1.2-4.7-.6-.7-.8-2.3-.4-3.6.7-3.1-.6-7.2-2.4-7.2-1.8 0-2.8 2-2.9 5.7-.1 1.6-1 3.9-2.2 5.2-1.9 2.2-2.7 2.4-7.7 1.9-3.1-.2-6.2-.9-6.9-1.4-.6-.6-2.7-1.1-4.5-1.1-5.6-.1-9-2.5-10.2-7.2-.4-1.6-1.3-3.5-2.1-4.2-.8-.8-1.2-2.1-.9-2.8.8-2.1-2.6-8.2-3.6-6.6-.8 1.3-.4 3.6 1.1 5.5.4.6.1 1.8-.6 2.9-.8 1-1.1 2.4-.9 3.1.7 1.7-3.2 3.9-5.3 3-.9-.3-2-.1-2.4.6-.5.8-2.2.6-6.2-1-3.1-1.1-7.1-2.2-8.9-2.4-4.6-.5-8.1-2.5-7.4-4.4.3-.8-.1-2.2-1-3-1.3-1.3-1.3-1.7-.2-2.4.8-.6.9-.9.2-.9s-1.5-1.1-1.8-2.5c-.4-1.4-1.1-2.3-1.6-2-.6.4-1.3-.2-1.7-1.1-.5-1.4-1-.9-2 2.1s-1 4-.1 4.6c.7.4-.5 1.2-3 1.9-4 1-10.6.2-13.7-1.8-.5-.4-3-.7-5.4-.7-4.2 0-4.5-.2-6.7-4.5-1.3-2.5-2.9-6-3.6-7.8-1.7-4.2-4.6-4.2-8.2-.1-3 3.3-2.6 3.3-12.6.5-3-.9-6.7-1.6-8.2-1.6-1.5 0-3-.5-3.3-1-.4-.6-10.9-1-28.2-1h-27.5l2.1 3.6zm156.9-.5c.3 2.2.7 2.7 1.3 1.8 1.3-2.1 1.1-4.9-.4-4.9-.9 0-1.2 1-.9 3.1zm38.9-.9c1.8 1.8 2.4 1.9 3.7.8 2.5-2 1.9-3-2.1-3h-3.7l2.1 2.2zm-.1 3.7c-.4.7-.5 1.5-.2 1.8.9.9 1.9-.4 1.4-1.8-.4-1.1-.6-1.1-1.2 0zM465.5 9c.3.5.8 1 1.1 1 .2 0 .4-.5.4-1 0-.6-.5-1-1.1-1-.5 0-.7.4-.4 1zm37 6c-.3.5.1 1 .9 1 .9 0 1.6-.5 1.6-1 0-.6-.4-1-.9-1-.6 0-1.3.4-1.6 1z"/><path d="M391.3 36c0 2.5.2 3.5.4 2.2.2-1.2.2-3.2 0-4.5-.2-1.2-.4-.2-.4 2.3zM268 38.9c.8 1.5 4.4 5 8.3 8 1.5 1.2 1.7 1.2 1-.4-.5-1.5-.3-1.7 1.1-1.2 1.2.5 1.6.3 1.4-.5-.3-.7-1.3-1.4-2.4-1.6-1-.2-2.9-1.5-4.1-3-2.4-2.9-6.8-4-5.3-1.3zm7.2-.7c.4 1.1 6.8 6.4 6.8 5.6 0-.2-1.6-1.9-3.6-3.6-1.9-1.7-3.4-2.7-3.2-2zm191.6 18.5c.6.2 1.8.2 2.5 0 .6-.3.1-.5-1.3-.5-1.4 0-1.9.2-1.2.5zM266 60c0 .5.5 1 1 1 .6 0 1-.5 1-1 0-.6-.4-1-1-1-.5 0-1 .4-1 1zm2.5 4c.4.6 1.1.8 1.6.5 1.4-.9 1.1-1.5-.7-1.5-.8 0-1.2.5-.9 1zm1.9 3.6c.3.9.6 1.9.6 2.2 0 .9 2-2.1 2-3.1 0-.4-.7-.7-1.6-.7-1.1 0-1.4.5-1 1.6zm3 13.4c-5.5.8-9.5 3.5-8.7 5.8.6 1.6.5 1.6-1.4-.1-1.6-1.4-2.2-1.5-2.6-.5-.3.9-1.1.5-2.5-1.2-2-2.4-2.1-2.4-1.5-.3.5 2.3-1 3.2-2.2 1.3-.9-1.4-16.4-1.3-20.6.2-1.9.6-4.4 1.8-5.7 2.6-1.9 1.2-2.1 1.7-1 2.8 1.1 1.1 2 1.1 5.6-.1 2.3-.8 5.2-1.3 6.4-1.1 1.3.3 2.8.5 3.3.6.6 0-1.4 1-4.2 2.1-2.9 1.1-5.3 2.4-5.3 2.9 0 .4-1 1-2.2 1.4-1.6.4-2 .8-1.2 1.6.7.7 1.9.6 4-.5 3.7-1.9 5-1.9 5.8.1.8 2 .8 2.4-.1 2.3-1.8-.3-3.3.2-3.3.9 0 .5 1.3.7 2.9.4 1.6-.2 3.2.1 3.5.7.4.6 1.2 1.1 1.7 1.1.6 0 .7-.5.4-1-.3-.6.1-1 1-1 3 0 10.4-4.5 10.5-6.3 0-1 .5-2.7 1-3.8.9-1.5.7-2.1-.5-2.6-1.3-.5-1.4-.7-.3-1.4 1.9-1.3 2.8-1.1 2.8.6 0 .8.5 1.5 1.1 1.5 2.3 0 4.1 3 3.4 5.9-.3 1.6-.2 3.2.3 3.5.5.3.8 1.6.7 2.8-.1 1.3 0 1.5.2.6.5-2 3.3-1.3 3.3.8 0 .7.9 1.8 2 2.4 3.1 1.6 2.4 3.6-2.2 6.3-3.8 2.2-4.5 2.4-5.9 1.1-.8-.8-3.2-1.4-5.3-1.4-4.1 0-5.7-2-3.6-4.5.7-.9 1-1.8.7-2.2-.9-.8-3.7 1.7-3.7 3.3 0 .7-1.3 2.2-3 3.4-1.9 1.4-3 3-3 4.6 0 1.3-.4 2.4-.8 2.4-.5 0-.9 1.8-.9 4s.2 4 .6 4c.3 0 .6 1.6.6 3.5s-.3 3.5-.7 3.5c-.5 0-.8-.5-.8-1 0-.6-.7-1-1.5-1-1.9 0-1.9.7 0 2.7.8.8 1.2 2 .8 2.6-.5.8-.8.7-1.1-.2-.3-.8-.8-.7-1.8.6-2 2.7-1.7 3.3 1.6 2.6 2-.4 3-.2 3 .7 0 .7-.7 1-1.5.6-1-.4-1.9.2-2.4 1.6l-.8 2.2-1.2-2.2c-2-3.7-3.1-2.5-2.5 2.5.7 6.5.8 6.7 1.9 7.6.6.6.6 1-.2 1.4-1.8.7-1.6 2.3.3 2.3 1.4 0 1.4.3.4 1.5-1 1.2-.9 1.5.4 1.5 1 0 1.5.4 1.2.9-.4.5 0 1.2.6 1.5 1 .3.8.8-.4 1.6-.9.6-1.5 1.9-1.3 3 .4 2.3.1 2.4-2.6.9-1.1-.6-2.8-2.9-3.8-5.2l-1.8-4.1-.6 4.5c-.8 6.1 2 11.4 10.7 20.2 10 10.1 12.5 15.5 9.5 19.7-.9 1.3-1 1.2-.5-.3 1-3.2-.9-1.7-4 3-3.5 5.4-4.9 9.5-5.9 16.8-.4 2.7-2 8.3-3.6 12.3-3.7 9.3-5.1 23.2-2.6 25.6 1.6 1.6 7 1.9 6 .3-.3-.4.3-.7 1.3-.5 1.1.2 1.8-.2 1.7-.8-.1-.7 1.8-1.9 4.2-2.8 6.8-2.6 9.2-5 10.5-10.4.9-4.1.9-5.5-.5-9-1-2.3-2.1-4.2-2.6-4.2-1.9 0-.9-4.9 1.2-5.5 1.5-.5 1.8-1 .9-2s-.6-1.6 1-2.5c1.1-.6 2.6-.8 3.2-.4.6.4.8.3.5-.3-.4-.6.1-1.7 1-2.4.9-.8 2.5-3.3 3.5-5.6s2.7-4.5 3.8-4.8c2.4-.8 4.4-4.1 3.6-6.2-.5-1.2-1.1-1.1-4.1.7-2.6 1.6-3.9 1.9-4.8 1.1-.8-.6-3.7-1.5-6.5-2.2-2.9-.6-5.2-1.5-5.2-1.9 0-.5.9-.7 2-.5 1.2.2 2.6-.5 3.5-1.8.8-1.2 1.5-1.7 1.5-1.2s1.7-.7 3.8-2.6c5.6-5.4 11.1-9.3 17.1-12.2 8.9-4.4 18.9-19.5 16.7-25.2-.8-2.3-3.3-1.8-4 .9-.8 3.1-5.4 6.2-7 4.7-.6-.7-1.6-4.2-2.2-7.9-1-5.4-.9-7.2.2-9.4 2.2-4.3 1.7-4.4-1.7-.5-3.7 4.3-5.1 4-4.4-1.1 1-6.7 1.5-8.2 3-8.2.8 0 1.7-1.1 2.1-2.4.3-1.3 1.5-2.6 2.6-2.9 1.1-.3 1.7-1 1.3-1.6-.3-.6-.2-1.1.4-1.1.6 0 .8-.7.4-1.6-.6-1.5-.7-1.5-1.9 0-1 1.5-1.2 1-1.3-3.1-.2-8-.6-11.3-1.3-11.3-.5 0-.8.4-.8 1 0 .5-.4 1-1 1-1.5 0-1.2-1.6.5-3.4.8-.8 1.5-1.8 1.5-2.2 0-.5-.5-.3-1.1.3-1.3 1.3-4.9.5-4.9-1.2 0-.6-1.6-2-3.5-3.1-3.4-1.8-5.8-4.8-2.9-3.7.7.3 1.4.9 1.4 1.4 0 .6.8.5 1.9-.1 1.1-.5 2.9-1 4.1-1 2.3 0 5-2.1 5-3.9 0-.6.6-1.1 1.3-1.2.6 0 .1-.5-1.2-1-1.4-.5-3.1-.7-3.8-.5-2.5 1-1.3-1 1.7-2.7 1.7-1 3-2.2 3-2.7 0-1.5-2.4-2.4-5.2-2.1-1.6.1-2.8-.2-2.8-.8 0-.6 1.2-1.1 2.6-1.1 2.2 0 5.4-2 5.4-3.3 0-.9-5.5-1.2-9.6-.7zm.6 9.4c0 .3-.4.8-1 1.1-.5.3-1 .1-1-.4 0-.6.5-1.1 1-1.1.6 0 1 .2 1 .4zM241 95c0 .5-.5 1-1.1 1-.5 0-.7-.5-.4-1 .3-.6.8-1 1.1-1 .2 0 .4.4.4 1zm2.5 2.9c.7 1.2-1.2 2.4-2.5 1.6-1.1-.7-.4-2.5 1-2.5.5 0 1.1.4 1.5.9zM253 114c.8.5 1.1 1.2.8 1.6-.4.3-1.4-.1-2.3-1-1.8-1.7-.9-2.1 1.5-.6zm3.5 7.9c-2.7 1-5.9 2.2-7 2.6-3.2 1.3-1.2-.3 3.1-2.5 2.1-1 5-1.9 6.4-1.9 1.8 0 1 .5-2.5 1.8zm21.2-1.3c-.3.3-1.2.4-1.9.1-.8-.3-.5-.6.6-.6 1.1-.1 1.7.2 1.3.5zm-17.2 5.1c-1.7.5-1.5.7 1 1.8l3 1.3-2.8.1c-3.2.1-4.5 2.5-2.8 5.2.7 1.2.7 1.9.1 1.9-.5 0-1-.4-1-.9s-.7-1.2-1.6-1.5c-1.3-.5-1.5-.2-1.1 1.4.3 1.3 0 2-.9 2-.8 0-1.4-.5-1.4-1 0-.6-.7-1-1.6-1-.8 0-1.2-.5-.9-1 .4-.6 1.1-.7 1.7-.4 1 .7 2.8-1.3 2.8-3.1 0-.6-.4-.4-.9.3-1.2 2-4.6 1-4.6-1.3 0-1.5 1-2.1 4.4-2.7 2.4-.4 4.6-1 4.9-1.3.3-.3 1.2-.4 2.1-.4 1.1.1 1 .3-.4.6zm-12.9 12c1.3 1.9.2 4.3-1.9 4.3-.7 0-.7-.4.1-1.2 1.8-1.8 1.4-3-.8-2.3-2.1.7-2.8-1-.7-1.8 1.9-.8 1.9-.8 3.3 1zm32.4 33.1c0 2.1-3.3 5.1-5.2 4.8-3.4-.5-3.2-2.4.4-4 3.9-1.7 4.8-1.9 4.8-.8zm-42.5 7c-.3.3-1.1 0-1.8-.7-.9-1-.8-1.1.6-.5 1 .3 1.5.9 1.2 1.2zm34.9-.2c.3.8.2 1.2-.4.9-.6-.3-1-1-1-1.6 0-1.4.7-1.1 1.4.7zm-2.9 4.4c.3.5.2 1-.4 1-.5 0-1.3-.5-1.6-1-.3-.6-.2-1 .4-1 .5 0 1.3.4 1.6 1zm-2.3 5.1c-1.7 1-3.1 1.3-3.9.7-1.2-.9-1.7-.4-4 3.9-.8 1.5-.8 2.3-.1 2.3.5 0 1.2-.9 1.5-2 .5-1.9 2.3-2.8 2.3-1.2 0 1.2-5 5.7-5 4.6-.1-.5-.8.4-1.6 2-1.3 2.2-1.8 2.6-2.5 1.5-1.4-2.2-1.1-3.2.7-2.5 1.4.6 1.5.4.4-.9s-1.5-1.3-2.1-.3c-.5.7-.6 2.1-.3 3.2.4 1.2.2 1.6-.5 1.2-3-1.9.1-7.2 3.5-6 1.6.6 1.7.5.7-.7-.7-.7-1.3-1.7-1.3-2.3 0-.5.6-.1 1.4 1 1.4 1.8 1.5 1.8 2.6-1.1.6-1.6.9-3.7.7-4.7-.6-2 .8-2.5 1.7-.6.5 1 .7 1 1.2.1.3-.7 1.2-.9 2-.6.8.3 1.4 0 1.4-.6 0-.8.6-.8 1.9.1 1.9 1.2 1.9 1.3-.7 2.9zm-20.8 40.4c-.7 1.7-2 2-2.9.6-.3-.5.3-1.2 1.2-1.4 1-.3 1.9-.5 2-.6.1 0 0 .6-.3 1.4zm-11.9 28.4c.3.5.1 1.2-.5 1.6-.5.3-1-.1-1-.9 0-1.8.6-2.1 1.5-.7zM392 88c0 .5.7 1 1.5 1s1.5-.5 1.5-1c0-.6-.7-1-1.5-1s-1.5.4-1.5 1zm-97.2 7.9c-.5 3.5-.7 9.1-.6 12.5.1 5.1.2 5.4.5 1.8.4-3.6.7-4.2 2.1-3.6.9.4 2.9.9 4.5 1.2 1.5.2 2.7.9 2.7 1.4 0 .5.6.8 1.3.5 1.7-.6 6.9 2.2 6.2 3.3-.4.6.6 1.1 2.2 1.1 1.5.1 3.9.3 5.3.4 1.3.1 3.5-.4 4.7-1.2 2.1-1.4 2.7-1.4 5.8.1 1.9.9 3.7 2.1 4 2.6.3.6 1.7 1 3 1 1.2 0 2.6.7 2.9 1.6.5 1.2 1.4 1.5 3.6 1 1.7-.3 3-.1 3 .4 0 .6.6 1 1.4 1 .8 0 3.2 2.1 5.4 4.6 4.1 4.8 7.2 5.5 7.2 1.7 0-2 4.1-4.3 7.5-4.3 1.2 0 2.9.8 3.8 1.8.9 1 2.9 1.9 4.4 2 1.5.1 3 .7 3.1 1.2.2.6 1.7 1 3.3 1 4.7 0 9.9 2.6 9.9 4.9 0 1.2.4 2.1.9 2.1s1.2 1.1 1.5 2.5c.8 3.3 3.1 3.2 6.5-.3 2.8-2.8 8-4 9.1-2.2.3.5 3.5 1.4 7.1 1.9 6.6.9 14.9 4.3 14.9 6.1 0 .5 1.1 2.1 2.5 3.5l2.4 2.7 2.4-2.6c1.3-1.4 3.4-2.6 4.5-2.6 3.4 0 12.2 2.3 12.2 3.2 0 .4 2.2.8 4.9.8 4.5 0 5.3.3 7.6 3.4 1.6 2.1 3.2 3.3 4.1 2.9.8-.3 1.4 0 1.4.6s-.3 1.1-.7 1.1c-.5 0-.9 2-1.1 4.5-.2 2.7.1 4.5.8 4.5.6 0 .8-1 .4-2.4-.8-3.4 3.1-8.4 7.6-9.7 2.9-.9 4.3-.7 8.5 1.1 2.8 1.2 7.4 2.4 10.3 2.7 4.5.5 5.5 1 6.3 3 .5 1.3 1.5 2.6 2.3 2.9.9.3 1.8 1.4 2.1 2.5.4 1 1.4 1.9 2.3 1.9 1.5 0 1.5-.2.2-1-1.1-.7-1.2-1-.2-1 1.1 0 1.3-2.4.9-11.8-.6-13.3-1.5-19.2-2.9-19.2-1.3 0-3.8 6.4-3.8 10 0 1.6-.4 3-1 3-1.9 0-2.5.2-3.7 1.2-1.2 1-5 .1-11.8-2.7-1.6-.6-4.7-1-6.7-.7-3.6.4-5.3-1-2.5-2.1.6-.3.3-.6-.9-.6-2.5-.1-4.4-1.9-4.4-4.3 0-3-2.3-6.9-3.7-6.4-.8.3-1.3 0-1.2-.7.3-2.4-.1-3.8-1-3.2-.5.3-.9 1.8-.9 3.3.1 4.1-2 7.5-4.2 6.9-1.1-.3-2.1 0-2.3.7-.3.8-1 .8-2.6-.2-1.1-.6-3-1.2-4-1.2-1.1 0-2.3-.5-2.6-1.1-.4-.6-2.1-.9-3.9-.8-4.3.3-9.6-1.9-8.9-3.7.3-.8-.1-1.4-1.1-1.4s-1.9-1.2-2.3-3.1c-.8-4.3-2.9-4.7-6.5-1-3.7 3.7-8.6 4.4-13.3 1.8-3.6-2.1-8.7-3.6-10.1-3-2.6 1-9.7-4.8-8.8-7.1.3-.8.1-1.7-.5-2.1-.6-.3-1.1-2-1.1-3.6 0-4.4-1.6-6.8-4-6.2-2 .5-2.8 3.8-1.1 4.5 1.6.6 0 6.7-2 7.3-1.1.4-1.7 1-1.4 1.5 1.1 1.7-4.3 2.2-7.2.7-4.3-2.2-10.4-4-13.5-3.9-1.8 0-2.8-.4-2.8-1.4 0-.8-.9-1.4-2-1.4-1.3 0-1.8-.5-1.4-1.5.4-.9 0-1.5-.9-1.5-1 0-1.3-.7-1-2 .3-1.1.1-2-.5-2-.5 0-1.2-2.2-1.6-4.9-.4-2.7-1.4-5.5-2.5-6.5-1.7-1.5-1.8-1.5-2.9.9-1.6 3.6-1.5 5.2.6 6.4 1.5.9 1.5 1-.5 1.1-1.5 0-2.1.5-1.7 1.4.9 2.3-3.2 4.4-7.4 3.8-2-.2-5.6-.5-8-.6-2.3 0-4.2-.5-4.2-1 0-.4-1.1-.5-2.6-.2-4.1 1.1-9.9-2.8-11.3-7.6-1-3.2-1.6-3.9-3.4-3.6-1.2.2-2.6 1.3-3.2 2.5-.8 1.8-1.7 2.2-5.7 2.1-3.5 0-4.8-.4-4.8-1.5 0-1-.6-1.2-1.9-.8-1.8.5-2 0-2.3-4.2l-.3-4.8-.7 6.4zm-93.7-.7c0 1.2.4 3.2.9 4.3.7 1.8.9 1.8 1.5.3.9-2.3.2-6.1-1.2-6.6-.8-.2-1.3.5-1.2 2zM168 95c0 1.3 1.1 1.3 3 0 1.2-.8 1.1-1-.7-1-1.3 0-2.3.4-2.3 1zm6.5 0c.3.5.8 1 1.1 1 .2 0 .4-.5.4-1 0-.6-.5-1-1.1-1-.5 0-.7.4-.4 1zm31.1 2.5c.4.8 1 1.2 1.5.9 1.4-.8 1-2.4-.6-2.4-.9 0-1.2.6-.9 1.5zM172.7 99c.5 2 1.5 2.5 2.6 1.4.9-.9-.4-3.4-1.8-3.4-.8 0-1.1.8-.8 2zm4.4-.3c-.1.6-.4 2-.7 3-.5 1.7-.5 1.7.6 0 .6-1 .9-2.3.6-3-.3-.9-.5-.9-.5 0zM171 103c0 .5.4 1 .9 1 .6 0 1.3-.5 1.6-1 .3-.6-.1-1-.9-1-.9 0-1.6.4-1.6 1zm5.6 2.7c-.4.5-1.7.8-2.9.8-1.4 0-2.3.8-2.7 2.5-.3 1.5-1.5 2.7-3 3.1l-2.5.7 2.8.3c6.6.6 9.3.6 10.7-.2.9-.5 1-.9.3-.9-.8 0-1-1.2-.6-3.5.5-3.3-.4-4.5-2.1-2.8z"/><path d="M265.1 108.3c-.1 1.6-.5 2.6-1.1 2.2-.5-.3-1-.1-1 .4 0 1.3 1 1.4 2.6.3.6-.4.7-1.7.3-3.2l-.7-2.5-.1 2.8zM213 111c0 .5.5 1 1 1 .6 0 1-.5 1-1 0-.6-.4-1-1-1-.5 0-1 .4-1 1zm-53 6c-.8.5-1.2 1.2-.9 1.5.4.3 1.2-.1 1.9-1 1.4-1.7 1.1-1.9-1-.5zm123.7.2c.6.7 1.5 2.6 2.1 4.3.9 2.6 1.1 2.7 1.1.7.1-2.8-1.6-6.2-3.1-6.2-.7 0-.7.4-.1 1.2zm31.3.3c0 .9.5 1.5 1.1 1.3.6-.2 1.1-.8 1.1-1.3s-.5-1.1-1.1-1.3c-.6-.2-1.1.4-1.1 1.3zm117 2.5c0 .5.5 1 1 1 .6 0 1-.5 1-1 0-.6-.4-1-1-1-.5 0-1 .4-1 1zm-118 7c0 .5.5 1 1 1 .6 0 1-.5 1-1 0-.6-.4-1-1-1-.5 0-1 .4-1 1zm194.8 2.7c.6.2 1.8.2 2.5 0 .6-.3.1-.5-1.3-.5-1.4 0-1.9.2-1.2.5zm-.8 3.3c0 .5.9 1 2 1s2-.5 2-1c0-.6-.9-1-2-1s-2 .4-2 1zm-226.3 4.2c-.8 3-.1 3.5 1.2.9.6-1.1.7-2.2.2-2.5-.5-.3-1.1.4-1.4 1.6zm74.3 1c0 1.9.2 2 1 .8 1.3-1.9 1.3-3 0-3-.5 0-1 1-1 2.2zm-66.8 4c-.2 5.7-.2 5.8 2.6 5.7 1.9-.1 2.1-.3.8-.6-1.5-.4-1.6-.7-.5-1.4s1.1-.9-.3-.9c-1.3 0-1.8-1.1-2.1-4.3-.3-3.6-.4-3.4-.5 1.5zm6.1 5.2c0 .7.5 1.3 1.1 1.3.6 0 2 .4 3.1.8 2.4 1 1.9.5-1.6-1.7-1.9-1.2-2.6-1.3-2.6-.4zm100.3-.5c-.4.5-.2 1.2.3 1.5.5.4 1.2.2 1.5-.3.4-.5.2-1.2-.3-1.5-.5-.4-1.2-.2-1.5.3zM316 150c-.7 1.3-.7 2-.1 2s1.5-.9 2.1-2c.7-1.3.7-2 .1-2s-1.5.9-2.1 2zm.3 2.7c-1.3.2-2.3 1.1-2.3 1.9 0 .9-.8 1.3-2.2 1.1-1.3-.2-1.7-.2-1 0 .6.3 1.2.8 1.2 1.2 0 1.4-4.8 0-6.9-2-2.1-2-2.8-1.5-1.3.8.9 1.4 8.5 4.3 11.4 4.3 1 0 3.5.9 5.6 1.9 2.3 1.1 6.8 2.1 11.7 2.4 7.1.5 7.4.5 2.7-.3-2.9-.6-6.2-1.5-7.2-2-2.4-1.3-3.3-1.3-2.4.1.4.7.1 1-.7.7-.8-.3-1.3-1.1-1.1-1.7.1-.7-.2-1-.7-.6-1.3.7-3.1-2.7-3.1-5.9 0-1.4-.3-2.5-.7-2.5-.5.1-1.8.4-3 .6zm-179.7 2.9c-1.8 1.7-2.2 6.4-.5 6.4.5 0 .7-.5.4-1.1-.4-.6-.1-.9.6-.8 1.9.3 4.9-1.1 4.9-2.3 0-.5-1.4-.7-3.2-.3l-3.3.6 2.5-2c1.4-1.1 2-2.1 1.3-2.1-.6 0-1.9.7-2.7 1.6zm297.5-.7c-.8.6-.9 1.1-.3 1.5.6.3 1.4.1 1.7-.5.9-1.4.2-2-1.4-1zm-78.9 3.3c.3.7 1.5 1.5 2.9 1.9 1.6.5 1.8.7.7.8-1 .1-1.8.5-1.8 1.1 0 .5-.5 1-1.2 1-.6 0-1.9.7-2.9 1.6-1.5 1.3-2.4 1.4-4.9.6-1.7-.6-4-.8-5.1-.4-1.5.6.3 1.2 6.3 2.1 9.9 1.6 16.9 5.2 21.7 11.2 2.6 3.2 3.6 3.8 4.3 2.8.7-1 .8-.8.3.7-.4 1.4 0 2.4 1 2.8.8.3 2 1.6 2.5 2.8.8 2 .9 2 .9.4.1-1.1-.6-2.8-1.6-3.8-.9-1.1-1.1-1.8-.5-1.8.7 0 1.2.5 1.2 1 0 .6.6 1 1.3.9.6-.1 1.9 0 2.7.3.8.3 3.4 1.1 5.7 1.7 4.8 1.3 9.3 6 9.3 9.7 0 1.3.5 2.4 1 2.4.6 0 1-.3 1-.8 0-1.2 6-4.2 8.3-4.2 1.2 0 4.8.9 8 2s6.2 1.9 6.5 1.9c3.3-.5 5.8.8 10.2 5.2 4.6 4.6 5 5.3 4.4 8.5-.5 2.9-.4 3.3 1 2.8.9-.3 1.6-1.4 1.6-2.4s1.3-3.2 2.9-4.9c2.4-2.6 3.4-3 6.2-2.6 1.9.3 4.2.7 5.1.9 1 .1 2.1.5 2.4.9.4.4 2.8.7 5.4.7 4.8 0 10 1.8 10 3.4 0 .6 1.2 2.3 2.7 3.8 1.5 1.5 2.1 2.8 1.4 2.8-.7 0-.9.4-.6 1 1.1 1.8 3.4 1.1 6.7-2 3.5-3.4 6.2-3.7 11.6-1.4 2 .8 5.6 1.6 7.9 1.7 2.4.1 4.3.5 4.3.9s1.4 1.5 3 2.5c1.9 1.1 3 2.5 3 4 0 1.3.5 2.3 1 2.3 1.6 0 1.3-20.7-.2-21.3-1-.4-1-.6 0-.6 1.4-.1 1.7-5.1.2-5.1-.5 0-1 .8-1 1.7 0 1-1.5 2.8-3.3 4l-3.2 2.1-7.5-1.9c-4.1-1-8.7-1.9-10.2-1.9-2.7 0-7-5-11.5-13.1l-1.8-3.4-.3 3.8c-.3 2.9-.7 3.7-1.8 3.3-.9-.3-1.2-.1-.9.4.3.6-.6 1.5-2.2 2.1-2.1.8-4.4.7-9.3-.5-3.6-.8-8.3-1.6-10.4-1.8-4.4-.3-9.6-4.1-9.6-7 0-1-.4-1.8-.8-1.8-.5 0-1.5-1.2-2.2-2.8l-1.3-2.7-.9 2.6c-1.6 4.7-5.9 5.9-13.8 3.8-2.5-.6-6.5-1.2-9-1.3-2.5 0-5.1-.6-5.8-1.1-3.8-2.9-5.2-4.7-5.2-6.9 0-1.4-.4-2.8-1-3.1-.5-.3-1.4-2.4-2-4.5-1.5-5.4-3-5-3 .7 0 6.1-.6 6.9-5.9 8.8-5.3 1.8-5.1 1.8-5.1-.1 0-.8-.4-1.3-.9-.9-.5.3-2.6-.5-4.7-1.7l-3.7-2.2.5 2.7c.3 1.8 0 3.1-1.1 3.9-1.4 1.2-1.4 1.1-.2-.5 1.2-1.5 1.1-1.7-.2-1.7-.9 0-2.1-.9-2.7-2-.6-1.1-1.8-2-2.6-2s-1.2-.5-.9-1c1.2-1.9-1.7-4.2-4.3-3.5-2 .5-2.3.3-1.7-1.4.3-1.1.1-2.2-.5-2.6-.6-.4-.8-1.5-.5-2.4.3-1 .3-2.6-.1-3.5-.7-1.9-5.8-2.3-5.2-.4zm1.5 7.4c-.3.3-1.2.4-1.9.1-.8-.3-.5-.6.6-.6 1.1-.1 1.7.2 1.3.5zm9.8 4.3c1 1.7-1.2 2.1-2.5.6-1-1.2-1-1.5.3-1.5.9 0 1.8.4 2.2.9zM163 158.8c0 .4.6 1.4 1.3 2.3 1.1 1.5 1.6 1.5 3.7.3 1.4-.7 2.3-1.3 2-1.4-.3 0-2-.4-3.8-.9-1.7-.5-3.2-.7-3.2-.3z"/><path d="M350.8 161.7c.6.2 1.8.2 2.5 0 .6-.3.1-.5-1.3-.5-1.4 0-1.9.2-1.2.5zm-198.3 5c-6.5.5-8.5 1.2-8.5 2.9 0 1.3 1.4 1.4 9.4 1 8-.4 9.6-.3 10.8 1.1.9 1.2.9 1.5.1.9-.9-.5-1.3 0-1.3 1.3 0 1.2-.4 2.1-1 2.1-.5 0-1 .5-1 1.1 0 .6.6.9 1.4.6.8-.3 1.6-.2 1.8.3.7 2.2 2.7-.9 3.2-5.2.6-5.1-.1-5.9-5-5.2-2.4.4-2.6.3-.9-.5 1.7-.8 1.4-.9-1.5-.9-1.9.1-5.3.3-7.5.5zm-16.3 3.5c.5 1.5 2.8 2.3 2.8 1 0-.5-.7-1.3-1.6-1.6-1-.4-1.4-.1-1.2.6zm233.8.8c0 .5.5 1 1 1 .6 0 1 .9 1 2s.5 2 1 2c1.4 0 1.2-2.2-.4-4.3-1.5-1.9-2.6-2.2-2.6-.7zm-224.5 3c-.3.5-.3 1 .1 1s-.1.7-1.2 1.5c-1 .8-1.4 1.5-.8 1.5 1.1 0 4.4-3.2 4.4-4.3 0-1.1-1.8-.8-2.5.3zm25.1 2.7c-.6 1.4-.5 1.5.5.6.7-.7 1-1.5.7-1.8-.3-.3-.9.2-1.2 1.2zM140 178c0 .5.5 1 1 1 .6 0 1-.5 1-1 0-.6-.4-1-1-1-.5 0-1 .4-1 1zm4 5.2c0 1.2.3 1.7.8 1.2.4-.5 1.1-1.2 1.5-1.5.5-.3.2-.9-.7-1.2-1.2-.5-1.6 0-1.6 1.5zm328-.2c0 .5.7 1 1.6 1 .8 0 1.2-.5.9-1-.3-.6-1-1-1.6-1-.5 0-.9.4-.9 1zm-90.9 2.6c0 1.1.3 1.4.6.6.3-.7.2-1.6-.1-1.9-.3-.4-.6.2-.5 1.3zm-253.1 29c0 .8.5 1.2 1 .9.6-.4.8-1.1.5-1.6-.9-1.4-1.5-1.1-1.5.7zm175.2 1.7c-.7.8-.9 1.6-.6 2 .3.3 0 1.6-.7 2.9-1.2 2.2-1.1 2.2.6.8 1.7-1.4 1.8-1.3 1.2.2-.9 2.5 1.9 2.3 3.3-.1.7-1.4.7-2.2 0-2.6-.6-.4-.9-1.4-.8-2.2.4-2.1-1.6-2.7-3-1zm96.2 3.1c.4 1.1 0 2.6-.9 3.6-1.3 1.4-1.4 2.6-.6 5.9.8 3.8.7 4.1-.7 2.9-.9-.7-1.3-.8-.9-.2.4.7 0 1.7-.8 2.4-1.2 1-1.5.7-2.1-1.5-.3-1.4-.9-2.4-1.1-2.1-.3.3.9 6 2.5 12.8 3.3 13.4 7.2 37.7 7.1 44.8-.1 2.5 0 6 .2 7.8.2 2.2-.5 4-2.1 5.7-1.3 1.4-1.8 2.5-1.1 2.5s.9.4.6 1c-.3.5.3 3.1 1.5 5.7 1.7 3.8 2.3 4.5 3.1 3.3.7-1.1.8-.7.4 1.5-.6 2.9-.6 2.9.9 1.1.9-1.1 1.6-1.5 1.6-1 0 .6-.5 1.5-1.1 2.1-1.2 1.2-.3 7.3 1.2 7.3.5 0 .8.8.7 1.7-.3 2.6 1.3 9.3 2.2 9.3.5 0 .6.8.3 1.8-.2 1 .5 2.9 1.7 4.3l2.1 2.4-.5-2.5c-.3-1.4-.3-1.9 0-1.3.8 1.9 2 1.6 4.4-.9 1.8-1.9 2.9-2.2 8.3-1.9 3.4.2 7.5.4 9.2.5 2 .1 3.1.7 3.3 1.8.2 1 .9 1.8 1.6 1.8 1.8 0 4.9 3.7 4.1 4.9-.3.6-.3 1.7.2 2.3 1.4 2.4 1.3 24.1-.2 26.4-2.6 4-9.2 4-26.2-.3-2.3-.5-2.3-.4-2.3 9.4 0 6.4.4 10.3 1.2 11.1.9.9.9 1.2 0 1.2-.7 0-1.2.7-1.2 1.5s.6 1.5 1.4 1.5c.8 0 2.2.3 3.2.7 1.2.4 1.5.3 1-.5-.4-.8 0-1.2 1.1-1.2 1.4 0 1.5-.2.5-.9-2.4-1.5 1.4-2.1 6.6-1.1 2.6.6 6.2 1.3 7.9 1.6 1.8.4 4.8 2.1 6.6 3.9 3.3 3.2 3.5 3.7 4.1 13.4l.8 10.1h11.1l-.6-7.5c-.4-4.6-.3-7.5.3-7.5s1-.6 1-1.3c0-2.2 6.5-3.9 11.7-3.1 9.4 1.3 15.2 6.1 15.3 12.6 0 6.2.6 6.8 6.4 6.8 5.2 0 5.3 0 5.3-3 0-4.8 6.9-9.8 11.7-8.6l2.6.6v-18h-3c-6.8 0-13-6-13-12.8 0-2-.3-2.3-.9-1.3-.6.9-.9-3.4-.9-11.2 0-11.7.2-12.7 2.3-14.7 2.4-2.3 6-2.8 11.8-1.6l3.7.8v-16.9c0-9.3-.3-17.3-.6-17.6-.4-.3-1.5-.2-2.5.3-1.3.7-2 .6-2.6-.4-.8-1.4-5.2-2.6-11.3-3-1.9-.2-4.3-.4-5.2-.5-.9 0-2-1-2.3-2.1-.4-1.1-1-1.8-1.5-1.5-.8.5-2-4.2-2-8.1 0-1.3-.4-2.4-.9-2.4s-1.2-1.5-1.5-3.4c-.9-4.7-2.8-5-4.3-.7-.8 2.4-.9 3.7-.2 4 .6.2.1 1-1 1.7-1.1.8-1.8 2-1.6 2.7.3.6-.4 2.3-1.4 3.7-1.7 2.1-2.1 2.2-3.5 1-.9-.7-3.1-1.4-4.9-1.5-1.8-.2-3.9-.5-4.7-.8-.8-.3-3.1-.8-5-1.1-5.7-1-6.2-1.2-7.4-3.5-.7-1.2-1.5-1.8-2-1.4-.4.4-.4 0 0-1 .3-.9.2-2.3-.4-3-1-1.2-2.4-7.3-2.7-11.6-.1-1.4-.7-2.7-1.3-2.9-1.7-.5-3.4 3.7-3 7.4.2 1.9.1 3.4-.3 3.4s-.9 1-1.1 2.2c-.5 3.4-6.9 5.3-10.8 3.3-1.6-.8-5.5-1.5-8.8-1.5-4.9 0-6.4-.4-8.6-2.5-1.5-1.4-3.2-2.2-3.8-1.9-.7.4-.7 0 0-1.3 1.4-2.6.4-6.3-1.4-5.6-1 .4-1.2 0-.8-1.1.3-.9.1-1.6-.5-1.6s-1.1-1.4-1.1-3.1c0-3.8 1.5-3 2.4 1.2.3 1.8.8 3 1.1 2.8.8-.8-1.5-7.9-2.5-7.9-.6 0-1-1.5-1-3.4s-.4-3.7-.8-4c-.5-.3-1.4-4.5-2.1-9.3-.7-4.8-1.6-10.3-2.1-12.1-.5-1.9-.5-3 .1-2.7.5.4.9 1.3.9 2.1s.4 1.4.9 1.4 1.3.9 1.6 2.1c.7 2 .8 2 3.5-1 3-3.3 6.5-4 10.1-2 1.1.5 5.4 1.4 9.6 1.9 6 .6 8 1.3 9.8 3.2 3.8 4.1 4.5 6.5 4.8 15.7.1 4.9.6 8.7 1.1 8.4.4-.3.6-2.8.3-5.6-.5-5.4.3-7.5 4.7-12.5 3.2-3.5 6.2-4 10.4-1.8 4 2.1 6.3 2.9 10 3.3 6.6.7 12.1 4.7 12.2 9 0 1.2.5 2.5 1 2.8.6.3 1 3.7 1 7.5 0 5.3.3 6.9 1.6 7.4 1.2.5 1.5.2.9-1.1-2-5.1-1.7-8.2 1.5-15 1.8-3.7 3.5-6.2 3.7-5.6.3.9 1.7 1.1 4.4.7 3.2-.5 3.9-.4 3.9 1 0 1.7 2.2 2.1 9.1 1.7 2.5-.2 3.8.2 4.2 1.3.4.9 1.6 1.6 2.7 1.6 1.8 0 2-.6 2-7 0-3.9-.3-7-.7-7-.5 0-2.1.7-3.7 1.5-1.8 1-3.3 1.2-4 .6-.6-.5-1.3-.9-1.6-.9-.3 0-2.7-.4-5.5-.8-2.7-.4-5.6-.7-6.3-.5-2.4.4-9.2-5.9-9.2-8.5 0-1.4-.7-2.7-1.5-3-.8-.4-1.5-1.5-1.5-2.5s-.7-1.9-1.5-1.9-1.5.7-1.5 1.5-.4 1.5-.8 1.5c-.5 0-1.4 1.2-2.1 2.6-1.1 2.4-1.5 2.5-6.4 2.1-2.8-.3-7-.8-9.2-1.2-2.2-.3-5.5-.8-7.2-1.1-3.9-.6-9.6-5.4-8.8-7.5.3-.8-.4-3.8-1.4-6.7-1.1-3-1.7-6.1-1.3-7 .5-1.6.5-1.6-1.1 0-1.1 1.1-1.8 3.6-2 7.2-.2 5.2-.4 5.6-4 7.6l-3.7 2.2-4.7-2.3c-3.2-1.6-6.3-2.2-10.6-2.2-3.3.1-5.4-.2-4.8-.7.9-.5.7-.9-.7-1.2-2.5-.7-6-8.4-6.8-14.7-.3-2.5-1-5.2-1.5-6-.9-1.3-.9-1.3-.5.3zm.3 6.8c-.3.8-.6.5-.6-.6-.1-1.1.2-1.7.5-1.3.3.3.4 1.2.1 1.9zM407 293c0 .5-.6 1-1.4 1-.8 0-1.8-.5-2.1-1-.3-.6.3-1 1.4-1 1.2 0 2.1.4 2.1 1zm63.8 53.5c1.5.2 4.1.9 5.7 1.6 1.7.7 3.3 1.2 3.7 1.1 1.4-.3 3.6 4.2 4.7 9.6.6 2.9 1.1 9.7 1.1 15.1 0 8.3-.3 10-2 11.7-4.3 4.3-4.3 4.3-12.1 2.3-9.6-2.5-11.5-3.6-13.3-7.3-1.3-2.8-3-19.8-2.8-27 .2-3.4 3.7-7.6 6.4-7.6 1 0 1.8-.5 1.8-1 0-.7.7-.7 2 0 1.1.6 3.3 1.3 4.8 1.5zM113.7 219.6c-.4.4-.7 1.4-.7 2.3 0 1.1.3 1.2 1.1.4.6-.6 1-1.6.7-2.3-.2-.6-.7-.8-1.1-.4zm362.5 4.9c-.1 1.9.3 3.5.8 3.5.6 0 1-.9 1-1.9 0-1.1.3-2.6.6-3.5.4-1 .1-1.6-.8-1.6-1 0-1.5 1.2-1.6 3.5zm-37.6-1.6c-.3.5.1 1.1.9 1.4.9.4 1.2.1.8-.9-.6-1.6-1-1.7-1.7-.5zM109 228.7c0 .4.5 1.5 1 2.3.8 1.3 1 1.3 1-.2 0-.9-.4-2-1-2.3-.5-.3-1-.3-1 .2zm-5.1 10c-1.3 1.6-1.2 1.7.4.4.9-.7 1.7-1.5 1.7-1.7 0-.8-.8-.3-2.1 1.3zM340 257.4c0 .2.7.7 1.6 1 .8.3 1.2.2.9-.4-.6-1-2.5-1.4-2.5-.6zM168.1 260c0 .8.4 2.2.9 3 1.2 1.8 1.2.2 0-2.5-.6-1.3-.9-1.5-.9-.5zm-69.6 3.3c-.5 1.8-.3 3.3.4 4 1.7 1.7 2.3.2 1.3-3.4l-.9-3.4-.8 2.8zm246.5-.9c0 .2.8 2.1 1.7 4.2 1.4 3.3 1.8 3.6 2.1 1.7.2-1.3-.5-3-1.7-4.2-1.2-1.2-2.1-1.9-2.1-1.7z"/><path d="M405.2 275c0 1.4.2 1.9.5 1.2.2-.6.2-1.8 0-2.5-.3-.6-.5-.1-.5 1.3zm-302.1-.1c-1.2.8-1.2 1.2.2 2.6 1 .9 1.7 1.5 1.8 1.3.4-1.7.4-4.8 0-4.8-.3 0-1.2.4-2 .9zm-7.5 3.8c-.6 1.4-.5 1.5.5.6.7-.7 1-1.5.7-1.8-.3-.3-.9.2-1.2 1.2zM382.9 294c-8 1.4-20.2 5-23.5 7.1-3.6 2.2-5 4.7-3.4 6.3.5.5 1 1.9 1 3.1 0 1.2.4 2.5.9 3 1.2 1.4 6.1 16.2 6.1 18.6 0 1.1.4 1.7 1 1.4.6-.3.7.1.4 1-.4.8.2 3.2 1.1 5.2 1 2.1 1.7 5.3 1.7 7.2-.1 2 .5 4.5 1.3 5.8.8 1.2 1.5 3.1 1.5 4.2s.6 2.2 1.3 2.4c1 .4 1 .6 0 .6-1.6.1-1.7 3.7-.2 4.7.6.3.9 2.3.7 4.4-.2 2.1 0 3.6.4 3.4.5-.3.8 0 .8.5 0 .6.6 1 1.3.9 1.3-.3 1.3.4.2 4.1-.5 1.5-.4 2.1.3 1.7.6-.4 1.5.2 2.1 1.1.9 1.6 1 1.6 1.1-.5 0-1.3.4-2 1-1.7.6.3 1 2.4 1 4.6 0 4 1.5 5.4 2.3 2.2.4-1.6.5-1.6.6-.1 0 .9-.6 2.3-1.4 3.1-1.3 1.3-1.3 1.6 0 2.1.8.3 1.5 1.3 1.5 2.3 0 1.5-.2 1.6-1 .3-1.8-2.7-1 0 1.9 7.3 3.8 9.4 4.1 10.5 4.2 16.5.1 2.8.6 4.9 1 4.6.5-.3.9-1.2.9-2 0-2 2-1.7 2.1.3 0 1.3.3 1.2 1-.6.7-1.7 1.5-2.2 2.9-1.8 1.1.3 2.3.1 2.6-.4.3-.5-.1-.9-.9-.9s-1.8-.7-2.1-1.6c-.5-1.2-.1-1.4 1.7-.9 2.2.6 2.2.6.2-1-1.1-.9-2-2.1-2-2.8 0-.7-1.1-1.1-2.5-1-1.4.1-1.7-.1-.8-.3 1-.3 1.5-1.1 1.1-2-.3-.8-.1-1.4.5-1.4.5 0 1.2.7 1.6 1.5.3.8 1.1 1.5 1.8 1.5 1 0 1-.2.1-.8-.7-.5-.9-1.3-.3-2.1.4-.8.6-2 .3-2.8-.3-.7 0-2 .6-2.7.9-1.1.7-1.7-.9-2.9-1.4-.9-1.7-1.6-.9-1.9.9-.3.9-.9-.1-2.7-1-1.9-1-2.5.1-3.2 1.1-.7 1.1-1.1.2-1.7-.7-.5-1.1-2.3-.9-4.5.3-3.3.2-3.6-1.2-2.5s-1.4 1.1-.4-.7c.9-1.6.7-2.5-1.1-4.5l-2.2-2.5 2.6 2.3c2.5 2.2 6.6 2.2 5.3 0-.3-.5-1.2-.7-1.9-.4-.7.2-2.1-.5-3.2-1.7-1.6-1.9-1.6-2 0-.8 1.3 1 2 1.1 3 .2.8-.6 1.6-1 1.8-.8.2.1-.4-.4-1.3-1.2-1-.7-1.8-2-1.8-2.7 0-.8-.4-1.4-1-1.4-1.5 0-1.2 1.7.6 3.5.9.9 1.4 1.8 1.2 2.1-.3.2-1.3-.5-2.3-1.6-1.8-1.9-1.8-2.2-.2-5.6 1.1-2.2 2.2-3.3 3-2.8.9.5.9.4 0-.7-.7-.7-1.3-2.1-1.3-3.2 0-1-.4-1.6-.8-1.3-.4.2-.8-.4-.8-1.5 0-1.9.1-1.9 1.3-.3.7.9 1.4 2.2 1.6 2.8.2.6.8.7 1.3.3.5-.4.4-1.1-.1-1.5-3.3-2.3-4-10-.9-8.8 2.1.8 1.7-.2-1.1-3-3.1-3.1-3.2-3.8-.2-2.3 1.9 1 1.8.7-.7-1.9-2.2-2.4-2.6-3.4-1.8-4.8.7-1.3.5-2.5-.7-4.3-1-1.7-1.2-2.2-.3-1.7 1 .6 1.3.3 1.1-1-.2-1.1 0-2.5.4-3.2.5-.6.6-1.2.2-1.2-.3 0-.1-.9.5-2 .8-1.4.8-2 0-2-.6 0-1-.6-.9-1.3.3-1.4-1.4-5.9-3.6-10-.8-1.6-1.5-3.5-1.5-4.2 0-1.7 4-4.6 5.2-3.9 1 .7.4-4.8-.7-6.5-.7-1.2-3.8-1.2-10.6-.1zm-8.7 4.7c-.6.2-1 .8-.8 1.2.3.4-.9.5-2.7.2l-3.2-.5 3-.7c3.6-.8 5.5-.9 3.7-.2zm-2.9 3c-.7.2-1.9.2-2.5 0-.7-.3-.2-.5 1.2-.5s1.9.2 1.3.5zM370 304c0 .5-.4 1-1 1-.5 0-1 .8-1.1 1.7 0 1.1-.2 1.3-.6.5-.3-.7-.2-1.9.1-2.7.6-1.7 2.6-2 2.6-.5zm4 .9c0 1.2-2 2.5-2.7 1.8-.7-.7.6-2.7 1.8-2.7.5 0 .9.4.9.9zm17 12.7c0 1.4-.4 2.3-1 1.9-.5-.3-1-1.5-1-2.6 0-1 .5-1.9 1-1.9.6 0 1 1.2 1 2.6zm-3.5 1.4c.3.5.1 1-.4 1-.6 0-1.1-.5-1.1-1 0-.6.2-1 .4-1 .3 0 .8.4 1.1 1zm5.5 2.5c-.6.8-.9 1.8-.6 2.4.4.6-.4.6-2.1.2-3.7-1-4-2.9-.6-3.4 1.5-.2 3.2-.5 3.7-.6.5 0 .3.6-.4 1.4zm1.9 37.9c.8 1 .8 1.6-.1 2.4-1 .8-1.3.4-1.3-1.4 0-2.8-.1-2.8 1.4-1zm-19.8 10.9c-1 .9-1.1.8-.5-.6.3-1 .9-1.5 1.2-1.2.3.3 0 1.1-.7 1.8zM398 399c0 .5-.2 1-.4 1-.3 0-.8-.5-1.1-1-.3-.6-.1-1 .4-1 .6 0 1.1.4 1.1 1zm-3 17c-.8.5-2.2.9-3 .9-1 0-.8-.3.5-.9 2.7-1.2 4.3-1.2 2.5 0zm-36.2-83.5c1.1 19.9.5 31.3-1.9 35.3-2 3.6-2.4 4.6-1.1 3.8.4-.2.8.4.8 1.5 0 1.9-.1 1.9-1.3.3-1.1-1.5-1.6-1.4-5.7 2l-4.5 3.7.4 7.2c.2 4 1.1 9.3 2 11.7.9 2.5 2.3 7.3 3.1 10.8.8 3.5 2.4 8.8 3.5 11.8l2 5.4H378l-.5-11.1c-.3-6.1-.8-12.2-1.1-13.5-.4-1.4-.1-3.7.5-5.3 1-2.4.7-4-2.2-12.2-5.3-14.3-8.5-25.9-11.7-41.9-4.6-23.3-5-24.3-4.2-9.5z"/><path d="M395.3 335.7c-.7.2-1.3 1-1.3 1.6 0 .8.3.8 1.2-.1.9-.9 1.5-.7 2.5.6 1.3 1.5 1.3 1.5.3-.6-.6-1.2-1.2-2.2-1.3-2.1-.1 0-.8.3-1.4.6zm17.1 9.9c-.8.3-.8 1.7-.1 4.7 1.7 7.1 1.8 7.4 2.7 5.2.4-1.1.3-2.3-.2-2.6-.6-.4-.5-.9.3-1.2 1-.4 1-.6.2-.6-.7-.1-1.3-.8-1.3-1.7 0-.8.5-1.2 1.1-.8.8.4.8 0 0-1.5-.7-1.1-1.3-2.1-1.4-2-.1 0-.7.3-1.3.5zm-15.2 6.4c.7 1 1.4 1.8 1.5 1.6.6-.6-.9-3.6-1.8-3.6-.5 0-.4.9.3 2zM0 357.8c0 .4 1.9 1.4 4.3 2.3 25.7 9.7 79.5 31.4 80.7 32.5 1.6 1.7 1.7 1.7-9.2-3-2-.9-4.4-1.3-5.3-1-1.5.6 19.9 9.6 33.8 14.1 2.6.9 4.5 1.8 4.3 2-.3.3-1.9 0-3.8-.6-10.1-3.2-13.6-4.4-27.8-9.6-33.5-12.2-37.8-13.9-37.4-14.6.2-.4-.6-.5-1.8-.2-1.7.3-1.9.2-.9-.5.9-.7-.7-1.6-6-3.3-4.1-1.3-8.2-2.2-9.2-2.1-1.2.1-1.6-.2-1.1-1s.2-.9-.9-.5c-1 .3-1.7.3-1.7-.1s-1.2-.8-2.6-.9c-1.5 0-3-.7-3.4-1.3-.5-.7-1.5-1-2.3-.7-.8.3-1.8.2-2.3-.2-.5-.5-2.4-1.3-4.1-1.9L0 366.1V426h12.9c12.5 0 12.9-.1 13.5-2.3l.6-2.2 1.9 2.2c1.9 2.3 2.2 2.3 26.4 2.3h24.4l.1-13.7c.1-9.7-.2-14-1.1-14.5-3.5-2.2 3.2-.3 14.8 4.3 7.2 2.8 14.4 5.2 16 5.4 3.3.3 13.4 3.7 16.2 5.5 1.5.9 1.4 1-.7.4-1.4-.3-5.2-1.7-8.4-3-6.8-2.7-7-2.8-6.1-1.3.4.6.7 3.8.6 7.2-.1 9.9-.4 9.7 10.5 9.7h9.4v-4.6c0-3.2-.5-5.1-1.6-5.9-1.5-1.1-1.5-1.2.5-1.8 1.5-.4 2.1 0 2.2 1.1 0 1.4.2 1.3.8-.2 1.4-3.5-3.6-7.5-18.4-14.8-7.7-3.8-12.9-6.6-11.5-6.3 1.4.4 2.1.4 1.7-.1-.4-.4-2-.9-3.5-1-5.9-.3-5.9-.3-4.2-1.5 1.2-.8 1-.9-.9-.4-1.5.5-2.1.4-1.7-.4.4-.6-.5-.9-2.8-.7-1.9.1-3.4-.2-3.3-.8.1-.5-1.4-1.4-3.3-2-1.9-.5-3.7-1.3-4-1.6-.7-.9-9-4.1-9-3.5 0 .3 1.2 1 2.6 1.6 1.5.5 2.5 1.2 2.2 1.4-.2.2-3.1-.7-6.4-2-3.2-1.4-6.7-2.5-7.6-2.5-.9 0-1.9-.4-2.2-.9-.3-.4-1.8-1.1-3.3-1.4-1.6-.3-3.7-1.3-4.8-2.2l-2-1.6 2 .9c2.6 1.2 8.2 2.5 7.4 1.8C58.4 375 21 363 17.5 362.9c-3 0-3.5-.2-2-.8 1.6-.7 1.3-.9-2-1.6-2.2-.5-4.3-.8-4.7-.7-.4.1-2.3-.5-4.2-1.3-4-1.7-4.6-1.8-4.6-.7zm25 17.7c.7.9.8 1.5.2 1.5-.5 0-1.2-.7-1.6-1.5-.3-.8-.4-1.5-.2-1.5s.9.7 1.6 1.5zm9 3.5c-1.2.8-1.2 1-.1 1 .8 0 1.2.3.8.6-.9.9-2.8-.6-2.2-1.7.4-.5 1.2-.9 1.8-.9.7 0 .6.4-.3 1zm56 14.5c0 .2-.6.5-1.3.8-.8.3-1.4-.1-1.4-.8 0-.7.6-1.1 1.4-.8.7.3 1.3.6 1.3.8zm7.5 3.5c1.3.5 1.4.9.5.9-.8 0-2.4-.4-3.5-.9-1.3-.5-1.4-.9-.5-.9.8 0 2.4.4 3.5.9zm10.5 1c.8.5 1.1 1 .5 1-.5 0-1.7-.5-2.5-1s-1-1-.5-1c.6 0 1.7.5 2.5 1zm-4.3 1.6c-.3.3-1.2.4-1.9.1-.8-.3-.5-.6.6-.6 1.1-.1 1.7.2 1.3.5zm12.6 4.8c12.1 5.1 15.1 6.6 14.4 7.2-.2.2-4.8-1.6-10.1-4.1-5.4-2.5-10.3-4.5-10.9-4.5-1.2-.1-5.6-3-4.5-3 .3 0 5.3 2 11.1 4.4zM34 405.6c0 1.8-1.3 2.4-3 1.4-1.1-.7-1.1-1.2-.2-2.3.7-.7.8-1.8.4-2.3-.4-.4.1-.2 1.1.5.9.7 1.7 1.9 1.7 2.7zm-1-46.5c4.2 1.9 33.3 13.4 92.5 36.4 13.2 5.1 35.9 14.1 50.4 19.9 21.7 8.8 27.2 10.6 31.5 10.6l5.1-.1-4-1.8c-9.5-4.4-46.2-19.2-75-30.1-9.9-3.8-25.2-9.7-34-13.1-38.9-14.9-56-21-57.6-20.6-1.1.3-1.7 0-1.6-.7.1-.6-1.2-1.1-3.3-1.2-1.9 0-4.6-.3-6-.7-1.4-.4-.5.2 2 1.4zm382 1.9c-1.3.8-1.2 1 .3 1 .9 0 1.7-.5 1.7-1 0-1.2-.1-1.2-2 0z"/><path d="M.1 361.4c.2.2 3.8 1.8 7.9 3.4 4.1 1.7 13.1 5.3 20 8.1 13.3 5.4 33.1 12.3 33.7 11.7.2-.1-6.8-3-15.4-6.4-8.7-3.3-22.2-8.6-30.1-11.6-12.7-5-17.5-6.5-16.1-5.2zm269.6 4c-.5 1.2-1.3 1.3-4.3.5-2.5-.7-4.5-.7-6.3 0-1.4.6-5.5 1-9.1 1-3.6-.1-10.2.4-14.7 1.1-6.9 1-8.2 1.5-8.7 3.4-1 3.7-.7 5.4 1.2 5.9 1.5.4 1.5.5.1.6-1.4.1-1.5.7-.7 3.8l.9 3.8 10.2-.2 10.2-.1-11 1.3-11 1.3 12-.5c6.6-.2 12.5-.9 13.1-1.4.6-.5 6.9-1 14-1.2l12.9-.2-.4-8.5c-.2-6.7-.7-8.9-2.2-10.3-2.2-2.1-5.5-2.2-6.2-.3zm13.7 8.8c.3 5 .7 9.2.9 9.3.9.6 14.6-.9 14.1-1.6-.5-.8.8-1.5 7.2-3.9 2-.8 2.1-1.3 1.3-6.1-.5-2.9-1.4-5.6-2.1-6.1-.7-.4-6-.8-11.7-.8h-10.4l.7 9.2zm132.5-4c.4 2.8.6 2.9.9.9.2-1.3 0-2.7-.5-3.2-.6-.6-.7.3-.4 2.3zm-202 2.8c-4.7 1-10.4 2.7-12.8 3.9l-4.2 2.2.3 5.7.3 5.7h7c3.9 0 10.2-.8 14.1-1.9l7.1-1.8-1.4-4.2c-.9-2.4-1.2-5.6-.9-7.9.4-2 .3-3.7-.1-3.6-.5 0-4.6.9-9.4 1.9zm126.1.9c0 1.1.4 2.2.9 2.5.4.3.6-.6.3-1.9-.5-3-1.2-3.3-1.2-.6zm78.5-.9c.3.5 1.1 1 1.6 1 .6 0 .7-.5.4-1-.3-.6-1.1-1-1.6-1-.6 0-.7.4-.4 1zM62 377.9c.8.5 2.6 1.2 4 1.5l2.5.7-2.5-1.5c-1.4-.9-3.2-1.5-4-1.5-1.3 0-1.3.1 0 .8zm265.5 3.6c5 1.8 5.7 1.8 2.5 0-1.4-.8-3.4-1.4-4.5-1.4s-.2.6 2 1.4zm-137.3 3c0 1.6.2 2.2.5 1.2.2-.9.2-2.3 0-3-.3-.6-.5.1-.5 1.8zm144.8-1.1c0 .2 1.2 1.1 2.6 2.1 1.7 1.1 2.5 1.2 2.2.4-.4-1.1-4.8-3.4-4.8-2.5zm-145.9 6.2c0 1.1.3 1.4.6.6.3-.7.2-1.6-.1-1.9-.3-.4-.6.2-.5 1.3zm34.4 2.4l-3 .8 2.7.1c1.5 0 3-.4 3.3-.9.3-.6.5-.9.3-.9-.2.1-1.6.5-3.3.9zm-19.7.7c.7.3 1.6.2 1.9-.1.4-.3-.2-.6-1.3-.5-1.1 0-1.4.3-.6.6zM107 395c.8.5 2 1 2.5 1 .6 0 .3-.5-.5-1s-1.9-1-2.5-1c-.5 0-.3.5.5 1zm4 1.4c.3.3 4.8 2.6 9.9 5.2 5.2 2.6 10.7 6 12.2 7.5 2.7 2.8 5.9 3.1 5.9.5.1-.6.9-.1 1.9 1.1 1 1.2 2.2 1.9 2.6 1.5.5-.4.6 0 .2 1-.4 1.1.6 2.4 3.2 4.2 2 1.4 4.3 2.6 4.9 2.6.7 0 2.4.7 3.7 1.6 1.3.9 2.8 1.3 3.4 1 .5-.4 3.3.3 6.2 1.4 2.8 1.2 5.6 1.9 6.2 1.7.6-.2-3-1.7-7.9-3.4-13-4.6-14.7-5.3-14.2-5.8.3-.3 2.2.2 4.3 1 2 .9 4.5 1.3 5.3 1 .9-.3 1.3-.3.9.1s1.9 1.6 5.1 2.6c3.1 1 6.9 2.5 8.4 3.3 1.4.8 4.3 1.5 6.5 1.5 3.2-.1 1.4-1-11.2-5.9-8.2-3.1-17.4-7-20.2-8.4-2.9-1.5-5.5-2.7-5.8-2.7-1.8.1-7.3-2-16.9-6.5-11-5.2-15.5-7.1-14.6-6.1zm305 16c0 9 .3 11.6 1.5 12.6.9.7 1.9 1 2.2.6.4-.4.3-1-.3-1.4-.5-.4-1-5.3-.9-11.4 0-7.7-.4-10.9-1.2-11.3-1-.3-1.3 2.2-1.3 10.9zm-272.2-7.2c.5.5 1.6.8 2.3.6.8-.3.3-.7-1-1.1-1.7-.4-2.1-.3-1.3.5zM156 410c.8.5 2 1 2.5 1 .6 0 .3-.5-.5-1s-1.9-1-2.5-1c-.5 0-.3.5.5 1zm123.2 2c0 1.4.2 1.9.5 1.2.2-.6.2-1.8 0-2.5-.3-.6-.5-.1-.5 1.3zm-118.7 0c.3.5.8 1 1.1 1 .2 0 .4-.5.4-1 0-.6-.5-1-1.1-1-.5 0-.7.4-.4 1z"/><path d="M139.1 416.7c.1 2.7.5 5.9.9 7.3.7 2 .8 1.6 1-2.5.2-2.8.4-3.9.7-2.5 1.1 7.2.9 7 6.9 7 3.9 0 5.3-.3 4.8-1.2-.7-1.1.1-1 5.1.6 1.1.4-1.8-1.2-6.5-3.6-6-3-8.9-5.1-9.8-7.1-2-4.1-3.2-3.3-3.1 2zm-3.4-3c-.4.3-.7 1.1-.7 1.7 0 .6.5.5 1.2-.2.6-.6.9-1.4.7-1.7-.3-.3-.9-.2-1.2.2zm33.8 2.1c5.9 3.5 21.6 10.2 23.8 10.1 1.8 0 1.5-.3-1.3-1.6-1.9-.8-4.7-2.2-6.1-2.9-1.5-.8-3.5-1.5-4.5-1.7-1.1-.2-4.5-1.6-7.8-3-6.8-3.1-8.4-3.5-4.1-.9zm226 3.2c-.3.5.3 1 1.5 1s1.8-.5 1.5-1c-.3-.6-1-1-1.5-1s-1.2.4-1.5 1zm-117.3 3c0 1.4.2 1.9.5 1.2.2-.6.2-1.8 0-2.5-.3-.6-.5-.1-.5 1.3z"/></svg>