<svg height="512pt" viewBox="0 0 512 512" width="512pt" xmlns="http://www.w3.org/2000/svg"><linearGradient id="a" gradientUnits="userSpaceOnUse" x1=".001" x2="512" y1="256" y2="256"><stop offset="0" stop-color="#80d8ff"/><stop offset="1" stop-color="#ea80fc"/></linearGradient><path d="M506.14 84.523L427.478 5.855c-7.04-7.035-18.18-7.828-26.145-1.855l-300.79 225.594-27.066-27.07c-7.813-7.81-20.477-7.81-28.286 0-7.812 7.812-7.812 20.476 0 28.285l103.856 103.859L5.859 477.855c-7.812 7.813-7.812 20.477 0 28.286 7.809 7.808 20.473 7.812 28.282 0l143.191-143.188 103.86 103.856c7.808 7.808 20.472 7.812 28.285 0 7.808-7.809 7.808-20.473 0-28.286l-27.07-27.066L508 110.668c5.973-7.965 5.18-19.106-1.86-26.145zM253.837 382.887l-124.72-124.723 282.34-211.758 54.137 54.137zm0 0" fill="url(#a)"/></svg>