<svg width="648" height="427" viewBox="0 0 648 427" fill="none" xmlns="http://www.w3.org/2000/svg"><g clip-path="url(#clip0)"><path fill="#fff" d="M0 0h648v427H0z"/><path fill="#EBE9DC" d="M0 0h648v427H0z"/><path d="M418 44H-24v442h442V44z" fill="#EBE9DC"/><path d="M49.151 402.595S6.653 386.926 15.56 342.173c7.072-35.581 40.355-44.642 67.052-39.36 31.956 6.321 43.183-27.404 41.304-44.973-1.878-17.57 14.078-42.123 55.67-43.957 38.322-1.702 58.167 46.1 71.538 62.41 20.509 25.039 51.515 6.055 75.604-9.304 26.432-16.84 53.482 14.188 53.482 65.615 0 51.427-39.338 71.538-39.338 71.538l-291.72-1.547z" fill="#fff"/><path d="M296.781 266.613s17.614-10.298 9.592-23.315c-8.022-13.017-22.896-5.636-29.128.84-6.232 6.475-11.205 16.796-1.923 24.774 8.686 7.47 21.459-2.299 21.459-2.299zm-209.927-3.492s-16.266-5.613-20.178 6.675c-3.933 12.287 8.973 17.746 16.531 18.188 7.558.42 16.907-2.055 16.907-12.376 0-9.68-13.26-12.487-13.26-12.487z" fill="#fff"/><path d="M235.167 256.182l-23.758.022-.398-.398c-.154-.154-16.597-16.575-31.271-37.105-8.641-12.089-15.006-23.228-18.918-33.128-4.928-12.509-5.945-23.117-2.983-31.471 3.072-8.641 8.972-15.05 17.569-18.984 6.1-2.806 13.393-4.331 21.658-4.508l70.146-.022c1.149 0 27.824.265 37.923 23.448 3.558 8.155 2.917 18.63-1.9 31.139-3.779 9.856-10.144 21.017-18.94 33.194-14.895 20.641-31.868 37.305-32.045 37.482l-.398.375-16.685-.044z" fill="#848418"/><path d="M267.19 131.914c.663 0 26.895.132 36.686 22.652C318.815 188.865 251.3 254.9 251.3 254.9l-16.133-.022-23.205.022s-65.372-65.084-52.886-100.334c6.63-18.718 25.681-22.343 37.99-22.63l70.124-.022zm0-2.652l-70.124.022h-.044c-8.442.199-15.912 1.746-22.188 4.641-8.929 4.11-15.072 10.763-18.255 19.757-3.072 8.663-2.055 19.559 3.028 32.421 3.956 9.989 10.365 21.216 19.072 33.415 14.741 20.62 31.25 37.128 31.404 37.283l.774.773h1.105l23.205-.022 16.133.022h1.083l.773-.751c.177-.177 17.216-16.907 32.178-37.658 8.84-12.266 15.271-23.537 19.094-33.482 4.928-12.862 5.569-23.669 1.879-32.155-2.409-5.525-5.945-10.233-10.52-14.012-3.646-3.005-7.956-5.436-12.774-7.182-8.155-2.984-15.05-3.072-15.823-3.072z" fill="#747B2B"/><path opacity=".4" d="M166.37 154.544c6.63-18.718 25.68-22.343 37.99-22.63l63.007-.022h-.199l-70.102.022c-12.309.287-31.359 3.889-37.989 22.63-12.487 35.25 52.885 100.334 52.885 100.334h7.293c-.774-.773-65.284-65.283-52.885-100.334zm76.09 100.312h-4.31l13.15.022.022-.022h-8.862z" fill="#EFF2BD"/><path d="M279.411 172.534c-.133 2.254-.641 6.143-2.254 11.912-2.763 9.768-7.669 21.282-14.564 34.232-7.735 14.476-16.2 27.36-21.658 35.25l-5.967-.022h-.067l-12.42.022c-5.237-7.691-13.216-20.045-20.707-34.145-6.962-13.105-11.979-24.84-14.94-34.873-3.735-12.73-2.652-17.658-2.497-18.167.685-2.585 1.701-4.641 4.552-6.409 2.741-1.701 6.652-2.718 11.028-2.873l64.488-.022c.442.022 3.845.288 7.47 2.232 4.773 2.586 6.431 6.122 7.337 8.929.177.508.331 1.856.199 3.934z" fill="#9FA52D"/><path d="M250.349 400.385c-4.486-.022-9.016-.177-13.414-.31-4.199-.132-8.553-.287-12.84-.309h-1.216c-3.492 0-6.718.11-9.879.353l-1.436.111V168.114c0-.708.044-1.415.11-2.166-.088-4.199-.022-7.47-.022-7.691 0-15.227 9.503-27.603 21.194-27.603h15.293c6.918 0 17.813 3.801 26.476 9.238 6.277 3.934 16.818 12.133 16.818 22.851 0 8.31-5.259 15.095-11.713 15.095h-28.022v222.547h-1.349z" fill="#BCC745"/><path d="M248.14 131.98c12.795 0 41.967 13.857 41.967 30.763 0 7.558-4.685 13.769-10.387 13.769h-29.348v222.547c-8.752-.045-17.481-.553-26.255-.619h-1.216c-3.337 0-6.652.11-9.989.353V168.114c0-.708.044-1.415.111-2.1-.089-4.398-.022-7.735-.022-7.735 0-14.453 8.928-26.277 19.867-26.277h15.272v-.022zm0-2.652h-15.294c-12.398 0-22.497 12.973-22.52 28.907 0 .331-.066 3.492.023 7.669a25.21 25.21 0 0 0-.111 2.21v233.53l2.851-.221c3.138-.243 6.343-.353 9.79-.353h1.194c4.265.022 8.597.177 12.796.309 4.397.133 8.95.287 13.458.31l2.675.022v-222.57h26.696c3.625 0 6.984-1.812 9.459-5.105 2.321-3.072 3.58-7.072 3.58-11.315 0-8.42-6.188-16.928-17.437-23.978-8.994-5.614-19.912-9.415-27.16-9.415z" fill="#747B2B"/><path d="M213.177 287.166a1.622 1.622 0 0 1-1.613-1.613v-18.564c0-.884.729-1.613 1.613-1.613h4.464a5.971 5.971 0 0 1 5.968 5.967v9.834a5.971 5.971 0 0 1-5.968 5.967h-4.464v.022z" fill="#848418"/><path d="M217.642 266.702a4.64 4.64 0 0 1 4.641 4.641v9.834a4.64 4.64 0 0 1-4.641 4.641h-4.465a.292.292 0 0 1-.287-.287v-18.542c0-.155.133-.287.287-.287h4.465zm0-2.652h-4.465a2.952 2.952 0 0 0-2.939 2.939v18.542a2.952 2.952 0 0 0 2.939 2.939h4.465a7.3 7.3 0 0 0 7.293-7.293v-9.834c0-4-3.271-7.293-7.293-7.293z" fill="#747B2B"/><path d="M213.177 210.28a1.622 1.622 0 0 1-1.613-1.613v-18.542c0-.884.729-1.613 1.613-1.613h4.464a5.971 5.971 0 0 1 5.968 5.967v9.834a5.971 5.971 0 0 1-5.968 5.967h-4.464z" fill="#848418"/><path d="M217.642 189.816a4.64 4.64 0 0 1 4.641 4.641v9.834a4.64 4.64 0 0 1-4.641 4.641h-4.465a.292.292 0 0 1-.287-.287v-18.542c0-.155.133-.287.287-.287h4.465zm0-2.652h-4.465a2.952 2.952 0 0 0-2.939 2.939v18.542a2.952 2.952 0 0 0 2.939 2.939h4.465a7.3 7.3 0 0 0 7.293-7.293v-9.834c0-4-3.271-7.293-7.293-7.293z" fill="#747B2B"/><path opacity=".4" d="M217.752 171.163c0-.707.044-1.414.111-2.099-.089-4.398-.022-7.735-.022-7.735 0-14.454 8.928-26.277 19.867-26.277h15.294c5.812 0 14.983 2.851 23.271 7.536-9.326-6.475-21.172-10.586-28.133-10.586h-15.294c-10.917 0-19.867 11.824-19.867 26.277 0 0-.067 3.337.022 7.735a21.651 21.651 0 0 0-.111 2.1v230.679c1.613-.132 3.249-.199 4.862-.265V171.163z" fill="#EFF2BD"/><path d="M143.341 355.853c-9.768 0-18.033-7.624-18.829-17.348a17.824 17.824 0 0 1-.066-1.547v-10.387c0-1.724.243-3.448.707-5.106 2.298-8.11 9.768-13.79 18.188-13.79h105.417c8.42 0 15.89 5.658 18.189 13.79.464 1.658.707 3.382.707 5.106v10.387c0 .53-.022 1.038-.066 1.547-.796 9.724-9.061 17.348-18.83 17.348H143.341z" fill="#BCC745"/><path d="M248.758 309.001c8.023 0 14.829 5.437 16.907 12.818.42 1.503.663 3.116.663 4.752v10.387c0 .486-.022.972-.066 1.436-.73 8.995-8.332 16.133-17.504 16.133H143.341c-9.171 0-16.774-7.138-17.503-16.133-.044-.464-.066-.95-.066-1.436v-10.387c0-1.636.221-3.249.663-4.752 2.077-7.381 8.884-12.818 16.906-12.818h105.417zm0-2.652H143.341c-8.994 0-17.017 6.055-19.47 14.741a20.006 20.006 0 0 0-.751 5.481v10.387c0 .552.022 1.105.066 1.657a20.266 20.266 0 0 0 6.431 13.172 20.109 20.109 0 0 0 13.724 5.392h105.417c5.083 0 9.967-1.923 13.724-5.392 3.735-3.47 6.012-8.133 6.432-13.172.044-.53.066-1.105.066-1.657v-10.387c0-1.857-.265-3.691-.752-5.481-2.453-8.686-10.453-14.741-19.47-14.741z" fill="#747B2B"/><path d="M195.055 319.167a5.33 5.33 0 0 1-5.326-5.326v-4.464c0-.531.42-.951.95-.951h18.542c.531 0 .951.42.951.951v4.464a5.33 5.33 0 0 1-5.327 5.326h-9.79z" fill="#848418"/><path d="M209.243 309.112c.155 0 .288.132.288.287v4.464a4.64 4.64 0 0 1-4.641 4.641h-9.835a4.64 4.64 0 0 1-4.641-4.641v-4.464c0-.155.133-.287.288-.287h18.541zm0-1.348h-18.541c-.907 0-1.636.729-1.636 1.635v4.464c0 3.293 2.696 5.989 5.989 5.989h9.835c3.293 0 5.989-2.696 5.989-5.989v-4.464c0-.906-.729-1.635-1.636-1.635z" fill="#747B2B"/><path opacity=".4" d="M265.687 321.996c-2.078-7.382-8.884-12.818-16.907-12.818H143.363c-8.022 0-14.829 5.436-16.906 12.818a17.87 17.87 0 0 0-.663 4.751v4.641c0-1.635.221-3.248.663-4.751 2.077-7.382 8.884-12.818 16.906-12.818H248.78c8.023 0 14.829 5.436 16.907 12.818.42 1.503.663 3.116.663 4.751v-4.641a18.536 18.536 0 0 0-.663-4.751z" fill="#EFF2BD"/><path d="M266.328 326.571v10.387c0 .486-.023.972-.067 1.436H125.838c-.044-.464-.067-.95-.067-1.436v-10.387c0-1.636.221-3.249.663-4.752h139.253c.42 1.525.641 3.116.641 4.752z" fill="#9FA52D"/><path d="M150.347 333.068a1.226 1.226 0 0 1-1.215-1.216v-5.657a6.762 6.762 0 0 1 6.762-6.763h12.487a6.762 6.762 0 0 1 6.762 6.763v5.657c0 .663-.552 1.216-1.215 1.216h-23.581z" fill="#848418"/><path d="M168.358 320.272a5.9 5.9 0 0 1 5.901 5.901v5.657a.373.373 0 0 1-.376.376h-23.536a.373.373 0 0 1-.376-.376v-5.657a5.9 5.9 0 0 1 5.901-5.901h12.486zm0-1.702h-12.486c-4.199 0-7.602 3.426-7.602 7.603v5.657c0 1.15.928 2.078 2.077 2.078h23.559a2.075 2.075 0 0 0 2.077-2.078v-5.657c0-4.199-3.426-7.603-7.625-7.603z" fill="#747B2B"/><path d="M216.338 332.869a.943.943 0 0 1-.951-.95v-4.464a5.33 5.33 0 0 1 5.326-5.327h9.835a5.33 5.33 0 0 1 5.326 5.327v4.464c0 .53-.42.95-.95.95h-18.586z" fill="#848418"/><path d="M230.526 322.814a4.64 4.64 0 0 1 4.641 4.641v4.464a.292.292 0 0 1-.288.287h-18.542a.292.292 0 0 1-.287-.287v-4.464a4.64 4.64 0 0 1 4.641-4.641h9.835zm0-1.349h-9.835c-3.293 0-5.989 2.697-5.989 5.99v4.464c0 .906.729 1.635 1.635 1.635h18.542c.906 0 1.636-.729 1.636-1.635v-4.464c0-3.293-2.697-5.99-5.989-5.99z" fill="#747B2B"/><path d="M98.721 403.28c-26.034 0-49.106-13.658-57.46-34.012-.817-2.011-.619-4.177.575-5.945 1.215-1.79 3.182-2.873 5.304-2.873.972 0 1.9.221 2.807.663 6.409 3.094 15.403 5.613 26.696 7.47 2.454.398 5.061.773 7.691 1.127 14.188 1.812 31.449 2.74 51.272 2.74h1.194v30.83H98.721z" fill="#BCC745"/><path d="M47.14 361.665c.751 0 1.525.177 2.276.531 5.503 2.652 13.99 5.436 27.029 7.58 2.409.398 4.994.774 7.735 1.127 13.016 1.658 29.79 2.741 51.426 2.741v28.42H98.699c-26.188 0-48.42-13.923-56.355-33.26-1.458-3.603 1.37-7.139 4.796-7.139zm0-2.408v2.408-2.408c-2.52 0-4.884 1.281-6.298 3.403-1.415 2.099-1.658 4.685-.686 7.072 2.056 5.039 5.061 9.768 8.907 14.056 3.779 4.221 8.287 7.911 13.414 10.983 10.586 6.365 23.14 9.724 36.267 9.724h39.315v-33.238h-2.409c-19.779 0-36.973-.906-51.117-2.718-2.63-.332-5.215-.708-7.646-1.105-11.205-1.835-20.067-4.332-26.388-7.36a7.319 7.319 0 0 0-3.359-.817z" fill="#747B2B"/><path d="M45.483 361.798c-2.608.906-4.354 3.867-3.117 6.873 7.934 19.338 30.167 33.261 56.355 33.261h36.907v-13.039H98.721c-23.315 0-43.492-11.028-53.239-27.095z" fill="#9FA52D"/><path d="M231.233 249.464a5.97 5.97 0 0 1-5.967-5.967v-9.835a5.97 5.97 0 0 1 5.967-5.967h4.464c.884 0 1.614.729 1.614 1.613v18.542c0 .884-.73 1.614-1.614 1.614h-4.464z" fill="#848418"/><path d="M235.697 228.999c.155 0 .287.133.287.287v18.542a.292.292 0 0 1-.287.288h-4.464a4.64 4.64 0 0 1-4.641-4.641v-9.835a4.64 4.64 0 0 1 4.641-4.641h4.464zm0-2.652h-4.464a7.3 7.3 0 0 0-7.293 7.293v9.835a7.3 7.3 0 0 0 7.293 7.293h4.464a2.952 2.952 0 0 0 2.939-2.94v-18.542a2.952 2.952 0 0 0-2.939-2.939z" fill="#747B2B"/><path d="M122.125 377.069c-7.845 0-14.984-4.972-17.724-12.354a18.821 18.821 0 0 1-1.171-6.541v-10.542c.066-10.343 8.552-18.741 18.895-18.741h149.617c10.233 0 18.719 8.332 18.896 18.564v10.719c0 2.21-.376 4.398-1.149 6.475-2.741 7.426-9.857 12.42-17.747 12.42H122.125z" fill="#BCC745"/><path d="M271.742 330.217c9.57 0 17.415 7.735 17.57 17.282v10.675c0 2.099-.376 4.132-1.061 6.011-2.475 6.718-8.951 11.558-16.509 11.558H122.125c-7.536 0-13.989-4.796-16.486-11.492a17.397 17.397 0 0 1-1.083-6.077v-10.498c.066-9.613 7.934-17.459 17.569-17.459h149.617zm0-2.652H122.125c-11.072 0-20.133 8.995-20.221 20.045v10.564c0 2.409.42 4.751 1.26 7.005 2.939 7.912 10.563 13.216 18.961 13.216h149.617c8.442 0 16.067-5.348 18.984-13.282a20.053 20.053 0 0 0 1.238-6.939v-10.763c-.089-5.304-2.232-10.277-6.056-14.034-3.801-3.734-8.84-5.812-14.166-5.812z" fill="#747B2B"/><path d="M141.153 343.013a6.39 6.39 0 0 1-6.387-6.387v-7.249h25.99v7.249a6.39 6.39 0 0 1-6.387 6.387h-13.216z" fill="#848418"/><path d="M159.916 330.217v6.387a5.55 5.55 0 0 1-5.547 5.547h-13.216a5.55 5.55 0 0 1-5.547-5.547v-6.387h24.31zm1.702-1.702h-27.691v8.089c0 4 3.248 7.249 7.248 7.249h13.216c4 0 7.249-3.249 7.249-7.249v-8.089h-.022z" fill="#747B2B"/><path d="M235.52 343.013a6.39 6.39 0 0 1-6.387-6.387v-7.249h25.99v7.249a6.39 6.39 0 0 1-6.387 6.387H235.52z" fill="#848418"/><path d="M254.283 330.217v6.387a5.55 5.55 0 0 1-5.547 5.547H235.52a5.55 5.55 0 0 1-5.547-5.547v-6.387h24.31zm1.702-1.702h-27.692v8.089c0 4 3.249 7.249 7.249 7.249h13.216c4 0 7.249-3.249 7.249-7.249v-8.089h-.022z" fill="#747B2B"/><path opacity=".4" d="M289.312 347.499c-.155-9.525-8.001-17.282-17.57-17.282H122.125c-9.613 0-17.503 7.846-17.569 17.459v6.299c.066-9.614 7.934-17.459 17.569-17.459h149.617c9.569 0 17.415 7.757 17.57 17.282v.287-6.586z" fill="#EFF2BD"/><path d="M254.858 157.262c2.087 0 3.779-3.186 3.779-7.116 0-3.93-1.692-7.116-3.779-7.116-2.087 0-3.779 3.186-3.779 7.116 0 3.93 1.692 7.116 3.779 7.116zm13.216 0c2.087 0 3.779-3.186 3.779-7.116 0-3.93-1.692-7.116-3.779-7.116-2.088 0-3.78 3.186-3.78 7.116 0 3.93 1.692 7.116 3.78 7.116z" fill="#454A4C"/><path d="M271.853 167.473h10.74c4.221 0 4.221-5.547 8.42-5.547 4.221 0 4.221 5.547 8.42 5.547h1.746" stroke="#454A4C" stroke-width="2" stroke-miterlimit="10" stroke-linecap="round"/><path d="M308.141 175.009l-7.514-7.536 7.69-7.691" stroke="#454A4C" stroke-width="2" stroke-miterlimit="10" stroke-linecap="round"/><path d="M289.312 347.787v10.387c0 2.099-.376 4.132-1.061 6.011-.486.044-.972.066-1.481.066H105.661a17.42 17.42 0 0 1-1.083-6.077v-10.498h182.214a19.3 19.3 0 0 0 2.542-.177c-.022.089-.022.199-.022.288z" fill="#9FA52D"/><path d="M188.116 359.809a1.226 1.226 0 0 1-1.216-1.215v-5.658a6.763 6.763 0 0 1 6.763-6.763h12.487a6.763 6.763 0 0 1 6.762 6.763v5.658c0 .663-.552 1.215-1.215 1.215h-23.581z" fill="#848418"/><path d="M206.127 347.013a5.9 5.9 0 0 1 5.901 5.901v5.657a.373.373 0 0 1-.376.376h-23.536a.373.373 0 0 1-.376-.376v-5.657a5.9 5.9 0 0 1 5.901-5.901h12.486zm0-1.702h-12.486c-4.199 0-7.603 3.426-7.603 7.603v5.657c0 1.15.929 2.078 2.078 2.078h23.558c1.15 0 2.078-.928 2.078-2.078v-5.657c0-4.199-3.426-7.603-7.625-7.603z" fill="#747B2B"/><path d="M101.55 401.6h-7.956c-9.658 0-17.57-7.912-17.57-17.569v-10.387c0-1.326.155-2.63.443-3.868 2.409.398 4.994.774 7.735 1.127a18.833 18.833 0 0 0-.221 2.741v10.387c0 9.657 7.911 17.569 17.569 17.569z" fill="#9FA52D"/><path d="M103.561 402.926c-10.409 0-18.895-8.486-18.895-18.895v-10.387c0-10.409 8.486-18.896 18.895-18.896H286.77c10.409 0 18.896 8.487 18.896 18.896v10.387c0 10.409-8.487 18.895-18.896 18.895H103.561z" fill="#BCC745"/><path d="M286.77 356.074c9.658 0 17.57 7.912 17.57 17.57v10.387c0 9.657-7.912 17.569-17.57 17.569H103.561c-9.658 0-17.57-7.912-17.57-17.569v-10.387c0-9.658 7.912-17.57 17.57-17.57H286.77zm0-2.652H103.561c-5.392 0-10.453 2.1-14.277 5.945-3.823 3.823-5.944 8.906-5.944 14.277v10.387c0 5.392 2.1 10.453 5.944 14.276 3.824 3.823 8.907 5.945 14.277 5.945H286.77c5.393 0 10.453-2.099 14.277-5.945 3.823-3.823 5.945-8.906 5.945-14.276v-10.387c0-5.393-2.1-10.454-5.945-14.277-3.824-3.845-8.884-5.945-14.277-5.945z" fill="#747B2B"/><path d="M129.75 375.964c-5.481 0-9.945-4.464-9.945-9.945v-11.271h40.443v11.271c0 5.481-4.465 9.945-9.945 9.945H129.75z" fill="#848418"/><path d="M158.922 356.074v9.945c0 4.752-3.868 8.619-8.619 8.619H129.75c-4.752 0-8.619-3.867-8.619-8.619v-9.945h37.791zm2.652-2.652h-43.095v12.597c0 6.21 5.061 11.271 11.271 11.271h20.553c6.21 0 11.271-5.061 11.271-11.271v-12.597z" fill="#747B2B"/><path d="M242.46 375.964c-5.481 0-9.945-4.464-9.945-9.945v-11.271h40.443v11.271c0 5.481-4.465 9.945-9.945 9.945H242.46z" fill="#848418"/><path d="M271.632 356.074v9.945c0 4.752-3.868 8.619-8.619 8.619H242.46c-4.752 0-8.619-3.867-8.619-8.619v-9.945h37.791zm2.652-2.652h-43.095v12.597c0 6.21 5.061 11.271 11.271 11.271h20.553c6.21 0 11.271-5.061 11.271-11.271v-12.597z" fill="#747B2B"/><path opacity=".4" d="M286.77 356.516H103.561c-9.658 0-17.57 7.912-17.57 17.57v6.961c0-9.658 7.912-17.569 17.57-17.569H286.77c9.658 0 17.57 7.911 17.57 17.569v-6.961c0-9.658-7.89-17.57-17.57-17.57z" fill="#EFF2BD"/><path d="M286.77 385.025H103.561c-8.597 0-15.823-6.276-17.282-14.475a17.893 17.893 0 0 0-.287 3.094v10.387c0 9.657 7.911 17.569 17.569 17.569H286.77c9.658 0 17.57-7.912 17.57-17.569v-10.387c0-1.061-.111-2.078-.288-3.094-1.458 8.199-8.663 14.475-17.282 14.475z" fill="#9FA52D"/><path d="M176.602 402.926v-11.271c0-5.481 4.464-9.945 9.945-9.945H207.1c5.481 0 9.945 4.464 9.945 9.945v11.271h-40.443z" fill="#848418"/><path d="M207.1 383.036c4.751 0 8.619 3.868 8.619 8.619v9.945h-37.791v-9.945c0-4.751 3.867-8.619 8.619-8.619H207.1zm0-2.652h-20.553c-6.21 0-11.271 5.061-11.271 11.271v12.597h43.095v-12.597c0-6.21-5.039-11.271-11.271-11.271z" fill="#747B2B"/><path d="M236.007 307.719V195.252c0-9.569 5.967-17.348 13.304-17.348h.044l2.873.177v129.616h-16.221v.022z" fill="#EFF48D"/><path d="M249.311 179.053l1.768.111V306.57h-13.923V195.252c0-8.95 5.436-16.199 12.155-16.199zm.066-2.276h-.066c-3.978 0-7.691 2.011-10.409 5.657-2.586 3.448-4.023 8.001-4.023 12.818v113.594h18.476V177.02l-2.144-.133-1.768-.11h-.066z" fill="#747B2B"/><path opacity=".39" d="M236.271 188.49h14.807m-14.807 10.895h14.807m-14.807 10.918h14.807m-14.807 10.895h14.807m-14.807 10.895h14.807m-14.807 10.917h14.807m-14.807 10.896h14.807m-14.807 10.917h14.807m-14.807 10.896h14.807m-14.807 10.917h14.807m-14.807 10.895h14.807" stroke="#747B2B" stroke-width="10.298" stroke-miterlimit="10"/><path d="M234.835 296.117H212.89v10.453h21.945v-10.453z" fill="#9FA52D"/><path d="M353.159 403.235h9.812m-311.809 0H344.54m-328.98 0h24.33" stroke="#747B2B" stroke-width="10.883" stroke-miterlimit="10" stroke-linecap="round"/><path d="M83.824 25.8c6.208 0 11.616 1.024 16.224 3.072 4.608 2.048 8.16 4.992 10.656 8.832 2.496 3.84 3.744 8.32 3.744 13.44 0 5.12-1.248 9.6-3.744 13.44-2.496 3.84-6.048 6.784-10.656 8.832-4.608 2.048-10.016 3.072-16.224 3.072h-9.696V93H51.472V25.8h32.352zm-1.44 33.216c3.072 0 5.376-.672 6.912-2.016 1.536-1.408 2.304-3.36 2.304-5.856s-.768-4.416-2.304-5.76c-1.536-1.408-3.84-2.112-6.912-2.112h-8.256v15.744h8.256zm98.224-18.528l-21.6 53.568c-2.752 6.848-6.176 11.648-10.272 14.4-4.096 2.752-9.12 4.128-15.072 4.128-2.944 0-5.92-.448-8.928-1.344-2.944-.832-5.28-1.952-7.008-3.36l7.2-14.88a14.41 14.41 0 0 0 3.648 2.016c1.408.512 2.752.768 4.032.768 2.368 0 4.16-.704 5.376-2.112l-22.08-53.184h22.272l10.848 28.128 11.04-28.128h20.544zm43.411 50.688c-3.264 1.856-7.712 2.784-13.344 2.784-7.36 0-13.024-1.76-16.992-5.28-3.968-3.584-5.952-8.928-5.952-16.032v-13.44h-7.2v-15.84h7.2V28.68h21.696v14.688h10.752v15.84h-10.752v13.248c0 1.6.416 2.848 1.248 3.744.832.896 1.92 1.344 3.264 1.344 1.856 0 3.488-.48 4.896-1.44l5.184 15.072zm41.949-51.648c6.464 0 11.648 1.952 15.552 5.856 3.968 3.904 5.952 9.792 5.952 17.664V93h-21.696V66.792c0-6.016-2.144-9.024-6.432-9.024-2.432 0-4.416.864-5.952 2.592-1.472 1.664-2.208 4.32-2.208 7.968V93h-21.696V21.768h21.696v22.944c4.032-3.456 8.96-5.184 14.784-5.184zm59.607 54.432c-5.824 0-11.072-1.152-15.744-3.456-4.608-2.368-8.224-5.6-10.848-9.696-2.624-4.16-3.936-8.864-3.936-14.112 0-5.248 1.312-9.92 3.936-14.016 2.624-4.16 6.24-7.392 10.848-9.696 4.672-2.304 9.92-3.456 15.744-3.456 5.888 0 11.136 1.152 15.744 3.456 4.672 2.304 8.288 5.536 10.848 9.696 2.624 4.096 3.936 8.768 3.936 14.016 0 5.248-1.312 9.952-3.936 14.112-2.56 4.096-6.176 7.328-10.848 9.696-4.608 2.304-9.856 3.456-15.744 3.456zm0-16.896c2.496 0 4.544-.896 6.144-2.688 1.6-1.856 2.4-4.416 2.4-7.68 0-3.264-.8-5.792-2.4-7.584-1.6-1.792-3.648-2.688-6.144-2.688s-4.544.896-6.144 2.688c-1.6 1.792-2.4 4.32-2.4 7.584 0 3.264.8 5.824 2.4 7.68 1.6 1.792 3.648 2.688 6.144 2.688zm73.799-37.536c6.464 0 11.648 1.952 15.552 5.856 3.968 3.904 5.952 9.792 5.952 17.664V93h-21.696V66.792c0-6.016-2.144-9.024-6.432-9.024-2.432 0-4.416.864-5.952 2.592-1.472 1.664-2.208 4.32-2.208 7.968V93h-21.696V40.488h20.64v5.184a20.021 20.021 0 0 1 7.104-4.608c2.688-1.024 5.6-1.536 8.736-1.536z" fill="#454A4C"/><path d="M606.621 122.552H409.379c-6.284 0-11.379 5.095-11.379 11.379v144.138c0 6.285 5.095 11.379 11.379 11.379h197.242c6.284 0 11.379-5.094 11.379-11.379V133.931c0-6.284-5.095-11.379-11.379-11.379zm-18.966 7.586h3.793a3.794 3.794 0 1 1 0 7.586h-3.793a3.793 3.793 0 1 1 0-7.586zm-106.207 0h91.035a3.793 3.793 0 1 1 0 7.586h-91.035a3.793 3.793 0 0 1 0-7.586zm-18.965 0h3.793a3.793 3.793 0 1 1 0 7.586h-3.793a3.794 3.794 0 1 1 0-7.586zm-15.172 0h3.793a3.793 3.793 0 1 1 0 7.586h-3.793a3.794 3.794 0 1 1 0-7.586zm-15.173 0a3.793 3.793 0 1 1 0 7.586 3.793 3.793 0 0 1 0-7.586zm-11.379 0a3.793 3.793 0 1 1 0 7.586 3.793 3.793 0 0 1 0-7.586zm-11.38 0a3.794 3.794 0 1 1 0 7.587 3.794 3.794 0 0 1 0-7.587zm201.035 37.931v110a3.793 3.793 0 0 1-3.793 3.793H409.379a3.793 3.793 0 0 1-3.793-3.793V149.103a3.794 3.794 0 0 1 3.793-3.793h197.242a3.794 3.794 0 0 1 3.793 3.793v18.966zm-3.793-30.345h-3.794a3.794 3.794 0 0 1 0-7.587h3.794a3.794 3.794 0 0 1 0 7.587z" fill="#D2DCF0"/><path d="M508 281.862h98.621a3.793 3.793 0 0 0 3.793-3.793v-110H508v113.793zm56.897-94.828v-3.793a3.793 3.793 0 0 1 3.793-3.793h26.552a3.793 3.793 0 0 1 3.793 3.793v34.138a3.794 3.794 0 0 1-3.793 3.794H568.69a3.794 3.794 0 0 1-3.793-3.794v-30.345zm-45.518 0v-3.793a3.794 3.794 0 0 1 3.794-3.793h26.551a3.794 3.794 0 0 1 3.794 3.793v34.138a3.794 3.794 0 0 1-3.794 3.794h-26.552a3.794 3.794 0 0 1-3.793-3.794v-30.345zm3.793 45.518h72.07a3.793 3.793 0 0 1 3.793 3.793v30.345a3.793 3.793 0 0 1-3.793 3.793h-72.07a3.793 3.793 0 0 1-3.793-3.793v-30.345a3.793 3.793 0 0 1 3.793-3.793z" fill="#fff"/><path d="M409.379 137.724a3.794 3.794 0 1 0 0-7.587 3.794 3.794 0 0 0 0 7.587z" fill="#FF6469"/><path d="M420.759 137.724a3.793 3.793 0 1 0 0-7.586 3.793 3.793 0 0 0 0 7.586z" fill="#FFE169"/><path d="M432.138 137.724a3.793 3.793 0 1 0 0-7.586 3.793 3.793 0 0 0 0 7.586z" fill="#87E1AA"/><path d="M447.311 137.724h3.793a3.793 3.793 0 0 0 0-7.587h-3.793a3.794 3.794 0 0 0 0 7.587zm15.172 0h3.793a3.793 3.793 0 0 0 0-7.587h-3.793a3.794 3.794 0 0 0 0 7.587zm125.172 0h3.793a3.794 3.794 0 0 0 0-7.587h-3.793a3.794 3.794 0 0 0 0 7.587zm18.966-7.586h-3.794a3.793 3.793 0 0 0 0 7.586h3.794a3.793 3.793 0 0 0 0-7.586zm-125.173 7.586h91.035a3.793 3.793 0 0 0 0-7.587h-91.035a3.794 3.794 0 0 0 0 7.587z" fill="#E4EAF6"/><path d="M606.621 145.31H508v22.759h102.414v-18.965a3.794 3.794 0 0 0-3.793-3.794zm-72.069 15.173h-15.173a3.794 3.794 0 0 1 0-7.587h15.173a3.794 3.794 0 0 1 0 7.587zm30.345 0h-15.173a3.794 3.794 0 0 1 0-7.587h15.173a3.794 3.794 0 0 1 0 7.587zm30.344 0h-15.172a3.794 3.794 0 0 1 0-7.587h15.172a3.793 3.793 0 0 1 0 7.587z" fill="#FF6469"/><path d="M534.552 152.897h-15.173a3.793 3.793 0 0 0 0 7.586h15.173a3.793 3.793 0 0 0 0-7.586zm30.345 0h-15.173a3.793 3.793 0 0 0 0 7.586h15.173a3.793 3.793 0 0 0 0-7.586zm30.344 0h-15.172a3.793 3.793 0 1 0 0 7.586h15.172a3.793 3.793 0 1 0 0-7.586z" fill="#D2555F"/><path d="M523.172 221.172h26.552a3.793 3.793 0 0 0 3.793-3.793v-30.345a3.793 3.793 0 0 1-3.793 3.793h-26.552a3.793 3.793 0 0 1-3.793-3.793v30.345a3.793 3.793 0 0 0 3.793 3.793zm45.518 0h26.551a3.793 3.793 0 0 0 3.793-3.793v-30.345a3.793 3.793 0 0 1-3.793 3.793H568.69a3.794 3.794 0 0 1-3.794-3.793v30.345a3.794 3.794 0 0 0 3.794 3.793z" fill="#DEE3ED"/><path d="M523.172 190.828h26.552a3.794 3.794 0 0 0 3.793-3.794v-3.793a3.793 3.793 0 0 0-3.793-3.793h-26.552a3.793 3.793 0 0 0-3.793 3.793v3.793a3.794 3.794 0 0 0 3.793 3.794z" fill="#FF969B"/><path d="M568.69 190.828h26.551a3.794 3.794 0 0 0 3.794-3.794v-3.793a3.794 3.794 0 0 0-3.794-3.793H568.69a3.794 3.794 0 0 0-3.794 3.793v3.793a3.795 3.795 0 0 0 3.794 3.794z" fill="#A0DCF0"/><path d="M530.759 236.345v30.345a3.793 3.793 0 0 1-3.793 3.793h68.276a3.793 3.793 0 0 0 3.793-3.793v-30.345a3.793 3.793 0 0 0-3.793-3.793h-68.276a3.793 3.793 0 0 1 3.793 3.793z" fill="#DEE3ED"/><path d="M523.172 270.483h3.793a3.794 3.794 0 0 0 3.794-3.793v-30.345a3.794 3.794 0 0 0-3.794-3.794h-3.793a3.794 3.794 0 0 0-3.793 3.794v30.345a3.793 3.793 0 0 0 3.793 3.793z" fill="#91E6BE"/><path d="M508 145.31h-98.621a3.794 3.794 0 0 0-3.793 3.794v128.965a3.794 3.794 0 0 0 3.793 3.794H508V145.31zm-72.069 11.379h60.69a3.794 3.794 0 0 1 0 7.587h-60.69a3.793 3.793 0 0 1 0-7.587zm-18.965 0h3.793a3.794 3.794 0 0 1 0 7.587h-3.793a3.794 3.794 0 0 1 0-7.587zm37.931 22.759h-11.38a3.793 3.793 0 0 1 0-7.586h11.38a3.793 3.793 0 0 1 0 7.586zm3.793 11.38a3.794 3.794 0 0 1-3.794 3.793h-11.379a3.793 3.793 0 0 1 0-7.587h11.379a3.794 3.794 0 0 1 3.794 3.794zm-41.724 26.551h3.793a3.794 3.794 0 0 1 0 7.587h-3.793a3.794 3.794 0 0 1 0-7.587zM413.172 206a3.794 3.794 0 0 1 3.794-3.793h3.793a3.793 3.793 0 1 1 0 7.586h-3.793a3.794 3.794 0 0 1-3.794-3.793zm11.38 26.552h3.793a3.793 3.793 0 1 1 0 7.586h-3.793a3.794 3.794 0 1 1 0-7.586zm3.793-37.931h-3.793a3.794 3.794 0 0 1 0-7.587h3.793a3.793 3.793 0 0 1 0 7.587zm0-15.173h-3.793a3.794 3.794 0 1 1 0-7.586h3.793a3.793 3.793 0 1 1 0 7.586zm-7.586 91.035h-3.793a3.794 3.794 0 0 1 0-7.587h3.793a3.793 3.793 0 0 1 0 7.587zm7.586-15.173h-3.793a3.794 3.794 0 1 1 0-7.586h3.793a3.793 3.793 0 1 1 0 7.586zm68.276 15.173h-60.69a3.794 3.794 0 0 1 0-7.587h60.69a3.794 3.794 0 0 1 0 7.587zm-53.104-22.759h11.38a3.793 3.793 0 0 1 0 7.586h-11.38a3.793 3.793 0 0 1 0-7.586zm-3.793-11.379a3.793 3.793 0 0 1 3.793-3.793h11.38a3.793 3.793 0 0 1 0 7.586h-11.38a3.793 3.793 0 0 1-3.793-3.793zm56.897 18.965h-26.552a3.793 3.793 0 1 1 0-7.586h26.552a3.793 3.793 0 0 1 0 7.586zm0-15.172h-26.552a3.793 3.793 0 0 1 0-7.587h26.552a3.794 3.794 0 0 1 0 7.587zm0-15.172h-60.69a3.794 3.794 0 0 1 0-7.587h60.69a3.794 3.794 0 0 1 0 7.587zm0-15.173h-60.69a3.793 3.793 0 1 1 0-7.586h60.69a3.793 3.793 0 0 1 0 7.586zm0-15.172h-26.552a3.794 3.794 0 0 1 0-7.587h26.552a3.794 3.794 0 0 1 0 7.587zm0-15.173h-26.552a3.793 3.793 0 1 1 0-7.586h26.552a3.793 3.793 0 0 1 0 7.586z" fill="#464655"/><path d="M435.931 164.276h60.689a3.794 3.794 0 1 0 0-7.586h-60.689a3.793 3.793 0 1 0 0 7.586z" fill="#FFE169"/><path d="M454.897 171.862h-11.38a3.793 3.793 0 0 0 0 7.587h11.38a3.794 3.794 0 0 0 0-7.587zm0 15.172h-11.38a3.794 3.794 0 0 0 0 7.587h11.38a3.794 3.794 0 0 0 0-7.587z" fill="#91E6BE"/><path d="M496.62 202.207h-60.689a3.793 3.793 0 1 0 0 7.586h60.689a3.794 3.794 0 1 0 0-7.586z" fill="#FFE169"/><path d="M496.62 217.379h-60.689a3.794 3.794 0 0 0 0 7.587h60.689a3.794 3.794 0 0 0 0-7.587zm0-45.517h-26.551a3.794 3.794 0 0 0 0 7.587h26.551a3.794 3.794 0 0 0 0-7.587zm0 15.172h-26.551a3.794 3.794 0 0 0 0 7.587h26.551a3.794 3.794 0 0 0 0-7.587zm0 45.518h-26.551a3.794 3.794 0 1 0 0 7.586h26.551a3.794 3.794 0 1 0 0-7.586zm0 15.172h-26.551a3.794 3.794 0 1 0 0 7.587h26.551a3.794 3.794 0 0 0 0-7.587z" fill="#fff"/><path d="M443.517 240.138h11.38a3.794 3.794 0 0 0 0-7.587h-11.38a3.794 3.794 0 0 0 0 7.587zm0 15.173h11.38a3.794 3.794 0 0 0 0-7.587h-11.38a3.793 3.793 0 0 0 0 7.587z" fill="#91E6BE"/><path d="M496.62 262.897h-60.689a3.793 3.793 0 1 0 0 7.586h60.689a3.794 3.794 0 1 0 0-7.586z" fill="#FFE169"/><path d="M416.966 164.276h3.793a3.793 3.793 0 1 0 0-7.586h-3.793a3.794 3.794 0 1 0 0 7.586zm11.379 7.586h-3.793a3.793 3.793 0 0 0 0 7.587h3.793a3.794 3.794 0 0 0 0-7.587zm0 15.172h-3.793a3.794 3.794 0 0 0 0 7.587h3.793a3.793 3.793 0 0 0 0-7.587zm-11.379 22.759h3.793a3.793 3.793 0 1 0 0-7.586h-3.793a3.794 3.794 0 1 0 0 7.586zm0 15.173h3.793a3.794 3.794 0 0 0 0-7.587h-3.793a3.794 3.794 0 0 0 0 7.587zm7.586 15.172h3.793a3.793 3.793 0 0 0 0-7.587h-3.793a3.794 3.794 0 0 0 0 7.587zm3.793 7.586h-3.793a3.793 3.793 0 1 0 0 7.587h3.793a3.794 3.794 0 0 0 0-7.587zm-7.586 15.173h-3.793a3.794 3.794 0 1 0 0 7.586h3.793a3.793 3.793 0 1 0 0-7.586z" fill="#FF6469"/></g><defs><clipPath id="clip0"><path fill="#fff" d="M0 0h648v427H0z"/></clipPath></defs></svg>