<svg height="512" viewBox="0 0 64 64" width="512" xmlns="http://www.w3.org/2000/svg"><linearGradient id="a" gradientUnits="userSpaceOnUse" x1="31.834" x2="31.834" y1="63" y2="1"><stop offset="0" stop-color="#9f2fff"/><stop offset="1" stop-color="#0bb1d3"/></linearGradient><path d="M3 32c0 1.302.839 2.402 2 2.816V40c0 1.302.839 2.402 2 2.816V48c0 1.654 1.346 3 3 3h1v12h18V51h1c1.654 0 3-1.346 3-3v-5.184A2.996 2.996 0 0 0 35 40v-5.184A2.996 2.996 0 0 0 37 32v-5h2v-7C39 9.523 30.477 1 20 1S1 9.523 1 20v7h2zm24 29H13V51h14zm3-12H10a1 1 0 0 1-1-1v-5h22v5a1 1 0 0 1-1 1zm2-8H8a1 1 0 0 1-1-1v-5h26v5a1 1 0 0 1-1 1zm3-9a1 1 0 0 1-1 1H6a1 1 0 0 1-1-1v-5h30zM24.167 20.389a6.974 6.974 0 0 0-2.115-1.081l1.639-2.536L26 15.618v2.074zM20 21a5.01 5.01 0 0 1 4.899 4h-9.798A5.01 5.01 0 0 1 20 21zm6.92 4a6.97 6.97 0 0 0-1.312-3.172L28 18.308v-5.926l-5.691 2.846-2.443 3.779c-3.458.066-6.304 2.651-6.786 5.993H3v-4h4v-2H3.051A16.905 16.905 0 0 1 7.312 8.725l2.789 2.789 1.414-1.414-2.79-2.789A16.908 16.908 0 0 1 19 3.05V7h2V3.051a16.905 16.905 0 0 1 10.275 4.261l-2.789 2.789 1.414 1.414 2.789-2.789a16.908 16.908 0 0 1 4.261 10.275H33v2h4v4H26.92zM25 31h-2v-2h2zm4 0h-2v-2h2zm4 0h-2v-2h2zm-20 6h2v2h-2zm4 0h2v2h-2zm-8 0h2v2H9zm10 8h2v2h-2zm4 0h2v2h-2zm4 0h2v2h-2zm28.667 10L45 47v4H33v8h12v4zM35 57v-4h12v-2l5.333 4L47 59v-2zm2-12h12v4l10.667-8L49 33v4H37zm2-6h12v-2l5.333 4L51 45v-2H39zm23.667-14L52 17v4H41v8h11v4zM43 27v-4h11v-2l5.333 4L54 29v-2z" fill="url(#a)"/></svg>