<svg height="512" viewBox="0 0 64 64" width="512" xmlns="http://www.w3.org/2000/svg"><linearGradient id="a" gradientUnits="userSpaceOnUse" x1="32" x2="32" y1="63" y2="1"><stop offset="0" stop-color="#9f2fff"/><stop offset="1" stop-color="#0bb1d3"/></linearGradient><path d="M28 19a1 1 0 1 1 2 0 1 1 0 0 1-2 0zm7 1a1 1 0 1 0 0-2 1 1 0 0 0 0 2zm-5.105 1.553l-1.789.895.105.211C28.933 24.103 30.385 25 32 25s3.067-.897 3.789-2.342l.105-.211-1.789-.895-.105.212c-.381.762-1.147 1.236-2 1.236s-1.619-.474-2-1.236zM5 40h6v8H5zm2 6h2v-4H7zm-6 2h2v-8H1zm6-10H1v-8h6zm-2-6H3v4h2zm4 6h2v-8H9zm54-17c0 8.033-5.978 14.764-13.812 15.838l1.621 8.108c.127.634.191 1.283.191 1.929 0 3.52-1.898 6.79-4.954 8.536l-1.254.717-.475 3.563a3.823 3.823 0 0 1-3.779 3.31H23.463a3.823 3.823 0 0 1-3.779-3.31l-.475-3.563-1.254-.717A9.85 9.85 0 0 1 13 46.875c0-.646.064-1.295.191-1.929L14.58 38H13v-8h6v.557a9.75 9.75 0 0 1 2.279-1.137A16.1 16.1 0 0 1 20.031 24H16v1.667A2.336 2.336 0 0 1 13.667 28a2.343 2.343 0 0 1-1.867-.934L9.5 24H3c-1.103 0-2-.897-2-2V10c0-1.103.897-2 2-2h18.105C23.006 3.876 27.169 1 32 1c3.971 0 7.488 1.947 9.673 4.928A15.92 15.92 0 0 1 47 5c8.822 0 16 7.178 16 16zM47.889 33.561A18.54 18.54 0 0 0 50.066 30h-5.982a9.764 9.764 0 0 1 3.805 3.561zM47 7.4c-.737.784-1.983 2.315-3.051 4.6h6.104C48.984 9.722 47.739 8.186 47 7.4zM44 20h7.963c-.099-2.299-.522-4.299-1.105-6H44zm6.869 8c.581-1.7 1.004-3.701 1.102-6H44v1.151c0 1.673-.265 3.303-.753 4.849zm2.1 0h6.135a13.905 13.905 0 0 0 1.848-6h-6.981a23.471 23.471 0 0 1-1.002 6zm7.98-8a13.881 13.881 0 0 0-1.844-6h-6.13c.532 1.737.899 3.741.987 6zM49.492 7.235A20.611 20.611 0 0 1 52.252 12h5.457a13.992 13.992 0 0 0-8.217-4.765zm-6.756.435c.214.429.401.872.563 1.327.425-.688.838-1.273 1.226-1.771-.606.109-1.202.257-1.789.444zM22 23.151c0 5.079 2.732 9.729 7.063 12.239a2.99 2.99 0 0 1 .746-1.425A12.53 12.53 0 0 1 24 23.384V15c0-4.411 3.589-8 8-8s8 3.589 8 8v8.384a12.53 12.53 0 0 1-5.809 10.581c.366.394.633.88.746 1.425A14.163 14.163 0 0 0 42 23.151V13c0-5.514-4.486-10-10-10S22 7.486 22 13zM38 15c0-3.309-2.691-6-6-6s-6 2.691-6 6v.867l5.032-.629c.552-.069.968-.54.968-1.095 0-.63-.513-1.143-1.143-1.143a.859.859 0 0 0-.857.857V14h-2v-.143A2.86 2.86 0 0 1 30.857 11c1.396 0 2.568.921 2.977 2.183A10.29 10.29 0 0 1 38 15.371zm-12 6c0 3.309 2.691 6 6 6s6-2.691 6-6v-2.674a8.303 8.303 0 0 0-4.207-3.071 3.114 3.114 0 0 1-2.513 1.967l-5.28.661zm11.367 5.915a8.014 8.014 0 0 1-1.186.892l.228 1.142c.396-.637.705-1.323.958-2.034zm-10.734 0c.253.711.562 1.397.957 2.034l.228-1.142a8.057 8.057 0 0 1-1.185-.892zm2.596 4.039c.806.779 1.727 1.45 2.771 1.948a10.503 10.503 0 0 0 2.771-1.948l-.46-2.298a7.947 7.947 0 0 1-4.623 0zM31 38a1 1 0 0 0 2 0v-2a.99.99 0 0 0-.861-.972l-.139.06-.139-.06A.99.99 0 0 0 31 36zM20 22v-3.586l-2.293 2.293-1.414-1.414L19.586 16l-3.293-3.293 1.414-1.414L20 13.586V13c0-1.038.146-2.039.395-3H3v12h7.5l2.899 3.867c.172.229.6.088.601-.2V22zm-5 14h.04A9.758 9.758 0 0 1 17 32.339V32h-2zm5 10.813c0 .08.005.159.016.239L21.342 57h21.315l1.327-9.946a1.815 1.815 0 0 0-1.797-2.053H21.813c-1-.001-1.813.812-1.813 1.812zm22.334 12.614l.057-.427H21.609l.057.427A1.818 1.818 0 0 0 23.463 61h17.074c.905 0 1.678-.676 1.797-1.573zM49 46.875a7.92 7.92 0 0 0-.152-1.536l-1.635-8.178a7.784 7.784 0 0 0-5.394-5.924 16.146 16.146 0 0 1-6.818 6.387V38c0 1.654-1.346 3-3 3s-3-1.346-3-3v-.376a16.134 16.134 0 0 1-6.818-6.387 7.783 7.783 0 0 0-5.394 5.924l-1.635 8.178A7.77 7.77 0 0 0 15 46.875a7.843 7.843 0 0 0 3.875 6.752l-.842-6.31A3.818 3.818 0 0 1 21 43.091v-2.856l-.895-1.789 1.789-.895L23 39.764V43h18v-3.236l1.105-2.211 1.789.895L43 40.236v2.856a3.818 3.818 0 0 1 2.967 4.227l-.842 6.309A7.846 7.846 0 0 0 49 46.875zM57.698 30H52.25a20.822 20.822 0 0 1-2.769 4.771A13.952 13.952 0 0 0 57.698 30zM8.293 11.293L3.586 16l4.707 4.707 1.414-1.414L6.414 16l3.293-3.293zm2.737 8.465l1.939.484 2-8-1.939-.484z" fill="url(#a)"/></svg>