<svg height="512" viewBox="0 0 64 64" width="512" xmlns="http://www.w3.org/2000/svg"><linearGradient id="a" gradientUnits="userSpaceOnUse" x1="31" x2="31" y1="63" y2="1"><stop offset="0" stop-color="#9f2fff"/><stop offset="1" stop-color="#0bb1d3"/></linearGradient><path d="M1 21.807c0 3.605 1.615 6.966 4.431 9.218L6 31.48v3.136c-1.931 2.083-3 4.77-3 7.626v1c0 2.843.691 5.629 2 8.137V63h14v-6h10v6h32V8c0-1.654-1.346-3-3-3h-7V3c0-1.103-.897-2-2-2h-8c-1.103 0-2 .897-2 2v2h-7c-1.654 0-3 1.346-3 3v39h-.172c-.801 0-1.555.313-2.121.879L25.586 49H19v-2.743a11.715 11.715 0 0 0-5-9.611v-2.865l.333.083A4.567 4.567 0 0 0 20 29.438v-2.82l2.189-1.095-1.765-6.178c1.528-.856 2.575-2.472 2.576-4.343a4.968 4.968 0 0 0-1.464-3.537A4.969 4.969 0 0 0 18 10h-5.193C6.297 10 1 15.297 1 21.807zM17 61H7v-6.782A9.367 9.367 0 0 0 13.677 57H17zm14-4c.732 0 1.409-.212 2-.556V61h-2zm24-30v2H35v-2zm-20 4h20v6H35zm20 22H35v-2h20zM35 39h20v2H35zm0 4h20v6H35zm20 12v6H35v-6zm2 6V27h1c.352 0 .686-.072 1-.184V61zM41 3h8v2h-8zm-9 4h26c.474 0 .854.338.956.782C58.561 11.842 55.104 15 51 15H39c-4.104 0-7.561-3.158-7.956-7.218A.986.986 0 0 1 32 7zm-1 5.981C32.836 15.423 35.758 17 39 17h12c3.242 0 6.164-1.577 8-4.019V24a1 1 0 0 1-1 1H32a1 1 0 0 1-1-1zm0 13.835c.314.112.648.184 1 .184h1v22.546a3.945 3.945 0 0 0-1.14-.453 3.003 3.003 0 0 0-.86-1.315zM28.828 49H29a1 1 0 0 1 1 1v1h1c1.103 0 2 .897 2 2s-.897 2-2 2h-4v-4.586l1.121-1.121c.187-.187.444-.293.707-.293zm-13.467-8.155A9.717 9.717 0 0 1 17 46.257V49h-3.382l-2.724-5.447-1.789.895 2.724 5.446A1.987 1.987 0 0 0 13.618 51H25v4H13.677a7.398 7.398 0 0 1-6.308-3.496A15.577 15.577 0 0 1 5 43.242v-1a9.17 9.17 0 0 1 2.311-6.113l2.613.747a9.767 9.767 0 0 1 5.437 3.969zm4.45-16.368L18 25.382v4.057a2.564 2.564 0 0 1-3.184 2.485l-3.574-.894-.484 1.939 1.242.312v2.237a11.637 11.637 0 0 0-1.527-.566L8 34.246v-6.009c0-.382.212-.725.553-.895l1.789-.895A2.985 2.985 0 0 0 12 23.764V21a1 1 0 0 1 1-1h5c.177 0 .344-.034.516-.052zM12.807 12H18c.802 0 1.555.313 2.122.879.566.567.878 1.321.878 2.123A3.004 3.004 0 0 1 18 18h-1a1 1 0 0 1 0-2v-2c-1.654 0-3 1.346-3 3 0 .352.072.686.184 1H13c-1.654 0-3 1.346-3 3v2.764a.994.994 0 0 1-.553.895l-1.789.895A2.982 2.982 0 0 0 6 28.236v.617a9.743 9.743 0 0 1-3-7.046C3 16.399 7.399 12 12.807 12zM11 6v2H9V6zm4 0v2h-2V6zm4 2h-2V6h2zm28 5h-4v-2h4z" fill="url(#a)"/></svg>