<svg xmlns="http://www.w3.org/2000/svg" viewBox="0 0 38 30"><path d="M37.8 3.5c-1.4.6-2.9 1-4.4 1.2 1.6-.9 2.8-2.4 3.4-4.2-1.5.9-3.1 1.5-4.9 1.8C30.4.9 28.4 0 26.2 0c-4.2 0-7.7 3.4-7.7 7.6 0 .6.1 1.2.2 1.7C12.3 9 6.7 6 2.9 1.4c-.7 1.1-1 2.4-1 3.8 0 2.6 1.4 5 3.4 6.3-1.3 0-2.5-.4-3.5-.9v.1c0 1 .2 1.9.5 2.8.9 2.4 3.1 4.2 5.7 4.7-.7.2-1.3.3-2 .3-.5 0-1 0-1.4-.1 1 3 3.8 5.2 7.2 5.3-2.6 2-5.9 3.3-9.6 3.3-.6 0-1.2 0-1.8-.1C3.7 28.7 7.7 30 12.1 30c12 0 19.4-8.3 21.4-17 .4-1.5.5-3.1.5-4.6v-1c1.4-1 2.7-2.3 3.8-3.9z" fill-rule="evenodd" clip-rule="evenodd" fill="#013056"/></svg>