<svg height="512" viewBox="0 0 64 64" width="512" xmlns="http://www.w3.org/2000/svg" xmlns:xlink="http://www.w3.org/1999/xlink"><linearGradient id="a" gradientUnits="userSpaceOnUse" x1="1.5" x2="64.242" y1="62.5" y2="-.242"><stop offset="0" stop-color="#003f8a"/><stop offset=".518" stop-color="#00d7df"/><stop offset="1" stop-color="#006df0"/></linearGradient><linearGradient id="b" x1=".811" x2="63.552" xlink:href="#a" y1="61.811" y2="-.931"/><linearGradient id="c" x1="-4" x2="58.742" xlink:href="#a" y1="57" y2="-5.742"/><linearGradient id="d" x1=".25" x2="62.992" xlink:href="#a" y1="61.25" y2="-1.492"/><path d="M60 11H4a3 3 0 0 0-3 3v36a3 3 0 0 0 3 3h56a3 3 0 0 0 3-3V14a3 3 0 0 0-3-3zM3 45V19h58v26zm57-32a1 1 0 0 1 1 1v3h-8v-4zm-9 0v4h-8v-4zm-10 0v4h-8v-4zm-10 0v4h-8v-4zm-10 0v4h-8v-4zM3 14a1 1 0 0 1 1-1h7v4H3zm1 37a1 1 0 0 1-1-1v-3h8v4zm9 0v-4h8v4zm10 0v-4h8v4zm10 0v-4h8v4zm10 0v-4h8v4zm18-1a1 1 0 0 1-1 1h-7v-4h8z" fill="url(#a)"/><path d="M38.787 31.161l-9.243-6A1 1 0 0 0 28 26v12a1 1 0 0 0 1.544.839l9.243-6a1 1 0 0 0 0-1.678zm-8.787 5v-8.32L36.406 32z" fill="url(#b)"/><path d="M15 42H5a1 1 0 0 0 0 2h10a1 1 0 0 0 0-2z" fill="url(#c)"/><path d="M19 42h-1a1 1 0 0 0 0 2h1a1 1 0 0 0 0-2z" fill="url(#d)"/></svg>