<svg version="1.1" id="Layer_1" xmlns="http://www.w3.org/2000/svg" x="0" y="0" viewBox="-5 -5 120 120" xml:space="preserve"><style>.st0{fill:#caddea}.st1{fill:#1b7fd0}</style><circle id="XMLID_1_" class="st0" cx="55" cy="55" r="60"/><path class="st1" d="M39.4 17c11.1 0 20.5 4.6 20.8 10.1-.3 5.5-9.7 10.1-20.8 10.1s-20.5-4.6-20.8-10.1c.3-5.5 9.7-10.1 20.8-10.1zm20.9 40c0 5.6-9.5 10.4-20.8 10.4S18.7 62.7 18.7 57v-4.9c3.6 4.3 11.5 7.2 20.8 7.2 9.4 0 17.3-2.9 20.8-7.2V57z"/><path class="st1" d="M60.3 46.9c0 5.6-9.5 10.4-20.8 10.4s-20.8-4.7-20.8-10.4v-5.2c3.6 4.3 11.5 7.2 20.8 7.2 9.4 0 17.3-2.9 20.8-7.2v5.2z"/><path class="st1" d="M60.3 36.5c0 5.6-9.5 10.4-20.8 10.4s-20.8-4.7-20.8-10.4V32c3.6 4.3 11.5 7.2 20.8 7.2 9.4 0 17.3-2.9 20.8-7.2v4.5zM25.1 48.9h70.3V88H25.1z"/><path class="st0" d="M60.2 58.3c-5.6 0-10.1 4.5-10.1 10.1s4.5 10.1 10.1 10.1S70.3 74 70.3 68.4c0-5.5-4.5-10.1-10.1-10.1zm.6 15.6v1.9h-1.1V74c-1 0-2.1-.3-2.7-.8l.4-1.2c.6.4 1.6.8 2.6.8 1.3 0 2-.7 2-1.8 0-1-.6-1.6-1.9-2.1-1.8-.7-3-1.6-3-3.1s1.1-2.6 2.7-2.9v-1.8h1.1v1.7c1.1 0 1.8.3 2.3.6l-.5 1.2c-.4-.2-1.1-.6-2.3-.6-1.4 0-1.8.8-1.8 1.6 0 .9.6 1.4 2.1 2.1 1.9.8 2.8 1.7 2.8 3.3.1 1.3-.9 2.7-2.7 2.9z"/><path class="st0" d="M26.6 50.4v36h67.2v-36H26.6zM91 75.2c-2.8-1.6-6.3-1.2-8.7 1.2-1.4 1.4-2.1 3.2-2.1 5.1 0 1.2.3 2.4.9 3.4H39.2c.6-1 .9-2.2.9-3.4 0-1.9-.8-3.7-2.1-5.1-2.3-2.3-5.8-2.7-8.5-1.2V61.9c1.1.6 2.3.9 3.5.9 1.9 0 3.7-.7 5.1-2.1 1.4-1.4 2.1-3.2 2.1-5.1 0-1.3-.4-2.5-1-3.5h42c-.6 1.1-1 2.3-1 3.5 0 1.9.8 3.7 2.1 5.1 1.4 1.4 3.3 2.1 5.1 2.1 1.2 0 2.4-.3 3.5-.9v13.3z"/></svg>