<svg version="1.1" id="Layer_1" xmlns="http://www.w3.org/2000/svg" x="0" y="0" viewBox="-5 -5 120 120" xml:space="preserve"><style>.st2{fill:#1b7fd0}</style><circle id="XMLID_1_" cx="55" cy="55" r="60" fill="#caddea"/><path d="M18.5 40l12.1-8.8L54 64.4l-5.3 3.8-12.3-18.5-2.8 1.4 13 19-4.7 3.8zm37.9 43.8c.5.3 1.2.2 1.6-.3.5-.4.7-1.1.5-1.8l-3.2-14.9L43 76.3l13.4 7.5zm-41-51.7l9-6.1c.8-.8 2-.6 2.6.3l2.1 3L17 38.1l-2-2.9c-.7-.9-.5-2.3.4-3.1z" fill="#1b7fd0" fill-rule="evenodd" clip-rule="evenodd"/><path class="st2" d="M73.1 92.5h1.2l17.1-17.1v-1.2H73.1z"/><path class="st2" d="M43.4 25.5v17.8l13.7 19.2 4.4 15.9c.3.9.5 6-1.3 7.3-1.3 1.6-8-.2-8.6-.6l-8.2-4.9v12.2h26.3V70.8h21.7V25.5h-48z"/></svg>