<svg width="648" height="427" viewBox="0 0 648 427" fill="none" xmlns="http://www.w3.org/2000/svg">
<rect width="648" height="427" fill="white"/>
<rect width="648" height="427" fill="white"/>
<rect width="648" height="427" fill="#4476D6"/>
<g clip-path="url(#clip0)">
<path d="M583.481 381.556H545.98C545.27 381.556 544.797 382.159 544.797 382.762V411.691C544.797 420.129 551.54 427 559.821 427H569.758C578.039 427 584.782 420.129 584.782 411.691V382.762C584.664 382.159 584.073 381.556 583.481 381.556Z" fill="#C1C1C1"/>
<path d="M578.986 422.058C587.385 417.236 601.936 402.892 599.57 392.767C598.978 390.115 597.322 388.066 594.838 386.86C589.278 384.208 581.233 387.463 580.287 387.825L583.008 393.49C584.901 392.646 589.633 391.32 591.88 392.405C592.353 392.646 592.827 393.008 593.063 394.093C594.483 399.999 583.126 412.415 575.555 416.754L578.986 422.058Z" fill="#C1C1C1"/>
<path d="M568.575 372.516C568.694 372.757 568.694 372.395 568.812 372.154L569.048 371.19C569.167 370.587 569.285 369.864 569.403 369.261C569.522 367.935 569.64 366.489 569.64 365.042C569.522 362.149 568.93 359.136 567.865 356.364C566.682 353.591 565.026 351.301 563.252 349.493C562.305 348.528 561.359 347.805 560.413 347.082L558.047 345.394C555.326 343.466 552.841 340.934 551.067 338.403C550.239 337.077 549.647 335.751 549.411 334.666C549.174 333.581 549.174 332.858 549.292 332.376C549.411 332.135 549.411 331.894 549.647 331.532C549.884 331.171 550.002 330.568 550.357 330.086C550.949 329.001 551.777 328.037 552.605 327.072C554.379 325.385 556.509 324.179 558.638 323.938C560.768 323.577 563.015 324.059 565.263 325.144C566.328 325.746 567.511 326.349 568.575 327.313C569.167 327.796 569.64 328.157 570.231 328.76C570.823 329.363 571.296 329.845 572.006 329.965L574.254 330.327C579.104 331.171 583.481 326.711 584.191 320.202C584.546 316.706 583.718 313.21 582.061 310.679C581.352 309.594 580.405 308.75 579.459 308.027C578.512 307.304 577.448 306.701 576.501 305.978C574.49 304.652 572.243 303.688 569.995 302.964C565.499 301.397 560.413 301.277 555.681 302.844C550.949 304.411 546.453 307.665 542.904 312.246C541.13 314.657 539.592 317.188 538.409 320.202C537.817 321.648 537.344 323.336 536.871 325.144C536.161 327.313 535.806 329.483 535.806 331.532C535.688 335.872 536.753 339.85 538.172 342.984C539.592 346.118 541.366 348.408 543.141 350.337C546.69 354.194 550.475 356.364 554.261 358.051L555.681 358.654L556.39 358.895L556.864 359.015C557.573 359.257 558.165 359.498 558.756 359.859C559.939 360.462 561.122 361.185 562.069 362.391C563.015 363.475 563.962 364.922 564.671 366.609C565.026 367.453 565.381 368.418 565.618 369.502C565.736 369.985 565.854 370.587 566.091 371.069L566.328 371.913C566.446 372.275 566.446 372.395 566.682 373.36C566.919 374.203 567.511 374.686 568.22 374.324C568.457 374.203 568.812 373.36 568.575 372.516Z" fill="white"/>
</g>
<g clip-path="url(#clip1)">
<path d="M405.894 282.909H358.001C345.739 282.909 335.679 272.924 335.679 260.523V212.282H426.12V262.625C426.12 273.87 417.108 282.909 405.894 282.909Z" fill="#8D3333"/>
<path d="M451.377 353.641L314.614 351.329V336.72C314.614 312.862 343.853 290.686 372.463 290.686H394.052C419.518 290.686 451.272 313.072 451.272 334.197V353.641H451.377Z" fill="#383F45"/>
<path d="M389.86 260.628H372.463C368.9 260.628 366.071 263.466 366.071 267.039V294.47C366.071 302.773 372.778 309.604 381.162 309.604C389.441 309.604 396.253 302.878 396.253 294.47V267.039C396.253 263.466 393.423 260.628 389.86 260.628Z" fill="#FBC39D"/>
<path d="M366.071 290.581C366.071 290.581 367.328 299.515 381.162 299.515C394.995 299.515 396.253 290.581 396.253 290.581H366.071Z" fill="#F9AC7F"/>
<path d="M424.548 226.26C419.309 226.26 415.012 230.675 415.012 236.14C415.012 241.605 419.309 246.019 424.548 246.019C429.788 246.019 434.085 241.605 434.085 236.14C433.98 230.675 429.788 226.26 424.548 226.26Z" fill="#F9AC7F"/>
<path d="M337.879 226.26C332.64 226.26 328.343 230.675 328.343 236.14C328.343 241.605 332.64 246.019 337.879 246.019C343.119 246.019 347.416 241.605 347.416 236.14C347.416 230.675 343.119 226.26 337.879 226.26Z" fill="#F9AC7F"/>
<path d="M377.703 293.524C378.751 293.734 380.009 293.734 381.162 293.734C384.725 293.734 388.183 293.314 391.537 292.368V292.263C409.981 287.428 423.605 269.982 423.605 249.277V197.463C423.605 172.975 404.532 176.864 381.162 176.864C357.687 176.969 338.718 173.08 338.718 197.463V249.382C338.718 272.609 355.905 291.737 377.703 293.524Z" fill="#FBC39D"/>
<path d="M418.261 232.356V246.334H400.026C400.026 246.334 396.253 236.245 381.162 236.245C366.071 236.245 362.298 246.334 362.298 246.334H344.168V232.356C344.168 226.786 342.176 224.999 338.718 224.369V249.382C338.718 272.609 355.905 291.632 377.703 293.524L377.599 293.629C378.751 293.734 379.904 293.839 381.162 293.839C382.314 293.839 383.572 293.734 384.725 293.629L384.62 293.524C406.418 291.632 423.605 272.609 423.605 249.382V224.369C420.252 224.999 418.261 226.786 418.261 232.356Z" fill="#0D0F29"/>
<path d="M368.062 252.43H393.633C393.633 252.43 391.327 262.52 380.847 262.52C370.367 262.52 368.062 252.43 368.062 252.43Z" fill="#E6E6E6"/>
<path d="M481.455 427H282.336C278.249 427 274.895 423.637 274.895 419.538V419.223C274.895 415.124 278.249 411.761 282.336 411.761H481.559C485.646 411.761 489 415.124 489 419.223V419.538C488.895 423.637 485.542 427 481.455 427Z" fill="#C1C1C1"/>
<path d="M463.22 427H299.314C294.074 427 289.777 422.691 289.777 417.436V323.057C289.777 317.802 294.074 313.493 299.314 313.493H463.324C468.564 313.493 472.861 317.802 472.861 323.057V417.436C472.756 422.691 468.564 427 463.22 427Z" fill="#D2D3D5"/>
<path d="M379.066 383.069C372.044 383.069 366.28 377.288 366.28 370.246C366.28 363.205 372.044 357.424 379.066 357.424C386.087 357.424 391.851 363.205 391.851 370.246C391.851 377.288 386.087 383.069 379.066 383.069Z" fill="white"/>
<path d="M382 242.13H379.59C376.655 242.13 374.455 239.608 374.769 236.665L376.027 226.786C376.341 224.369 378.437 222.582 380.847 222.582C383.258 222.582 385.354 224.369 385.668 226.786L386.926 236.665C387.135 239.608 384.934 242.13 382 242.13Z" fill="#F9AC7F"/>
<path d="M384.41 164.357H375.502C373.511 164.357 371.939 162.78 371.939 160.784V160.573C371.939 158.576 373.511 157 375.502 157H384.41C386.401 157 387.973 158.576 387.973 160.573V160.784C387.973 162.78 386.297 164.357 384.41 164.357Z" fill="#858A8E"/>
<path d="M335.679 212.282H426.12V201.562C426.12 179.596 408.305 161.729 386.402 161.835H375.293C353.39 161.835 335.679 179.596 335.679 201.667V212.282Z" fill="#8D3333"/>
<path d="M383.991 185.272H376.446C369.634 185.272 364.184 190.737 364.184 197.568V206.081H396.253V197.568C396.253 190.737 390.803 185.272 383.991 185.272Z" fill="#3A0909"/>
<path d="M364.813 199.565H396.358V210.18H364.813C361.879 210.18 359.468 207.763 359.468 204.82C359.573 201.877 361.879 199.565 364.813 199.565Z" fill="#858A8E"/>
<path d="M369.948 205.03C369.948 206.502 368.795 207.658 367.328 207.658C365.861 207.658 364.708 206.502 364.708 205.03C364.708 203.559 365.861 202.403 367.328 202.403C368.795 202.403 369.948 203.559 369.948 205.03Z" fill="#FF553C"/>
<path d="M369.948 205.03C369.948 206.502 368.795 207.658 367.328 207.658C365.861 207.658 364.708 206.502 364.708 205.03C364.708 203.559 365.861 202.403 367.328 202.403C368.795 202.403 369.948 203.559 369.948 205.03Z" fill="#211F1D"/>
<path d="M378.454 207.611C379.881 207.368 380.841 206.012 380.599 204.581C380.357 203.15 379.004 202.188 377.578 202.43C376.151 202.673 375.191 204.03 375.433 205.46C375.675 206.891 377.028 207.854 378.454 207.611Z" fill="#211F1D"/>
<path d="M391.117 205.03C391.117 206.502 389.965 207.658 388.497 207.658C387.03 207.658 385.877 206.502 385.877 205.03C385.877 203.559 387.03 202.403 388.497 202.403C389.965 202.403 391.117 203.559 391.117 205.03Z" fill="#211F1D"/>
<path d="M364.499 222.582C364.499 224.789 362.717 226.471 360.621 226.471C358.42 226.471 356.743 224.684 356.743 222.582C356.743 220.375 358.525 218.693 360.621 218.693C362.717 218.588 364.499 220.375 364.499 222.582Z" fill="#111110"/>
<path d="M403.589 222.582C403.589 224.789 401.807 226.471 399.711 226.471C397.51 226.471 395.833 224.684 395.833 222.582C395.833 220.375 397.615 218.693 399.711 218.693C401.807 218.588 403.589 220.375 403.589 222.582Z" fill="#111110"/>
<path d="M396.462 199.46C396.462 199.46 404.217 194.836 403.589 187.058L393.633 189.896L395.729 181.278L386.926 190.422L396.462 199.46Z" fill="#3A0909"/>
</g>
<path d="M135.232 76.864C139.2 78.336 142.272 80.48 144.448 83.296C146.624 86.112 147.712 89.504 147.712 93.472C147.712 99.36 145.28 103.936 140.416 107.2C135.552 110.4 128.512 112 119.296 112H81.472V44.8H117.376C126.336 44.8 133.088 46.4 137.632 49.6C142.24 52.8 144.544 57.056 144.544 62.368C144.544 65.504 143.744 68.32 142.144 70.816C140.608 73.312 138.304 75.328 135.232 76.864ZM103.744 60.64V70.624H114.304C119.232 70.624 121.696 68.96 121.696 65.632C121.696 62.304 119.232 60.64 114.304 60.64H103.744ZM117.376 96.16C122.368 96.16 124.864 94.4 124.864 90.88C124.864 87.36 122.368 85.6 117.376 85.6H103.744V96.16H117.376ZM178.57 58.528C187.786 58.528 194.826 60.608 199.69 64.768C204.554 68.864 206.986 75.2 206.986 83.776V112H186.826V105.088C184.33 110.336 179.37 112.96 171.946 112.96C167.786 112.96 164.234 112.256 161.29 110.848C158.41 109.376 156.202 107.424 154.666 104.992C153.194 102.496 152.458 99.712 152.458 96.64C152.458 91.456 154.442 87.52 158.41 84.832C162.378 82.144 168.394 80.8 176.458 80.8H185.194C184.49 76.704 181.194 74.656 175.306 74.656C172.938 74.656 170.538 75.04 168.106 75.808C165.674 76.512 163.594 77.504 161.866 78.784L154.954 64.48C157.962 62.624 161.578 61.184 165.802 60.16C170.09 59.072 174.346 58.528 178.57 58.528ZM178.474 99.904C180.01 99.904 181.386 99.488 182.602 98.656C183.818 97.824 184.714 96.576 185.29 94.912V91.264H179.914C175.498 91.264 173.29 92.736 173.29 95.68C173.29 96.896 173.738 97.92 174.634 98.752C175.594 99.52 176.874 99.904 178.474 99.904ZM245.524 112.96C239.572 112.96 234.228 111.808 229.492 109.504C224.82 107.2 221.14 103.968 218.452 99.808C215.828 95.648 214.516 90.944 214.516 85.696C214.516 80.448 215.828 75.776 218.452 71.68C221.14 67.52 224.82 64.288 229.492 61.984C234.228 59.68 239.572 58.528 245.524 58.528C251.924 58.528 257.396 59.904 261.94 62.656C266.484 65.408 269.62 69.216 271.348 74.08L254.548 82.336C252.5 77.728 249.46 75.424 245.428 75.424C242.868 75.424 240.724 76.32 238.996 78.112C237.332 79.904 236.5 82.432 236.5 85.696C236.5 89.024 237.332 91.584 238.996 93.376C240.724 95.168 242.868 96.064 245.428 96.064C249.46 96.064 252.5 93.76 254.548 89.152L271.348 97.408C269.62 102.272 266.484 106.08 261.94 108.832C257.396 111.584 251.924 112.96 245.524 112.96ZM301.515 95.872L298.059 99.616V112H276.363V40.768H298.059V74.752L313.131 59.488H338.763L317.067 82.24L340.491 112H314.283L301.515 95.872ZM341.414 76.096H370.214V92.416H341.414V76.096ZM435.844 94.912V112H379.972V44.8H434.596V61.888H402.244V69.76H430.66V86.08H402.244V94.912H435.844ZM480.374 58.528C486.838 58.528 492.022 60.48 495.926 64.384C499.894 68.288 501.878 74.176 501.878 82.048V112H480.182V85.792C480.182 79.776 478.038 76.768 473.75 76.768C471.318 76.768 469.334 77.632 467.798 79.36C466.326 81.024 465.59 83.68 465.59 87.328V112H443.894V59.488H464.534V64.672C466.582 62.624 468.95 61.088 471.638 60.064C474.326 59.04 477.238 58.528 480.374 58.528ZM570.318 40.768V112H549.678V107.68C546.542 111.2 541.742 112.96 535.278 112.96C530.67 112.96 526.414 111.872 522.51 109.696C518.67 107.456 515.598 104.256 513.294 100.096C511.054 95.936 509.934 91.136 509.934 85.696C509.934 80.256 511.054 75.488 513.294 71.392C515.598 67.232 518.67 64.064 522.51 61.888C526.414 59.648 530.67 58.528 535.278 58.528C541.102 58.528 545.55 60.032 548.622 63.04V40.768H570.318ZM540.462 96.064C542.958 96.064 545.006 95.168 546.606 93.376C548.206 91.52 549.006 88.96 549.006 85.696C549.006 82.432 548.206 79.904 546.606 78.112C545.006 76.32 542.958 75.424 540.462 75.424C537.966 75.424 535.918 76.32 534.318 78.112C532.718 79.904 531.918 82.432 531.918 85.696C531.918 88.96 532.718 91.52 534.318 93.376C535.918 95.168 537.966 96.064 540.462 96.064Z" fill="white"/>
<path d="M96.027 259.548C121.065 259.548 141.363 239.25 141.363 214.212C141.363 189.174 121.065 168.876 96.027 168.876C70.9886 168.876 50.6909 189.174 50.6909 214.212C50.6909 239.25 70.9886 259.548 96.027 259.548Z" fill="#F4F4F4"/>
<path d="M96.027 173.03C73.5964 173.03 55.4382 191.307 55.4382 213.619C55.4382 235.931 73.5964 254.208 96.027 254.208C118.339 254.208 136.616 236.049 136.616 213.619C136.497 191.307 118.339 173.03 96.027 173.03Z" fill="white"/>
<path d="M96.0269 260.616C70.0358 260.616 48.9106 239.491 48.9106 213.5C48.9106 187.509 70.0358 166.384 96.0269 166.384C122.018 166.384 143.143 187.509 143.143 213.5C143.024 239.61 122.018 260.616 96.0269 260.616ZM96.0269 173.03C73.5962 173.03 55.4381 191.307 55.4381 213.619C55.4381 235.931 73.5962 254.208 96.0269 254.208C118.339 254.208 136.616 236.049 136.616 213.619C136.497 191.307 118.339 173.03 96.0269 173.03Z" fill="#2C55A6"/>
<path d="M96.1455 222.52C95.1961 222.52 94.3653 222.045 94.0092 221.214L83.328 200.208C82.7346 199.021 83.2093 197.478 84.3961 196.885C85.5829 196.291 87.1258 196.766 87.7192 197.953L98.4004 218.959C98.9938 220.146 98.5191 221.689 97.3323 222.282C96.9763 222.401 96.5015 222.52 96.1455 222.52Z" fill="#211F1D"/>
<path d="M87.3633 219.671C86.7699 219.671 86.2952 219.197 86.1765 218.603C86.0578 217.891 86.5325 217.298 87.126 217.179L127.121 210.296C127.833 210.177 128.427 210.652 128.546 211.245C128.664 211.957 128.189 212.551 127.596 212.669L87.6007 219.553C87.482 219.671 87.482 219.671 87.3633 219.671Z" fill="#211F1D"/>
<defs>
<clipPath id="clip0">
<rect width="64" height="125" fill="white" transform="translate(535.806 302)"/>
</clipPath>
<clipPath id="clip1">
<rect width="214" height="270" fill="white" transform="translate(275 157)"/>
</clipPath>
</defs>
</svg>
