<svg width="648" height="427" viewBox="0 0 648 427" fill="none" xmlns="http://www.w3.org/2000/svg">
<g clip-path="url(#clip0)">
<rect width="648" height="427" fill="white"/>
<rect width="648" height="427" fill="white"/>
<rect width="648" height="427" fill="#F16A51"/>
<g clip-path="url(#clip1)">
<path d="M583.481 381.556H545.98C545.27 381.556 544.797 382.159 544.797 382.762V411.691C544.797 420.129 551.54 427 559.821 427H569.758C578.039 427 584.782 420.129 584.782 411.691V382.762C584.664 382.159 584.073 381.556 583.481 381.556Z" fill="#C1C1C1"/>
<path d="M578.986 422.058C587.385 417.236 601.936 402.892 599.57 392.767C598.978 390.115 597.322 388.066 594.838 386.86C589.278 384.208 581.233 387.463 580.287 387.825L583.008 393.49C584.901 392.646 589.633 391.32 591.88 392.405C592.353 392.646 592.827 393.008 593.063 394.093C594.483 399.999 583.126 412.415 575.555 416.754L578.986 422.058Z" fill="#C1C1C1"/>
<path d="M568.575 372.516C568.694 372.757 568.694 372.395 568.812 372.154L569.048 371.19C569.167 370.587 569.285 369.864 569.403 369.261C569.522 367.935 569.64 366.489 569.64 365.042C569.522 362.149 568.93 359.136 567.865 356.364C566.682 353.591 565.026 351.301 563.252 349.493C562.305 348.528 561.359 347.805 560.413 347.082L558.047 345.394C555.326 343.466 552.841 340.934 551.067 338.403C550.239 337.077 549.647 335.751 549.411 334.666C549.174 333.581 549.174 332.858 549.292 332.376C549.411 332.135 549.411 331.894 549.647 331.532C549.884 331.171 550.002 330.568 550.357 330.086C550.949 329.001 551.777 328.037 552.605 327.072C554.379 325.385 556.509 324.179 558.638 323.938C560.768 323.577 563.015 324.059 565.263 325.144C566.328 325.746 567.511 326.349 568.575 327.313C569.167 327.796 569.64 328.157 570.231 328.76C570.823 329.363 571.296 329.845 572.006 329.965L574.254 330.327C579.104 331.171 583.481 326.711 584.191 320.202C584.546 316.706 583.718 313.21 582.061 310.679C581.352 309.594 580.405 308.75 579.459 308.027C578.512 307.304 577.448 306.701 576.501 305.978C574.49 304.652 572.243 303.688 569.995 302.964C565.499 301.397 560.413 301.277 555.681 302.844C550.949 304.411 546.453 307.665 542.904 312.246C541.13 314.657 539.592 317.188 538.409 320.202C537.817 321.648 537.344 323.336 536.871 325.144C536.161 327.313 535.806 329.483 535.806 331.532C535.688 335.872 536.753 339.85 538.172 342.984C539.592 346.118 541.366 348.408 543.141 350.337C546.69 354.194 550.475 356.364 554.261 358.051L555.681 358.654L556.39 358.895L556.864 359.015C557.573 359.256 558.165 359.498 558.756 359.859C559.939 360.462 561.122 361.185 562.069 362.391C563.015 363.475 563.962 364.922 564.671 366.609C565.026 367.453 565.381 368.418 565.618 369.502C565.736 369.985 565.854 370.587 566.091 371.069L566.328 371.913C566.446 372.275 566.446 372.395 566.682 373.36C566.919 374.203 567.511 374.686 568.22 374.324C568.457 374.203 568.812 373.36 568.575 372.516Z" fill="white"/>
</g>
<g clip-path="url(#clip2)">
<path d="M417.894 282.909H370.001C357.739 282.909 347.678 272.925 347.678 260.523V212.282H438.12V262.625C438.12 273.87 429.107 282.909 417.894 282.909Z" fill="#444B51"/>
<path d="M463.377 353.641L326.614 351.329V336.72C326.614 312.862 355.853 290.686 384.463 290.686H406.052C431.518 290.686 463.272 313.072 463.272 334.197V353.641H463.377Z" fill="#383F45"/>
<path d="M401.86 260.628H384.463C380.9 260.628 378.07 263.466 378.07 267.039V294.47C378.07 302.773 384.777 309.604 393.161 309.604C401.441 309.604 408.252 302.878 408.252 294.47V267.039C408.252 263.466 405.423 260.628 401.86 260.628Z" fill="#FBC39D"/>
<path d="M378.07 290.581C378.07 290.581 379.328 299.515 393.161 299.515C406.995 299.515 408.252 290.581 408.252 290.581H378.07Z" fill="#F9AC7F"/>
<path d="M436.548 226.26C431.308 226.26 427.011 230.675 427.011 236.14C427.011 241.605 431.308 246.019 436.548 246.019C441.788 246.019 446.085 241.605 446.085 236.14C445.98 230.675 441.788 226.26 436.548 226.26Z" fill="#F9AC7F"/>
<path d="M349.879 226.26C344.639 226.26 340.343 230.675 340.343 236.14C340.343 241.605 344.639 246.019 349.879 246.019C355.119 246.019 359.416 241.605 359.416 236.14C359.416 230.675 355.119 226.26 349.879 226.26Z" fill="#F9AC7F"/>
<path d="M389.703 293.524C390.751 293.734 392.009 293.734 393.161 293.734C396.725 293.734 400.183 293.314 403.537 292.368V292.263C421.981 287.428 435.605 269.982 435.605 249.277V197.463C435.605 172.975 416.532 176.864 393.161 176.864C369.686 176.969 350.718 173.08 350.718 197.463V249.382C350.718 272.609 367.905 291.737 389.703 293.524Z" fill="#FBC39D"/>
<path d="M430.26 232.356V246.334H412.025C412.025 246.334 408.253 236.245 393.161 236.245C378.07 236.245 374.298 246.334 374.298 246.334H356.167V232.356C356.167 226.786 354.176 224.999 350.718 224.369V249.382C350.718 272.609 367.905 291.632 389.703 293.524L389.598 293.629C390.751 293.734 391.904 293.839 393.161 293.839C394.314 293.839 395.572 293.734 396.725 293.629L396.62 293.524C418.418 291.632 435.605 272.609 435.605 249.382V224.369C432.252 224.999 430.26 226.786 430.26 232.356Z" fill="#3A0909"/>
<path d="M380.062 252.43H405.633C405.633 252.43 403.327 262.52 392.847 262.52C382.367 262.52 380.062 252.43 380.062 252.43Z" fill="#E6E6E6"/>
<path d="M493.454 427H294.336C290.249 427 286.895 423.637 286.895 419.538V419.223C286.895 415.124 290.249 411.761 294.336 411.761H493.559C497.646 411.761 501 415.124 501 419.223V419.538C500.895 423.637 497.541 427 493.454 427Z" fill="#C1C1C1"/>
<path d="M475.219 427H311.313C306.073 427 301.777 422.691 301.777 417.436V323.057C301.777 317.802 306.073 313.493 311.313 313.493H475.324C480.564 313.493 484.861 317.802 484.861 323.057V417.436C484.756 422.691 480.564 427 475.219 427Z" fill="#D2D3D5"/>
<path d="M391.066 383.069C384.044 383.069 378.28 377.288 378.28 370.246C378.28 363.205 384.044 357.424 391.066 357.424C398.087 357.424 403.851 363.205 403.851 370.246C403.851 377.288 398.087 383.069 391.066 383.069Z" fill="white"/>
<path d="M394 242.13H391.589C388.655 242.13 386.454 239.608 386.769 236.665L388.026 226.786C388.341 224.369 390.437 222.582 392.847 222.582C395.257 222.582 397.353 224.369 397.668 226.786L398.925 236.665C399.135 239.608 396.934 242.13 394 242.13Z" fill="#F9AC7F"/>
<path d="M396.41 164.357H387.502C385.511 164.357 383.939 162.78 383.939 160.784V160.573C383.939 158.576 385.511 157 387.502 157H396.41C398.401 157 399.973 158.576 399.973 160.573V160.784C399.973 162.78 398.296 164.357 396.41 164.357Z" fill="#858A8E"/>
<path d="M347.678 212.282H438.12V201.562C438.12 179.596 420.304 161.729 398.401 161.835H387.293C365.39 161.835 347.678 179.596 347.678 201.667V212.282Z" fill="#383F45"/>
<path d="M395.991 185.272H388.445C381.633 185.272 376.184 190.737 376.184 197.568V206.081H408.252V197.568C408.252 190.737 402.803 185.272 395.991 185.272Z" fill="#3A0909"/>
<path d="M376.813 199.565H408.357V210.18H376.813C373.878 210.18 371.468 207.763 371.468 204.82C371.573 201.877 373.878 199.565 376.813 199.565Z" fill="#858A8E"/>
<path d="M381.948 205.03C381.948 206.502 380.795 207.658 379.328 207.658C377.861 207.658 376.708 206.502 376.708 205.03C376.708 203.559 377.861 202.403 379.328 202.403C380.795 202.403 381.948 203.559 381.948 205.03Z" fill="#FF553C"/>
<path d="M381.948 205.03C381.948 206.502 380.795 207.658 379.328 207.658C377.861 207.658 376.708 206.502 376.708 205.03C376.708 203.559 377.861 202.403 379.328 202.403C380.795 202.403 381.948 203.559 381.948 205.03Z" fill="#211F1D"/>
<path d="M390.454 207.611C391.881 207.368 392.841 206.012 392.599 204.581C392.357 203.15 391.004 202.188 389.577 202.43C388.151 202.673 387.191 204.03 387.433 205.46C387.675 206.891 389.027 207.854 390.454 207.611Z" fill="#211F1D"/>
<path d="M403.117 205.03C403.117 206.502 401.964 207.658 400.497 207.658C399.03 207.658 397.877 206.502 397.877 205.03C397.877 203.559 399.03 202.403 400.497 202.403C401.964 202.403 403.117 203.559 403.117 205.03Z" fill="#211F1D"/>
<path d="M376.498 222.582C376.498 224.789 374.717 226.471 372.621 226.471C370.42 226.471 368.743 224.684 368.743 222.582C368.743 220.375 370.525 218.693 372.621 218.693C374.717 218.588 376.498 220.375 376.498 222.582Z" fill="#111110"/>
<path d="M415.588 222.582C415.588 224.789 413.807 226.471 411.711 226.471C409.51 226.471 407.833 224.684 407.833 222.582C407.833 220.375 409.615 218.693 411.711 218.693C413.807 218.588 415.588 220.375 415.588 222.582Z" fill="#111110"/>
<path d="M408.462 199.46C408.462 199.46 416.217 194.836 415.588 187.058L405.632 189.896L407.728 181.278L398.925 190.422L408.462 199.46Z" fill="#3A0909"/>
</g>
<path d="M77.9346 68.617V80.137H105.967V97.225H77.9346V118.729H55.2786V51.529H109.903V68.617H77.9346ZM136.09 71.881C139.93 67.465 145.594 65.257 153.082 65.257V84.457C151.354 84.201 149.754 84.073 148.282 84.073C140.858 84.073 137.146 87.849 137.146 95.401V118.729H115.45V66.217H136.09V71.881ZM186.507 119.689C180.683 119.689 175.435 118.537 170.763 116.233C166.155 113.865 162.539 110.633 159.915 106.537C157.291 102.377 155.979 97.673 155.979 92.425C155.979 87.177 157.291 82.505 159.915 78.409C162.539 74.249 166.155 71.017 170.763 68.713C175.435 66.409 180.683 65.257 186.507 65.257C192.395 65.257 197.643 66.409 202.251 68.713C206.923 71.017 210.539 74.249 213.099 78.409C215.723 82.505 217.035 87.177 217.035 92.425C217.035 97.673 215.723 102.377 213.099 106.537C210.539 110.633 206.923 113.865 202.251 116.233C197.643 118.537 192.395 119.689 186.507 119.689ZM186.507 102.793C189.003 102.793 191.051 101.897 192.651 100.105C194.251 98.249 195.051 95.689 195.051 92.425C195.051 89.161 194.251 86.633 192.651 84.841C191.051 83.049 189.003 82.153 186.507 82.153C184.011 82.153 181.963 83.049 180.363 84.841C178.763 86.633 177.963 89.161 177.963 92.425C177.963 95.689 178.763 98.249 180.363 100.105C181.963 101.897 184.011 102.793 186.507 102.793ZM260.305 65.257C266.769 65.257 271.953 67.209 275.857 71.113C279.825 75.017 281.809 80.905 281.809 88.777V118.729H260.113V92.521C260.113 86.505 257.969 83.497 253.681 83.497C251.249 83.497 249.265 84.361 247.729 86.089C246.257 87.753 245.521 90.409 245.521 94.057V118.729H223.825V66.217H244.465V71.401C246.513 69.353 248.881 67.817 251.569 66.793C254.257 65.769 257.169 65.257 260.305 65.257ZM329.92 116.905C326.656 118.761 322.208 119.689 316.576 119.689C309.216 119.689 303.552 117.929 299.584 114.409C295.616 110.825 293.632 105.481 293.632 98.377V84.937H286.432V69.097H293.632V54.409H315.328V69.097H326.08V84.937H315.328V98.185C315.328 99.785 315.744 101.033 316.576 101.929C317.408 102.825 318.496 103.273 319.84 103.273C321.696 103.273 323.328 102.793 324.736 101.833L329.92 116.905ZM333.97 82.825H362.77V99.145H333.97V82.825ZM428.401 101.641V118.729H372.529V51.529H427.153V68.617H394.801V76.489H423.217V92.809H394.801V101.641H428.401ZM472.93 65.257C479.394 65.257 484.578 67.209 488.482 71.113C492.45 75.017 494.434 80.905 494.434 88.777V118.729H472.738V92.521C472.738 86.505 470.594 83.497 466.306 83.497C463.874 83.497 461.89 84.361 460.354 86.089C458.882 87.753 458.146 90.409 458.146 94.057V118.729H436.45V66.217H457.09V71.401C459.138 69.353 461.506 67.817 464.194 66.793C466.882 65.769 469.794 65.257 472.93 65.257ZM562.874 47.497V118.729H542.234V114.409C539.098 117.929 534.298 119.689 527.834 119.689C523.226 119.689 518.97 118.601 515.066 116.425C511.226 114.185 508.154 110.985 505.85 106.825C503.61 102.665 502.49 97.865 502.49 92.425C502.49 86.985 503.61 82.217 505.85 78.121C508.154 73.961 511.226 70.793 515.066 68.617C518.97 66.377 523.226 65.257 527.834 65.257C533.658 65.257 538.106 66.761 541.178 69.769V47.497H562.874ZM533.018 102.793C535.514 102.793 537.562 101.897 539.162 100.105C540.762 98.249 541.562 95.689 541.562 92.425C541.562 89.161 540.762 86.633 539.162 84.841C537.562 83.049 535.514 82.153 533.018 82.153C530.522 82.153 528.474 83.049 526.874 84.841C525.274 86.633 524.474 89.161 524.474 92.425C524.474 95.689 525.274 98.249 526.874 100.105C528.474 101.897 530.522 102.793 533.018 102.793Z" fill="white"/>
<path d="M96.027 259.548C121.065 259.548 141.363 239.25 141.363 214.212C141.363 189.174 121.065 168.876 96.027 168.876C70.9886 168.876 50.6909 189.174 50.6909 214.212C50.6909 239.25 70.9886 259.548 96.027 259.548Z" fill="#F4F4F4"/>
<path d="M96.0268 173.03C73.5961 173.03 55.438 191.307 55.438 213.619C55.438 235.931 73.5961 254.207 96.0268 254.207C118.339 254.207 136.616 236.049 136.616 213.619C136.497 191.307 118.339 173.03 96.0268 173.03Z" fill="white"/>
<path d="M96.0269 260.616C70.0358 260.616 48.9106 239.491 48.9106 213.5C48.9106 187.509 70.0358 166.384 96.0269 166.384C122.018 166.384 143.143 187.509 143.143 213.5C143.024 239.61 122.018 260.616 96.0269 260.616ZM96.0269 173.03C73.5962 173.03 55.4381 191.307 55.4381 213.619C55.4381 235.931 73.5962 254.208 96.0269 254.208C118.339 254.208 136.616 236.049 136.616 213.619C136.497 191.307 118.339 173.03 96.0269 173.03Z" fill="#B14935"/>
<path d="M96.1457 222.52C95.1963 222.52 94.3655 222.045 94.0095 221.214L83.3282 200.208C82.7348 199.021 83.2095 197.478 84.3963 196.885C85.5832 196.291 87.126 196.766 87.7194 197.953L98.4007 218.959C98.9941 220.146 98.5194 221.689 97.3326 222.282C96.9765 222.401 96.5018 222.52 96.1457 222.52Z" fill="#211F1D"/>
<path d="M87.3633 219.671C86.7699 219.671 86.2952 219.197 86.1765 218.603C86.0578 217.891 86.5325 217.298 87.126 217.179L127.121 210.296C127.833 210.177 128.427 210.652 128.546 211.245C128.664 211.957 128.189 212.551 127.596 212.669L87.6007 219.553C87.482 219.671 87.482 219.671 87.3633 219.671Z" fill="#211F1D"/>
</g>
<defs>
<clipPath id="clip0">
<rect width="648" height="427" fill="white"/>
</clipPath>
<clipPath id="clip1">
<rect width="64" height="125" fill="white" transform="translate(535.806 302)"/>
</clipPath>
<clipPath id="clip2">
<rect width="214" height="270" fill="white" transform="translate(287 157)"/>
</clipPath>
</defs>
</svg>
