<svg width="648" height="427" viewBox="0 0 648 427" fill="none" xmlns="http://www.w3.org/2000/svg">
<rect width="648" height="427" fill="white"/>
<rect width="648" height="427" fill="#332E2F"/>
<path d="M73.484 136.016C66.596 136.016 60.338 134.924 54.71 132.74C49.166 130.472 44.588 127.196 40.976 122.912L56.978 104.012C59.33 106.952 61.64 109.136 63.908 110.564C66.176 111.992 68.528 112.706 70.964 112.706C74.072 112.706 76.424 111.782 78.02 109.934C79.7 108.086 80.54 105.356 80.54 101.744V68.228H50.552V45.8H109.898V99.98C109.898 111.992 106.79 121.022 100.574 127.07C94.442 133.034 85.412 136.016 73.484 136.016ZM153.522 63.818C165.618 63.818 174.858 66.548 181.242 72.008C187.626 77.384 190.818 85.7 190.818 96.956V134H164.358V124.928C161.082 131.816 154.572 135.26 144.828 135.26C139.368 135.26 134.706 134.336 130.842 132.488C127.062 130.556 124.164 127.994 122.148 124.802C120.216 121.526 119.25 117.872 119.25 113.84C119.25 107.036 121.854 101.87 127.062 98.342C132.27 94.814 140.166 93.05 150.75 93.05H162.216C161.292 87.674 156.966 84.986 149.238 84.986C146.13 84.986 142.98 85.49 139.788 86.498C136.596 87.422 133.866 88.724 131.598 90.404L122.526 71.63C126.474 69.194 131.22 67.304 136.764 65.96C142.392 64.532 147.978 63.818 153.522 63.818ZM153.396 118.124C155.412 118.124 157.218 117.578 158.814 116.486C160.41 115.394 161.586 113.756 162.342 111.572V106.784H155.286C149.49 106.784 146.592 108.716 146.592 112.58C146.592 114.176 147.18 115.52 148.356 116.612C149.616 117.62 151.296 118.124 153.396 118.124ZM278.628 65.078L250.908 134H221.424L193.704 65.078H222.936L236.796 101.996L251.664 65.078H278.628ZM311.391 63.818C323.487 63.818 332.727 66.548 339.111 72.008C345.495 77.384 348.687 85.7 348.687 96.956V134H322.227V124.928C318.951 131.816 312.441 135.26 302.697 135.26C297.237 135.26 292.575 134.336 288.711 132.488C284.931 130.556 282.033 127.994 280.017 124.802C278.085 121.526 277.119 117.872 277.119 113.84C277.119 107.036 279.723 101.87 284.931 98.342C290.139 94.814 298.035 93.05 308.619 93.05H320.085C319.161 87.674 314.835 84.986 307.107 84.986C303.999 84.986 300.849 85.49 297.657 86.498C294.465 87.422 291.735 88.724 289.467 90.404L280.395 71.63C284.343 69.194 289.089 67.304 294.633 65.96C300.261 64.532 305.847 63.818 311.391 63.818ZM311.265 118.124C313.281 118.124 315.087 117.578 316.683 116.486C318.279 115.394 319.455 113.756 320.211 111.572V106.784H313.155C307.359 106.784 304.461 108.716 304.461 112.58C304.461 114.176 305.049 115.52 306.225 116.612C307.485 117.62 309.165 118.124 311.265 118.124Z" fill="white"/>
<path d="M584.09 360.636C583.003 387.804 525.134 409.403 454.631 409.132C384.128 408.86 327.889 386.582 328.84 359.413C329.926 332.244 387.796 310.645 458.299 310.917C528.801 311.324 585.177 333.603 584.09 360.636Z" fill="#A2B2B2"/>
<path d="M582.46 358.326C581.509 384.816 524.183 406.007 454.495 405.6C384.807 405.328 329.111 383.593 330.062 357.104C331.013 330.614 388.339 309.422 458.027 309.83C527.851 310.102 583.411 331.837 582.46 358.326Z" fill="white"/>
<path opacity="0.4" d="M536.273 349.768C535.594 366.205 500.139 379.246 457.076 379.11C413.878 378.839 379.509 365.39 380.053 349.089C380.732 332.652 416.187 319.611 459.25 319.747C502.448 319.882 536.952 333.331 536.273 349.768Z" fill="#404041"/>
<path d="M389.426 296.789C388.611 296.11 387.66 295.566 386.709 295.159C385.079 294.48 382.77 293.665 380.868 293.529C377.472 293.121 374.076 292.714 370.68 292.17C363.208 291.084 356.009 289.589 348.809 287.687C336.175 284.291 311.859 277.635 306.561 266.768C301.943 257.666 309.686 245.848 323.134 248.429C330.062 249.787 335.768 255.9 342.832 257.666C368.234 264.322 352.341 234.301 342.288 228.731C332.915 223.433 319.738 223.298 308.871 226.014C280.751 233.078 276.54 255.9 284.691 272.881C292.434 289.182 311.995 298.963 331.285 305.347C340.522 308.336 350.303 310.509 360.084 312.004C370.136 313.498 380.46 315.264 389.426 310.509C395.675 306.841 395.539 300.185 389.426 296.789Z" fill="#DDDDDC"/>
<path d="M336.99 284.291C337.941 287.144 338.077 290.133 337.126 292.985C336.719 294.208 336.04 295.295 335.224 296.11C332.236 298.012 328.161 299.098 323.814 299.37C319.331 299.098 314.44 297.876 309.958 296.517C316.614 300.049 323.949 302.902 331.149 305.347C340.251 308.336 349.76 310.373 359.405 311.868C360.491 304.396 355.329 295.566 351.526 289.725C351.254 289.182 350.846 288.638 350.439 288.095C349.896 287.959 349.352 287.823 348.673 287.687C345.549 286.737 341.337 285.65 336.99 284.291Z" fill="#C8D8D8"/>
<path opacity="0.5" d="M310.637 271.794C308.871 270.164 307.376 268.533 306.561 266.767C301.943 257.666 309.686 245.848 323.134 248.429C330.062 249.787 335.768 255.9 342.832 257.666C344.733 258.209 350.303 259.704 352.069 258.209C353.699 256.851 351.526 254.27 351.254 252.64C349.896 246.391 348.537 240.957 345.549 234.844C343.511 230.633 340.794 221.26 333.187 221.532C327.345 221.667 326.395 228.324 326.123 231.72C325.851 235.523 327.074 238.24 321.368 239.735C317.972 240.686 314.304 240.006 310.908 241.093C304.116 243.267 299.905 248.7 299.09 254.406C298.275 260.79 303.301 268.805 310.637 271.794Z" fill="#A4BABA"/>
<path d="M585.041 216.641C582.324 207.811 573.358 199.117 565.887 194.227C552.982 185.941 537.224 182.544 522.417 179.42C489.543 172.492 455.582 170.998 422.164 174.394C396.354 176.975 366.74 180.235 345.684 196.944C336.311 204.415 330.606 215.147 328.976 226.829C328.025 233.622 329.383 240.686 331.013 247.206C333.187 256.036 335.632 265.002 337.67 273.831C345.684 307.792 359.676 340.802 397.848 359.956C433.575 377.752 479.49 377.208 515.489 360.5C530.839 353.436 544.288 343.927 553.389 331.701C561.676 320.562 567.517 308.607 572.679 296.517C582.867 271.93 593.192 242.587 585.041 216.641Z" fill="#DDDDDC"/>
<path opacity="0.3" d="M574.309 292.578C577.162 285.65 579.879 278.314 582.188 270.843C453.137 343.247 356.416 282.797 336.175 268.262C336.583 270.164 337.126 272.065 337.534 273.967C338.756 279.129 340.115 284.291 341.609 289.453C369.593 307.521 458.163 353.436 574.309 292.578Z" fill="white"/>
<path opacity="0.3" d="M319.874 231.041C306.697 227.916 292.841 235.931 288.63 245.712C286.049 251.689 285.506 257.802 286.864 264.051C287.951 269.213 291.483 276.005 296.917 279.129C298.954 280.352 301.671 278.722 301.671 276.956C301.807 272.88 297.868 268.941 296.237 265.137C294.064 259.975 294.607 254.406 296.509 249.244C298.411 244.217 302.758 240.414 308.735 238.376C312.946 236.882 317.157 236.203 320.689 233.757C321.912 232.942 321.233 231.448 319.874 231.041Z" fill="white"/>
<path opacity="0.2" d="M520.515 265.952C520.515 265.952 562.763 259.296 582.052 239.463C582.052 239.463 568.604 357.919 472.698 364.982C472.698 365.118 508.289 339.58 520.515 265.952Z" fill="white"/>
<path d="M339.299 224.928C339.707 226.014 347.042 218.951 347.586 218C349.488 213.924 351.661 213.517 357.638 210.392C364.159 206.996 373.396 204.823 382.226 203.193C402.331 199.661 424.338 195.042 445.665 194.499C470.389 193.955 494.025 194.906 517.798 198.71C530.567 200.748 542.793 203.736 554.204 207.132C559.638 208.762 564.664 210.8 568.875 213.109C572.951 215.419 573.222 218 573.494 220.852C573.63 222.754 580.286 226.014 582.188 223.841C582.188 223.841 599.44 179.963 463.325 179.963C325.715 179.963 337.398 221.667 339.299 224.928Z" fill="#CCCBCB"/>
<path d="M575.939 219.766C569.011 234.573 539.804 241.093 522.009 248.972C521.466 249.244 521.194 249.651 521.194 249.923C526.899 248.7 532.469 247.342 537.903 245.576C552.438 241.093 567.381 235.795 576.482 227.916C585.584 220.037 583.139 212.702 575.26 206.453C577.569 210.8 578.112 215.283 575.939 219.766Z" fill="#878F8C"/>
<path d="M582.324 220.309C582.324 240.006 528.123 255.9 461.288 255.9C394.453 255.9 340.251 239.87 340.251 220.309C340.251 200.612 394.453 184.718 461.288 184.718C528.123 184.582 582.324 200.612 582.324 220.309Z" fill="#AA784B"/>
<path d="M358.893 198.435C367.959 194.172 378.784 190.975 388.392 189.11C409.771 185.114 433.181 183.249 455.508 183.116C483.789 182.85 510.581 184.448 537.373 188.977C557.535 192.307 580.945 199.767 584.733 213.088C588.387 226.142 573.502 235.733 556.047 242.527C524.518 254.649 482.165 259.178 444.953 257.446C423.98 256.514 403.141 253.583 384.738 247.589C369.989 242.793 354.698 237.065 345.362 228.673C332.236 216.818 342.655 206.028 358.893 198.435Z" fill="#AA784B"/>
<path d="M458.163 246.663C453.273 246.663 448.382 246.527 443.492 246.391C421.35 245.304 401.652 241.908 385.215 236.203C371.767 231.584 356.96 225.743 348.809 217.864C346.907 216.098 346.364 214.875 346.228 214.468C346.771 212.973 350.032 208.626 360.356 203.464C368.235 199.525 378.287 196.129 388.068 194.227C407.629 190.288 430.451 188.114 454.088 187.978C455.854 187.978 457.62 187.978 459.386 187.978C487.098 187.978 511.821 190.016 534.915 194.091C562.22 198.981 574.038 207.811 575.396 212.702C576.347 216.505 569.555 223.841 552.167 231.041C527.444 240.957 493.211 246.663 458.163 246.663Z" fill="#C28F5F"/>
<path d="M457.756 249.515C452.322 249.515 446.888 249.38 441.455 249.108C417.003 247.614 393.773 246.119 375.57 238.105C364.024 232.942 349.896 232.263 342.832 215.011C344.598 213.517 346.771 211.887 349.624 209.985C358.047 204.687 368.778 200.068 379.238 197.487C400.973 191.918 426.376 188.929 452.73 188.657C454.631 188.657 456.669 188.657 458.571 188.657C489.543 188.657 517.12 191.51 542.93 197.351C564.257 202.242 575.396 209.442 580.151 213.924C577.162 217.185 572.68 225.743 562.22 231.176C535.73 245.168 496.607 249.515 457.756 249.515Z" fill="url(#paint0_radial)"/>
<path d="M455.446 254.813C450.013 254.813 444.579 254.677 439.281 254.27C415.101 252.504 394.045 246.391 375.163 239.191C367.827 236.339 364.295 234.708 359.269 231.856C355.329 229.546 346.228 223.705 348.945 216.913C350.439 212.973 366.469 207.132 371.359 205.774C391.328 200.068 409.939 196.129 429.636 194.635C436.7 194.091 443.628 193.819 450.692 193.684C452.594 193.684 454.631 193.684 456.533 193.684C482.072 193.684 507.746 195.993 532.741 201.97C539.534 203.6 546.19 205.095 552.846 207.268C556.922 208.626 571.321 212.023 570.234 219.086C569.419 224.248 563.985 227.78 560.589 229.818C533.964 246.255 493.89 254.813 455.446 254.813Z" fill="#131416"/>
<path d="M363.48 199.253C363.48 199.253 350.303 204.144 344.734 210.257L345.685 211.207C345.549 211.207 357.911 201.427 363.48 199.253Z" fill="#B18661"/>
<path d="M565.887 202.378C565.887 202.378 571.728 205.23 574.853 207.947L574.581 208.626L565.887 202.378Z" fill="#B18661"/>
<path d="M459.385 177.111C390.377 177.111 334.273 194.499 334.273 216.098C334.273 243.402 390.241 258.345 459.385 258.345C528.394 258.345 584.498 249.108 584.498 216.098C584.362 194.499 528.394 177.111 459.385 177.111ZM459.385 246.798C396.082 246.798 344.869 231.992 344.869 213.653C344.869 195.314 396.082 180.507 459.385 180.507C522.689 180.507 573.902 195.314 573.902 213.653C573.902 231.856 522.689 246.798 459.385 246.798Z" fill="#DDDDDC"/>
<path opacity="0.5" d="M441.047 250.059C441.047 250.33 440.911 250.602 440.639 250.874C438.602 254.27 426.919 251.553 423.795 251.281C412.112 249.923 400.43 248.564 388.883 246.119C383.042 244.897 377.2 243.402 371.631 241.636C349.352 234.708 336.447 225.335 336.447 216.098C336.447 208.491 345.005 200.883 360.356 194.499C348.809 200.068 342.56 206.589 342.56 213.517C342.56 223.433 355.058 232.399 377.608 238.92C395.268 244.082 413.607 246.391 431.945 247.749C433.576 247.885 441.59 247.749 441.047 250.059Z" fill="white"/>
<path opacity="0.2" d="M556.242 217.864C556.242 227.645 526.085 235.523 488.864 235.523C451.643 235.523 467.672 219.63 476.094 217.864C521.33 208.219 451.643 200.204 488.864 200.204C526.085 200.204 556.242 211.887 556.242 217.864Z" fill="white"/>
<path opacity="0.5" d="M501.497 247.07C501.497 247.07 491.309 247.885 489.272 249.923C487.098 251.961 496.335 254.406 516.304 250.602C536.273 246.798 559.095 240.006 564.393 233.486C569.555 226.965 560.589 231.856 548.907 236.746C536.953 241.501 501.497 247.07 501.497 247.07Z" fill="white"/>
<g opacity="0.5">
<path opacity="0.5" d="M419.583 16C419.583 16 461.559 45.0706 442.269 80.3899C422.979 115.845 442.269 148.312 442.269 148.312C439.416 143.15 440.231 132.826 440.503 127.392C441.046 114.079 443.627 100.766 449.469 88.5405C453.408 80.3899 459.114 72.7827 460.064 63.6811C461.559 48.195 448.382 36.3766 436.563 27.6826C431.13 23.7431 425.424 19.8036 419.583 16Z" fill="white"/>
<path opacity="0.5" d="M464.819 40.4518C464.819 40.4518 483.158 58.7907 470.796 76.7221C458.298 94.6535 469.302 112.992 469.302 112.992C468.079 110.004 469.166 104.57 469.573 101.582C470.66 94.5176 472.834 87.4538 476.637 81.205C479.218 77.1296 482.75 73.326 483.837 68.4356C485.603 60.1492 479.218 53.0853 473.241 47.6516C470.524 45.3422 467.807 42.897 464.819 40.4518Z" fill="white"/>
<path opacity="0.5" d="M461.831 79.439C461.831 79.439 443.628 121.415 457.891 146.818C471.34 170.998 455.854 185.261 455.854 185.261C455.854 185.261 480.17 174.53 466.993 147.633C450.556 114.487 461.831 79.439 461.831 79.439Z" fill="white"/>
</g>
<path opacity="0.7" d="M445.258 150.757C445.258 150.757 458.842 161.624 449.605 172.356C440.367 182.952 448.518 193.955 448.518 193.955C447.567 192.189 448.382 188.929 448.79 187.163C449.605 182.952 451.235 178.741 454.088 175.073C455.989 172.628 458.57 170.318 459.386 167.466C460.608 162.575 455.989 158.364 451.642 155.104C449.469 153.61 447.431 152.115 445.258 150.757Z" fill="white"/>
<path d="M179.72 263.695V267.063H103.348C94.2168 267.062 86.8138 274.465 86.8153 283.596V353.009C86.8153 362.14 79.4107 369.543 70.2779 369.542H68.5374C59.4046 369.543 52 362.14 52 353.009V244.649C52 235.516 59.4046 228.114 68.5374 228.116H105.635C110.278 228.116 114.707 230.068 117.841 233.494L129.101 245.814C129.884 246.671 130.992 247.16 132.154 247.16H163.183C172.315 247.159 179.72 254.562 179.72 263.695Z" fill="#E9B78A"/>
<path d="M200 283.596V353.009C200 362.14 192.595 369.543 183.463 369.542H70.2778C79.4107 369.543 86.8152 362.14 86.8152 353.009V283.596C86.8137 274.465 94.2168 267.062 103.348 267.063H183.463C192.595 267.062 200 274.463 200 283.596Z" fill="#AA784B"/>
<path d="M115.601 334.792C114.459 334.794 113.436 334.082 113.042 333.009C112.647 331.936 112.963 330.731 113.832 329.991L129.034 317.044L113.832 304.098C112.709 303.115 112.584 301.413 113.551 300.278C114.518 299.142 116.219 298.994 117.368 299.946L135.007 314.968C135.615 315.486 135.965 316.245 135.965 317.044C135.965 317.844 135.615 318.601 135.007 319.12L117.368 334.142C116.875 334.562 116.248 334.794 115.601 334.792Z" fill="#424345"/>
<path d="M171.214 337.308H136.161C134.655 337.308 133.435 336.088 133.435 334.582C133.435 333.076 134.655 331.856 136.161 331.856H171.214C172.72 331.856 173.94 333.076 173.94 334.582C173.94 336.088 172.72 337.308 171.214 337.308Z" fill="#424345"/>
<defs>
<radialGradient id="paint0_radial" cx="0" cy="0" r="1" gradientUnits="userSpaceOnUse" gradientTransform="translate(463.068 218.671) scale(129.627 33.6846)">
<stop offset="0.2673" stop-color="#131416"/>
<stop offset="0.4512" stop-color="#151617"/>
<stop offset="0.5522" stop-color="#1D1B1A"/>
<stop offset="0.633" stop-color="#2B2520"/>
<stop offset="0.7032" stop-color="#3F3328"/>
<stop offset="0.7665" stop-color="#584433"/>
<stop offset="0.8248" stop-color="#775A40"/>
<stop offset="0.8782" stop-color="#9B744F"/>
<stop offset="0.9255" stop-color="#C28F5F"/>
</radialGradient>
</defs>
</svg>
