<svg height="480pt" viewBox="0 -28 480 480" width="480pt" xmlns="http://www.w3.org/2000/svg" xmlns:xlink="http://www.w3.org/1999/xlink"><linearGradient id="a" gradientUnits="userSpaceOnUse" x1="89.28" x2="393.28" y1="345.28" y2="41.28"><stop offset="0" stop-color="#41dfd0"/><stop offset="1" stop-color="#ee83ef"/></linearGradient><path d="m272 178.222656c.015625 11.675782-7.460938 22.046875-18.542969 25.722656-1.777343.582032-3.605469 1.007813-5.457031 1.269532v10.785156h-16v-12.671875c-2.109375-.804687-4.128906-1.832031-6.023438-3.0625l-14.402343-9.601563c-3.675781-2.453124-4.667969-7.421874-2.214844-11.097656 2.453125-3.675781 7.421875-4.667968 11.097656-2.214844l14.398438 9.601563c3.992187 2.675781 9 3.34375 13.550781 1.816406 4.03125-1.339843 6.945312-4.859375 7.507812-9.066406s-1.324218-8.367187-4.859374-10.71875l-30.976563-20.65625c-8.617187-5.742187-13.207031-15.894531-11.832031-26.15625s8.480468-18.847656 18.304687-22.117187c1.78125-.542969 3.601563-.929688 5.449219-1.152344v-10.902344h16v12.640625c2.113281.8125 4.132812 1.847656 6.023438 3.09375l14.402343 9.601563c3.675781 2.453124 4.667969 7.421874 2.214844 11.097656-2.453125 3.675781-7.421875 4.667968-11.097656 2.214844l-14.398438-9.601563c-3.988281-2.675781-8.988281-3.359375-13.542969-1.847656-4.03125 1.339843-6.945312 4.859375-7.507812 9.066406s1.324219 8.367187 4.859375 10.71875l30.976563 20.65625c7.554687 5.027344 12.085937 13.507813 12.070312 22.582031zm88 62.945313c-.011719 12.605469-10.226562 22.820312-22.832031 22.832031h-57.167969v160h-16v-32h-48v32h-16v-160h-57.167969c-10.59375.003906-19.796875-7.277344-22.230469-17.585938-2.433593-10.304687 2.539063-20.933593 12.015626-25.671874l3.382812-1.6875v-75.054688c.078125-43.324219 26.984375-82.074219 67.550781-97.28125l-31.125-15.519531 7.148438-14.320313 27.546875 13.738282-6.707032-20.089844c-.808593-2.4375-.402343-5.117188 1.101563-7.203125 1.5-2.085938 3.914063-3.324219 6.484375-3.324219h64c2.570312 0 4.984375 1.238281 6.484375 3.324219 1.503906 2.085937 1.910156 4.765625 1.101563 7.203125l-6.707032 20.089844 27.546875-13.777344 7.148438 14.320312-31.125 15.558594c40.566406 15.207031 67.472656 53.957031 67.550781 97.28125v75.054688l3.375 1.6875c7.757812 3.847656 12.652344 11.769531 12.625 20.425781zm-140.894531-225.167969 7.480469 22.398438c8.832031 1.96875 17.996093 1.96875 26.828124 0l7.480469-22.398438zm-3.105469 328h48v-16h-48zm48-32v-16h-48v16zm0-32v-16h-48v16zm0 96v-16h-48v16zm80-134.832031c.011719-2.59375-1.457031-4.964844-3.785156-6.113281l-7.789063-3.894532c-2.714843-1.355468-4.425781-4.128906-4.425781-7.160156v-80c0-48.601562-39.398438-88-88-88s-88 39.398438-88 88v80c.015625 3.046875-1.699219 5.839844-4.425781 7.199219l-7.796875 3.898437c-2.792969 1.4375-4.242188 4.589844-3.519532 7.644532.722657 3.054687 3.4375 5.222656 6.574219 5.257812h57.167969v-16h16v16h48v-16h16v16h57.167969c3.769531-.003906 6.828125-3.0625 6.832031-6.832031zm24-225.167969h-16v16h16zm0 48h-16v16h16zm-24-24h-16v16h16zm48 16v-16h-16v16zm-320 192h-16v16h16zm-16 64h16v-16h-16zm-8-40h-16v16h16zm48 0h-16v16h16zm384-120c0 17.671875-14.328125 32-32 32h-56c-16.152344.015625-29.78125-12.007812-31.78125-28.035156-2.003906-16.023438 8.25-31.03125 23.910156-34.988282 1.574219-18.640624 17.164063-32.96875 35.871094-32.96875s34.296875 14.328126 35.871094 32.96875c14.179687 3.625 24.105468 16.386719 24.128906 31.023438zm-16 0c0-8.835938-7.164062-16-16-16-4.417969 0-8-3.582031-8-8v-4c0-11.046875-8.953125-20-20-20s-20 8.953125-20 20v4c0 4.417969-3.582031 8-8 8-8.835938 0-16 7.164062-16 16s7.164062 16 16 16h56c8.835938 0 16-7.164062 16-16zm-464 32c.0234375-14.636719 9.949219-27.398438 24.128906-31.023438 1.574219-18.640624 17.164063-32.96875 35.871094-32.96875s34.296875 14.328126 35.871094 32.96875c15.660156 3.957032 25.914062 18.964844 23.910156 34.988282-2 16.027344-15.628906 28.050781-31.78125 28.035156h-56c-17.671875 0-32-14.328125-32-32zm16 0c0 8.835938 7.164062 16 16 16h56c8.835938 0 16-7.164062 16-16s-7.164062-16-16-16c-4.417969 0-8-3.582031-8-8v-4c0-11.046875-8.953125-20-20-20s-20 8.953125-20 20v4c0 4.417969-3.582031 8-8 8-8.835938 0-16 7.164062-16 16zm0 0" fill="url(#a)"/></svg>