<svg height="512pt" viewBox="-26 0 512 512.00051" width="512pt" xmlns="http://www.w3.org/2000/svg" xmlns:xlink="http://www.w3.org/1999/xlink"><linearGradient id="a"><stop offset="0" stop-color="#662d91"/><stop offset=".437" stop-color="#3873b3"/><stop offset="1" stop-color="#00c9dd"/></linearGradient><linearGradient id="b" gradientTransform="matrix(1.077802 0 0 -1.077802 -25.597536 502.434592)" gradientUnits="userSpaceOnUse" x1="42.5563" x2="488.9764" xlink:href="#a" y1="439.4397" y2="-6.9804"/><linearGradient id="c" gradientTransform="matrix(1.077802 0 0 -1.077802 -25.597536 502.434592)" gradientUnits="userSpaceOnUse" x1="-177.1494" x2="269.2707" xlink:href="#a" y1="219.7341" y2="-226.6861"/><linearGradient id="d" gradientTransform="matrix(1.077802 0 0 -1.077802 -25.597536 502.434592)" gradientUnits="userSpaceOnUse" x1="-10.8883" x2="435.5318" xlink:href="#a" y1="385.9951" y2="-60.4249"/><linearGradient id="e" gradientTransform="matrix(1.077802 0 0 -1.077802 -25.597536 502.434592)" gradientUnits="userSpaceOnUse" x1="-64.3291" x2="382.0911" xlink:href="#a" y1="332.5544" y2="-113.8657"/><linearGradient id="f" gradientTransform="matrix(1.077802 0 0 -1.077802 -25.597536 502.434592)" gradientUnits="userSpaceOnUse" x1="42.5534" x2="488.9734" xlink:href="#a" y1="439.4368" y2="-6.9833"/><linearGradient id="g" gradientTransform="matrix(1.077802 0 0 -1.077802 -25.597536 502.434592)" gradientUnits="userSpaceOnUse" x1="145.4772" x2="591.8973" xlink:href="#a" y1="542.3606" y2="95.9405"/><path d="m455.433594 34.746094-85.332032-34.132813c-4.375-1.753906-9.34375.375-11.09375 4.75-.40625 1.007813-.613281 2.089844-.613281 3.179688v110.929687h-51.199219c-4.714843 0-8.53125 3.820313-8.53125 8.535156v102.398438h-102.402343c-4.710938 0-8.53125 3.820312-8.53125 8.53125v102.398438h-110.929688c-4.714843 0-8.535156 3.820312-8.535156 8.535156v153.597656c0 4.710938 3.820313 8.53125 8.535156 8.53125 4.710938 0 8.53125-3.820312 8.53125-8.53125v-145.066406h110.929688c4.714843 0 8.535156-3.820313 8.535156-8.53125v-102.398438h102.398437c4.714844 0 8.53125-3.820312 8.53125-8.535156v-102.398438h119.464844v366.925782c0 4.714844 3.824219 8.535156 8.535156 8.535156 4.710938 0 8.53125-3.820312 8.53125-8.535156v-375.457032c0-4.714843-3.820312-8.535156-8.53125-8.535156h-68.265624v-44.847656l79.246093-23.773438c4.515625-1.347656 7.085938-6.101562 5.738281-10.617187-.746093-2.5-2.589843-4.519531-5.011718-5.488281zm-79.972656 22.058594v-35.660157l50.941406 20.378907zm0 0" fill="url(#b)"/><path d="m8.535156 469.335938c-4.714844 0-8.535156 3.820312-8.535156 8.53125v25.601562c0 4.710938 3.820312 8.53125 8.535156 8.53125 4.710938 0 8.53125-3.820312 8.53125-8.53125v-25.601562c0-4.710938-3.820312-8.53125-8.53125-8.53125zm0 0" fill="url(#c)"/><path d="m136.53125 290.136719v-110.929688h119.464844c4.710937 0 8.53125-3.820312 8.53125-8.535156v-81.796875l11.035156 11.03125c3.390625 3.277344 8.789062 3.183594 12.066406-.207031 3.195313-3.308594 3.195313-8.550781 0-11.859375l-25.601562-25.597656c-.074219-.078126-.179688-.101563-.257813-.171876-.726562-.714843-1.574219-1.292968-2.507812-1.707031-.066407 0-.144531 0-.222657-.050781-.867187-.324219-1.785156-.503906-2.710937-.527344-.273437 0-.539063 0-.855469.042969-.738281.039063-1.46875.179687-2.167968.417969-.273438.09375-.539063.167968-.800782.289062-.953125.410156-1.820312.984375-2.558594 1.707032l-25.597656 25.597656c-3.277344 3.390625-3.179687 8.792968.207032 12.066406 3.308593 3.195312 8.550781 3.195312 11.855468 0l11.050782-11.03125v73.265625h-119.464844c-4.710938 0-8.53125 3.820313-8.53125 8.53125v110.933594h-110.929688c-4.714844 0-8.535156 3.820312-8.535156 8.53125v153.597656c0 4.714844 3.820312 8.535156 8.535156 8.535156 4.710938 0 8.53125-3.824219 8.53125-8.535156v-145.0625h110.929688c4.714844 0 8.535156-3.820313 8.535156-8.535156zm0 0" fill="url(#d)"/><path d="m179.195312 375.46875h-68.265624c-4.710938 0-8.53125 3.820312-8.53125 8.535156 0 4.710938 3.820312 8.53125 8.53125 8.53125h68.265624c4.714844 0 8.535157-3.820312 8.535157-8.53125 0-4.714844-3.820313-8.535156-8.535157-8.535156zm0 0" fill="url(#e)"/><path d="m298.664062 264.539062h-68.265624c-4.714844 0-8.535157 3.820313-8.535157 8.53125 0 4.714844 3.820313 8.535157 8.535157 8.535157h68.265624c4.710938 0 8.53125-3.820313 8.53125-8.535157 0-4.710937-3.820312-8.53125-8.53125-8.53125zm0 0" fill="url(#f)"/><path d="m409.59375 153.605469h-68.265625c-4.714844 0-8.535156 3.820312-8.535156 8.535156 0 4.710937 3.820312 8.53125 8.535156 8.53125h68.265625c4.710938 0 8.53125-3.820313 8.53125-8.53125.003906-4.714844-3.820312-8.535156-8.53125-8.535156zm0 0" fill="url(#g)"/></svg>