<svg id="_x33_0" enable-background="new 0 0 64 64" height="512" viewBox="0 0 64 64" width="512" xmlns="http://www.w3.org/2000/svg" xmlns:xlink="http://www.w3.org/1999/xlink"><linearGradient id="SVGID_1_" gradientUnits="userSpaceOnUse" x1="32.434" x2="32.434" y1="63" y2="1"><stop offset="0" stop-color="#9f2fff"/><stop offset="1" stop-color="#0bb1d3"/></linearGradient><path d="m16 24h-2c0-1.654 1.346-3 3-3s3 1.346 3 3h-2c0-.551-.449-1-1-1s-1 .449-1 1zm9-1c.551 0 1 .449 1 1h2c0-1.654-1.346-3-3-3s-3 1.346-3 3h2c0-.551.449-1 1-1zm-4 9c-2.757 0-5-2.243-5-5v-1h10v1c0 2.757-2.243 5-5 5zm0-2c1.304 0 2.416-.836 2.829-2h-5.657c.412 1.164 1.524 2 2.828 2zm37 11.197 5.869 8.803h-4.869v11h4v2h-62v-13.858c0-2.253.775-4.461 2.182-6.22 1.461-1.825 3.528-3.084 5.821-3.542l6.148-1.229.688-3.442c-2.303-1.23-4.113-3.256-5.075-5.708h-.764c-2.206 0-4-1.794-4-4 0-.925.329-1.767.858-2.445l-.482-1.93c-.25-.998-.376-2.024-.376-3.051 0-6.934 5.641-12.575 12.575-12.575h14.425c1.365 0 2.508.922 2.87 2.173 2.771-3.834 7.215-6.173 12.13-6.173 8.271 0 15 6.729 15 15 0 6.335-4.079 12.034-10 14.133v4.051c0 3.349-1.214 6.579-3.418 9.098-2.624 2.998-6.414 4.718-10.397 4.718h-4.185v13h10v-4h-4.869l5.869-8.803 5.869 8.803h-4.869v4h10v-11h-4.869zm-14.131 13.803h4.263l-2.132-3.197zm7.131-20.815v-4.185h-6v3.764c0 2.378-1.321 4.516-3.447 5.578-.862.43-1.826.658-2.789.658h-9.105l-3.258 7.602-2.012-1.609-.36 1.081 2.048 11.264-2.663 2.662h9.586v-15h6.185c3.407 0 6.647-1.471 8.892-4.034 1.885-2.154 2.923-4.918 2.923-7.781zm-19-16.707v3.522c.779 0 1.501.233 2.116.619-.635-1.556-1.01-3.228-1.088-4.956-.324.294-.664.571-1.028.815zm-.191 9.522h.191c1.103 0 2-.897 2-2s-.897-2-2-2v2c0 .684-.071 1.35-.191 2zm-5.648 7.708.659 3.292h11.944c.654 0 1.309-.154 1.895-.447 1.444-.722 2.341-2.174 2.341-3.789v-3.63c-2.84-1.007-5.26-2.833-7.004-5.172 0 .013.004.025.004.038 0 2.206-1.794 4-4 4h-.764c-.962 2.452-2.771 4.478-5.075 5.708zm24.839-6.708v-2.184c-.314.112-.648.184-1 .184h-1.764c-.309 0-.618-.073-.894-.211l-.115-.058c-.376.17-.789.269-1.227.269h-1v-2h1c.551 0 1-.449 1-1s-.449-1-1-1h-2c-.551 0-1 .449-1 1v2.343c0 .79.32 1.563.878 2.121l.536.536zm-5.021-9.809c.32-.117.661-.191 1.021-.191h3c.067 0 .129.015.195.02.507-.551.805-1.261.805-2.02 0-1.654-1.346-3-3-3s-3 1.346-3 3c0 .849.368 1.628.979 2.191zm3.021 4.809c0 .352-.072.686-.184 1h1.184c.551 0 1-.449 1-1v-2c0-.551-.449-1-1-1h-3c-.127 0-.247.029-.359.073 1.347.295 2.359 1.493 2.359 2.927zm6-7c0-3.86-3.14-7-7-7s-7 3.14-7 7c0 1.622.549 3.149 1.553 4.389.431-.24.92-.389 1.447-.389h.184c.064-.18.144-.35.24-.512-.903-.923-1.424-2.162-1.424-3.488 0-2.757 2.243-5 5-5s5 2.243 5 5c0 1.038-.325 2.028-.905 2.858.535.523.869 1.244.896 2.044 1.266-1.294 2.009-3.051 2.009-4.902zm-32.252 26.117 2.851 2.281 1.885-4.398h-1.207zm-1.748 1.164-1.725 1.38.446 1.339h2.559l.446-1.339zm-2.922 14.382 2.922 2.923 2.922-2.923-1.757-9.663h-2.331zm17.828-46.434c-.118.856-.352 1.673-.694 2.435-.139.766-.212 1.55-.212 2.336 0 4.62 2.501 8.855 6.35 11.166-.224-.574-.35-1.188-.35-1.823v-2.343c0-.388.08-.755.214-1.096-1.43-1.636-2.214-3.703-2.214-5.904 0-4.962 4.038-9 9-9s9 4.038 9 9c0 3.001-1.526 5.797-4 7.46v4.533c4.768-1.997 8-6.744 8-11.994 0-7.168-5.832-13-13-13-5.382.001-10.121 3.229-12.094 8.23zm-25.715 15.771c-.12-.65-.191-1.316-.191-2v-2c-1.103 0-2 .897-2 2s.897 2 2 2zm2.722-11.314 1.137-.682c-.018-.163-.05-.323-.05-.491 0-1.935 1.233-3.645 3.068-4.257l.616-.205.632 1.897-.616.206c-1.017.339-1.7 1.287-1.7 2.359 0 1.371 1.116 2.487 2.487 2.487h8.513c3.86 0 7-3.14 7-7v-2c0-.551-.449-1-1-1h-14.425c-5.831 0-10.575 4.744-10.575 10.575 0 .863.106 1.726.316 2.564l.282 1.128c.438-.165.907-.267 1.402-.267v-.169c0-2.095 1.116-4.067 2.913-5.145zm8.087 18.314c4.962 0 9-4.038 9-9v-6.525c-.94.334-1.947.525-3 .525h-8.513c-1.581 0-2.967-.827-3.766-2.066l-.778.467c-1.199.719-1.943 2.033-1.943 3.43v4.169c0 4.962 4.038 9 9 9zm-3.28 1.5-.601 3.005 3.881 2.329 3.881-2.329-.601-3.005c-1.036.324-2.138.5-3.28.5s-2.244-.176-3.28-.5zm-3.079 4.791 1.76 4.107 2.851-2.281-3.436-2.061zm-11.641 20.709h5v-9h2v9h8.586l-2.663-2.663 2.048-11.264-.36-1.081-2.012 1.609-2.961-6.909-3.242.649c-1.833.366-3.484 1.372-4.652 2.831-1.125 1.404-1.744 3.17-1.744 4.97zm57.131-13-2.131-3.197-2.131 3.197z" fill="url(#SVGID_1_)"/></svg>