<svg id="Layer_5" enable-background="new 0 0 64 64" height="512" viewBox="0 0 64 64" width="512" xmlns="http://www.w3.org/2000/svg" xmlns:xlink="http://www.w3.org/1999/xlink"><linearGradient id="SVGID_1_" gradientUnits="userSpaceOnUse" x1="31.834" x2="31.834" y1="63" y2="1"><stop offset="0" stop-color="#9f2fff"/><stop offset="1" stop-color="#0bb1d3"/></linearGradient><path d="m3 32c0 1.302.839 2.402 2 2.816v5.184c0 1.302.839 2.402 2 2.816v5.184c0 1.654 1.346 3 3 3h1v12h18v-12h1c1.654 0 3-1.346 3-3v-5.184c1.161-.414 2-1.514 2-2.816v-5.184c1.161-.414 2-1.514 2-2.816v-5h2v-7c0-10.477-8.523-19-19-19s-19 8.523-19 19v7h2zm24 29h-14v-10h14zm3-12h-20c-.552 0-1-.448-1-1v-5h22v5c0 .552-.448 1-1 1zm2-8h-24c-.552 0-1-.448-1-1v-5h26v5c0 .552-.448 1-1 1zm3-9c0 .552-.448 1-1 1h-28c-.552 0-1-.448-1-1v-5h30zm-10.833-11.611c-.633-.471-1.343-.844-2.115-1.081l1.639-2.536 2.309-1.154v2.074zm-4.167.611c2.414 0 4.434 1.721 4.899 4h-9.798c.465-2.279 2.485-4 4.899-4zm6.92 4c-.17-1.177-.632-2.259-1.312-3.172l2.392-3.52v-5.926l-5.691 2.846-2.443 3.779c-3.458.066-6.304 2.651-6.786 5.993h-10.08v-4h4v-2h-3.949c.23-3.933 1.797-7.505 4.261-10.275l2.789 2.789 1.414-1.414-2.79-2.789c2.77-2.464 6.341-4.03 10.275-4.261v3.95h2v-3.949c3.933.23 7.505 1.797 10.275 4.261l-2.789 2.789 1.414 1.414 2.789-2.789c2.464 2.77 4.03 6.341 4.261 10.275h-3.95v2h4v4h-10.08zm-1.92 6h-2v-2h2zm4 0h-2v-2h2zm4 0h-2v-2h2zm-20 6h2v2h-2zm4 0h2v2h-2zm-8 0h2v2h-2zm10 8h2v2h-2zm4 0h2v2h-2zm4 0h2v2h-2zm28.667 10-10.667-8v4h-12v8h12v4zm-20.667 2v-4h12v-2l5.333 4-5.333 4v-2zm2-12h12v4l10.667-8-10.667-8v4h-12zm2-6h12v-2l5.333 4-5.333 4v-2h-12zm23.667-14-10.667-8v4h-11v8h11v4zm-19.667 2v-4h11v-2l5.333 4-5.333 4v-2z" fill="url(#SVGID_1_)"/></svg>