<svg id="_x33_0" enable-background="new 0 0 64 64" height="512" viewBox="0 0 64 64" width="512" xmlns="http://www.w3.org/2000/svg" xmlns:xlink="http://www.w3.org/1999/xlink"><linearGradient id="SVGID_1_" gradientUnits="userSpaceOnUse" x1="32" x2="32" y1="63" y2="1"><stop offset="0" stop-color="#9f2fff"/><stop offset="1" stop-color="#0bb1d3"/></linearGradient><path d="m28 19c0-.552.448-1 1-1s1 .448 1 1-.448 1-1 1-1-.448-1-1zm7 1c.552 0 1-.448 1-1s-.448-1-1-1-1 .448-1 1 .448 1 1 1zm-5.105 1.553-1.789.895.105.211c.722 1.444 2.174 2.341 3.789 2.341s3.067-.897 3.789-2.342l.105-.211-1.789-.895-.105.212c-.381.762-1.147 1.236-2 1.236s-1.619-.474-2-1.236zm-24.895 18.447h6v8h-6zm2 6h2v-4h-2zm-6 2h2v-8h-2zm6-10h-6v-8h6zm-2-6h-2v4h2zm4 6h2v-8h-2zm54-17c0 8.033-5.978 14.764-13.812 15.838l1.621 8.108c.127.634.191 1.283.191 1.929 0 3.52-1.898 6.79-4.954 8.536l-1.254.717-.475 3.563c-.25 1.887-1.875 3.31-3.779 3.31h-17.075c-1.904 0-3.529-1.423-3.779-3.31l-.475-3.563-1.254-.717c-3.057-1.746-4.955-5.016-4.955-8.536 0-.646.064-1.295.191-1.929l1.389-6.946h-1.58v-8h6v.557c.702-.47 1.461-.858 2.279-1.137-.717-1.698-1.148-3.526-1.248-5.42h-4.031v1.667c0 1.286-1.047 2.333-2.333 2.333-.731 0-1.429-.349-1.867-.934l-2.3-3.066h-6.5c-1.103 0-2-.897-2-2v-12c0-1.103.897-2 2-2h18.105c1.901-4.124 6.064-7 10.895-7 3.971 0 7.488 1.947 9.673 4.928 1.708-.604 3.493-.928 5.327-.928 8.822 0 16 7.178 16 16zm-15.111 12.561c.676-.864 1.468-2.047 2.177-3.561h-5.982c1.575.82 2.88 2.056 3.805 3.561zm-.889-26.161c-.737.784-1.983 2.315-3.051 4.6h6.104c-1.069-2.278-2.314-3.814-3.053-4.6zm-3 12.6h7.963c-.099-2.299-.522-4.299-1.105-6h-6.858zm6.869 8c.581-1.7 1.004-3.701 1.102-6h-7.971v1.151c0 1.673-.265 3.303-.753 4.849zm2.1 0h6.135c1.04-1.793 1.693-3.829 1.848-6h-6.981c-.089 2.258-.466 4.26-1.002 6zm7.98-8c-.155-2.175-.805-4.211-1.844-6h-6.13c.532 1.737.899 3.741.987 6zm-11.457-12.765c.874 1.117 1.901 2.703 2.76 4.765h5.457c-2.061-2.448-4.943-4.174-8.217-4.765zm-6.756.435c.214.429.401.872.563 1.327.425-.688.838-1.273 1.226-1.771-.606.109-1.202.257-1.789.444zm-20.736 15.481c0 5.079 2.732 9.729 7.063 12.239.113-.545.381-1.032.746-1.425-3.581-2.278-5.809-6.241-5.809-10.581v-8.384c0-4.411 3.589-8 8-8s8 3.589 8 8v8.384c0 4.34-2.228 8.303-5.809 10.581.366.394.633.88.746 1.425 4.331-2.51 7.063-7.16 7.063-12.239v-10.151c0-5.514-4.486-10-10-10s-10 4.486-10 10zm16-8.151c0-3.309-2.691-6-6-6s-6 2.691-6 6v.867l5.032-.629c.552-.069.968-.54.968-1.095 0-.63-.513-1.143-1.143-1.143-.472 0-.857.385-.857.857v.143h-2v-.143c0-1.575 1.282-2.857 2.857-2.857 1.396 0 2.568.921 2.977 2.183 1.554.403 2.974 1.154 4.166 2.188zm-12 6c0 3.309 2.691 6 6 6s6-2.691 6-6v-2.674c-1.042-1.453-2.511-2.524-4.207-3.071-.402 1.04-1.35 1.821-2.513 1.967l-5.28.661zm11.367 5.915c-.366.333-.763.631-1.186.892l.228 1.142c.396-.637.705-1.323.958-2.034zm-10.734 0c.253.711.562 1.397.957 2.034l.228-1.142c-.422-.261-.819-.559-1.185-.892zm2.596 4.039c.806.779 1.727 1.45 2.771 1.948 1.044-.499 1.966-1.169 2.771-1.948l-.46-2.298c-.732.222-1.507.344-2.311.344s-1.579-.122-2.312-.344zm1.771 7.046c0 .552.448 1 1 1s1-.448 1-1v-2c0-.502-.378-.901-.861-.972l-.139.06-.139-.06c-.483.071-.861.47-.861.972zm-11-16v-3.586l-2.293 2.293-1.414-1.414 3.293-3.293-3.293-3.293 1.414-1.414 2.293 2.293v-.586c0-1.038.146-2.039.395-3h-17.395v12h7.5l2.899 3.867c.172.229.6.088.601-.2v-3.667zm-5 14h.04c.392-1.372 1.064-2.61 1.96-3.661v-.339h-2zm5 10.813c0 .08.005.159.016.239l1.326 9.948h21.315l1.327-9.946c.011-.081.016-.16.016-.24 0-1-.813-1.813-1.813-1.813h-20.374c-1-.001-1.813.812-1.813 1.812zm22.334 12.614.057-.427h-20.782l.057.427c.119.897.892 1.573 1.797 1.573h17.074c.905 0 1.678-.676 1.797-1.573zm6.666-12.552c0-.515-.052-1.031-.152-1.536l-1.635-8.178c-.57-2.846-2.656-5.093-5.394-5.924-1.569 2.71-3.917 4.952-6.818 6.387v.376c0 1.654-1.346 3-3 3s-3-1.346-3-3v-.376c-2.902-1.435-5.25-3.677-6.818-6.387-2.738.831-4.825 3.078-5.394 5.924l-1.635 8.178c-.102.505-.154 1.021-.154 1.536 0 2.775 1.484 5.351 3.875 6.752l-.842-6.31c-.022-.167-.033-.336-.033-.504 0-1.823 1.288-3.347 3-3.722v-2.856l-.895-1.789 1.789-.895 1.106 2.213v3.236h18v-3.236l1.105-2.211 1.789.895-.894 1.788v2.856c1.712.374 3 1.899 3 3.722 0 .168-.011.337-.033.505l-.842 6.309c2.391-1.402 3.875-3.978 3.875-6.753zm8.698-16.875h-5.448c-.862 2.066-1.899 3.654-2.769 4.771 3.288-.589 6.16-2.326 8.217-4.771zm-49.405-18.707-4.707 4.707 4.707 4.707 1.414-1.414-3.293-3.293 3.293-3.293zm2.737 8.465 1.939.484 2-8-1.939-.484z" fill="url(#SVGID_1_)"/></svg>