<svg id="_x33_0" enable-background="new 0 0 64 64" height="512" viewBox="0 0 64 64" width="512" xmlns="http://www.w3.org/2000/svg" xmlns:xlink="http://www.w3.org/1999/xlink"><linearGradient id="SVGID_1_" gradientUnits="userSpaceOnUse" x1="31" x2="31" y1="63" y2="1"><stop offset="0" stop-color="#9f2fff"/><stop offset="1" stop-color="#0bb1d3"/></linearGradient><path d="m1 21.807c0 3.605 1.615 6.966 4.431 9.218l.569.455v3.136c-1.931 2.083-3 4.77-3 7.626v1c0 2.843.691 5.629 2 8.137v11.621h14v-6h10v6h32v-55c0-1.654-1.346-3-3-3h-7v-2c0-1.103-.897-2-2-2h-8c-1.103 0-2 .897-2 2v2h-7c-1.654 0-3 1.346-3 3v39h-.172c-.801 0-1.555.313-2.121.879l-1.121 1.121h-6.586v-2.743c0-2.329-.683-4.584-1.975-6.521-.812-1.218-1.844-2.259-3.025-3.09v-2.865l.333.083c.363.09.735.136 1.105.136 2.516 0 4.562-2.046 4.562-4.562v-2.82l2.189-1.095-1.765-6.178c1.528-.856 2.575-2.472 2.576-4.343.001-1.336-.52-2.592-1.464-3.537-.944-.944-2.2-1.465-3.536-1.465h-5.193c-6.51 0-11.807 5.297-11.807 11.807zm16 39.193h-10v-6.782c1.748 1.762 4.122 2.782 6.677 2.782h3.323zm14-4c.732 0 1.409-.212 2-.556v4.556h-2zm24-30v2h-20v-2zm-20 4h20v6h-20zm20 22h-20v-2h20zm-20-14h20v2h-20zm0 4h20v6h-20zm20 12v6h-20v-6zm2 6v-34h1c.352 0 .686-.072 1-.184v34.184zm-16-58h8v2h-8zm-9 4h26c.474 0 .854.338.956.782-.395 4.06-3.852 7.218-7.956 7.218h-12c-4.104 0-7.561-3.158-7.956-7.218.102-.444.482-.782.956-.782zm-1 5.981c1.836 2.442 4.758 4.019 8 4.019h12c3.242 0 6.164-1.577 8-4.019v11.019c0 .552-.448 1-1 1h-26c-.552 0-1-.448-1-1zm0 13.835c.314.112.648.184 1 .184h1v22.546c-.351-.204-.732-.364-1.14-.453-.164-.514-.468-.962-.86-1.315zm-2.172 22.184h.172c.552 0 1 .448 1 1v1h1c1.103 0 2 .897 2 2s-.897 2-2 2h-4v-4.586l1.121-1.121c.187-.187.444-.293.707-.293zm-13.467-8.155c1.073 1.608 1.639 3.479 1.639 5.412v2.743h-3.382l-2.724-5.447-1.789.895 2.724 5.446c.34.682 1.025 1.106 1.789 1.106h11.382v4h-11.323c-2.581 0-4.939-1.307-6.308-3.496-1.55-2.481-2.369-5.338-2.369-8.262v-1c0-2.274.816-4.424 2.311-6.113l2.613.747c2.223.635 4.154 2.045 5.437 3.969zm4.45-16.368-1.811.905v4.057c0 1.412-1.149 2.561-2.562 2.561-.208 0-.418-.026-.622-.076l-3.574-.894-.484 1.939 1.242.312v2.237c-.495-.22-1.002-.416-1.527-.566l-2.473-.706v-6.009c0-.382.212-.725.553-.895l1.789-.895c1.022-.511 1.658-1.54 1.658-2.683v-2.764c0-.552.448-1 1-1h4 1c.177 0 .344-.034.516-.052zm-7.004-12.477h5.193c.802 0 1.555.313 2.122.879.566.567.878 1.321.878 2.123-.001 1.653-1.347 2.998-3 2.998h-1c-.552 0-1-.448-1-1s.448-1 1-1v-2c-1.654 0-3 1.346-3 3 0 .352.072.686.184 1h-1.184c-1.654 0-3 1.346-3 3v2.764c0 .382-.212.725-.553.895l-1.789.895c-1.022.51-1.658 1.539-1.658 2.682v.617c-1.912-1.842-3-4.358-3-7.046 0-5.408 4.399-9.807 9.807-9.807zm-1.807-6v2h-2v-2zm4 0v2h-2v-2zm4 2h-2v-2h2zm28 5h-4v-2h4z" fill="url(#SVGID_1_)"/></svg>