<svg width="648" height="427" viewBox="0 0 648 427" fill="none" xmlns="http://www.w3.org/2000/svg"><path fill="#fff" d="M0 0h648v427H0z"/><path fill="#fff" d="M0 0h648v427H0z"/><path fill="#4476D6" d="M0 0h648v427H0z"/><g clip-path="url(#clip0)"><path d="M583.481 381.556H545.98c-.71 0-1.183.603-1.183 1.206v28.929c0 8.438 6.743 15.309 15.024 15.309h9.937c8.281 0 15.024-6.871 15.024-15.309v-28.929c-.118-.603-.709-1.206-1.301-1.206z" fill="#C1C1C1"/><path d="M578.986 422.058c8.399-4.822 22.95-19.166 20.584-29.291-.592-2.652-2.248-4.701-4.732-5.907-5.56-2.652-13.605.603-14.551.965l2.721 5.665c1.893-.844 6.625-2.17 8.872-1.085.473.241.947.603 1.183 1.688 1.42 5.906-9.937 18.322-17.508 22.661l3.431 5.304z" fill="#C1C1C1"/><path d="M568.575 372.516c.119.241.119-.121.237-.362l.236-.964c.119-.603.237-1.326.355-1.929.119-1.326.237-2.772.237-4.219-.118-2.893-.71-5.906-1.775-8.678a22.35 22.35 0 0 0-4.613-6.871c-.947-.965-1.893-1.688-2.839-2.411l-2.366-1.688c-2.721-1.928-5.206-4.46-6.98-6.991-.828-1.326-1.42-2.652-1.656-3.737-.237-1.085-.237-1.808-.119-2.29.119-.241.119-.482.355-.844.237-.361.355-.964.71-1.446.592-1.085 1.42-2.049 2.248-3.014 1.774-1.687 3.904-2.893 6.033-3.134 2.13-.361 4.377.121 6.625 1.206 1.065.602 2.248 1.205 3.312 2.169.592.483 1.065.844 1.656 1.447.592.603 1.065 1.085 1.775 1.205l2.248.362c4.85.844 9.227-3.616 9.937-10.125.355-3.496-.473-6.992-2.13-9.523-.709-1.085-1.656-1.929-2.602-2.652-.947-.723-2.011-1.326-2.958-2.049-2.011-1.326-4.258-2.29-6.506-3.014-4.496-1.567-9.582-1.687-14.314-.12-4.732 1.567-9.228 4.821-12.777 9.402-1.774 2.411-3.312 4.942-4.495 7.956-.592 1.446-1.065 3.134-1.538 4.942-.71 2.169-1.065 4.339-1.065 6.388-.118 4.34.947 8.318 2.366 11.452 1.42 3.134 3.194 5.424 4.969 7.353 3.549 3.857 7.334 6.027 11.12 7.714l1.42.603.709.241.474.12c.709.242 1.301.483 1.892.844 1.183.603 2.366 1.326 3.313 2.532.946 1.084 1.893 2.531 2.602 4.218.355.844.71 1.809.947 2.893.118.483.236 1.085.473 1.567l.237.844c.118.362.118.482.354 1.447.237.843.829 1.326 1.538.964.237-.121.592-.964.355-1.808z" fill="#fff"/></g><g clip-path="url(#clip1)"><path d="M405.894 282.909h-47.893c-12.262 0-22.322-9.985-22.322-22.386v-48.241h90.441v50.343c0 11.245-9.012 20.284-20.226 20.284z" fill="#8D3333"/><path d="M451.377 353.641l-136.763-2.312V336.72c0-23.858 29.239-46.034 57.849-46.034h21.589c25.466 0 57.22 22.386 57.22 43.511v19.444h.105z" fill="#383F45"/><path d="M389.86 260.628h-17.397c-3.563 0-6.392 2.838-6.392 6.411v27.431c0 8.303 6.707 15.134 15.091 15.134 8.279 0 15.091-6.726 15.091-15.134v-27.431c0-3.573-2.83-6.411-6.393-6.411z" fill="#FBC39D"/><path d="M366.071 290.581s1.257 8.934 15.091 8.934c13.833 0 15.091-8.934 15.091-8.934h-30.182zm58.477-64.321c-5.239 0-9.536 4.415-9.536 9.88 0 5.465 4.297 9.879 9.536 9.879 5.24 0 9.537-4.414 9.537-9.879-.105-5.465-4.297-9.88-9.537-9.88zm-86.669 0c-5.239 0-9.536 4.415-9.536 9.88 0 5.465 4.297 9.879 9.536 9.879 5.24 0 9.537-4.414 9.537-9.879s-4.297-9.88-9.537-9.88z" fill="#F9AC7F"/><path d="M377.703 293.524c1.048.21 2.306.21 3.459.21 3.563 0 7.021-.42 10.375-1.366v-.105c18.444-4.835 32.068-22.281 32.068-42.986v-51.814c0-24.488-19.073-20.599-42.443-20.599-23.475.105-42.444-3.784-42.444 20.599v51.919c0 23.227 17.187 42.355 38.985 44.142z" fill="#FBC39D"/><path d="M418.261 232.356v13.978h-18.235s-3.773-10.089-18.864-10.089c-15.091 0-18.864 10.089-18.864 10.089h-18.13v-13.978c0-5.57-1.992-7.357-5.45-7.987v25.013c0 23.227 17.187 42.25 38.985 44.142l-.104.105c1.152.105 2.305.21 3.563.21 1.152 0 2.41-.105 3.563-.21l-.105-.105c21.798-1.892 38.985-20.915 38.985-44.142v-25.013c-3.353.63-5.344 2.417-5.344 7.987z" fill="#0D0F29"/><path d="M368.062 252.43h25.571s-2.306 10.09-12.786 10.09-12.785-10.09-12.785-10.09z" fill="#E6E6E6"/><path d="M481.455 427H282.336c-4.087 0-7.441-3.363-7.441-7.462v-.315c0-4.099 3.354-7.462 7.441-7.462h199.223c4.087 0 7.441 3.363 7.441 7.462v.315c-.105 4.099-3.458 7.462-7.545 7.462z" fill="#C1C1C1"/><path d="M463.22 427H299.314c-5.24 0-9.537-4.309-9.537-9.564v-94.379c0-5.255 4.297-9.564 9.537-9.564h164.01c5.24 0 9.537 4.309 9.537 9.564v94.379c-.105 5.255-4.297 9.564-9.641 9.564z" fill="#D2D3D5"/><path d="M379.066 383.069c-7.022 0-12.786-5.781-12.786-12.823 0-7.041 5.764-12.822 12.786-12.822 7.021 0 12.785 5.781 12.785 12.822 0 7.042-5.764 12.823-12.785 12.823z" fill="#fff"/><path d="M382 242.13h-2.41c-2.935 0-5.135-2.522-4.821-5.465l1.258-9.879c.314-2.417 2.41-4.204 4.82-4.204 2.411 0 4.507 1.787 4.821 4.204l1.258 9.879c.209 2.943-1.992 5.465-4.926 5.465z" fill="#F9AC7F"/><path d="M384.41 164.357h-8.908a3.539 3.539 0 0 1-3.563-3.573v-.211a3.538 3.538 0 0 1 3.563-3.573h8.908a3.538 3.538 0 0 1 3.563 3.573v.211c0 1.996-1.676 3.573-3.563 3.573z" fill="#858A8E"/><path d="M335.679 212.282h90.441v-10.72c0-21.966-17.815-39.833-39.718-39.727h-11.109c-21.903 0-39.614 17.761-39.614 39.832v10.615z" fill="#8D3333"/><path d="M383.991 185.272h-7.545c-6.812 0-12.262 5.465-12.262 12.296v8.513h32.069v-8.513c0-6.831-5.45-12.296-12.262-12.296z" fill="#3A0909"/><path d="M364.813 199.565h31.545v10.615h-31.545c-2.934 0-5.345-2.417-5.345-5.36.105-2.943 2.411-5.255 5.345-5.255z" fill="#858A8E"/><path d="M369.948 205.03a2.598 2.598 0 0 1-2.62 2.628 2.598 2.598 0 0 1-2.62-2.628 2.598 2.598 0 0 1 2.62-2.627 2.598 2.598 0 0 1 2.62 2.627z" fill="#FF553C"/><path d="M369.948 205.03a2.598 2.598 0 0 1-2.62 2.628 2.598 2.598 0 0 1-2.62-2.628 2.598 2.598 0 0 1 2.62-2.627 2.598 2.598 0 0 1 2.62 2.627zm8.506 2.581a2.627 2.627 0 0 0 2.145-3.03 2.621 2.621 0 0 0-3.021-2.151 2.627 2.627 0 0 0-2.145 3.03 2.62 2.62 0 0 0 3.021 2.151zm12.663-2.581a2.598 2.598 0 0 1-2.62 2.628 2.598 2.598 0 0 1-2.62-2.628 2.598 2.598 0 0 1 2.62-2.627 2.598 2.598 0 0 1 2.62 2.627z" fill="#211F1D"/><path d="M364.499 222.582a3.875 3.875 0 0 1-3.878 3.889c-2.201 0-3.878-1.787-3.878-3.889a3.875 3.875 0 0 1 3.878-3.889c2.096-.105 3.878 1.682 3.878 3.889zm39.09 0a3.875 3.875 0 0 1-3.878 3.889c-2.201 0-3.878-1.787-3.878-3.889a3.875 3.875 0 0 1 3.878-3.889c2.096-.105 3.878 1.682 3.878 3.889z" fill="#111110"/><path d="M396.462 199.46s7.755-4.624 7.127-12.402l-9.956 2.838 2.096-8.618-8.803 9.144 9.536 9.038z" fill="#3A0909"/></g><path d="M135.232 76.864c3.968 1.472 7.04 3.616 9.216 6.432 2.176 2.816 3.264 6.208 3.264 10.176 0 5.888-2.432 10.464-7.296 13.728-4.864 3.2-11.904 4.8-21.12 4.8H81.472V44.8h35.904c8.96 0 15.712 1.6 20.256 4.8 4.608 3.2 6.912 7.456 6.912 12.768 0 3.136-.8 5.952-2.4 8.448-1.536 2.496-3.84 4.512-6.912 6.048zM103.744 60.64v9.984h10.56c4.928 0 7.392-1.664 7.392-4.992 0-3.328-2.464-4.992-7.392-4.992h-10.56zm13.632 35.52c4.992 0 7.488-1.76 7.488-5.28 0-3.52-2.496-5.28-7.488-5.28h-13.632v10.56h13.632zm61.194-37.632c9.216 0 16.256 2.08 21.12 6.24 4.864 4.096 7.296 10.432 7.296 19.008V112h-20.16v-6.912c-2.496 5.248-7.456 7.872-14.88 7.872-4.16 0-7.712-.704-10.656-2.112-2.88-1.472-5.088-3.424-6.624-5.856-1.472-2.496-2.208-5.28-2.208-8.352 0-5.184 1.984-9.12 5.952-11.808 3.968-2.688 9.984-4.032 18.048-4.032h8.736c-.704-4.096-4-6.144-9.888-6.144-2.368 0-4.768.384-7.2 1.152-2.432.704-4.512 1.696-6.24 2.976l-6.912-14.304c3.008-1.856 6.624-3.296 10.848-4.32 4.288-1.088 8.544-1.632 12.768-1.632zm-.096 41.376c1.536 0 2.912-.416 4.128-1.248 1.216-.832 2.112-2.08 2.688-3.744v-3.648h-5.376c-4.416 0-6.624 1.472-6.624 4.416 0 1.216.448 2.24 1.344 3.072.96.768 2.24 1.152 3.84 1.152zm67.05 13.056c-5.952 0-11.296-1.152-16.032-3.456-4.672-2.304-8.352-5.536-11.04-9.696-2.624-4.16-3.936-8.864-3.936-14.112 0-5.248 1.312-9.92 3.936-14.016 2.688-4.16 6.368-7.392 11.04-9.696 4.736-2.304 10.08-3.456 16.032-3.456 6.4 0 11.872 1.376 16.416 4.128 4.544 2.752 7.68 6.56 9.408 11.424l-16.8 8.256c-2.048-4.608-5.088-6.912-9.12-6.912-2.56 0-4.704.896-6.432 2.688-1.664 1.792-2.496 4.32-2.496 7.584 0 3.328.832 5.888 2.496 7.68 1.728 1.792 3.872 2.688 6.432 2.688 4.032 0 7.072-2.304 9.12-6.912l16.8 8.256c-1.728 4.864-4.864 8.672-9.408 11.424-4.544 2.752-10.016 4.128-16.416 4.128zm55.991-17.088l-3.456 3.744V112h-21.696V40.768h21.696v33.984l15.072-15.264h25.632L317.067 82.24 340.491 112h-26.208l-12.768-16.128zm39.899-19.776h28.8v16.32h-28.8v-16.32zm94.43 18.816V112h-55.872V44.8h54.624v17.088h-32.352v7.872h28.416v16.32h-28.416v8.832h33.6zm44.53-36.384c6.464 0 11.648 1.952 15.552 5.856 3.968 3.904 5.952 9.792 5.952 17.664V112h-21.696V85.792c0-6.016-2.144-9.024-6.432-9.024-2.432 0-4.416.864-5.952 2.592-1.472 1.664-2.208 4.32-2.208 7.968V112h-21.696V59.488h20.64v5.184a20.021 20.021 0 0 1 7.104-4.608c2.688-1.024 5.6-1.536 8.736-1.536zm89.944-17.76V112h-20.64v-4.32c-3.136 3.52-7.936 5.28-14.4 5.28-4.608 0-8.864-1.088-12.768-3.264-3.84-2.24-6.912-5.44-9.216-9.6-2.24-4.16-3.36-8.96-3.36-14.4 0-5.44 1.12-10.208 3.36-14.304 2.304-4.16 5.376-7.328 9.216-9.504 3.904-2.24 8.16-3.36 12.768-3.36 5.824 0 10.272 1.504 13.344 4.512V40.768h21.696zm-29.856 55.296c2.496 0 4.544-.896 6.144-2.688 1.6-1.856 2.4-4.416 2.4-7.68 0-3.264-.8-5.792-2.4-7.584-1.6-1.792-3.648-2.688-6.144-2.688s-4.544.896-6.144 2.688c-1.6 1.792-2.4 4.32-2.4 7.584 0 3.264.8 5.824 2.4 7.68 1.6 1.792 3.648 2.688 6.144 2.688z" fill="#fff"/><path d="M96.027 259.548c25.038 0 45.336-20.298 45.336-45.336s-20.298-45.336-45.336-45.336-45.336 20.298-45.336 45.336 20.298 45.336 45.336 45.336z" fill="#F4F4F4"/><path d="M96.027 173.03c-22.43 0-40.589 18.277-40.589 40.589 0 22.312 18.158 40.589 40.589 40.589 22.312 0 40.589-18.159 40.589-40.589-.119-22.312-18.277-40.589-40.589-40.589z" fill="#fff"/><path d="M96.027 260.616c-25.991 0-47.116-21.125-47.116-47.116s21.125-47.116 47.116-47.116 47.116 21.125 47.116 47.116c-.119 26.11-21.125 47.116-47.116 47.116zm0-87.586c-22.43 0-40.589 18.277-40.589 40.589 0 22.312 18.158 40.589 40.589 40.589 22.312 0 40.589-18.159 40.589-40.589-.119-22.312-18.277-40.589-40.59-40.589z" fill="#2C55A6"/><path d="M96.145 222.52c-.949 0-1.78-.475-2.136-1.306l-10.681-21.006c-.593-1.187-.119-2.73 1.068-3.323 1.187-.594 2.73-.119 3.323 1.068L98.4 218.959c.594 1.187.12 2.73-1.068 3.323-.356.119-.83.238-1.186.238z" fill="#211F1D"/><path d="M87.363 219.671c-.593 0-1.068-.474-1.186-1.068a1.231 1.231 0 0 1 .949-1.424l39.995-6.883a1.232 1.232 0 0 1 1.425.949 1.232 1.232 0 0 1-.95 1.424l-39.995 6.884c-.119.118-.119.118-.238.118z" fill="#211F1D"/><defs><clipPath id="clip0"><path fill="#fff" transform="translate(535.806 302)" d="M0 0h64v125H0z"/></clipPath><clipPath id="clip1"><path fill="#fff" transform="translate(275 157)" d="M0 0h214v270H0z"/></clipPath></defs></svg>