<svg version="1.1" id="Layer_1" xmlns="http://www.w3.org/2000/svg" x="0" y="0" viewBox="0 0 50 29" xml:space="preserve"><style>.st0{fill-rule:evenodd;clip-rule:evenodd;fill:#1b7fd0}</style><g id="XMLID_7_"><path id="XMLID_6_" class="st0" d="M43.7 18c-.1 2.1 2.6 5.2 6.3 6.9-5.3 0-9.5-1.2-12.8-2.8 2.6-2.4 4.2-5.4 4.2-8.8 0-4.2-2.6-7.9-6.4-10.5C33.3 1.6 31.4.7 29.4.1c.7-.1 1.4-.1 2-.1 4.5-.1 8.5 1.2 11.4 3.2 2.9 1.9 4.7 4.7 4.7 7.7 0 2.7-1.4 5.2-3.8 7.1z"/><path id="XMLID_9_" class="st0" d="M33.4 4.7c-3.2-2.2-7.7-3.6-12.7-3.6-5 0-9.4 1.4-12.7 3.6C4.7 7 2.7 10 2.7 13.4c0 3.1 1.6 5.9 4.3 8 0 2.3-2.9 5.8-7.1 7.6 6.7 0 12-1.7 15.8-3.8 1.6.3 3.2.5 4.9.5 5 0 9.5-1.4 12.7-3.6 3.3-2.2 5.3-5.2 5.3-8.7.1-3.5-1.9-6.5-5.2-8.7zM11.8 15.8c-1.2 0-2.2-1-2.2-2.2 0-1.2 1-2.1 2.2-2.1 1.2 0 2.2.9 2.2 2.1 0 1.3-1 2.2-2.2 2.2zm8.4 0c-1.2 0-2.2-1-2.2-2.2 0-1.2 1-2.1 2.2-2.1 1.2 0 2.2.9 2.2 2.1 0 1.3-1 2.2-2.2 2.2zm8.4 0c-1.2 0-2.2-1-2.2-2.2 0-1.2 1-2.1 2.2-2.1 1.2 0 2.2.9 2.2 2.1 0 1.3-1 2.2-2.2 2.2z"/></g></svg>