<svg version="1.1" id="Layer_1" xmlns="http://www.w3.org/2000/svg" x="0" y="0" viewBox="0 0 110 110" xml:space="preserve"><style>.st1{fill:#caddea}</style><circle id="XMLID_1_" cx="55" cy="55" r="55" fill="#1b7fd0"/><g id="XMLID_23_"><path id="XMLID_27_" class="st1" d="M62.1 27.6c0-3.9-3.2-7.1-7.1-7.1-3.9 0-7.1 3.2-7.1 7.1h-7.1v7.1h28.4v-7.1h-7.1zM55 31.9c-2 0-3.5-1.6-3.5-3.5 0-2 1.6-3.5 3.5-3.5 2 0 3.5 1.6 3.5 3.5S57 31.9 55 31.9z"/><path id="XMLID_24_" class="st1" d="M72.7 27.6v10.6H37.3V27.6h-7.1v57.9h49.7V27.6h-7.2zM51.3 75.8L48.5 73 37.2 61.7l5.6-5.6 8.5 8.5 16.1-16.1 5.6 5.6-21.7 21.7z"/></g></svg>