<svg version="1.1" id="Layer_1" xmlns="http://www.w3.org/2000/svg" x="0" y="0" viewBox="0 0 110 110" xml:space="preserve"><style>.st1{fill:#1b7fd0}</style><circle id="XMLID_1_" cx="55" cy="55" r="55" fill="#caddea"/><g id="XMLID_2_"><path id="XMLID_30_" class="st1" d="M66.8 59.2c.9-.1 1.5-.9 1.4-1.8-.1-.9-.9-1.5-1.7-1.4l-1.5.2c-.2-1.5-.6-3-1.1-4.4l1.4-.6c.8-.4 1.2-1.3.8-2.1-.4-.8-1.3-1.2-2.1-.8l-1.4.6c-.7-1.4-1.5-2.6-2.4-3.8l1.1-1c.7-.6.7-1.6.1-2.3-.6-.7-1.6-.7-2.3-.1l-1.1 1c-1.1-1.1-2.3-2-3.5-2.9l.8-1.3c.4-.8.2-1.7-.6-2.2-.8-.4-1.7-.2-2.2.6l-.8 1.3c-1.3-.7-2.8-1.2-4.2-1.6l.3-1.5c.2-.9-.4-1.7-1.2-1.9s-1.7.4-1.9 1.2l-.3 1.6c-1.5-.2-3-.3-4.5-.2l-.2-1.6c-.1-.9-.9-1.5-1.8-1.4-.9.1-1.5.9-1.4 1.8l.2 1.6c-1.4.2-2.7.6-4 1l-.6-1.3c-.3-.8-1.3-1.2-2.1-.8-.8.3-1.2 1.3-.8 2.1l.6 1.3c-1.3.7-2.6 1.5-3.8 2.4l-1-1.1c-.6-.7-1.6-.7-2.3-.1-.7.6-.7 1.6-.2 2.3l1 1.1c-1.1 1.1-2 2.2-2.8 3.5l-1.3-.8c-.8-.5-1.7-.2-2.2.6-.4.8-.2 1.7.6 2.2l1.3.8c-.7 1.3-1.2 2.7-1.6 4.2l-1.5-.3c-.9-.2-1.7.4-1.9 1.2-.2.9.4 1.7 1.2 1.9l1.5.3c-.2 1.5-.3 3-.2 4.5l-1.6.2c-.9.1-1.5.9-1.4 1.7.1.9.9 1.5 1.7 1.4l1.6-.2c.3 1.5.6 2.9 1.2 4.3l-1.4.6c-.8.4-1.2 1.3-.8 2.1.4.8 1.3 1.2 2.1.8l1.5-.6c.7 1.3 1.5 2.6 2.4 3.7l-1.2 1.1c-.7.6-.7 1.6-.1 2.3.6.7 1.6.7 2.3.1l1.2-1.1c1.1 1 2.2 2 3.5 2.8l-.8 1.4c-.4.8-.2 1.7.6 2.2.8.4 1.7.2 2.2-.6l.8-1.4c1.3.7 2.7 1.2 4.2 1.6l-.5 1.4c-.2.9.4 1.7 1.2 1.9.9.2 1.7-.4 1.9-1.2l.3-1.5c1.5.2 3 .3 4.5.2l.2 1.6c.1.9.9 1.5 1.8 1.4.9-.1 1.5-.9 1.4-1.8l-.2-1.6c1.3-.2 2.5-.5 3.7-.9l.7 1.6c.3.8 1.3 1.2 2.1.8.8-.3 1.2-1.3.8-2.1l-.7-1.5c1.3-.7 2.6-1.5 3.8-2.4l1.1 1.3c.6.7 1.6.7 2.3.1.7-.6.7-1.6.2-2.3L58 77.4c1.1-1.1 2-2.2 2.9-3.4l1.4.8c.8.5 1.7.2 2.2-.6.5-.8.2-1.7-.6-2.2l-1.4-.8c.7-1.3 1.3-2.7 1.7-4.2l1.6.3c.9.2 1.7-.4 1.9-1.2.2-.9-.4-1.7-1.2-1.9l-1.5-.3c.2-1.5.3-3 .3-4.5l1.5-.2zM38.7 39.8c4.6-.5 9.1.6 12.8 2.8-1.6 2.3-3.3 4.5-4.9 6.7-2.1-1.1-4.5-1.6-7-1.3-.3 0-.7.1-1 .2-.9-2.6-1.8-5.2-2.7-7.9.9-.2 1.9-.4 2.8-.5zm10.6 19.3c.5 4.6-2.8 8.7-7.4 9.2-4.6.5-8.7-2.8-9.2-7.4-.5-4.6 2.8-8.7 7.4-9.2 4.5-.5 8.7 2.8 9.2 7.4zM32 41.8c1 2.6 2 5.2 3.1 7.8-2.9 1.7-5.1 4.5-5.8 7.8-2.8-.2-5.5-.5-8.3-.7 1-6.5 5.1-12.1 11-14.9zm-5 33.1c-3.4-3.2-5.8-7.6-6.3-12.6-.1-.5-.1-1-.1-1.5 2.8.1 5.6.2 8.3.4v.2c.3 2.7 1.5 5.2 3.3 7-1.7 2.2-3.4 4.3-5.2 6.5zm16.2 5.4c-4.6.5-9.1-.6-12.8-2.8 1.6-2.3 3.3-4.5 4.9-6.7 2.1 1.1 4.5 1.6 7 1.3.3 0 .7-.1 1-.2.9 2.6 1.8 5.2 2.7 7.9-.9.2-1.8.4-2.8.5zm6.7-2c-1-2.6-2.1-5.2-3.1-7.8 2.9-1.7 5.1-4.5 5.8-7.8 2.8.2 5.5.5 8.3.7-1 6.5-5.1 12.1-11 14.9zm11.4-19c-2.8-.1-5.6-.2-8.3-.4v-.2c-.3-2.7-1.5-5.2-3.3-7 1.7-2.2 3.4-4.4 5.2-6.5 3.4 3.2 5.8 7.6 6.3 12.6 0 .5.1 1 .1 1.5z"/><path id="XMLID_21_" class="st1" d="M95.4 42.2c.5 0 .9-.4.9-.9s-.4-.9-.9-.9h-.9c0-.9-.2-1.7-.4-2.6l.9-.3c.5-.2.8-.7.6-1.1-.1-.5-.7-.8-1.1-.6l-.8.3c-.3-.8-.7-1.6-1.1-2.3l.7-.5c.4-.3.5-.9.2-1.3s-.9-.5-1.3-.2l-.7.5c-.5-.7-1.2-1.3-1.8-1.9l.5-.7c.3-.4.2-1-.2-1.3-.4-.3-1-.2-1.3.2l-.5.7c-.7-.5-1.5-.9-2.3-1.2l.3-.8c.2-.5-.1-1-.6-1.2-.5-.2-1 .1-1.2.6l-.3.8c-.8-.2-1.7-.3-2.6-.4v-.9c0-.5-.4-.9-.9-.9s-.9.4-.9.9v.9c-.8.1-1.6.2-2.3.3l-.2-.8c-.1-.5-.7-.8-1.1-.6-.5.1-.8.7-.6 1.1l.2.8c-.8.3-1.6.7-2.3 1.1l-.5-.7c-.3-.4-.9-.5-1.3-.2s-.5.9-.2 1.3l.5.7c-.7.5-1.3 1.1-1.8 1.8l-.7-.5c-.4-.3-1-.2-1.3.2-.3.4-.2 1 .2 1.3l.7.5c-.5.7-.9 1.5-1.2 2.3l-.8-.3c-.5-.2-1 .1-1.2.6-.2.5.1 1 .6 1.2l.8.3c-.2.8-.4 1.7-.4 2.5h-.9c-.5 0-.9.4-.9.9s.4.9.9.9h.9c.1.9.2 1.7.4 2.5l-.9.3c-.5.1-.8.7-.6 1.1.1.5.7.8 1.1.6l.9-.3c.3.8.7 1.6 1.1 2.3l-.7.5c-.4.3-.5.9-.2 1.3s.9.5 1.3.2l.7-.5c.5.7 1.1 1.3 1.8 1.8l-.5.7c-.3.4-.2 1 .2 1.3.4.3 1 .2 1.3-.2l.5-.7c.7.5 1.5.8 2.3 1.2l-.3.9c-.2.5.1 1 .6 1.2.5.2 1-.1 1.2-.6l.3-.9c.8.2 1.7.3 2.5.4v.9c0 .5.4.9.9.9s.9-.4.9-.9v-.9c.7 0 1.5-.1 2.1-.3l.3.9c.1.5.7.8 1.1.6.5-.1.8-.7.6-1.1l-.3-.9c.8-.3 1.6-.7 2.3-1.1l.5.8c.3.4.9.5 1.3.2s.5-.9.2-1.3l-.4-.7c.7-.5 1.3-1.1 1.9-1.8l.8.6c.4.3 1 .2 1.3-.2.3-.4.2-1-.2-1.3l-.7-.6c.5-.7.9-1.5 1.2-2.3l.9.3c.5.2 1-.1 1.2-.6.2-.5-.1-1-.6-1.2l-.9-.3c.2-.8.4-1.7.5-2.5l.7.1zM80.7 29.4c2.7 0 5.1.9 7.1 2.4-1.1 1.2-2.1 2.4-3.2 3.5-1.1-.8-2.5-1.2-3.9-1.2h-.6c-.4-1.6-.7-3.1-1-4.7h1.6zm4.7 11.7c0 2.6-2.2 4.8-4.8 4.8-2.6 0-4.8-2.2-4.8-4.8 0-2.6 2.2-4.8 4.8-4.8 2.7 0 4.8 2.1 4.8 4.8zm-8.7-11c.4 1.5.8 3.1 1.2 4.6-1.8.8-3.2 2.2-3.8 4.1-1.6-.3-3.1-.6-4.7-.9 1.1-3.7 3.8-6.6 7.3-7.8zm-4.9 18.5C70 46.6 69 43.9 69 41v-.8c1.6.2 3.1.5 4.7.7v.1c0 1.6.5 3 1.4 4.2-1.1 1.2-2.2 2.3-3.3 3.4zm8.8 4.1c-2.7 0-5.1-.9-7.1-2.4 1.1-1.2 2.1-2.4 3.2-3.5 1.1.8 2.5 1.2 3.9 1.2h.6c.4 1.6.7 3.1 1.1 4.7h-1.7zm4-.7c-.4-1.5-.8-3.1-1.2-4.6 1.8-.8 3.2-2.2 3.8-4.1 1.6.3 3.1.6 4.7.9-1.1 3.7-3.8 6.6-7.3 7.8zm7.7-10.1c-1.6-.2-3.1-.5-4.7-.7v-.1c0-1.6-.5-3-1.4-4.2 1.1-1.1 2.2-2.3 3.4-3.4 1.7 2 2.8 4.7 2.8 7.6-.1.3-.1.5-.1.8z"/></g></svg>