<svg version="1.1" id="Layer_1" xmlns="http://www.w3.org/2000/svg" x="0" y="0" viewBox="0 0 110 110" xml:space="preserve"><style>.st1,.st2{fill:#1b7fd0}.st2{fill-rule:evenodd;clip-rule:evenodd}</style><circle id="XMLID_1_" cx="55" cy="55" r="55" fill="#caddea"/><g id="XMLID_19_"><g id="XMLID_10_"><path id="XMLID_17_" class="st1" d="M53.9 79.6l1-.1 12.7-16.9-.2-1.1-15.8 2.3z"/><path id="XMLID_11_" class="st1" d="M20 25.6l8.4 57.7L51 80l-2.7-18.7L67 58.6l-5.7-39-41.3 6zm39.9 27.6l-28.5 4.1-.6-4.4 28.5-4.1.6 4.4zm-1-7.1l-28.5 4.1-.6-4.4 28.5-4.1.6 4.4zm-1-7.1l-28.5 4.1-.6-4.4 28.5-4.1.6 4.4zm-1.1-7.1L28.3 36l-.6-4.4 28.5-4.1.6 4.4z"/></g><g id="XMLID_4_"><path id="XMLID_9_" class="st2" d="M83.4 57.1L69.3 77l7.7 5.6 14.2-20.2.9-1.3-7.8-5.3z"/><path id="XMLID_8_" class="st2" d="M71.9 89.3h-.4c-1.1 0-2.3.2-6.8.2-.5 0-1-.2-1.4-.8-.8-.4-1.2-.9-2-.9s-1.4.4-3 1.2c-.6.4-1.8.9-2.3 1.1 0-.2 0-.9.2-1.1.2-1 .2-1.9 0-2.3-.2-.3-.4-.3-.6-.3-1.4 0-2.7 1.6-4.3 3-1 .9-2 2-2.6 2-.4-.8 1.2-3.9 1.6-5.3 1-2.3 1.4-2.7.8-3.2-.2-.2-.5-.2-1.2 0-.9.8-2 1.6-2.9 2.8-2 1.8-4.1 3.9-5.7 3.2-.2-.3-.8 0-1 .2-.2.2 0 .6.2.9 2.4 1.2 4.6-1.1 7.1-3.3.6-.5 1.1-1.2 1.8-1.6-.2.2-.2.4-.4.6-1.4 2.9-2.3 5.3-1.6 6.3.2.2.4.4.9.4 1 0 2-1.1 3.4-2.5 1.2-1.1 2.3-2.3 3.2-2.5 0 .2 0 .6-.2 1.1-.3 1-.3 1.9 0 2.4.2.2.4.4.6.4.6 0 1.6-.4 2.9-1.4.8-.4 2-1.1 2.3-1.1.5 0 1 .2 1.4.6.5.4 1.2 1 2 1 2.6 0 5.2-.3 7.5-.3.4.2.9-.8.5-.8z"/><path id="XMLID_7_" class="st2" d="M92.6 60.5l.2-.5-7.7-5.3-.3.3z"/><path id="XMLID_6_" class="st2" d="M93.3 59.4l4.8-7 .7.6-7.4 10.6c-.3.4-.2.8.2 1.1.2.1.5.2.6.1.2 0 .4-.1.5-.3l7.9-11.3c.3-.4.2-.9-.2-1.1l-2.2-1.6-6.2-4.3c-.2-.2-.4-.2-.6-.2-.2.1-.4.2-.6.4L85.6 54l7.7 5.4z"/><path id="XMLID_5_" class="st2" d="M67 87.8l9.5-4.4-7.9-5.4z"/></g></g></svg>