<svg version="1.1" id="Layer_1" xmlns="http://www.w3.org/2000/svg" x="0" y="0" viewBox="0 0 110 110" xml:space="preserve"><style>.st1{fill:#1b7fd0}</style><circle id="XMLID_1_" cx="55" cy="55" r="55" fill="#caddea"/><g id="XMLID_3_"><path id="XMLID_18_" class="st1" d="M47 76.5h16.3v3.3H47z"/><path id="XMLID_17_" class="st1" d="M47 85.2h4.3V88h7.8v-2.8h4.3v-3.3H47z"/><path id="XMLID_14_" class="st1" d="M55.2 36.6c-10 0-18.2 8.1-18.2 18.2 0 6.9 3.9 13 9.6 16v2.9H63v-2.5c6.1-2.9 10.4-9.2 10.4-16.4 0-10.1-8.2-18.2-18.2-18.2zm-.4 28.7l-.2-.2-.2.2-9.6-10.7 3.2-2.9 6.8 7.6 7.6-6.8 2.9 3.2-10.5 9.6z"/><g id="XMLID_4_"><path id="XMLID_13_" class="st1" d="M55.2 32.9c1.8 0 3.2-1.4 3.2-3.2v-4.5c0-1.8-1.4-3.2-3.2-3.2-1.8 0-3.2 1.4-3.2 3.2v4.5c0 1.7 1.4 3.2 3.2 3.2z"/><path id="XMLID_12_" class="st1" d="M65.9 35.9c1.5.9 3.5.4 4.4-1.1l2.3-3.8c.9-1.5.4-3.5-1.1-4.4-1.5-.9-3.5-.4-4.4 1.1l-2.3 3.8c-.9 1.6-.4 3.5 1.1 4.4z"/><path id="XMLID_11_" class="st1" d="M77.9 45.4l3.9-2.1c1.5-.8 2.1-2.8 1.3-4.3-.8-1.6-2.8-2.1-4.3-1.3l-3.9 2.1c-1.5.8-2.1 2.8-1.3 4.3s2.7 2.1 4.3 1.3z"/><path id="XMLID_10_" class="st1" d="M83.7 52.1l-4.5-.2c-1.7 0-3.2 1.3-3.2 3.1-.1 1.8 1.3 3.2 3.1 3.3l4.5.2c1.8.1 3.2-1.3 3.3-3.1 0-1.8-1.4-3.2-3.2-3.3z"/><path id="XMLID_9_" class="st1" d="M80.6 67.1l-3.7-2.4c-1.5-1-3.5-.5-4.4.9-1 1.5-.5 3.5.9 4.4l3.8 2.4c1.5 1 3.5.5 4.4-.9.9-1.5.5-3.5-1-4.4z"/><path id="XMLID_8_" class="st1" d="M39.7 34.8c.9 1.5 2.9 2 4.4 1.1 1.5-.9 2-2.9 1.1-4.4l-2.3-3.8c-.9-1.5-2.9-2-4.4-1.1-1.5.9-2 2.9-1.1 4.4l2.3 3.8z"/><path id="XMLID_7_" class="st1" d="M28.2 43.2l3.9 2.1c1.6.8 3.5.3 4.3-1.3.8-1.5.3-3.5-1.3-4.3l-3.9-2.1c-1.5-.8-3.5-.3-4.3 1.3-.8 1.6-.3 3.5 1.3 4.3z"/><path id="XMLID_6_" class="st1" d="M34 55c-.1-1.8-1.6-3.1-3.3-3.1l-4.5.2c-1.8.1-3.1 1.6-3.1 3.3.1 1.8 1.5 3.1 3.3 3.1l4.5-.2c1.8-.1 3.2-1.5 3.1-3.3z"/><path id="XMLID_5_" class="st1" d="M33.1 64.6L29.4 67c-1.5 1-1.9 2.9-.9 4.4 1 1.5 2.9 1.9 4.4.9l3.8-2.4c1.5-1 1.9-2.9.9-4.4-1-1.4-3-1.8-4.5-.9z"/></g></g></svg>