<svg height="640" viewBox="0 -28 480 480" width="640" xmlns="http://www.w3.org/2000/svg"><linearGradient id="a" gradientUnits="userSpaceOnUse" x1="89.28" x2="393.28" y1="345.28" y2="41.28"><stop offset="0" stop-color="#41dfd0"/><stop offset="1" stop-color="#ee83ef"/></linearGradient><path d="M272 178.223a27.064 27.064 0 0 1-18.543 25.722 31.885 31.885 0 0 1-5.457 1.27V216h-16v-12.672a32.004 32.004 0 0 1-6.023-3.062l-14.403-9.602a8.002 8.002 0 0 1 8.883-13.312l14.398 9.601a15.49 15.49 0 0 0 13.551 1.817c4.031-1.34 6.946-4.86 7.508-9.067s-1.324-8.367-4.86-10.719l-30.976-20.656a27.106 27.106 0 0 1 6.473-48.273A31.672 31.672 0 0 1 232 98.902V88h16v12.64a31.449 31.449 0 0 1 6.023 3.094l14.403 9.602a8.002 8.002 0 0 1-8.883 13.312l-14.398-9.601a15.53 15.53 0 0 0-13.543-1.848c-4.032 1.34-6.946 4.86-7.508 9.067s1.324 8.367 4.86 10.718l30.976 20.657A27.069 27.069 0 0 1 272 178.223zm88 62.945c-.012 12.605-10.227 22.82-22.832 22.832H280v160h-16v-32h-48v32h-16V264h-57.168a22.831 22.831 0 0 1-22.23-17.586c-2.434-10.305 2.539-20.934 12.015-25.672l3.383-1.687V144c.078-43.324 26.984-82.074 67.55-97.281l-31.124-15.52 7.148-14.32 27.547 13.738-6.707-20.09A8.005 8.005 0 0 1 208 0h64a8.005 8.005 0 0 1 7.586 10.527l-6.707 20.09 27.547-13.777 7.148 14.32-31.124 15.56C317.016 61.926 343.922 100.676 344 144v75.055l3.375 1.687A22.72 22.72 0 0 1 360 241.168zM219.105 16l7.48 22.398a61.67 61.67 0 0 0 26.83 0L260.894 16zM216 344h48v-16h-48zm48-32v-16h-48v16zm0-32v-16h-48v16zm0 96v-16h-48v16zm80-134.832a6.782 6.782 0 0 0-3.785-6.113l-7.79-3.895A8.001 8.001 0 0 1 328 224v-80c0-48.602-39.398-88-88-88s-88 39.398-88 88v80a7.997 7.997 0 0 1-4.426 7.2l-7.797 3.898a6.826 6.826 0 0 0-3.52 7.644 6.835 6.835 0 0 0 6.575 5.258H200v-16h16v16h48v-16h16v16h57.168a6.842 6.842 0 0 0 6.832-6.832zM368 16h-16v16h16zm0 48h-16v16h16zm-24-24h-16v16h16zm48 16V40h-16v16zM72 248H56v16h16zm-16 64h16v-16H56zm-8-40H32v16h16zm48 0H80v16h16zm384-120c0 17.672-14.328 32-32 32h-56c-16.152.016-29.781-12.008-31.781-28.035-2.004-16.024 8.25-31.031 23.91-34.988 1.574-18.641 17.164-32.97 35.871-32.97s34.297 14.329 35.871 32.97c14.18 3.625 24.106 16.386 24.129 31.023zm-16 0c0-8.836-7.164-16-16-16a8 8 0 0 1-8-8v-4c0-11.047-8.953-20-20-20s-20 8.953-20 20v4a8 8 0 0 1-8 8c-8.836 0-16 7.164-16 16s7.164 16 16 16h56c8.836 0 16-7.164 16-16zM0 184c.023-14.637 9.95-27.398 24.129-31.023 1.574-18.641 17.164-32.97 35.871-32.97s34.297 14.329 35.871 32.97c15.66 3.957 25.914 18.964 23.91 34.988-2 16.027-15.629 28.05-31.781 28.035H32c-17.672 0-32-14.328-32-32zm16 0c0 8.836 7.164 16 16 16h56c8.836 0 16-7.164 16-16s-7.164-16-16-16a8 8 0 0 1-8-8v-4c0-11.047-8.953-20-20-20s-20 8.953-20 20v4a8 8 0 0 1-8 8c-8.836 0-16 7.164-16 16zm0 0" fill="url(#a)"/></svg>