<svg version="1.1" id="Layer_1" xmlns="http://www.w3.org/2000/svg" x="0" y="0" viewBox="0 0 40 25" xml:space="preserve"><style>.st0{fill-rule:evenodd;clip-rule:evenodd;fill:#1b7fd0}</style><g id="XMLID_1_"><path id="XMLID_52_" class="st0" d="M35.2 23.2V1.8C35.2.8 36 0 37 0h1c1 0 1.9.8 1.9 1.8v21.3c0 1-.9 1.8-1.9 1.8h-1c-1 .1-1.8-.8-1.8-1.7z"/><path id="XMLID_50_" class="st0" d="M21.2.7l10.7 11.5c.1.2.1.4 0 .5L21.2 24.3c-.1.1-.4.1-.5 0l-1.6-1.6 8.2-9.1H1.4c-.7 0-1.3-.6-1.3-1.3 0-.8.6-1.4 1.3-1.4h25.7l-8-8.8L20.7.5c.1 0 .4 0 .5.2z"/></g></svg>