<svg version="1.1" id="Layer_1" xmlns="http://www.w3.org/2000/svg" x="0" y="0" viewBox="-9 49 21 26" xml:space="preserve"><style>.st0{fill:#1b7fd0}</style><g id="XMLID_47_"><path id="XMLID_6_" class="st0" d="M-3.8 57.7H6.7v1.5H-3.8z"/><path id="XMLID_5_" class="st0" d="M-3.8 54.2H6.7v1.5H-3.8z"/><path id="XMLID_4_" class="st0" d="M-3.8 61.2H6.7v1.5H-3.8z"/><path id="XMLID_48_" class="st0" d="M11.2 49H-8.2c-.3 0-.5.2-.5.5v18.7c0 2.5 1.9 4.6 4.3 4.9L10.7 75c.6 0 1-.5 1-1V49.5c0-.3-.2-.5-.5-.5zM9.4 72.2l-10.5-6.1c-.2-.2-.4 0-.4.2v1.9c0 1.4-1.1 2.5-2.5 2.5s-2.5-1-2.5-2.4V51H9.4v21.2z"/></g></svg>