<svg height="512pt" viewBox="-26 0 512 512.001" width="512pt" xmlns="http://www.w3.org/2000/svg" xmlns:xlink="http://www.w3.org/1999/xlink"><linearGradient id="a"><stop offset="0" stop-color="#662d91"/><stop offset=".437" stop-color="#3873b3"/><stop offset="1" stop-color="#00c9dd"/></linearGradient><linearGradient id="b" gradientTransform="matrix(1.0778 0 0 -1.0778 -25.598 502.435)" gradientUnits="userSpaceOnUse" x1="42.556" x2="488.976" xlink:href="#a" y1="439.44" y2="-6.98"/><linearGradient id="c" gradientTransform="matrix(1.0778 0 0 -1.0778 -25.598 502.435)" gradientUnits="userSpaceOnUse" x1="-177.149" x2="269.271" xlink:href="#a" y1="219.734" y2="-226.686"/><linearGradient id="d" gradientTransform="matrix(1.0778 0 0 -1.0778 -25.598 502.435)" gradientUnits="userSpaceOnUse" x1="-10.888" x2="435.532" xlink:href="#a" y1="385.995" y2="-60.425"/><linearGradient id="e" gradientTransform="matrix(1.0778 0 0 -1.0778 -25.598 502.435)" gradientUnits="userSpaceOnUse" x1="-64.329" x2="382.091" xlink:href="#a" y1="332.554" y2="-113.866"/><linearGradient id="f" gradientTransform="matrix(1.0778 0 0 -1.0778 -25.598 502.435)" gradientUnits="userSpaceOnUse" x1="42.553" x2="488.973" xlink:href="#a" y1="439.437" y2="-6.983"/><linearGradient id="g" gradientTransform="matrix(1.0778 0 0 -1.0778 -25.598 502.435)" gradientUnits="userSpaceOnUse" x1="145.477" x2="591.897" xlink:href="#a" y1="542.361" y2="95.941"/><path d="M455.434 34.746L370.102.613a8.531 8.531 0 0 0-11.094 4.75 8.512 8.512 0 0 0-.613 3.18v110.93h-51.2a8.53 8.53 0 0 0-8.53 8.535v102.398H196.261a8.532 8.532 0 0 0-8.532 8.531v102.399H76.8a8.534 8.534 0 0 0-8.534 8.535V503.47c0 4.71 3.82 8.531 8.535 8.531 4.71 0 8.531-3.82 8.531-8.531V358.402h110.93a8.533 8.533 0 0 0 8.535-8.53v-102.4h102.398a8.53 8.53 0 0 0 8.532-8.535V136.54H435.19v366.926a8.533 8.533 0 1 0 17.066 0V128.008a8.533 8.533 0 0 0-8.53-8.535H375.46V74.625l79.246-23.773a8.535 8.535 0 0 0 .727-16.106zM375.46 56.805v-35.66l50.941 20.378zm0 0" fill="url(#b)"/><path d="M8.535 469.336A8.533 8.533 0 0 0 0 477.867v25.602C0 508.179 3.82 512 8.535 512a8.532 8.532 0 0 0 8.531-8.531v-25.602c0-4.71-3.82-8.531-8.53-8.531zm0 0" fill="url(#c)"/><path d="M136.531 290.137v-110.93h119.465a8.533 8.533 0 0 0 8.531-8.535V88.875l11.035 11.031a8.534 8.534 0 1 0 12.066-12.066l-25.6-25.598c-.075-.078-.18-.101-.258-.172a8.47 8.47 0 0 0-2.508-1.707c-.067 0-.145 0-.223-.05a8.354 8.354 0 0 0-2.71-.528c-.274 0-.54 0-.856.043-.739.04-1.47.18-2.168.418-.274.094-.54.168-.801.29-.953.41-1.82.984-2.559 1.706L224.348 87.84c-3.278 3.39-3.18 8.793.207 12.066a8.53 8.53 0 0 0 11.855 0l11.05-11.031v73.266H127.997a8.532 8.532 0 0 0-8.531 8.53v110.934H8.535A8.533 8.533 0 0 0 0 290.137v153.597a8.534 8.534 0 1 0 17.066 0V298.672h110.93a8.534 8.534 0 0 0 8.535-8.535zm0 0" fill="url(#d)"/><path d="M179.195 375.469H110.93a8.533 8.533 0 0 0-8.532 8.535c0 4.71 3.82 8.531 8.532 8.531h68.265a8.533 8.533 0 1 0 0-17.066zm0 0" fill="url(#e)"/><path d="M298.664 264.54h-68.266a8.533 8.533 0 1 0 0 17.065h68.266a8.533 8.533 0 0 0 8.531-8.535c0-4.71-3.82-8.53-8.53-8.53zm0 0" fill="url(#f)"/><path d="M409.594 153.605h-68.266a8.534 8.534 0 1 0 0 17.067h68.266c4.71 0 8.531-3.82 8.531-8.531.004-4.715-3.82-8.536-8.531-8.536zm0 0" fill="url(#g)"/></svg>