<svg height="512" viewBox="0 0 64 64" width="512" xmlns="http://www.w3.org/2000/svg"><linearGradient id="a" gradientUnits="userSpaceOnUse" x1="32.434" x2="32.434" y1="63" y2="1"><stop offset="0" stop-color="#9f2fff"/><stop offset="1" stop-color="#0bb1d3"/></linearGradient><path d="M16 24h-2c0-1.654 1.346-3 3-3s3 1.346 3 3h-2c0-.551-.449-1-1-1s-1 .449-1 1zm9-1c.551 0 1 .449 1 1h2c0-1.654-1.346-3-3-3s-3 1.346-3 3h2c0-.551.449-1 1-1zm-4 9c-2.757 0-5-2.243-5-5v-1h10v1c0 2.757-2.243 5-5 5zm0-2a3.006 3.006 0 0 0 2.829-2h-5.657A3.004 3.004 0 0 0 21 30zm37 11.197L63.869 50H59v11h4v2H1V49.142c0-2.253.775-4.461 2.182-6.22a9.971 9.971 0 0 1 5.821-3.542l6.148-1.229.688-3.442a11.06 11.06 0 0 1-5.075-5.708H10c-2.206 0-4-1.794-4-4 0-.925.329-1.767.858-2.445l-.482-1.93A12.564 12.564 0 0 1 6 17.575C6 10.641 11.641 5 18.575 5H33c1.365 0 2.508.922 2.87 2.173C38.641 3.339 43.085 1 48 1c8.271 0 15 6.729 15 15 0 6.335-4.079 12.034-10 14.133v4.051A13.818 13.818 0 0 1 39.185 48H35v13h10v-4h-4.869L46 48.197 51.869 57H47v4h10V50h-4.869zM43.869 55h4.263L46 51.803zM51 34.185V30h-6v3.764a6.2 6.2 0 0 1-3.447 5.578 6.28 6.28 0 0 1-2.789.658h-9.105l-3.258 7.602-2.012-1.609-.36 1.081 2.048 11.264L23.414 61H33V46h6.185A11.813 11.813 0 0 0 51 34.185zM32 17.478V21c.779 0 1.501.233 2.116.619a14.881 14.881 0 0 1-1.088-4.956 8.971 8.971 0 0 1-1.028.815zM31.809 27H32c1.103 0 2-.897 2-2s-.897-2-2-2v2c0 .684-.071 1.35-.191 2zm-5.648 7.708L26.82 38h11.944c.654 0 1.309-.154 1.895-.447A4.213 4.213 0 0 0 43 33.764v-3.63a14.991 14.991 0 0 1-7.004-5.172c0 .013.004.025.004.038 0 2.206-1.794 4-4 4h-.764a11.055 11.055 0 0 1-5.075 5.708zM51 28v-2.184A2.966 2.966 0 0 1 50 26h-1.764c-.309 0-.618-.073-.894-.211l-.115-.058c-.376.17-.789.269-1.227.269h-1v-2h1c.551 0 1-.449 1-1s-.449-1-1-1h-2c-.551 0-1 .449-1 1v2.343c0 .79.32 1.563.878 2.121l.536.536zm-5.021-9.809c.32-.117.661-.191 1.021-.191h3c.067 0 .129.015.195.02A2.979 2.979 0 0 0 51 16c0-1.654-1.346-3-3-3s-3 1.346-3 3c0 .849.368 1.628.979 2.191zM49 23c0 .352-.072.686-.184 1H50c.551 0 1-.449 1-1v-2c0-.551-.449-1-1-1h-3a.979.979 0 0 0-.359.073A3.002 3.002 0 0 1 49 23zm6-7c0-3.86-3.14-7-7-7s-7 3.14-7 7c0 1.622.549 3.149 1.553 4.389.431-.24.92-.389 1.447-.389h.184c.064-.18.144-.35.24-.512A4.972 4.972 0 0 1 43 16c0-2.757 2.243-5 5-5s5 2.243 5 5a4.98 4.98 0 0 1-.905 2.858c.535.523.869 1.244.896 2.044A7.025 7.025 0 0 0 55 16zM22.748 42.117l2.851 2.281L27.484 40h-1.207zM21 43.281l-1.725 1.38.446 1.339h2.559l.446-1.339zm-2.922 14.382L21 60.586l2.922-2.923L22.165 48h-2.331zm17.828-46.434a8.905 8.905 0 0 1-.694 2.435C35.073 14.43 35 15.214 35 16c0 4.62 2.501 8.855 6.35 11.166a5.005 5.005 0 0 1-.35-1.823V23c0-.388.08-.755.214-1.096A8.909 8.909 0 0 1 39 16c0-4.962 4.038-9 9-9s9 4.038 9 9c0 3.001-1.526 5.797-4 7.46v4.533c4.768-1.997 8-6.744 8-11.994 0-7.168-5.832-13-13-13-5.382.001-10.121 3.229-12.094 8.23zM10.191 27c-.12-.65-.191-1.316-.191-2v-2c-1.103 0-2 .897-2 2s.897 2 2 2zm2.722-11.314l1.137-.682c-.018-.163-.05-.323-.05-.491a4.481 4.481 0 0 1 3.068-4.257l.616-.205.632 1.897-.616.206a2.483 2.483 0 0 0-1.7 2.359A2.49 2.49 0 0 0 18.487 17H27c3.86 0 7-3.14 7-7V8c0-.551-.449-1-1-1H18.575C12.744 7 8 11.744 8 17.575c0 .863.106 1.726.316 2.564l.282 1.128A3.962 3.962 0 0 1 10 21v-.169a6.03 6.03 0 0 1 2.913-5.145zM21 34c4.962 0 9-4.038 9-9v-6.525A8.936 8.936 0 0 1 27 19h-8.513a4.479 4.479 0 0 1-3.766-2.066l-.778.467A4.019 4.019 0 0 0 12 20.831V25c0 4.962 4.038 9 9 9zm-3.28 1.5l-.601 3.005L21 40.834l3.881-2.329-.601-3.005c-1.036.324-2.138.5-3.28.5s-2.244-.176-3.28-.5zm-3.079 4.791l1.76 4.107 2.851-2.281-3.436-2.061zM3 61h5v-9h2v9h8.586l-2.663-2.663 2.048-11.264-.36-1.081-2.012 1.609-2.961-6.909-3.242.649a7.966 7.966 0 0 0-4.652 2.831A7.977 7.977 0 0 0 3 49.142zm57.131-13L58 44.803 55.869 48z" fill="url(#a)"/></svg>