<svg version="1.1" id="Layer_1" xmlns="http://www.w3.org/2000/svg" x="0" y="0" viewBox="0 0 116 125" xml:space="preserve"><style>.st2{fill:#fff}</style><g id="XMLID_1_"><path id="XMLID_16_" d="M104.4 17.3C96.7 15.6 72.9.6 57.9 1.5c-15-.9-38.7 14-46.4 15.7-5.3 1.2-10 .1-10 .1 5.8 11.5 6.4 63.5 6.4 63.5C9.5 103 58 123.5 58 123.5s48.5-20.5 50.1-42.6c0 0 .6-52 6.4-63.5-.1 0-4.7 1.1-10.1-.1z" fill="none" stroke="#1b7fd0" stroke-width="1.133" stroke-miterlimit="10"/><path id="XMLID_5_" d="M106.8 23.5c-5 10-5.5 55-5.5 55-1.3 19-43.3 36.8-43.3 36.8S16 97.5 14.7 78.5c0 0-.5-45-5.5-55 0 0 4 .9 8.7-.1C24.5 21.9 45 9 58 9.8 71 9 91.6 21.9 98.2 23.4c4.6 1 8.6.1 8.6.1z" fill="#1b7fd0"/><g id="XMLID_7_"><path id="XMLID_68_" class="st2" d="M34.8 78l8-26.4h8.1L38.6 86.7H31L18.8 51.6h8l8 26.4z"/><path id="XMLID_70_" class="st2" d="M61.8 86.7h-7.2V51.6h7.2v35.1z"/><path id="XMLID_72_" class="st2" d="M75.7 74.3v12.4h-7.2V51.6h13.7c2.6 0 5 .5 7 1.4 2 1 3.5 2.3 4.6 4.1s1.6 3.8 1.6 6.1c0 3.4-1.2 6.2-3.5 8.1-2.4 2-5.6 3-9.8 3h-6.4zm0-5.8h6.5c1.9 0 3.4-.5 4.4-1.4s1.5-2.2 1.5-3.9c0-1.7-.5-3.1-1.5-4.2s-2.4-1.6-4.2-1.6h-6.6v11.1z"/></g><path id="XMLID_6_" class="st2" d="M71.4 31c-2.4-1.7-2.7.9-2.7.9-1.2 1.1-.5 2.1-.5 2.1.2-1.2 1.9-.6 1.9-.6-.1 3.6-3.4 4.3-5.1 4.2-1.7-.1-.3-3.2-.3-3.2-.7.4-1.6 2.5-3.4 2-1.8-.5-1.4-5.8-1.2-6.8.2-.9.5-1.9 1.8-1.9s.4 2 .4 2c2.5.5 1.6-2.4 1.6-2.4-1.3-3.2-3.7-.4-4.1.4-.4.8-.7 0-.7 0 .1-2.7 2.3-3.6 2.3-3.6-.4-1.2-2.8 0-2.8 0v-1.2c1.4-.4.8-1.2.8-1.2-.8-.9-1.3-4.4-1.3-4.4s-.6 3.5-1.3 4.4c0 0-.6.8.8 1.2v1.2s-2.4-1.2-2.8 0c0 0 2.1.9 2.3 3.6 0 0-.3.8-.7 0-.4-.8-2.7-3.7-4.1-.4 0 0-1 2.9 1.6 2.4 0 0-1-2 .4-2 1.3 0 1.6.9 1.8 1.9.2.9.6 6.2-1.2 6.8-1.8.5-2.7-1.6-3.4-2 0 0 1.3 3.1-.3 3.2-1.7.1-5-.6-5.1-4.2 0 0 1.7-.6 1.9.6 0 0 .7-1.1-.4-2.1 0 0-.3-2.6-2.7-.9 0 0-2.2-2.7-5.4-1.8 0 0 6.3 4.7 8.5 9.8 0 0 4.7 2 10.2 1.8 5.2.2 10-1.8 10-1.8 2.3-5.2 8.5-9.8 8.5-9.8-3.1-.9-5.3 1.8-5.3 1.8z"/></g></svg>