<svg version="1.1" id="Layer_1" xmlns="http://www.w3.org/2000/svg" x="0" y="0" viewBox="-5 -5 120 120" xml:space="preserve"><style>.st1{fill:#1b7fd0}</style><circle id="XMLID_1_" cx="55" cy="55" r="60" fill="#caddea"/><path class="st1" d="M65.9 33.5v8.7h-9.1v-8.7h-7.9v8.7h-9.1v-8.7H18.4V84h73.2V33.5H65.9zM39.1 49.7c3.5 0 6.3 2.8 6.3 6.3s-2.8 6.3-6.3 6.3-6.3-2.8-6.3-6.3 2.8-6.3 6.3-6.3zm14.2 20.1c0 2.5-2.2 4.4-4.8 4.4H29.7c-2.7 0-4.8-2-4.8-4.4v-.9c0-2.5 5.4-5.9 8-5.9h2c1.1 1 2.6 1.6 4.2 1.6s3.1-.6 4.2-1.6h2c2.7 0 8 3.5 8 5.9v.9zm33.2 4.4H61.1v-4.7h25.3v4.7zm0-7.9H61.1v-4.7h25.3v4.7zm0-7.9H61.1v-4.7h25.3v4.7zm0-7.9H61.1v-4.7h25.3v4.7z"/><path class="st1" d="M41 26h5.9v13H41zm17.7 0h5.9v13h-5.9z"/></svg>