<svg version="1.1" id="Layer_1" xmlns="http://www.w3.org/2000/svg" x="0" y="0" viewBox="-5 -5 120 120" xml:space="preserve"><style>.st1{fill:#1b7fd0}</style><circle id="XMLID_1_" cx="55" cy="55" r="60" fill="#caddea"/><path class="st1" d="M63.9 26.9c0-4.9-4-8.9-8.9-8.9s-8.9 4-8.9 8.9h-8.9v8.9h35.5v-8.9h-8.8zM55 31.3c-2.5 0-4.4-2-4.4-4.4 0-2.4 2-4.4 4.4-4.4 2.5 0 4.4 2 4.4 4.4 0 2.4-1.9 4.4-4.4 4.4z"/><path class="st1" d="M77.2 26.9v13.3H32.8V26.9h-8.9V89H86V26.9h-8.8zM52.9 79.5l-3.1-3.1-12.5-12.6 6.3-6.3 9.4 9.4L70.9 49l6.3 6.3-24.3 24.2z"/></svg>