<svg height="512" viewBox="0 0 64 64" width="512" xmlns="http://www.w3.org/2000/svg"><linearGradient id="a" gradientUnits="userSpaceOnUse" x1="32.181" x2="32.181" y1="63" y2="1"><stop offset="0" stop-color="#9f2fff"/><stop offset="1" stop-color="#0bb1d3"/></linearGradient><path d="M28 37a1 1 0 1 1 2 0 1 1 0 0 1-2 0zm7-1a1 1 0 1 0 0 2 1 1 0 0 0 0-2zm-1 3.764c-.381.762-1.147 1.236-2 1.236s-1.619-.474-2-1.236l-.105-.211-1.789.895.105.21C28.933 42.103 30.385 43 32 43s3.067-.897 3.789-2.342l.105-.211-1.789-.895zM52 37c0-1.654 1.346-3 3-3s3 1.346 3 3-1.346 3-3 3-3-1.346-3-3zm2 0a1.001 1.001 0 1 0 1-1c-.552 0-1 .449-1 1zm-5-18v-2h-2v2zm-4 0v-2h-2v2zM15 45H1V27h14v8h5.556a4.004 4.004 0 0 1 1.679-1.572A7.008 7.008 0 0 1 18 27c0-3.165 2.113-5.842 5-6.705V12c0-.551-.448-1-1-1h-2.043a6.773 6.773 0 0 1-1.237 1.476L11 19.338l-7.72-6.862A6.797 6.797 0 0 1 1 7.399v-.156c0-1.713.667-3.324 1.879-4.536A5.868 5.868 0 0 1 7 1c1.478 0 2.926.577 4 1.589A5.871 5.871 0 0 1 15 1c1.534 0 3.036.622 4.121 1.707A6.37 6.37 0 0 1 21 7.243v.156c0 .545-.072 1.081-.199 1.601H22c1.654 0 3 1.346 3 3v8h.515c1.244 0 2.435.329 3.485.935V8c0-1.654 1.346-3 3-3h17.685c1.126-2.361 3.53-4 6.315-4 3.859 0 7 3.14 7 7a6.998 6.998 0 0 1-3.148 5.839l-.71 3.553A2.006 2.006 0 0 1 57.181 19H54.82a2.007 2.007 0 0 1-1.961-1.607l-.71-3.554A6.997 6.997 0 0 1 49 8c0-.34.033-.672.08-1H32c-.552 0-1 .449-1 1v14h4v-2c0-1.654 1.346-3 3-3h3v2h-3c-.552 0-1 .449-1 1v2.175c3.989.81 7 4.344 7 8.568 0 .943-.151 1.873-.449 2.765l-.365 1.098c.504.67.814 1.493.814 2.394h5.055l.017-.01-2.434-1.395 2.979-5.197 2.417 1.412-.017-2.81h5.967v2.809l2.399-1.411 2.979 5.197L60.944 37l2.418 1.405-2.979 5.197-2.404-1.404.004 2.802h-5.967v-2.801l-.055-.036-2.345 1.439L46.979 39h-3.535c-.694 1.19-1.97 2-3.444 2h-.263a8.014 8.014 0 0 1-3.511 4.78l.582 2.325 4.209.602a10.54 10.54 0 0 1 4.324 1.652A10.448 10.448 0 0 1 50 58.993V63H14v-3.936c0-3.506 1.742-6.761 4.659-8.706a10.526 10.526 0 0 1 4.324-1.652l4.209-.602.582-2.325a8.018 8.018 0 0 1-3.511-4.78H24c-2.206 0-4-1.794-4-4h-5zm36.06-8.004a1.99 1.99 0 0 1-.982 1.724l-.715.416.987 1.723.677-.395a1.981 1.981 0 0 1 1.919-.038l.086.048c.608.355.985 1.014.985 1.718V43h1.967v-.809c0-.704.377-1.362.985-1.718l.123-.062c.627-.303 1.317-.278 1.883.052l.676.395.987-1.723-.715-.416a1.986 1.986 0 0 1-.982-1.716 1.99 1.99 0 0 1 .982-1.724l.715-.416-.987-1.723-.677.395a1.977 1.977 0 0 1-1.996-.005 2.002 2.002 0 0 1-.994-1.723V31h-1.967v.809c0 .705-.378 1.363-.986 1.718a1.982 1.982 0 0 1-2.005.009l-.676-.395-.987 1.723.715.416c.607.354.984 1.012.982 1.716zm6.56-22.193c-.521.124-1.062.197-1.62.197s-1.099-.073-1.62-.197L54.819 17h2.361zM56 9a1.001 1.001 0 1 0-1-1c0 .551.448 1 1 1zm-5-1a5.01 5.01 0 0 0 4 4.899v-2.083A2.996 2.996 0 0 1 53 8c0-1.654 1.346-3 3-3s3 1.346 3 3a2.996 2.996 0 0 1-2 2.816v2.083A5.009 5.009 0 0 0 61 8c0-2.757-2.243-5-5-5s-5 2.243-5 5zm-32-.757a4.386 4.386 0 0 0-1.293-3.122C16.994 3.409 16.008 3 15 3s-1.994.409-2.707 1.121L11 5.414 9.707 4.121C8.994 3.409 8.008 3 7 3s-1.994.409-2.707 1.121A4.385 4.385 0 0 0 3 7.243v.156c0 1.368.586 2.673 1.608 3.582L11 16.662l6.392-5.682A4.793 4.793 0 0 0 19 7.399zm21.733 43.443L36.63 50.1a5.147 5.147 0 0 1-9.26 0l-4.104.586a8.523 8.523 0 0 0-3.498 1.337A8.446 8.446 0 0 0 16 59.064V61h6v-4h2v4h16v-4h2v4h6v-2a8.451 8.451 0 0 0-3.769-6.977 8.517 8.517 0 0 0-3.498-1.337zm-6.354-4.047c-.751.234-1.551.361-2.379.361s-1.628-.127-2.379-.361l-.575 2.304C29.508 50.177 30.676 51 32 51s2.493-.824 2.955-2.056zM38 35c0-.551-.448-1-1-1H26v5c0 3.309 2.691 6 6 6s6-2.691 6-6zm4 2c0-1.103-.897-2-2-2v4c1.103 0 2-.897 2-2zm-17.469-5.047A3.953 3.953 0 0 1 24 30c0-2.206 1.794-4 4-4s4 1.794 4 4h-2c0-1.103-.897-2-2-2s-2 .897-2 2 .897 2 2 2h9c.883 0 1.67.391 2.22 1H40c.535 0 1.045.11 1.512.301l.142-.425A6.71 6.71 0 0 0 42 30.744 6.751 6.751 0 0 0 35.257 24h-5.672l-.535-.536A4.97 4.97 0 0 0 25.515 22H25c-2.757 0-5 2.243-5 5 0 2.596 1.996 4.712 4.531 4.953zM22 37c0 1.103.897 2 2 2v-4c-1.103 0-2 .897-2 2zm-9-8H3v14h10zm-2 2H5v2h6zm0 4H5v2h6zm0 4H5v2h6z" fill="url(#a)"/></svg>