<svg xmlns="http://www.w3.org/2000/svg" viewBox="0 0 28 35"><path d="M11.8 22.8c0 .1-.1.2-.1.3-1.3 5-1.4 6.2-2.7 8.5-.6 1.1-1.3 2.2-2.1 3.2-.2.1-.2.2-.4.2s-.2-.2-.2-.4c-.3-1.5-.4-3-.3-4.6.1-2 .3-2.7 2.9-13.6 0-.2 0-.3-.1-.5-.6-1.7-.7-3.4-.2-5.1 1.2-3.7 5.4-4 6.1-.9.5 1.9-.7 4.4-1.7 8.1-.8 3 2.8 5.2 5.9 3 2.8-2 3.9-6.9 3.7-10.4-.4-6.9-8-8.4-12.8-6.2C4.3 6.9 3 13.8 5.5 16.9c.3.4.6.6.5 1-.2.6-.3 1.3-.5 1.9-.1.5-.5.6-1 .4-.9-.4-1.7-1-2.3-1.7-2.1-2.6-2.7-7.8.1-12.2C5.4 1.4 11.2-.5 16.4.1c6.3.7 10.2 5 11 9.9.3 2.2.1 7.7-3 11.5-3.6 4.4-9.4 4.7-12.1 2-.2-.2-.3-.4-.5-.7z" fill-rule="evenodd" clip-rule="evenodd" fill="#1b7fd0"/></svg>