<svg width="648" height="427" fill="none" xmlns="http://www.w3.org/2000/svg"><g clip-path="url(#clip0)"><path fill="#fff" d="M0 0h648v427H0z"/><g clip-path="url(#clip1)"><path d="M677-9h-779v445h779V-9z" fill="url(#paint0_linear)"/><path opacity=".8" d="M118 76a1 1 0 1 0 0-1 1 1 0 0 0 0 1zM14 32h-1v-1l1 1zm198 133h-1l1-1v1zm116 29l-1 1v-1h1zm-163 1a1 1 0 1 0 0-1 1 1 0 0 0 0 1zm222-49l-1 1v-2l1 1zm-13 73a1 1 0 1 0 0-1 1 1 0 0 0 0 1zm-25-90v1l-1-1h1zM33 230l-1 1-1-1h2zm-6 71a1 1 0 1 0 0-1 1 1 0 0 0 0 1zM3 211l-1 1v-1h1zm256-45a1 1 0 1 0 0-1 1 1 0 0 0 0 1zm50 27a1 1 0 1 0 0-1 1 1 0 0 0 0 1zm141-38a1 1 0 1 0 0-1 1 1 0 0 0 0 1zm46 25a1 1 0 1 0 0-1 1 1 0 0 0 0 1zm-64-26h-1l1-1v1zM276 36l-1 1-1-1 1-1 1 1zm-97-21l-1 1-1-1h2zm50 73h-2l1-1 1 1zM19 169l-1 1-1-1h2zm59-48l-1 1-1-1h2zm-13 73h-1v-1l1 1zm-25-89h-1v-1l1 1zM1 168l-1 1-1-1 1-1 1 1zm432-53a1 1 0 1 0 0-2 1 1 0 0 0 0 2zM107 94a1 1 0 1 0 0-1 1 1 0 0 0 0 1zM53 61a1 1 0 1 0 0-1 1 1 0 0 0 0 1zm47 119h-1l1-1v1zM114 1h-1l1-1v1zM44 79h-2l1-1 1 1zm421-2v1l-1-1h1zm157-39a1 1 0 1 0 0-1 1 1 0 0 0 0 1zm-96-21l-1 1-1-1 1-1 1 1zm50 72l-1 1-1-1h2zm-122 7a1 1 0 1 0 0-1 1 1 0 0 0 0 1zm76 201h-1l1-1v1zm46 24v1l-1-1h1zm-64-25h-1v-1l1 1zm1-40v1l-1-1 1-1v1zm31-36a1 1 0 1 0 0-1 1 1 0 0 0 0 1zm62-61l-1 1-1-1 1-1 1 1zm-71 78l-1 1-1-1 1-1 1 1zm-435 37a1 1 0 1 0 0-1 1 1 0 0 0 0 1zm117 28l-1 1-1-1h2zm-163 1l-1 1v-2l1 1zm221-49v1l-1-1h1zm-13 73a1 1 0 1 0 0-1 1 1 0 0 0 0 1zm-24-89h-1v-1l1 1zm-90 37a1 1 0 1 0 0-1 1 1 0 0 0 0 1zm50 26v1l-1-1h1zm141-38v1l-1-1h1zm-18-1h-1v-1l1 1zM164 145a1 1 0 1 0 0-2 1 1 0 0 0 0 2zm-47 51l-1 1-1-1 1-1 1 1zm205 26v1l-1-1h1zm32-36h-1v-1l1 1zm-10 18h-2l1-1 1 1zM158 54h-1l1-1v1zm-13 73a1 1 0 1 0 0-1 1 1 0 0 0 0 1zm-24-90l-1 1v-1h1zm101 25l-1 1v-1h1zm46 25h-1l1-1v1zm-64-26l-1 1v-1h1zm1-39l-1 1v-2l1 1zm22-19l-1 1-1-1 1-1 1 1zM125 93v1l-1-1h1zm-10 18l-1 1v-1h1zm-74 48a1 1 0 1 0 0-1 1 1 0 0 0 0 1zm-6-90a1 1 0 1 0 0-1 1 1 0 0 0 0 1zm-12 72h-1l1-1v1zM2 108a1 1 0 1 0 0-1 1 1 0 0 0 0 1zM575 4a1 1 0 1 0 0-1 1 1 0 0 0 0 1zm-58 12h-1l1-1v1zm43 90a1 1 0 1 0 0-1 1 1 0 0 0 0 1zm80-12h-2l1-1 1 1zm-39-17a1 1 0 1 0 0-1 1 1 0 0 0 0 1zm-89 36v1l-1-1h1zm103-79a1 1 0 1 0 0-1 1 1 0 0 0 0 1zm-10 18a1 1 0 1 0 0-2 1 1 0 0 0 0 2zm-47 10l-1 1v-1h1zm-41 46h-1l1-1v1zm31-28l-1 1-1-1 1-1 1 1zm50-39h-1v-1l1 1zm-13 72h-1l1-1v1zm-25-89v1l-1-1 1-1v1zm5 56l-1 1v-2l1 1zm-11 19a1 1 0 1 0 0-2 1 1 0 0 0 0 2zm-369 20a1 1 0 1 0 0-1 1 1 0 0 0 0 1zm84-15a1 1 0 1 0 0-2 1 1 0 0 0 0 2zm33-38l-1 1-1-1h2zm60-60v1l-1-1 1-1v1zm-70 78l-1 1-1-1 1-1 1 1zm61-79a1 1 0 1 0 0-1 1 1 0 0 0 0 1zm43 90a1 1 0 1 0 0-1 1 1 0 0 0 0 1zm-47 7l-1 1-1-1h2zm45-51v1l-1-1h1zm-40 46h-2l1-1 1 1zm30-28l-1 1v-1h1zm13-56h-1v-1l1 1zm-7 75a1 1 0 1 0 0-2 1 1 0 0 0 0 2zm-38 47a1 1 0 1 0 0-1 1 1 0 0 0 0 1zm104-44a1 1 0 1 0 0-1 1 1 0 0 0 0 1zm58 11l1 1v-2l-1 1zM258 224a1 1 0 1 0 0-1 1 1 0 0 0 0 1zm-116 29h1l-1-1v1zm162 0l1 1 1-1h-2zM83 205h1l-1-1v1zm12 72l1 1 1-1h-2zm25-89l1 1 1-1h-2zm368 147h1v-1l-1 1zm-51-46h1v-1l-1 1zm5 70v1l1-1h-1zm25-89v1l1-1-1-1v1zm4-78h1v-1l-1 1zm-261 33h1v-1l-1 1zm-50 27h1l-1-1v1zM19 213l1 1v-1h-1zm19 0a1 1 0 1 0 0-1 1 1 0 0 0 0 1zM194 94l1 1v-1h-1zm97-20v1l1-1-1-1v1zm-50 72l1 1 1-1-1-1-1 1zM37 174a1 1 0 1 0 0-2 1 1 0 0 0 0 2zm324-22l1 1 1-1-1-1-1 1zM5 137a1 1 0 1 0 0-2 1 1 0 0 0 0 2zm10 18a1 1 0 1 0 0-2 1 1 0 0 0 0 2z" fill="#FFE290"/><path opacity=".8" d="M443 8a1 1 0 1 0 0-1 1 1 0 0 0 0 1zm131 171l1 1 1-1h-2zm59 13a1 1 0 1 0 0-1 1 1 0 0 0 0 1zM348 97h1v-1l-1 1zm-115 29h1l-1-1v1zm163 0v1l1-1h-1zM174 78h1l-1-1v1zm13 72v1l1-1h-1zm25-89v1l1-1h-1zm367 147h1v-1l-1 1zm-51-46h1v-1l-1 1zm5 70l1 1v-1h-1zm25-89v1l1-1h-1zm4-78h2l-1-1-1 1zM301 98h1v-1l-1 1zm-50 27a1 1 0 1 0 0-1 1 1 0 0 0 0 1zM110 86l1 1v-1h-1zm-46 25a1 1 0 1 0 0-1 1 1 0 0 0 0 1zm65-25a1 1 0 1 0 0-1 1 1 0 0 0 0 1zm184 98a1 1 0 1 0 0-1 1 1 0 0 0 0 1zm96-21l1 1 1-1h-2zM332 19l1 1 1-1h-2zM128 47a1 1 0 1 0 0-2 1 1 0 0 0 0 2zm325-21a1 1 0 1 0 0-1 1 1 0 0 0 0 1zm-60 184v1l1-1h-1zm-115 30a1 1 0 1 0 0-1 1 1 0 0 0 0 1zm162 0l1 1v-2l-1 1zm-222-49l1 1 1-1h-2zm13 73h1v-1l-1 1zm26-89a1 1 0 1 0 0-1 1 1 0 0 0 0 1zm89 36v1l1-1h-1zm-51 27l1 1 1-1h-2zM466 27h1v-1l-1 1zm48 30a1 1 0 1 0 0-1 1 1 0 0 0 0 1zm-94-29a1 1 0 1 0 0-1 1 1 0 0 0 0 1zm11 87a1 1 0 1 0 0-2 1 1 0 0 0 0 2zm96-21h2l-1-1-1 1zm-16 46v1l1-1h-1zm-115 30a1 1 0 1 0 0-1 1 1 0 0 0 0 1zm163 1a1 1 0 1 0 0-1 1 1 0 0 0 0 1zm-95-29a1 1 0 1 0 0-1 1 1 0 0 0 0 1zm-51 26l1 1 1-1h-2zm-231-18v1l1-1h-1zm48 31a1 1 0 1 0 0-2 1 1 0 0 0 0 2zm-95-30v1l1-1h-1zm11 86l1 1v-2l-1 1zm97-20v1l1-1-1-1v1zm-17 47h1v-1l-1 1zm-46 1a1 1 0 1 0 0-1 1 1 0 0 0 0 1zm49-42v1l1-1h-1zm18 0a1 1 0 1 0 0-1 1 1 0 0 0 0 1zm-92-22a1 1 0 1 0 0-2 1 1 0 0 0 0 2zm18-2h1l-1-1v1zm184 98l1 1 1-1-1-1-1 1zm97-20v1l1-1-1-1v1zM172 159v1l1-1h-1zm326-19a1 1 0 1 0 0-2 1 1 0 0 0 0 2zm-44 136h1l-1-1v1zm-47-18l1 1 1-1h-2zm31-18a1 1 0 1 0 0-1 1 1 0 0 0 0 1zm4-79v1l1-1-1-1v1zm-154 99h2l-1-1-1 1zm105-107v1l1-1h-1zm-83 57v1l1-1-1-1v1zm97-19a1 1 0 1 0 0-2 1 1 0 0 0 0 2zm-16 46a1 1 0 1 0 0-1 1 1 0 0 0 0 1zm46 30h1v-1l-1 1zm-94-29h1v-1l-1 1zm-50 27a1 1 0 1 0 0-1 1 1 0 0 0 0 1zm83-30l1 1 1-1h-2zM227 2l1 1V2h-1zm133 36h1l-1-1v1zM144 59l1 1v-2l-1 1zm97-20v1l1-1-1-1v1zm-17 47h1v-1l-1 1zm48 30a1 1 0 1 0 0-1 1 1 0 0 0 0 1zm-94-29a1 1 0 1 0 0-1 1 1 0 0 0 0 1zm164-71l1 1v-2l-1 1zM227 46a1 1 0 1 0 0-1 1 1 0 0 0 0 1zm68-29l1 1v-2l-1 1zm-50 27v1l1-1h-1zm84-29a1 1 0 1 0 0-1 1 1 0 0 0 0 1zM96 9v1l1-1-1-1v1zM63 166a1 1 0 1 0 0-2 1 1 0 0 0 0 2zm84-122a1 1 0 1 0 0-1 1 1 0 0 0 0 1zm-46 24v1l1-1-1-1v1zm64-25h1v-1l-1 1zM25 5a1 1 0 1 0 0-1 1 1 0 0 0 0 1zm17-2l1 1V3h-1zm90 106l1 1 1-1h-2zm39-16a1 1 0 1 0 0-1 1 1 0 0 0 0 1zM69 118h1l-1-1v1zm18-1a1 1 0 1 0 0-1 1 1 0 0 0 0 1zm-1-39a1 1 0 1 0 0-2 1 1 0 0 0 0 2zm20-50a1 1 0 1 0 0-2 1 1 0 0 0 0 2zM90 85l-1 1v-2l1 1zm108 104a1 1 0 1 0 0-2 1 1 0 0 0 0 2zm133 33a1 1 0 1 0 0-1 1 1 0 0 0 0 1zm-187 0l-1 1v-1h1zm256-56l-1 1v-1h1zm-15 84h-1l1-1v1zm-29-103v1l-1-1h1zm-103 42l-1 1v-1h1zm58 31l-1 1v-1h1zm162-43a1 1 0 1 0 0-1 1 1 0 0 0 0 1zm53 28a1 1 0 1 0 0-1 1 1 0 0 0 0 1zm-74-29a1 1 0 1 0 0-2 1 1 0 0 0 0 2zM272 39l-1 1-1-1 1-1 1 1zM160 16l-1 1-1-1 1-1 1 1zm57 83l-1 1-1-1 1-1 1 1zm237 30l-1 1-1-1 1-1 1 1zM78 106l-1 1-1-1 1-1 1 1zm412-19v1l-1-1 1-1v1zm69-69a1 1 0 1 0 0-2 1 1 0 0 0 0 2zm59 83l-1 1-1-1 1-1 1 1zm-139 7l-1 1-1-1 1-1 1 1zm-61 132l1-1 1 1h-2zm105 44v-1l1 1-1 1v-1zm58-12h1v1l-1-1zM324 151l1-1v1h-1zm-115-30h1l-1 1v-1zm162 0l1-1 1 1h-2zm-221 49v-1l1 1h-1zm12-73h2l-1 1-1-1zm26 90a1 1 0 1 0 0-1 1 1 0 0 0 0 1zM555 40l1-1v1h-1zm-51 45h1v1l-1-1zm5-70h1l-1 1v-1zm25 89h1l-1 1v-1zm4 79l1-1v1h-1zm-261-33l1-1v1h-1zm-50-27a1 1 0 1 0 0-1 1 1 0 0 0 0 1zM86 161l1-1v1h-1zm-46-25h1l-1 1v-1zm65 27a1 1 0 1 0 0-2 1 1 0 0 0 0 2zm157 118a1 1 0 1 0 0-2 1 1 0 0 0 0 2zm96 20a1 1 0 1 0 0-2 1 1 0 0 0 0 2zm-49-72a1 1 0 1 0 0-2 1 1 0 0 0 0 2zm-205-27a1 1 0 1 0 0-1 1 1 0 0 0 0 1zm324 20l1-1 1 1-1 1-1-1zM71 238h2l-1 1-1-1zm-60 61a1 1 0 1 0 0-1 1 1 0 0 0 0 1zm71-78a1 1 0 1 0 0-1 1 1 0 0 0 0 1z" fill="#FFE290"/><path d="M677 327h-779v109h779V327z" fill="url(#paint1_linear)"/><path d="M185 390h-1c-3 2-9 6-27 5-7-1-23-2-27-4v-1c1-3 22-3 26-3s27 1 29 3z" fill="#DB4254"/><path d="M185 390h-1s-19-3-31-2c-11 0-22 3-23 3v-1c1-3 22-3 26-3s27 1 29 3z" fill="#C8384B"/><path d="M677 183l-15 19-3 11v4l-10 15v11l-7 4-3 7-6 3-4 14-2 2-10-19-6 5-7 1-8-3-12 7-16-4-16-3-5 4-19-18-12 5v6l-6 15-16 13-17 6-35 19h-22l-17 15-22 4-11 1h307V183z" fill="url(#paint2_linear)"/><path d="M344 315l-5-14-16-8v-10l-7 3v-21l-6 11v25h-31l-4-8-6-3-6-7h-34l-20-19-14-9-12-18-25-19-8-15-9-9v-6l-11 5-7 55-4-11-8-1-6-16-9-5-10-7v-10l-11 15h-7v4l-10 15v11l-7 4-3 7-6 3-4 14-2 2-10-19-6 5-7 1-8-3-12 7-19-16h-12l-6 13-20-18-11 5v6l-6 15-16 13-17 6-35 19h-22l-17 15-22 4-11 1h580l-15-12z" fill="url(#paint3_linear)"/><path d="M-52 293l5-4v7h5l9 4 18-11h7l4 6H7l10-30h5l5-23 7-1 4-51h3l3 60 4 2v16l10 2 8 18h6v-24l12-24v-6h11v3l7 8 7 34 3 1v7l4 5v5l13 21h4l41 7 22 2h-76l2-13 12-4 4-8 5-3 6-25 4-10 3-5 4-5 7 1v-11l6-8v8h7v-54l5-2v25h1v18l4 2v38l6 3v12l3 1v9l5 2 5 12 26 13 6 4 10-4 8-7 3-1v-8l2-5v-9l6-11 5 9 4-3 7-2v-15l18-14 3 7 4-1 4 10 12 3v13l4 2 2 8 9 3 11 17 5 2v-13l6-5 5-19 7-4 3-14 5-13v35l5 4 3 15 4 1v-87l6-16 7-6v14h3l5 23 13 21v20l6 6 10 12v14h15l6 12h8l15-8 5-16v-16l4-5v-9l4-1 3-9v-31l10-24 5 125H-48l-4-34z" fill="url(#paint4_linear)"/><path opacity=".2" d="M138 302l6 1 3-1-4-3-5 3zm29-58v4l19-3-13-1v-8l-6 8zm13-26h2v3l4-8-4-2-2 7zm10 53l-7 4-1 3h7l7-4-6-3zm6 15h-3l-3 2 9-1-3-1zm3 10l-3 2-11 1h12l7-1-5-2zm10 14l-15 7h-27l33 3 24-2-15-8zm-86 4h28l-17-4-11 4zm37-60l-4 5 11 1 14-3h-13l3-1-4-1-7-1zM-4 295l20 6 18-3-27-3H-4zm21-30l9 5 14-2-11-1 1-1-8-1h-5zm27-15l-4 1-6 1h14l-4-2zm-17-8l4 1 6-1-3-1-7 1zm21 26h-6l6 2h10l-10-2zm18 20l-4 2 12 1 2-2-4-1h-6zm-28-98l-1 8 4-8h-3zm46 44l5 3h6v-3H84zm0 6l1 3-4 13 2-1-7 9h-4l12-24zm25 39l-14 4h14l-2-1 5-2-3-1zm3 8l-6 3 10 2-4-5zm17 31l-50 2h39l-2 2 45 1-28-5h-4zm-82-8h9l-2 2 15 2-37 1 15-5z" fill="#fff"/><path d="M516 293l5-4v7h5l9 4 18-11h6l5 6h11l11-30h4l5-23 7-1 4-51h3l2 60 5 2v16l10 2 8 18h6v-24l12-24v-6h11v3l7 8 7 34 3 1v7l4 5v5l13 21h4l41 7 22 2h-77l3-13 12-4 4-8 5-3 6-25 4-10 3-5 4-5 7 1v-11l6-8v8h7v-54l5-2v25h1v18l4 2v38l6 3v12l3 1v9l5 2 5 12 26 13 6 4 10-4 8-7 3-1v-8l2-5v-9l6-11 5 9 4-3 7-2v-15l18-14 3 7 4-1 4 10 12 3v13l4 2 2 8 9 3 11 17 5 2v-13l6-5 5-19 7-4 3-14 5-13v35l5 4 3 15 4 1v-87l6-16 7-6v14h3l5 23 13 21v20l6 6 10 12v14h15l6 12h8l15-8 5-16v-16l4-5v-9l4-1 3-9v-31l11-24 4 125H520l-4-34z" fill="url(#paint5_linear)"/><path opacity=".2" d="M564 295l20 6 18-3-27-3h-11zm22-30l8 5 14-2-11-1 1-1-8-1h-4zm25-15l-3 1-6 1h14l-5-2zm-16-8l4 1 6-1-3-1-7 1zm21 26h-6l6 2h10l-10-2zm18 20l-4 2 12 1 2-2-4-1h-6zm18-48l1 3-4 13 2-1-7 9h-4l12-24zm45 78l-50 2h39l-2 2 45 1-28-5h-4zm-82-8h9l-2 2 15 2-37 1 15-5zm-462-27l9 3 9-1-18-2zm122 8l14 4 19-5-22-4-7 2-4 3zm11-20h18l-3-2 6-5-3-7-18 14zm29 2l-11 3h23l-12-3zm-45 9l-6 11 8-4-2-7zm-6 20l7 3 8 2h-17l2-5zm32 18l28-1-8 2-20-1zm37-21l-10 2-11 1 23 1-1-1h8l-9-3zm-2-8l-10-1 6-1 4 2zm27 17l12-1-4-1 6-2-8-1-6 5zm72-31l8 13 1 1 7 4-16-18zm-13-41l-12 6h9l-3 2 11 4 8 9-13-21zm-33 52l-5 3 10 1-5-4zm-15-4l10-2-3-2-7 4zm33-79l-6 16 9-8h-2l-1-8zm7 8h-2l6 3-1-3h-3zm-8 82h27l-10 4h-8l-9-4zm-9 12l4 1 17 4-17-2-4-3zm54 2l-14 3 24 2 5-5h-15zm49-28l11 3 5-3-12-5-4 5zm0 16l8 17-4-2-9 1 5-16zm8-31l-4 1 7 1h10l-13-2zm3-40l10-6h-3l3-18-10 24zm-105 44l12-2 6 2h-18zm-142 46l11 3 5-2-13-2-3 1z" fill="#fff"/><path d="M677 312l-34 9-13 4h-50l-17-5-39 1-9 4-19-4-15-4-24 3v5h-61l-11-15-12 2-3 3h-4l-2 2-7 3-9 5h-78l-10-2-42-4-16 2-52 4-19-2H97l-13 2H64l-23 2-6 2 642-2v-15z" fill="url(#paint6_linear)"/><path opacity=".5" d="M462 322l19 1 8-3-8-3-24 3 5 2zm62-1l18 2 17-1 4-2-39 1zm-151-9l8 2 6-1-2-3-12 2zm-7 3l5 3 4-2h2l-7-1h-4zm-148 4l1 5 20 1 4-2h17l-42-4z" fill="#FFB"/><path opacity=".2" d="M244 362l-114 13-88 2 520 4-328 12-62-12h-33l-64 8-22 5 71 3 235 22 212 17h-673l3-83 343 9z" fill="#C28DB9"/><path opacity=".2" d="M46 289l4 2 2-2h-6zm-28 7l11 9-2-5-9-4z" fill="#fff"/><path d="M194 349c-17-12-151-56-151-56l-14-22-4 1-6-18h-8l-31-78-8-4-6-23-21-19c-19-10-46-19-47-19v268s73-12 94-14l51-1c107-2 327-2 327-2l-176-13zm-204-95l-39 6-6-8 25-21 3-28 4 2 17 22v13l-4 14z" fill="url(#paint7_linear)"/><path d="M59 301l8-8 31 9 8 12 2 5s-35-2-39-4c-4-3-10-14-10-14z" fill="url(#paint8_linear)"/><path d="M111 365l11-52s15-3 24-3c9 1 17 12 18 14v28h3l2 11-25 4c-5 1-33-2-33-2z" fill="url(#paint9_linear)"/><path opacity=".5" d="M-10 254h4l11 3-57 8h-30l19-5h14l39-6zm29 0l-10 3 2-3h8zm6 18l-11 4-16 3h9l-14 6-21 3 33-3 24-14-4 1zm18 21l7 7 9 3 2-4-18-6zm24 0l2 7s9 8 28 8l1-6-31-9zm55 20s2 4 6 7c3 3 23 7 27 7 5 0 9-3 9-3s-6-10-15-13-27 2-27 2zM5 322l13-3 28 1-8 2 26 3 31 7-60 2 3-2-17-5-33-5h-27l27-2 17 2zm189 27l-13 4 99 3-86-7z" fill="#F1F1A8"/><path d="M126 314s14-4 22-1c8 2 13 10 13 11 0 0-10 2-16 0l-16-5-3-5z" fill="url(#paint10_linear)"/><path d="M71 295l1 5 10 5h12v-2c0-2-23-8-23-8z" fill="url(#paint11_linear)"/><path d="M40 281l-3-38s0-3-5-3c-4 0-7 5-7 5v27l-2 18s17 10 27 10l-3-9-7-10z" fill="url(#paint12_linear)"/><path opacity=".5" d="M25 245s2 2 6 2c4-1 6-4 6-4s-1-3-6-2c-4 0-6 4-6 4z" fill="#F1F1A8"/><path d="M26 245l4-3c3-1 6 1 6 1s-1 3-5 3l-5-1z" fill="url(#paint13_linear)"/><path d="M130 319l13 1c4 0 15 5 15 5h-12l-16-6zm-58-19l11 1 9 4h-9c-3 0-8-2-11-5z" fill="#01BEEE"/><path opacity=".2" d="M43 364l-51 1c-21 2-94 14-94 14V205l7 6 13 5 10 7-9 46-1-32-5 20-5 8 2 10-5 20 56 27h27l14 30 3-27 16 2 17 5-4 2 1 13 5 5 3 12zM9 257l-15-3h-4l4-14v-13l-17-22-4-2-3 28-13-41 19 12 16 17 7 5-2 18 12 15z" fill="#690058"/><path opacity=".2" d="M5 285v37l-17-2-13-32 30-3zm20-12l-7 4 5 13 7-20-2-24-3-1v28zm42 20l-6 6-2 4 5 9 5-12-2-7z" fill="#690058"/><path opacity=".3" d="M122 313l-11 52 19 2 3-20-3-2v-11l-2-14-6-7z" fill="#690058"/><path opacity=".2" d="M158 365l11-7 3 4 48-4 24 4-75 1-11 2zm-91-34l8 2 5 3-2-3-11-2zm76 15l6 6h-3l-3-6z" fill="#690058"/><path d="M143 346l1 6h5l-4-1-2-5zm-76-15l5 2 8 3-5-3-8-2z" fill="#D45B51"/><path d="M0 285l5 3 1-4-6 1zm35 49v13l2-9-1-4h-1z" fill="#D86C62"/><path d="M150 326l5 3 4-3-4 1-5-1zm-54-18l2 2-1-2h-1z" fill="#DF8B83"/><path opacity=".5" d="M40 281l-2 5 4 2 5 3-7-10z" fill="#F1F1A8"/><path opacity=".2" d="M37 257l-1 5v3l1-8z" fill="#690058"/><path d="M36 265l2-4-1-4-1 8z" fill="#D45B51"/><path d="M-102 296l7-1 52 11 26 1 22 2 20-10 25 1H25L5 310l-22-2-26-2-52-10-8 1v-1h1z" fill="#A6214F"/><path opacity=".1" d="M122 362v-3l-1-13 1 7 1 2-1 1 1 2 1-2 1-18 1-6v6l-1 1v1l1 4-1 3v12l1 1v1l1 4v1h-4l-1-1v-3zm-7 1v-9l1-1h1v5l-1 1v6h-1v-2zm3-20v-1l1-1c2-3 1-8 3-11l-2 13h-1v6l-2 2 1-4v-4zm4-14v-2 2zm10 13v2l1-1v-1l-1-2v2zm3 16h1v5l1-1 1 5h7v-4h-1v3l-4-1-2-2v-2l-1-2-2-3 1-4-1-2v8z" fill="#690058"/><path opacity=".5" d="M155 366v-19l1-3-1-15 4-3 5-2v28l-3 2-6 12z" fill="#F1F1A8"/><path d="M154 350c1-1 2-3 1-4l-1 2v2zm-106-1l1 2-1-2h-1 1z" fill="#DF8B83"/><path d="M75 333l6-1-1 1 4 11 2 5 5 3-6-2-1-2-3-8-1-4-5-3z" fill="#A6214F"/><path opacity=".2" d="M95 332l2 21h-3l-3-1-5-3-6-16 1-1h14z" fill="#F1F1A8"/><g opacity=".5" fill="#F1F1A8"><path opacity=".5" d="M18 318l-2 3v1h3l1-2v-1h-2 1l-1-1zm5 1v1h2v-2l-2 1zm-1 5v1h1l-1-1zm-14-7v1h1l-1-1zm11 10h-1 1zm1 1c1 0 1 0 0 0 0-1 0 0 0 0zm6 10h1l-1-1h1c-1-1-1 0-1 1zm-12-6h-1 1zm-2-5zm-1-5v-1 1zm11-8v1h1v-1h-1zm-3-7h1l1-1v-1h-1l-1-1h-1l1 3zm1 17v-1l1 1h-1s0 1 0 0h1-1zm4-1h1-1zm-1 3h1l-1-1v1zm0 1c-1 0-1 0 0 0zm11 5zm-13-6v1l1-1h-1zm-12 4zm8-5v1h1v-1h-1zm-3-4v-1h1l-1 1zm1-5h-1 1zm-4 7zm2-1zm6-6h1v-1c1 0 1 0 0 0 0-1 0 0 0 0l-2 1h1zm-4 1h1v1h-1v-1zm10 8zm2 1h1-1c0 1 0 1 0 0zm-1 1v1h1v-1h-1zm4 3c0 1 0 1 0 0zm-10-4h-1v-1h1l1 1h-1zM8 337H7v-1h1v1zm9-9l1 1v-1h-1zm-6 4h-1l1 1h1v-1h-1zm-6-10H4v1h1v-1z"/><path opacity=".5" d="M11 318c-1-2-3 0-2 1 0 2 3 0 2-1zm11 3l1 1h-1v-1zm7 0v1h2v-1l-1-1-1 2v-1zm0 4h3v-1h-1l-2 1h1-1zm0 2zm-9 6h-1 1s1 0 0 0zm2-5zm-7 0zm-8 1zm0-4v1l1-1H7zm17-8zM0 303zm10 10v-1h1v1h-1zm23-8v-1l1 1h-1z"/></g><path opacity=".5" d="M4 264v2l2-1v-1H4zm-1 6h1-1zm-2 4v-1c1 0 1 0 0 0v1zm1-5H1h1zm3-1h1-1zm-1 3zm0 1c-1 0-1 0 0 0zm11 5zm-13-5c0-1 0 0 0 0h1-1zm4-2zm2 1h1l-1 1v-1zm-1 2zm4 2zm-10-4H0l1-1 1 1H1zm2-5l1 1H3v-1zm7 4h3l-1-1-2 1zm0 2s0 1 0 0zm21-2l-1 2h2v-2h-1zm0 5h1v-1l-1 1zm10 8h1v1h-1v-1h1-1zm-9-6zm2 1h1-1zm0 1zm3 3h1-1zm0-6h2-2zm-1 2h1v1h-1v-1zm105 65l-1 1h2v-2l-1 1zm0 4zm10 9h1-1 1-1zm-9-7zm2 1h1v1h-1v-1zm0 2c0-1 0-1 0 0zm3 2zm0-5c-1 0-1 0 0 0h2l-1-1-1 1zm-1 2zM1 278H0h1s1 0 0 0zm2-5zm87 52l-2 2v2l2-1 1-2v-1h-1zm11-7l-1 2h2v-2l-1 1v-1zm-2 6v1h1l-1-1zm-3 2s0 1 0 0zm1 2v1h1v-2c-1-1-1 1-1 1zm-17-8h1v-1l1-1-1-1h-1v3zm18 3v1h-1l1-1zm3 0zm-1 2v1h1v-1h-1v1-1zm0 1zm11 6h1-1zm-12-6h-1 1zm3-1zm2 1h1-1zm0 1c0 1 0 1 0 0zm3 3h1-1zm-10-4c1 0 0 0 0 0v-1l1 1h-1zm2-5h1l-1 1v-1zm8 3v1h1l1-1h-2v1-1zm-1 3zm-9 6zm2-5c1 0 1 0 0 0z" fill="#F1F1A8"/><path d="M10 392h4l8 3 13 2 15-2 74 2-149 6-66-4 2-2-13-2 18-11 8 3 86 5z" fill="url(#paint14_linear)"/><path d="M-28 396v-30s21-3 32 10l2 9h2l3 12s-25 3-28 2c-4 0-11-3-11-3z" fill="url(#paint15_linear)"/><path d="M2 378l-2 1c-2 1-7 2-11 1s-8-4-12-7c-3-3-5-5-3-5 19-2 28 9 28 10z" fill="#680B23"/><path opacity=".5" d="M8 386l-8 4h-9l9-2 6-3 2 1z" fill="#DFDFA1"/><path d="M2 391l-8 2h6l2-2z" fill="#65152E"/><path d="M-6 393h6l2-2-2 2h-6z" fill="#C64F59"/><path opacity=".6" d="M-7 400a25 25 0 1 0 0-50 25 25 0 0 0 0 50z" fill="url(#paint16_radial)"/><path d="M318 384l45 3 36-2-18-2 21-2h110l-42-4-9-9-15-4-7-1-12-2 5-53-1-4v-36l-18-18-6 17-11 10-11 46s-17 5-26 16v24l-5 5-3 10-6 1-27 5z" fill="url(#paint17_linear)"/><path opacity=".3" d="M359 339l5 7v7l6 3v23l-10-5-1-11v-24zm-8 39l8 6h-36l28-6zm34-55l12 6 4 36 3-55v-27l-8-6-11 46zm22-56l4 1-2 32 6-33-5-7-3 7z" fill="#570048"/><path opacity=".5" d="M364 346s5 1 15-2 18-15 18-15l-12-5s-13 2-26 15l5 7zm-10 22l3 5 3 1-1-11-5 5zm50-85l3-3v-2l4-10-4-1-11 10 8 6zm6-23l5 7 8 1 1-1h1l6 1-18-18-3 10zm21 45l-4 5-13 2-4 4 5-2h13v4l4-10-1-3zm-4 56l-21 8 19 1v2h38l-2-4-34-7z" fill="#DFDFA1"/><path opacity=".3" d="M406 369v7h1v5h16l2-9v-2l-19-1z" fill="#570048"/><path d="M393 329s-3 8-9 12c-7 4-19 3-19 3s-3-2-3-5 17-12 21-12c3-1 10 2 10 2z" fill="#680B23"/><path d="M366 344s4-5 11-9c7-3 14-2 14-2s-1 4-7 8c-6 3-18 3-18 3z" fill="#01AFDC"/><path opacity=".2" d="M370 356l18-4 11-3 2 16-22 9-8-5-1-13zm53-88l-2 18-6 8-5 5 5-32 8 1z" fill="#DFDFA1"/><path d="M431 294l-4 2-8 15-4 3-6 15h-2l-5 17 5-16 3-1 6-15 5-3 7-14 3-1v-2z" fill="#65152E"/><path d="M416 314l-5 16h-4l3-1 6-15zm12-17h1l2-1-3 1z" fill="#C64F59"/><path d="M427 314l2-1-1 5-1-4zm-25-32l2 3 1-3h-3zm-39 62l1 4 1-2-2-2zm61 26l1 3 2-1-2-2h-1z" fill="#C6685F"/><path d="M392 349l-2 6 2-3v-3z" fill="#65152E"/><path d="M392 349v3l-2 3 3-3-1-3z" fill="#C64F59"/><path d="M406 316l-5-3 3 3h2z" fill="#65152E"/><path d="M406 316h-2l-3-3 2 3h3z" fill="#C64F59"/><path d="M538 382l-11-1-33-1v-1c2-4 9-15 11-16h1l24 9 8 10z" fill="url(#paint18_linear)"/><path d="M279 385l-16 1-17 1h-4l-13-2 13-9 2-1 16 1 2 3 1 5 16 1z" fill="url(#paint19_linear)"/><path opacity=".3" d="M246 387h-4l-13-2 13-9 2-1-1 5 1 1v3l2 3zm281-6h-33v-2c2-4 9-15 11-16h1l-4 9 8 2 1 3 16 4z" fill="#570048"/><path opacity=".5" d="M530 372s-2 2-9 2l-19-2 4-9 24 9zm-268 7l-19 1 1-5 16 1 2 3z" fill="#DFDFA1"/><path d="M459 403l-1 1c-3 2-20 7-27 8s-23-4-27-8v-2c1-4 22-5 26-5 4 1 27 3 29 5v1z" fill="#CF3A54"/><path d="M459 403l-1 1s-19-5-30-4-23 4-24 5v-2c1-5 22-6 26-6 4 1 27 3 29 6z" fill="#BB2F4B"/><path d="M497 352l-1 1-15 4c-5 1-14-2-17-4l-1-1c3-2 36-3 34 0z" fill="#DB4254"/><path d="M497 352l-1 1-3-2h-19l-10 2-1-1c3-2 36-3 34 0z" fill="#C8384B"/><path d="M351 330l-1 1-14 2-18-2-1-1h34z" fill="#DB4254"/><path d="M351 330l-1 1-3-1h-19l-10 1v-1h33z" fill="#C8384B"/><path d="M515 352l-4 1-5-1v-1l9 1c1 0 0 0 0 0z" fill="#DB4254"/><path d="M515 352h-9v-1l9 1c1 0 0 0 0 0z" fill="#C8384B"/><path d="M539 331h-8l-1-1h10l-1 1z" fill="#DB4254"/><path d="M539 331l-2-1-6 1-1-1h10l-1 1z" fill="#C8384B"/><path d="M226 328l-4 1-4-1-1-1 10 1h-1z" fill="#DB4254"/><path d="M226 328h-8l-1-1 10 1h-1z" fill="#C8384B"/><path d="M279 331l-4 1-4-1-1-1h10l-1 1z" fill="#DB4254"/><path d="M279 331h-8l-1-1h10l-1 1z" fill="#C8384B"/><path d="M398 402l-12 2-13-2c-2-1-3-2-1-3 3-2 24-2 27 1 1 1 0 1-1 2z" fill="#CF3A54"/><path d="M398 402l-7-1c-8-1-18 1-18 1-2-1-3-2-1-3 4-2 24-2 27 1 1 1 0 1-1 2z" fill="#BB2F4B"/><path d="M306 351l-4 2-4-2v-1h9l-1 1z" fill="#DB4254"/><path d="M306 351h-8v-1h9l-1 1z" fill="#C8384B"/><path d="M-102 436v-8l33 1 87-8 17-7 21-2 19 6 20 6h16l61-4 9-8 16-6 19 2 16 14 17-2 16-25s13-7 42-13l3 4 3 12 10 4 32 7 37 5 7 8 21 5h16l36-17 31-6 13-8 2-3 22-1 10-10 16-18 13-110 2-2 15-106 7-5 10-30 3-4 2-44 4-3 2-13 4-11 3-9V12l7-12v-9h39v445h-779z" fill="url(#paint20_linear)"/><path opacity=".5" d="M236 421l16-1 16-25s13-6 39-13v-1c-29 7-42 14-42 14l-16 25-14 1h1zm-61-1l9-8 16-6-3-1-16 7-9 8-61 4h3l61-4zm-241 9l88-8 16-7 19-2h-1l-21 2-17 7-86 8h2z" fill="#E9E9A8"/><path opacity=".5" d="M664-9l4 105-4 4-5 41-2 8v105l-17 117-12 12-11 6-10 14 43 15h-43l-50-9-7 3-25-3 50 9 22 5-34 7-53 3-24-5-13-5 24 10 18 3h162V-9h-13z" fill="#610051"/><path opacity=".5" d="M618 63l17 6-4 2 29 3-28-11-10-3-4 3zm13-36l13 5 12 9-11 4-21 2 7-20zm0-15l13-7-6-5-7 12zm-18 99l11 3 14 3 15-3h-17l-20-7-3 4zm-10 30l5 6 27 6h11l-18 2-22-4-10-5 7-5zm-63 250l28-10 3-12v-4l1-44-6 43-26 27zm-22 2l22 9 17 7-19-12 2-6-22 2z" fill="#E9E9A8"/><path opacity=".2" d="M503 404l22 5 70 13-32 8-53 3-37-10-1-13 31-6z" fill="#E9E9A8"/><path opacity=".5" d="M265 395s10 6 26 7 19-16 19-16l-3-5s-28 8-42 14zm-84 17s5 8 16 10c12 2 30-5 30-5l-11-9-19-3-16 7zm51 9l19 4h24l-18-2-8-3-17 1zm91-19l18 10 29 4-8-2h30l-69-12zm76 19l-4 2 9 2 32 8 16-6-16-1-13 1-24-6zm-304 3l-6 3 22-2-3 2 27 3 1-3 20-3 16-4-55 3-22 1zm-60-10l6 4h20l-3-2-2-4-21 2zm-17 7l-38 11v-2l-25 2-7-2-17-1 87-8z" fill="#E9E9A8"/><path opacity=".5" d="M284 401l-2 17 2 2v16l-9-10-18-2-8-4 16-25s13 6 19 6zm29-4l4 12 24 24v-21l-28-15zm123 36l-2 3h-42l3-13 41 10zm-245-13l-6 16h-18l5-16 9-8 10 8zm60 5l-2 11-17-15 19 4zm-210-7l-8 11h-4l-12 7 1-15 17-7 6 4zm572-91s0 20-14 34v14l2 3-2 26 25-38-2-4-9-35z" fill="#610051"/><path opacity=".5" d="M613 327s-7-11-24-8c0 0-9 19-9 34 0 0 1 8 19 8 0 0 12-7 14-34z" fill="#E9E9A8"/><path opacity=".2" d="M601 378l-26 3-7 11 10 3-3 5 24 4 2-26z" fill="#E9E9A8"/><path d="M610 336c-2 7-6 18-11 20-5 3-10 1-13-1l-2-2v-2c-3-11 4-30 7-30l6 2c5 1 12 5 13 9v4z" fill="#520026"/><path d="M610 336c-2 7-6 18-11 20-5 3-10 1-13-1l-2-2v-2c9-7 21-13 26-15z" fill="#01B7E6"/><path d="M306 389c-1 4-4 9-9 11s-17 0-22-3l-3-2c1-5 32-13 34-11v5zm-85 27l-5 3-14 1c-5 0-19-6-15-8l3-2c14-6 32 4 31 6z" fill="#520026"/><path d="M306 389c-1 4-4 9-9 11s-17 0-22-3c0 0 19-11 31-8zm-90 30l-14 1c-5 0-19-6-15-8l3-2c4 0 10 0 16 2s9 4 10 7z" fill="#01B7E6"/><path d="M616 107l14 5 8 5-8 21h3l-6 13 3-11-2-2 6-21-6-5-12-5zm-35 145l10 3 2 13 4 2 5 32-7-31-4-2-3-12-9-3 2-2z" fill="#611638"/><path opacity=".2" d="M588 257l-1 14h2l-4 36-2-11-9-1 5-41 9 3zm41 19l22 22-11 73-11-18 1-22-7-2 6-53zm-33-130l-5 37 8-2 5-9 3-2 21-15-22-4-10-5zm3 45l2 59 13 33-1-66-14-26z" fill="#E9E9A8"/><path opacity=".5" d="M613 217l1 66 4 1 2 36 1 24 3-23 5-45 5-3 12-69s-8 7-16 11c-10 4-17 2-17 2z" fill="#610051"/><path opacity=".5" d="M613 217c-7-1-16-23-14-26 1-3 47 7 49 10s-20 20-35 16z" fill="#E9E9A8"/><path d="M643 202l-7 7c-6 4-14 8-21 5-7-2-10-8-11-13v-7c9-2 39 5 39 8z" fill="#520026"/><path d="M636 209c-6 4-14 8-21 5-7-2-10-8-11-13 8 0 22 1 32 8z" fill="#01B7E6"/><path d="M591 269l2 2h3l-5-2zm37-157l1 3 5 2-6-5z" fill="#D0535E"/><path opacity=".5" d="M645 45v15l11-19-11 4zm-14 26l18 44 7-42-25-2z" fill="#610051"/><path d="M631 71l3 7v-7h-3zm13-26l1 4 2-5-3 1z" fill="#D0535E"/><g opacity=".2" fill="#690058"><path opacity=".2" d="M640 297l-4-1h-1l-1 1c0 1 0 3 2 3h3l1-1v-2zm2 7h-2l1 2h2c1-1 0-2-1-2zm-8 1h-1v1h1v-1zm3-23l-2 1 1 1v-2h1zm-1-16l-1 1v2h1v-3zm-7 36h-1 1zm-1 2h-1v1h2c1-1-1-1-1-1zm-9 13l-1 1h3c1-1-1-1-2-1zm1-19h-1l1 1v-1zm6-5v1h-1l1-1zm5-4h1v1l-1-1h1-1zm17 11l-2 1 1 1 1-1-1-1h1zm-14 3l1-1-1 1h-1v-1h1v1zm3 4s-1 0 0 0zm-4 0h-1 1v1h1v-1h-1zm-2 0zm0 17v1h-1l1-1v1-1zm0-19zm-11-14zm11 8h-1v1h1v-1zm4-6l1-1v1a208 208 0 0 0-1 0zm7-2h-1v1h1v-1zm-12-1h-1l1 1v-1zm3 1v1h-1v-1h1zm11 6v1h2l-1-1-2-3c-1 1 0 2 1 3zm-4-5v1h-1l1-1zm-6 17h1v1h-1v-1zm1 3v1h-1v-1l1 1v-1zm-3 0v1h1l-1-1zm-1 6h-1 1zm0-15v-1l1 1v1h-1v-1zm-21-11l1-1 1 1-1 1-1-1zm17 9h-1 1zm-8-6l-1-2-1 1v1l1 1 1-2v1zm9-14l-1-1v2h1l1-1h-1z"/><path opacity=".2" d="M637 287c1-3-2-4-3-2-2 2 2 4 3 2zm1 16h1-1zm4 9h-1l1 2v1c1 1 1 0 1-1v-1l-2-1v1l1-1zm-4 2l-1 1h1a21 21 0 0 0 1 3v-1l-1-3v1-1zm-3 1v1h-1v-1h1zm-13-8l-1-1 1 1zm7-1zm-3-9l-1 1h1v-1zm-6-9zm5-2zm19 17zm-1-19l1-1v1l-1 1v-1z"/></g><path d="M564 400v-3h-1l-2 1 1 2 1 1 1-1h-1 1zm-4 3v-2l-1 1v1l1-1v1zm-1-5l-1-1v1h1zm13-1l-1-1h-1 1l1 1zm8-3v-1l-1 1h1zm-20 1l-1-1v1h1zm-2-1h-1l1 1v-1zm-8-3h-1v1h1v-1zm11-2h-1l1 1v-1zm3 3h-1 1zm3 3s0-1 0 0zm-4 10v-1l-1 1h1zm6 3v1h-1v1h2l-1-2zm-9-10l-1-1h1v1zm-2 2c-1 0-1 0 0 0zm-1-2v-1 1zm0-1v-1 1zm-10 2v-1 1zm11-3zm6-7v-1 1zm-3 7v-1 1zm4 1l1 1h-1v-1zm2 4v-1 1zm-1-7v-1 1zm0 1v1l-1-1h1zm-2 7v2l1-1v-1h-1zm2-2v-1 1zm-10-1zm-2 0zm0-1zm-3 0h-1 1zm8-2h1l-1 1v-1zm3-13h1v1h-1v-1zm-2 11v-1h-1 1v1zm2-6h1v-1h-1l-1 1h2-1zm9 4v-1h-1 1v1z" fill="#E9E9A8"/><path d="M569 397c2 1 2-1 1-2-2-1-2 2-1 2zm-9 3h-1 1zm-5 3l-1 1h1v-1zm-1-2h-1l-1 1h1l1-1h-1 1zm-1-1h-1l1-1v1zm3-8v-1l-1 1h1zm1 4v-1 1zm5-3v-1h-1v1h1zm4-5zm2 3s0-1 0 0c-1 0 0 0 0 0zm-7 13v-1 1c-1 0 0 0 0 0zm22-2zm-11-2v1l-1-1h1zm-12 16l1 1h-1v-1h1-1zm-91 10v-3l-2 1 1 2 1 1v-1zm-118 1v-1h-1v1h1zm126-4v-1h-1 1v1zm9-3v-1h-1v1c-1 0 0 0 0 0h1zm-134 4v-1 1zm-1-1h-1v1l1-1zm-9-3h-1 1zm11-2h1-1zm117 0h-1 1zm3 3h-1 1s0-1 0 0zm-121 6h1l-1-1h1l-1 1zm-2-1h-1v1h1v-1zm0-1v1l-1-1h1v1-1zm-10 2h-1 1zm11-2h-1 1zm119-10v-1 1zm-116 9h-1 1zm117-1zm2 4v-1 1zm-1-7v-1 1zm0 2h-1v-1l1 1zm0 4h-1l1-1v1zm-125 1h-1 1zm-4-1zm9-1h-1 1zm104-1zm-104-2zm3-5l1-1h-2v1h1zm122 1v-1h-1l1 1z" fill="#E9E9A8"/><path d="M475 423c1 1 2-1 0-2-1-1-2 2 0 2zm-126-3h-1 1zm1 4h-1 1zm4-3zm118-7zm2 3h-1 1zm3 9l1 1h-1v-1z" fill="#E9E9A8"/><g opacity=".5" fill="#E9E9A8"><path opacity=".5" d="M601 287l-5-2-1 1v1c-1 1 0 2 1 3h4l1-2-1-1h1zm2 6h-3l2 3 2-1-1-2zm-8 1h-1 1zm39-159l-2 1 1 1v-2h1zm-1-16l-1 1h-1l1 2h1v-3zm-7 36h-1 1zm-2 2v2l1-1h1c1-1-1-1-2-1zm-8 13h-1v1h2c1-1-1-1-1-1zm1-19h-1l1 1v-2 1zm6-5v1h-1l1-1zm5-4h1v1l-1-1zm-20 148h-1v1h1l1-1h-1zm-13 2v1h-1v-2 1h1zm3 4l-1 1h1v-1zm-4 0h-1v1h1v-1zm-2 0v1l-1-1h1v1-1zm36-119v1h-1v-1l1 1v-1zm-36 118l-1-1v1h1v-1 1zm25-151zm-26 145s0-1 0 0zm41-143l1-1v1a139 139 0 0 0-1 0zm7-2h-1v1h1v-1zm-12-1h-1l1 1v-1zm2 1l1 1h-1v-1zm20 39l1 1v1h1v-2c-1 0-2-3-3-2l1 2zm-12-38v1h-1l1-1zm-42 153zm0 4l1 1h-1v-1zm-2 0zm34-131v1l1-1h-1zm-36 122l1-1v-1 1h1l-1 1h-1zm16-148c0 1 0 0 0 0v-1h1v2l-1-1zm17 9h-1l1 1v-1zm-8-6l-1-2-1 1v1l1 1v-2l1 1zm9-14l-1-1v2l2-1h-1z"/><path opacity=".5" d="M634 140c1-3-2-4-4-2-1 2 3 4 4 2zm1-32c1-3-2-4-4-2-2 1 2 4 4 2zm12 10c1-2-2-4-3-2-2 2 2 5 3 2zm-48 175v1l-1-1 1-1v1zm3 9v1l1 1v1l1-1v-2h-2zm-4 2v1a21 21 0 0 0 1 2h1l-1-1-1-2zm-3 1zm24-145l-1-1 1 1zm7 0v-1 1zm-3-10h-1v1h1v-1zm-6-9zm5-2zm-36 253h-2l1 2v-2h1zm0-16h-2v1l1 1c0 1 0 1 0 0v-2h1zm-7 35h-2l1 1v-1h1zm-2 3h-1v1l1-1 1 1v-1h-1zm-9 13l-1 1 2-1h-1zm1-20l-1 1h1v-1zm6-4v1l-1-1h1zm6-5v1l-1-1h1zm-12 3v-1 1s1 0 0 0zm15 1h1c1 0 0 0 0 0a208 208 0 0 1-1 0zm7-2h-1v1h1v-1zm-12-1h-1v1h1v-1zm3 2l-1 1v-1h1zm7 1v1l-1-1h1zm-30 0h1v-1l1 1h-1v1l-1-1zm17 8zm-8-6l-1-1h-1v2l1 1v-1l1-1zm9-13v-1h-1v2h1l1-1h-1z"/><path opacity=".5" d="M586 396c2-2-2-4-3-2-2 2 2 5 3 2zm-15 20l-1-1 1 2v-1zm7 0h1-1zm-3-9s0-1 0 0h-1l1 1v-1zm-6-10l1 1h-1v-1zm5-1zm-266 24v-2 1h-1 1v1zm-2-3l-1-1v3c1 1 1-1 1-2zm-11-10v-1h-1v2c1 1 0-1 1-1zm18 4v-1 1h1-1zm4 7h-1l1-1v1zm3 6v1l-1-1h1zm0-12zm-4 15zm4-5v-1h-1v1h1zm-2 2l-1 1v-1h1zm-27-6zm29-16v1h1v1l-1-1v-1zm-11 15c1 0 1 0 0 0zm8-7h1v-1l-1-1h-1v2h1zm12 12v-1s1 0 0 0v-1l-1 1v1h1zm-8 8c3 1 5-1 3-3s-5 1-3 3zm-17-18l1-1h-1v1c0-1 0 0 0 0zm-1 7v-1 1zm10-2v-1h-1v1h1zm10-5zm1 6c-1 0 0 0 0 0zm53-1v2h3v-1l-2-1h-1zm-15-4v2h2l1-1-3-1zm20 11v-1l1 1h-1zm-30-2v-1l1 1h-1zm35 0v-2l1 1-1 1zm0-7v1h1v-1h-1zm-4 11l-1 1h1v-1zm-24-2h-1 1c0-1 0-1 0 0zm26 0l1-1v1h-1zm3-7l1 1h-1v-1zm-14 8l-1 1h2l-1-1z"/><path opacity=".5" d="M382 418c-2-2-4 1-3 3s5-1 3-3zm-36 9c-2-2-4 0-3 2 2 3 5-1 3-2zM9 419l-1-1v3c1 1 1-1 1-2zm19 4h-1l1 1v-1zm6 2l1-1h-1v1zm1-10h1l-1 1-1-1h1zm-4 7h2v-1h-2l-1 1h2-1zm-12 2l1-1-2 1h1zm19 1h-1 1zm125-4v2l2-1-2-1zm5 7v-1h1v1h-1zm5-3v-1 1s0 1 0 0zm-2 2zm3-6h-1 1s0 1 0 0zm431-128zm42-175zm-7 19l1-1v1l-1 1-1-1h1z"/></g><path d="M623 202h-2v1l1 1h1l1-1-1-1v1-1zm6-13h-3l1 2 1-1h1l-1-1h1zm-4 16l-1 1 1 1 1-1-1-1zm-4 1c0 1 0 1 0 0zm-1-11v1h-1l1 1v-2c0 1 0 1 0 0zm-1-7h-1v1h1v-1zm0 18h-1 1zm-1 1v1l1-1h-1zm-8-9zm4 7h-1 1v-1 1zm2-3s1 0 0 0zm2-3h1v1l-1-1zm30-1v1-1zm-18 0h1v1h1v-2l-2 1zm-7-20v1h1v-2c-1 0-2 0-1 1zm-2 28v-1 1c0-1 0 0 0 0zm2 1zm-2 1zm-1 0zm2 8v1h-1l1-1v1-1zm-2-9zm-7-6s0 1 0 0zm6 3zm2-3v-1 1zm3-2h-1v1h1v-1zm-6 1h-1 1zm1 0zm14-7l1 1h1l-1-1-1-1v1zm-10 7zm-1 8zm0 2v1h1-1v-1zm-1 0zm0 3zm-1-7v-1a105 105 0 0 0 0 1zm-12-3v-1h1a105 105 0 0 0 0 1h-1zm9 2zm-4-2h-1v1h1v-1zm3-7h-1 1z" fill="#02FFFC"/><path d="M621 198c0-2-1-2-2-1s2 2 2 1zm2 7zm7-1v1h1l-1-1c0-1 0-1 0 0zm-3 2v1h1l-1-1v1-1zm-4 6h-1 1zm-12-24l-1-1v1h1zm8 20zm-2-4h-1 1zm-4-4zm18-18zm-5 23zm-1-19zm-2 9h1v1l-1-1h1-1zm14 10h1l-1 1v-1zM289 394h-3v1l1 1h2v-2zm5-14h-2l-1 1 1 1h2l1-1h-1v-1zm-3 17h-1l1 1h1l-1-1zm-4 1h-1l1 1v-1zm-1-11h-1v1h1v-1zm-2-7h-1l1 1v-1zm0 17zm0 2zm-8-10v1l1-1h-1zm3 7v1h1v-1h-1zm3-3zm2-2zm30-2v1c-1 0 0 0 0 0v-1zm-18 1h2v-1h-1l-1 1zm-8-20h2v-1c-1-1-2 0-2 1zm-1 27h-1 1zm2 2c-1 0-1 0 0 0zm-2 0h-1l1 1v-1zm-1 1zm1 8zm-1-9h-1 1zm-7-6zm6 3h-1 1c0 1 0 0 0 0zm1-4h1l-1 1v-1zm3-1zm-6 0v1h1l-1-1zm2 1zm14-7h1l-1-1v1zm-11 7c1 0 1 0 0 0zm0 8zm0 2zm-1 0zm0 3zm-2-7v-1h1v1h-1zm-11-3v-1h1a105 105 0 0 0 0 1h-1zm9 2s0 1 0 0zm-4-2l-1-1v1s0 1 0 0v-1l1 1zm3-8h-1v1h1v-1zm5 2h-2c-1 1 1 2 2 0zm2 8zm7-2h-1l1 1v1l1-1-1-1h-1v1l1-1zm-3 3v1h1l-1-1zm-5 5zm-12-23v-1 1zm9 20zm-3-5zm-4-4l1 1h-1v-1zm19-17zm-5 22zm-1-18zm-2 9h1l-1 1v-1zm14 10h1l-1 1v-1zm-105 6l1-2v-1h-2v2h1v1zm10 11l1-3h-2l-1 2h1l1 1zm-13-11v-2l-1 1v1h1zm0-4v-1 1zm11 4v-1h-1l1 1zm7 2v-1h-1l1 1zm-16-8v-1 1zm-1-1v-1 1c0 1 0 0 0 0zm13-3h-1v-1 2l1-1zm-9 0h1-1zm2 3h-1 1zm1 4zm-13 27v-1 1h1-1zm9-16h-1l-1 1h2v-1zm21 2h-1v1l1 1v-2zm-24-14h1-1zm-2 1h-1 1zm1-2h-1 1zm0-1h-1 1zm-9-3s1 0 0 0zm9 3zm9-3s-1 0 0 0c0 0-1 0 0 0zm-6 4h1-1zm3 3s-1 0 0 0zm0 3h-1 1zm2-5v-1 1zm-1 1c0-1 0 0 0 0zm-1 16h2-2zm-1-13zm-7-5zm-1 0h-1 1-1 1zm0-1zm-3-2zm7 2h1v1h-1v-1zm8-8h1v1h-1v-1zm-6 7v-1 1zm4-3h1v-1h-1v1zm5 6h1v-1h-1v1zm-4 4c1 1 2-1 2-2-1-1-3 1-2 2zm-8-2h1-1zm-1 7v-1h-1l-1 1h2v-1 1zm-2-4c1 0 0 0 0 0h-1 1zm-2-7zm27 1c0-1 0 0 0 0zm-22-2zm5 0v-1 1zm5-2s0 1 0 0zm7 25c1 0 0 0 0 0zm-17-15h-1 1zm17 8zm-8-6v1l-1-1h1zm-15 7v1l-1-1h1zm412-81h-5v1l2 2h2l1-2-1-1 1 1v-1zm3 5l-2 1 1 1 2-1-2-1h1zm7-9v1c0 1 0 0 0 0v-1zm-16-7h-1l1 1v-1zm-2 17h-1 1zm-1 2h-1v1l1-1zm-14-16v1l1-1v1l1-1h-2zm6 12l1 1v-1h-1zm-1-20h-1 1zm9 11l1-1v1h-1zm5 10v1h-1v-1l1 1v-1zm3 3zm21-5v1h1v-1h-1zm-26 6v1-1zm3 15h-1 1zm-3-16h-1 1zm-11-9l-1-1v1h1zm10 4h-1v1h1v-1zm2-5l1-1-1 1zm5-3h-1l1 1v-1zm-10 1h-1 1c0 1 0 1 0 0zm3 1h-1 1zm6-1v1h-1l1-1zm-2 14zm1 3v1h-1v-1h1zm-2 1zm-1 5zm-2-12v-2l1 1v1h-1zm-18-6v-1l1 1-1 1v-1zm15 4h-1v1h1v-1zm27-11l-1-1-1 1h1v1l1-1v-1 1zm-30-5h-1l1 1 1-1h-1z" fill="#02FFFC"/><path d="M596 324c1-2-2-3-3-1s3 3 3 1zm4 13zm-31-49v1l1 1h1l-2-2zm30 60zm-6-7v1-1zm-4-7zm-6-6zm22 8zm-1-58h2l-1 1h-1l1-1h-1z" fill="#02FFFC"/><path d="M586 291l-5-3 2 3h3z" fill="#611638"/><path d="M586 291h-3l-2-3 2 3h3z" fill="#D0535E"/><path d="M647 160l-9 9 7-4 2-5z" fill="#611638"/><path d="M647 160l-2 5-7 4 7-2 2-7z" fill="#D0535E"/><path d="M644 5l4 17-2-19-8-5v2l6 5z" fill="#611638"/><g opacity=".7"><path opacity=".7" d="M209 87a70 70 0 0 1-8 31l-1 1a69 69 0 0 1-39 32l-1 1a69 69 0 0 1-90-61v-1c0-10 1-20 5-29l1-3a72 72 0 0 1 12-18c4-5 9-10 14-13l1-1 4-1 1-1a69 69 0 0 1 84 17l1 1 5 7 1 2 7 15v1l3 15v5z" fill="url(#paint21_radial)"/><path opacity=".1" d="M207 100s-31 3-38-9-13-15-24-13c-10 1-23 9-36 6-12-3-36-17-36-17-3 7-3 19-3 19s6 20 22 21c15 1 51 6 75 13 23 7 29 5 29 5 9-12 11-25 11-25zm-114 1c-1-4 9-5 11-2s-7 10-11 2zm45-19c10-4 27 3 26 10-2 6-34-7-26-10zm20 33c-1-6 7-2 8 1 2 3-8 4-8-1zm30 0c1-3 5-3 5 0s-5 2-5 0z" fill="#974D8B"/><path opacity=".5" d="M209 87s-23-14-41-18c-18-3-38 8-61 4-12-2-23-9-31-15l7-12c4 4 16 15 26 19 14 5 27-1 50 1 19 1 43 13 50 16v5zM98 122c-2 2-9 0-8-1 1-3 11-1 8 1zm5-4c1-1 7 0 7 1-1 1-8 1-7-1zm66 19c2-3 12 2 12 4-1 3-14-2-12-4zm-48-17c-27-5-41-10-47-12 2 6 6 13 10 19 11 0 22-10 52-1 17 6 32 13 40 18l7-5c-11-4-36-14-62-19z" fill="#F1F1A8"/><path opacity=".1" d="M107 51c0 3 10 8 12 5s-11-10-12-5zm4 9c0 2 3 2 3 1s-4-3-3-1zm58 25c3-3 4-2 5 0h-5zm1-24c3-2 4-1 5 1 0 1-6 0-5-1zm-38 75c2-3 4-1 4 1 1 1-5 0-4-1zm50-42c1 2 3 2 3 0 0-1-3-2-3 0zm-52-59c1 1 3 2 3 0s-3-3-3 0z" fill="#690058"/><path opacity=".5" d="M179 129c1 0 5 3 4 5 0 2-9 0-9-2s3-4 5-3zm2-68c1 1 5 3 5 6 0 2-10 0-10-2l5-4zm-27-28c0 2 0 6-2 7s-5-8-3-9 5 1 5 2z" fill="#F1F1A8"/><g opacity=".7" fill="#E9E9A8"><path opacity=".7" d="M169 50v-3l-1-1-1 2v2l1 1 1-1zm17 7l-1-2-1 1v2l1-1h1zm-2-6h-1 1zm-5-5v-1h-2v1h2zm11-3v-1h-1l-1 1h2zm-5 4h-1 1zm-2 0v-1h-1l1 1-1 1h1v-1zm-11-4l-1-1 1 1zm14-3l-1 1h1v-1zm-16 0h-1 1zm4 3v1h-1v-1h1zm15 17l-1-1v1h1zm7 4l-1 1v1h1l1 1 1-1-2-2zm-11-13v-1 1zm-2 3l-1-1v1h1zm-1-3v-1l-1 1h1zm0-1h-1v-1l1 1h-1 1zm-13 2zm14-3zm-13-13v-1 1zm-4 8zm5 2l1 1h-1v-1zm23 8c1 0 1 0 0 0zm-21-12v-1l-1 1h1zm-1 2zm18 13v1h1l1-2-2 1zm3-4h-1 1zm-12-1h-1 1zm-3 1h-1 1v-1 1zm0-2c0 1 0 0 0 0zm-4 0h-1 1zm10-2zm-16-20h1l-1 1v-1zm17 17v-1l-1 1h1zm-17-11h1v-1h-2v1h1zm11 5v-1h-1l1 1z"/><path opacity=".7" d="M176 47c2 0 2-2 1-3-2-1-3 2-1 3zm9 7h-1 2-1zm-5 4h-2l-1 1h3v-2l-1 1h1zm-3-3l-1 1-1 1 1-1 1-1zm-1-2zm4-10l1-1-1 1zm2 5h-1 1zm-15-7v-1h-1v1h1zm6-6h-1 1zm2 3h-1v1l1-1zm11 20zm28-2h-1 1zm-14-2v1l-1-1h1zm-7 34v-2l-2 1 1 2 1-2v1zm-2-6v-1 1zm7-8l-1-1h-1v1h2zm-5 4l-1-1v1h1zm-2-1h-1v2l1-2zm3-6h-1 1zm3 20l-1-1h-1l1 1h1zm-4-9h-1v-1h1v1zm-2-2h-1 1zm11 5h-1 1zm-4 3v1h1l1-3-2 2zm3-4h-1 1zm-9-5h1v1h-1s-1 0 0 0v-1zm1-3h-1v1l1-1zm0 9h-1l1-1v1zm1 4zm13-4l1 1-1-1v-1 1zm-21-11v1l-1-1h1z"/></g><path opacity=".5" d="M105 28l-3-1 2-1 1 1 2 1c19 8 40 14 61 16l7 1a177 177 0 0 1 24 4v2l-8-2c-5-2-11-2-17-3l-6-1c-22-2-42-8-62-16l-1-1zm102 39c-6 0-11-2-16-4l-3-1a111 111 0 0 0-49-6l-12 1c-13-1-26-5-36-13l-4-4 1-1 4 4c10 8 22 12 35 13l12-1 9-1c12 0 26 2 40 7l3 1c5 2 10 4 15 4l1 1z" fill="#F1F1A8"/><path opacity=".5" d="M201 118l-1 1h-2c-6 0-13 0-17-6l-1-3-4-5-5-1c-3 0-5 2-8 3-3 2-5 3-8 3h-11l-25-3-5-1-2-4 2-3 1-1c1-2 0-4-1-5l-5-3c-6-1-11 1-16 2l-14 2-9-3v-1l9 2c5 1 9 0 14-1s10-3 16-2l6 3c1 2 2 4 1 7l-1 1-2 2 2 3 4 1 25 3v1h11l7-3 9-4 5 1c2 1 3 4 4 6l2 3c4 5 11 6 16 5h3zm-40 33l-1 1-3-5-1-1c-4-7-9-13-15-16-7-3-15-3-23-3-9 0-19 1-27 7l-1-1c8-6 19-7 28-7 8 0 16 0 23 3 6 3 12 9 16 16l1 2 3 4zm32-109h-1c-8-2-17-3-25-3h-3c-2-1-2-3-3-5l-1-2c-2-3-6-5-9-4l-8 1-2 1c-8 2-14 3-20 2s-11-3-14-7l1-1c3 4 8 6 13 7 6 1 12 0 20-2l1-1 9-2c3 0 8 2 10 5l1 3 3 4h2l25 2 1 2z" fill="#F1F1A8"/></g><g opacity=".2"><path opacity=".2" d="M463 175a36 36 0 0 1-1 15v1l-6 12-3 3-6 5h-1a35 35 0 0 1-40-4 34 34 0 0 1-10-16c-1-5-2-10-1-15v-1l2-7 2-3v-1l6-7v-1l2-1c7-6 17-9 27-8 6 1 12 3 16 7h1l3 3v1l5 7 1 1 2 7 1 2z" fill="url(#paint22_radial)"/><path opacity=".1" d="M410 168c0 1 5 2 6 1 1-2-6-4-6-1zm2 3l2 1-2-1zm31 7c2-2 2-1 3-1l-3 1zm-1-12c1-2 1-1 2 0h-2zm-11 40zm20-25l1-1s-2 0-1 1zm-32-24h2-2z" fill="#690058"/><path opacity=".5" d="M453 198l3 2h-5l2-2zm-6-33l3 2h-5l2-2zm-16-11l-1 4-2-4h3z" fill="#F1F1A8"/><path opacity=".2" d="M440 161v-2h-1l-1 1 1 1h1zm9 1l-1-1v2l1-1zm-2-2v-1 1zm-3-2v-1l-1 1h1s0-1 0 0zm5-3h-1 1zm-2 3v-1 1zm-1 0s0-1 0 0v-1 1c1 0 0 0 0 0zm-5-1h-1 1c0 1 0 0 0 0zm6-3zm-8 2c0-1 0 0 0 0zm2 1zm10 6h-1v1l1-1zm4 2h-1v1h1l1-1h-1zm-7-6c0 1 0 1 0 0 0 1 0 0 0 0h-1 1zm-1 2zm-1-1zm0-1zm-6 3v-1 1zm6-3c1 0 1 0 0 0zm-7-5v-1 1zm-1 4h-1 1zm3 1h-1 1zm12 1h-1 1zm-12-4zm0 2h-1 1zm10 4l1-1-1 1zm1-2s0-1 0 0zm-6 0v1h-1v-1h1zm-1 1h-1 1zm-1-1zm-2 1zm5-3c0 1 0 1 0 0h1v1h-1v-1zm-10-8c0 1 0 1 0 0h1v1h-1v-1zm10 7zm-9-3v-1h-1v1h1zm5 1v-1 1zm0 3zm5 3zm-2 2l-1 1h1v-1zm-2-1zm0 0l-1-1h1v1zm1-6h-1 1zm1 2zm-8-2h-1l1 1v-1zm2-3zm1 1zm8 9zm13-4zm-7 0zm1 17h-1v1l1-1zm-2-2zm2-5h-1 1zm-2 3zm-1 0c1 0 0 0 0 0zm1-4c0 1 0 1 0 0zm4 10l-1-1v1l1-1v1zm-3-4h-1l1-1v1zm-2-1c1 0 1 0 0 0zm7 1h-1 1zm-2 2l1-1-1 1zm1-2zm-5-1v-1l1 1h-1zm0-2zm1 4zm1 2zm6-4v1-1zm-11-3v1h-1l1-1v1-1z" fill="#E9E9A8"/></g><path d="M537 89l-3-2h-1l-1 1 1 3h4v-2 1-1zm-87-27l-3 1h-1v1l2 2 3-1v-2l-1-1zm87 33h-2l1 2h2l-1-2zm1-10s0-1 0 0zm0-9h-2v2h1v-2h1zm11-5h-1v1h1v-1zm-21 19h-1v1l1-1c0 1 0 0 0 0zm-70-10v1l1-1v1l1-1h-2zm63-8h-1v1h2c1-1-1-1-1-1zm-53-18v1l1-1h-1zm60 12zm4 15h1-1zm-1 11h1l-1 1v-1h-1l1-1v1zm2 4l-1 1h1v-1zm21 5zm-58-1c1 0 1 0 0 0zm28 9h-1 1zm4-15v-1 1zm-6-14c1 0 0 0 0 0s1 0 0 0zm7 9zm31-28h1l-1 1v-1zm-7 4v1l1-1h-1zm-23 16zm2 2h1-1zm6 2v1l-1-1h1zm-8 12zm-3 2h1v1h-1v-1zm-1 1s0 1 0 0zm2 5zm0-13h1v-1 2l-1-1zm-83-58h1v-1l1 1-1 1v-1h-1zm-4 58v-1l1 1-1 1v-1zm73-13h1v-1 1h-1zm-19-9h1v-1 2h-1v-1zm31 19h-1v1h1v-1zm66-13v-2h-1v2h1v-1 1zm-85-23v-1h-1l-1 1v1h1l1-1zm24 21v-1h-1v1h1z" fill="#FFE290"/><path d="M537 80c2-2-1-3-2-2-2 1 0 4 2 2zm0-12c1-2-1-4-3-3-2 2 1 4 3 3zm-3 26c1 0 0 0 0 0v-1l1 1h-1zm-5-58c0-1 0-1 0 0v2c0 1 0 0 0 0v-3 1zm0 65h-1 1zm-3-7v1-1zm-12-4h-1s0 1 0 0h1zm-30-14h-1v1l1-1zm39 1zM286 19zm253 76zm-95-25l-4-2h-1v3l3 1 1-1v-1h1zm-72-21l-3-1v-1l-1 1v3l3 1 1-1v-2 1-1zm47 51l-2-1 1 2h2l-1-1zm-10-5h-1v1h1v-1zm-2 2l-1 1h2c2-1 0-1-1-1zm6 0h-1v-1l1 1zm1 4zm22 5h-1l1 1v-1zm-26-6h-1 1zm-5 14c1 0 1 0 0 0zm5-15v-1 1zm1-5l-1-1v1h1zm1 8v1h-1l1-1zm-3 2h1-2 1zm-2 1zm2 5zm1-13v-1h1v2l-1-1zm-2-3h-1v1l1-1zm8 5v-1 1zm-6 7zm-2-7c0 1 0 1 0 0zm31-39h-2v2h2v-2zm-14 22l-1 1h2c1-1 0-1-1-1zm7 4zm-4-1h-1 1zm-5 14c1 0 1 0 0 0zm5-15v-1 1zm2 3v1h-1l1-1zm-3 2v1l-1-1h1zm-2 1v1l1-1h-1zm2 5h1-1zm1-13v-1h1v2h-1v-1zm0 9c0 1 0 1 0 0zm-2-7zm3-41h-2v2h2v-2zm-43 29l-2-1v2h2l-1-1h1zm31-32v1h-1 2c1-1 0-1-1-1zm45-3h-1l1 1v-1zm-42 6l-1 1v-1h1zm-5 14zm5-15h-1 1zm2 3v1h-1l1-1zm-4 2h1v1l-1-1h1-1zm-1 1v1s1 0 0 0v-1zm2 5s1 0 0 0zm44-9v-1l1 1h-1c0 1 0 0 0 0zm-43 5zm-70-31zm68 25v-1 1zm-10 48h-1v1l1-1zm13 9zm149 37h-3l1 2h2c1-1 0-2-1-2h1zm-10-4h-1 1zm-44-27h-1 1zm42 28h-1v1h2l-1-1zm5 1v-1s-1 0 0 0l1 1h-1zm2 3l-1 1h1v-1zm-5-1v1-1zm0-1zm-59-31h-1 1zm60 26zm1 9zm-3 1v1h1-1v-1zm-1 2s0-1 0 0zm2 4s0 1 0 0zm0-13h1v-1 2h-1v-1zm-2-2c0-1 0-1 0 0h-1 1zm8 4h1-1zm-5 7v1h-1v-1h1zm-3-6h1l-1-1v1zm0-8v-1l-1 1h1zm13 8zm-118-30l-3-2h-1l-1 1 1 3h4v-2 1-1zm7-38l-2-1v2h2v-1zm24-27l-2-1 1 2h2l-1-1zm-34 22h-1v1h1v-1zm-2 2l-1 1h2c1-1 0-1-1-1zm-5-7v1l1-1s-1 0 0 0h-1zm11 7h-1v-1 1h1zm1 4zm-4-1h-1 1zm0-1l-1-1v1h1zm-6-14zm7 9l-1-1v1h1zm1 8v1h-1l1-1zm-1 3v1h-1v-1h1zm33-3zm-35 3zm-3 4zm4-12v-1h1v1l-1 1v-1zm-3-3zm9 5h-1l1-1v1zm-6 8zm-2-8c0 1 0 1 0 0zm-1-8h-1l1 1v-1zm14 9h-1 1zm-9 11h-3l1 2h2l-1-2h1zm-47-26h-1v-1l1 1zm-68-35h-1v1l1-1v1h1c1-1-1-1-1-1zm2 3h-1 1zm-4 14h-1v-1l1 1zm4-16zm-1 6zm-1 1h-1 1zm2 4l-1 1h1v-1zm0-3h1-1zm-2-7zm-12 11v1l-1-1v-1l1 1zm107 34zm10 14s-1 0 0 0zm2 2zm38-7v1h-1v-1h1zm-40 10c-1 0 0 0 0 0zm-3 4zm9-10l1-1v1h-1zm-5 9h-1v-1h1v1zm10-8zm-16 1h-1 1zm46 164h4v-1l-1-3-3 1-1 1 1 2v-1 1zm-3-20zm-30-30c-1 0 0 0 0 0 0-1 0-1 0 0zm51 24h-1v1-2h1v1zm-59 5h-1v1-2h1v1zm13-2h1l-1-1v1zm36 17l3 3h1l1-3-3-1h-1l-1 2v-1zM127 52l3 2 1 1 1-1v-3l-3-1h-1l-1 2h1-1zm383 155h1v-1h-1v1zm-16 43l2 1v-3h-2v2zm-46-61zm46 12l3 2v1l1-1v-3l-2-1h-2v2zm65-169l2 3h1l1-1v-2l-2-2-2 1v1zm-83 203l2 1v-2h-2l1 1h-1zm9 7z" fill="#FFE290"/><path d="M487 242l1-1h-2l1 1zm-6-2l1-1v1h-1zm0-4l1-1h-1v1zm4 2h1-1zm0 1zm-3 4l1 1v-1h-1zm2-8h1-1zm2-2v-1 1zm-33-7v-1 1zm34 8v-1 1zm4-4zm-7 11v1h-1v-1l1-1v1zm2 3zm-7-7zm8-6v-1 1zm0 8zm-12-4v-1 1zm12-8l2 1v-2l-2-1v2zm9 2zm-2-2v-1h1l-1 1s1 0 0 0zm-38-4l1-1v1h-1zm42 2h-1 1zm3-3h1l-1-1v1zm-12 7l1-1v1h-1zm8-7zm-12 4zm16 4l1 1v-1h-1zm63-187h2l-2 1v-1h1-1zM228 220l1-4v-1h-1l-3 1v3l1 1 2-1h-1l1 1zM98 41h-3l-1 1v1l2 1 3-1v-1l-1-1zm124 180v-2l-2 1 1 2 1-1zm10-1v-1 1h-1 1zm8-2v-2l-2 1 2 1zm-15-7v-1h-1l1 1s0-1 0 0zM44 69h-1v1l1-1h1c0 1 0 0 0 0h-1zm198 131h-1v2c1 1 1-1 1-2zM54 43zm194 164v-1 1zm-13 6v1l-1-1h1zm-11 2l-1-1h1s0-1 0 0v1zm-4 1l-1 1 1-1zm-1 23v-1 1h-1 1v-1 1zM82 89s-1 0 0 0zm124 121h-1 1zm16 2v-1 1zm12-8v-1 1zm-7 8v-1h-1v1h1zm33 25v1h-1v-1h1zm-5-6h-1 1zm-21-19l1-1h-1v1zm-1 2h-1v-1l1 1z" fill="#FFE290"/><path d="M232 220h-1v-1l1 1zm-13-6h-1 1zm-3-2v-1 1zm-1-2zm-4 3h-1l1 1v-1zm12-1h1v1l-1-1s0-1 0 0zM31 23v-1h1v1h-1zm-5 58v-1h1v2l-1-1zm207 114l1 1h1-2v-1zm-7 14v-1h-1v1h1zm25 62h2l-1-1h-1l-1 1h2-1zm-9-60v-1h-1l1 1zm-6 7c2 1 4-1 2-3-1-2-3 2-2 3zm-13 0h-1l1-1v1zm56-16v-1l-1 1h-2v1l1-1h2zm-64 11v1h-1v-1h1zm6-3h-1 1zm2-13v-1h-1v1h1zm14 6l-1 1 1-1zm-15 20zM5 89l-2-1v2h2l-1-1h1zm-5 1h-1l1 1v-1zm21 5v1h1v-1h-1zM2 88H1l1-1v1zm22-39h-2l1 2h2l-1-2zM11 71h-1v1h2c1-1-1-1-1-1zm7 4l-1 1h1v-1zm-5-1zM9 88H8h1zm4-15v-1 1s1 0 0 0zm2 3zm-3 2h1v1h-1v-1zm-1 1s0 1 0 0zm2 5zm0-13h1v-1l1 1-1 1v-1h-1zm1 9h-1 1zm-2-7h-1v1h1v-1zm3-41h-3l1 2h2l-1-2h1zM3 29H2v1h2c1-1-1-1-1-1zm44-3l1 1-1-1zM5 32zM1 46H0h1zm4-15s0-1 0 0zm2 3zm-3 2h1v1H4v-1zm-1 1zm2 5zm43-9v-1h1v1h-1zM6 38v1H5v-1h1zm-3-7v1h1l-1-1zm4 58H6h1zm102 19l-4-2h-1v3l3 1 1-1v-1h1zM46 58l-3-1 1 2h2l-1-1h1zm-10-5h-1v1l1-1zm-2 2h-1v1h2c1-1-1-1-1-1zm-5-7h-1l1 1v-1zm10 7v-1 1h1-1zm2 4h-1l1 1v-1zm-5-1s-1 0 0 0zm0-2zm-5-13h-1 1zm6 9v-1 1c0 1 0 1 0 0zm1 8zm0 3c-1 0-1 0 0 0v1h-1v-1h1zm-2 0c-1 0 0 0 0 0zm-3 4zm3-12h1v-1 1h-1zm27-11zM42 57c1 0 0 0 0 0l1-1v1h-1zm-5 8v1h-1v-1h1zm-3-8zm0-8h-1l1 1v-1zm13 9zm-9 11h-2l1 2h2l-1-2zM18 55c0-1 0 0 0 0zm11 14h-1 1zm2 2v1h-1l1-1zm37-7zM28 74c1 0 1 0 0 0zm-2 4h-1 1zm9-10v-1 1zm-6 9c1 0 1 0 0 0v-1 1zm11-8zm-17 1zm255 168l1 1h-1l-1-1h1zM37 161l-2-3v-1l-1 1-1 2 2 2h2v-1zm-2 5l-2-1v2l2 1v-2zm6-8l-1-1v1h-1 2c-1 0-1 0 0 0zm3-8l-2-1v2l1-1h1zm-16 8l-1-1 1 1zm3-20h-1l1 1h1l-1-1zm9-1c1 0 0 0 0 0h-1 1zm-3 14v1-1zm-6 10h-1v-1l1 1zm-1 4h-1l1 1v-1zm17 15l-1-1v2l1-1h-1 1zm-31-8c-1 0 0 0 0 0zm11-11v-1 1zm2-15h-1 1zm1 11v-1 1s0 1 0 0zm41-10h1l-1 1v-1c-1 0-1 0 0 0zm-8 0h-1v1h1v-1zm-28 4v-1 1zm1 2v1h-1l1-1zm4 5h-1 1zm-13 7h-1 1zm-3 0v1l-1-1h1zm-2 0zm-1 5v1l1-1h-1zm7-11h1v1h-1v-1zm-6-18h1v1h-1v-1zm5 15v-1l-1 1h1zm65 19l1-1h-2v1c0 1 0 0 0 0h1zm-53-31v-1l-1 1v1h2l-1-1z" fill="#FFE290"/><path d="M41 153c3-1 1-3-1-3s-1 4 1 3zm-8 11h-1v-1h1v1zm22-54l-1 2c0 1 0 1 0 0h1v-2zm-31 57zm1-7zm-9-10h-1l1 1v-1zm14-6c1 0 1 0 0 0zm6 23zm47-34l1 1h-1v-1z" fill="#FFE290"/><path d="M437 171h9l13-5c3 0 8 3 10 5 1 2 6 3 7 4l9 2c5 2 25 2 25 2s-23 2-32 1c-5-1-20-2-25-4s-7-1-9-1l-7-4z" fill="url(#paint23_linear)"/><path d="M11 139s9 2 11 1c2 0 11-2 13-4 8-12 12-10 14-10 7-1 14 10 13 13 0 2-5 5-3 6l44 9-47-4-29-7c-5-2-7 0-9-1l-7-3z" fill="url(#paint24_linear)"/><path d="M-59 20c8-1 7-4 26-5 18-1 29 14 36 19s21 2 29 5c8 4-2 8 5 13s27 12 27 12L23 52C12 48 8 44-8 38c-15-6-41-9-51-12-11-2-30-15-30-15s21 11 30 9z" fill="url(#paint25_linear)"/><path d="M436 230c3-2 20-12 29-10 13 3 2 7 2 7 3 2 10-2 14-1 4 0 0 4 4 5l14 1-20 1-17-2c-8-1-20 2-26 2l-15-3s11 2 15 0z" fill="url(#paint26_linear)"/><path d="M243 169l32-4c3 0 12-14 19-9 3 3 2 11 3 11l13 2-22-1h-13l-32 1z" fill="url(#paint27_linear)"/><path d="M454 121c-3 11-22 10-26 13-5 3-19 7-29 7-11-1-27 9-27 9s5-1 9 1c4 3-5 11 3 11 8-1 12-5 20-3 7 2 17 4 21 7s17 6 19 6l-23-4c-1 0-27-4-40-2-13 3-17-9-22-10-4-1 8-9 13-11 4-2 19-10 29-9 13 3 25-3 25-3l1-1 13-11c2-3-8-10-9-14-1-3-8-9-17-12s-24-10-33-12c-8-3-23-5-31-10-9-6-13-4-18-5l-59-4c-2 0-11-14-28-11-16 3-43-3-54-6-10-2-28-13-30-13-3 0-37-8-40-11-3-2-4-7-6-8-3-2-15-3-22-5L58-8c6-3 19-9 34-13 19-5 42-8 60-3 31 10 35 23 39 24s12-12 31-3 26 29 26 31c1 1 15 4 17 3 2 0 11-15 29-10 18 6 38 21 40 21 2-1 7-7 19-2 13 6 32 31 34 31 2 1 19-9 28-4 10 6 0 16 5 21 6 4 19 20 20 21 2 0 17 2 14 12z" fill="url(#paint28_linear)"/><path opacity=".1" d="M432 132h-5l13-11c2-3-8-11-9-14s-8-9-17-12l-33-13c-8-2-23-4-31-10-9-5-13-3-18-4l-59-4c-2 0-11-14-28-11-16 2-43-3-54-6-11-2-28-13-30-13-3 0-37-8-40-11-3-2-4-7-7-8-2-2-14-3-21-5S58-8 58-8c6-3 19-9 34-13l10 19c2 3 4 7 8 8 3 0 6-1 9 1 2 1 3 4 5 7 3 4 9 4 14 4 13 0 26 0 36-7 5-3 9-7 14-9 0 11-6 22-15 29 5 6 12 10 20 12 22 5 46-11 66-1l10 6c15 10 34 12 51 7 5-2 10-4 15-3 6 1 11 7 16 12 7 7 18 11 28 10h7l4 3c9 8 23 8 31 17 5 4 7 10 12 14 3 3 7 5 8 9 3 6-3 13-9 15z" fill="#DB406B"/><path d="M559 112c-7 4-31-6-37-4l-21 9-33 11 22-11c12-4 11-16 17-18 7-2 10 5 20 6 11 0 31 15 33 1 3-15-17-25-31-32-9-4-15-6-16-8-3-4-15-7-22-10l-24-10c-5-4-6-9-21-11-15-3-105-44-105-44h103c19 0 6 23 30 32 10 3 18 14 19 14 0 0 8-6 18-3 11 4 11 22 14 25l15 13c2 1 28 2 29 12 0 11-2 24-10 28z" fill="url(#paint29_linear)"/><path opacity=".1" d="M535 74h-7l-15-7c-3-5-15-8-22-11l-24-10c-5-3-6-9-21-11-15-3-105-44-105-44h39l10 10c12 8 26 12 40 16h9c4-1 7-5 11-5 1 4-6 5-8 8-2 4 0 8 3 10l11 4c7 2 11 7 18 9l13 1a40 40 0 0 1 23 9l4 5c6 7 13 11 21 16z" fill="#DB406B"/><path opacity=".6" d="M219 118c-40 37-73 66-74 65s31-31 71-68 73-66 74-65-31 31-71 68z" fill="url(#paint30_radial)"/><path d="M148 183c0 2-1 3-2 3-2 0-3-1-3-3 0-1 1-2 3-2l2 2z" fill="#fff"/></g><path d="M198 131h-2v36c0 9 3 17 9 23 6 5 14 8 23 8 10 0 18-3 24-8 6-6 9-14 9-23v-36h-24v35c0 5-1 7-2 9h0l-6 3c-3 0-5-1-6-3-2-2-2-4-2-9v-35h-23zm125 66h1v-30c0-8-2-14-6-18s-9-6-16-6l-8 2-5 2v-3h-22v53h23v-25l2-7 4-2 4 2 1 5v27h22zm8-53h-1v53h23v-53h-22zm1-4h0c2 2 6 3 10 3s7-1 10-3h0c2-2 3-5 3-9 0-3-1-6-3-8-3-2-6-3-10-3s-8 1-10 3c-3 2-4 5-4 8 0 4 1 7 4 9zm66 55l1-1v-1l-5-14-1-2-2 1-3 1-2-1-1-2v-11h10v-17l19 47-3 1-3-1-3-1-2-1v1l-7 14-1 1 1 1 7 4 9 1c6 0 11-1 15-4s8-8 10-14l21-51v-2h-22v1l-9 23-9-23-1-1h-24l1 2v1h0-9v-14h-23v14h-7v18h7v11c0 7 2 12 6 16h0c4 4 9 5 17 5 5 0 9 0 13-2z" fill="#000" stroke="#fff" stroke-width="3"/><mask id="a" maskUnits="userSpaceOnUse" x="143" y="235.8" width="367" height="56" fill="#000"><path fill="#fff" d="M143 236h367v56H143z"/><path d="M164 251a13 13 0 0 1 12 7l1 7-1 8a12 12 0 0 1-12 7c-3 0-5-1-7-3v12h-11v-37h11v2c1-2 4-3 7-3zm-2 20l3-2 1-4-1-4-3-1-4 1-1 4 1 4 4 2zm30-20c5 0 9 1 11 3 3 3 4 6 4 10v15h-11v-4c-1 3-3 5-7 5l-6-2c-1 0-3-1-3-3l-2-4c0-3 2-5 4-6 2-2 5-2 9-2h5c-1-2-3-3-6-3h-3l-4 2-3-8 5-2 7-1zm0 22l2-1 2-2v-2h-3c-3 0-4 1-4 3l1 1 2 1zm40-8l4 2 1 4-2 5-5 3-8 1-13-2 3-8 10 2 3-1 1-1-1-1-1-1h-7v-6h7l1-1-1-2h-3l-8 2-3-7 12-3 10 2c3 1 4 3 4 6l-1 3-3 3zm27-14a13 13 0 0 1 11 7c2 2 2 5 2 7 0 3 0 6-2 8a12 12 0 0 1-11 7c-3 0-5-1-7-3v12h-11v-37h10v2c2-2 5-3 8-3zm-3 20c2 0 3-1 3-2l2-4-2-4-3-1-3 1-1 4 1 4 3 2zm31-20c5 0 8 1 11 3 2 3 4 6 4 10v15h-11v-4c-1 3-4 5-8 5l-5-2c-2 0-3-1-4-3l-1-4c0-3 1-5 3-6 2-2 5-2 10-2h4c0-2-2-3-5-3h-4l-3 2-4-8 6-2 7-1zm0 22l2-1 1-2v-2h-3c-2 0-3 1-3 3l1 1 2 1zm37-18c4 0 7 1 10 3 2 2 3 5 3 9l-2 7-6 4-8 2c-5 0-9-2-12-5-3-2-4-7-4-13 0-11 5-18 15-20l14-2 1 9-11 2-6 2-2 5c2-2 5-3 8-3zm-3 16l3-1 1-3-1-3-3-2-3 2-1 3 1 3 3 1zm34 9l-9-2-5-5c-2-3-2-5-2-8 0-2 0-5 2-7l5-5 9-2 8 2a13 13 0 0 1 7 12 13 13 0 0 1-7 13l-8 2zm0-9l3-2 1-4-1-4-3-1-4 1-1 4 1 4 4 2zm44-11h-9v19h-11v-19h-8v-8h28v8zm31-8v27h-11v-9l-7 1-9-2-2-9v-8h11v7l1 3 2 1 4-1v-10h11zm5 0h11v12l10-12h10v27h-11v-12l-9 12h-11v-27zm50 18h-2v9h-11v-27h11v9h2l6-9h12l-9 13 10 14h-14l-5-9z"/></mask><path d="M164 251a13 13 0 0 1 12 7l1 7-1 8a12 12 0 0 1-12 7c-3 0-5-1-7-3v12h-11v-37h11v2c1-2 4-3 7-3zm-2 20l3-2 1-4-1-4-3-1-4 1-1 4 1 4 4 2zm30-20c5 0 9 1 11 3 3 3 4 6 4 10v15h-11v-4c-1 3-3 5-7 5l-6-2c-1 0-3-1-3-3l-2-4c0-3 2-5 4-6 2-2 5-2 9-2h5c-1-2-3-3-6-3h-3l-4 2-3-8 5-2 7-1zm0 22l2-1 2-2v-2h-3c-3 0-4 1-4 3l1 1 2 1zm40-8l4 2 1 4-2 5-5 3-8 1-13-2 3-8 10 2 3-1 1-1-1-1-1-1h-7v-6h7l1-1-1-2h-3l-8 2-3-7 12-3 10 2c3 1 4 3 4 6l-1 3-3 3zm27-14a13 13 0 0 1 11 7c2 2 2 5 2 7 0 3 0 6-2 8a12 12 0 0 1-11 7c-3 0-5-1-7-3v12h-11v-37h10v2c2-2 5-3 8-3zm-3 20c2 0 3-1 3-2l2-4-2-4-3-1-3 1-1 4 1 4 3 2zm31-20c5 0 8 1 11 3 2 3 4 6 4 10v15h-11v-4c-1 3-4 5-8 5l-5-2c-2 0-3-1-4-3l-1-4c0-3 1-5 3-6 2-2 5-2 10-2h4c0-2-2-3-5-3h-4l-3 2-4-8 6-2 7-1zm0 22l2-1 1-2v-2h-3c-2 0-3 1-3 3l1 1 2 1zm37-18c4 0 7 1 10 3 2 2 3 5 3 9l-2 7-6 4-8 2c-5 0-9-2-12-5-3-2-4-7-4-13 0-11 5-18 15-20l14-2 1 9-11 2-6 2-2 5c2-2 5-3 8-3zm-3 16l3-1 1-3-1-3-3-2-3 2-1 3 1 3 3 1zm34 9l-9-2-5-5c-2-3-2-5-2-8 0-2 0-5 2-7l5-5 9-2 8 2a13 13 0 0 1 7 12 13 13 0 0 1-7 13l-8 2zm0-9l3-2 1-4-1-4-3-1-4 1-1 4 1 4 4 2zm44-11h-9v19h-11v-19h-8v-8h28v8zm31-8v27h-11v-9l-7 1-9-2-2-9v-8h11v7l1 3 2 1 4-1v-10h11zm5 0h11v12l10-12h10v27h-11v-12l-9 12h-11v-27zm50 18h-2v9h-11v-27h11v9h2l6-9h12l-9 13 10 14h-14l-5-9z" fill="#000"/><path d="M164 251a13 13 0 0 1 12 7l1 7-1 8a12 12 0 0 1-12 7c-3 0-5-1-7-3v12h-11v-37h11v2c1-2 4-3 7-3zm-2 20l3-2 1-4-1-4-3-1-4 1-1 4 1 4 4 2zm30-20c5 0 9 1 11 3 3 3 4 6 4 10v15h-11v-4c-1 3-3 5-7 5l-6-2c-1 0-3-1-3-3l-2-4c0-3 2-5 4-6 2-2 5-2 9-2h5c-1-2-3-3-6-3h-3l-4 2-3-8 5-2 7-1zm0 22l2-1 2-2v-2h-3c-3 0-4 1-4 3l1 1 2 1zm40-8l4 2 1 4-2 5-5 3-8 1-13-2 3-8 10 2 3-1 1-1-1-1-1-1h-7v-6h7l1-1-1-2h-3l-8 2-3-7 12-3 10 2c3 1 4 3 4 6l-1 3-3 3zm27-14a13 13 0 0 1 11 7c2 2 2 5 2 7 0 3 0 6-2 8a12 12 0 0 1-11 7c-3 0-5-1-7-3v12h-11v-37h10v2c2-2 5-3 8-3zm-3 20c2 0 3-1 3-2l2-4-2-4-3-1-3 1-1 4 1 4 3 2zm31-20c5 0 8 1 11 3 2 3 4 6 4 10v15h-11v-4c-1 3-4 5-8 5l-5-2c-2 0-3-1-4-3l-1-4c0-3 1-5 3-6 2-2 5-2 10-2h4c0-2-2-3-5-3h-4l-3 2-4-8 6-2 7-1zm0 22l2-1 1-2v-2h-3c-2 0-3 1-3 3l1 1 2 1zm37-18c4 0 7 1 10 3 2 2 3 5 3 9l-2 7-6 4-8 2c-5 0-9-2-12-5-3-2-4-7-4-13 0-11 5-18 15-20l14-2 1 9-11 2-6 2-2 5c2-2 5-3 8-3zm-3 16l3-1 1-3-1-3-3-2-3 2-1 3 1 3 3 1zm34 9l-9-2-5-5c-2-3-2-5-2-8 0-2 0-5 2-7l5-5 9-2 8 2a13 13 0 0 1 7 12 13 13 0 0 1-7 13l-8 2zm0-9l3-2 1-4-1-4-3-1-4 1-1 4 1 4 4 2zm44-11h-9v19h-11v-19h-8v-8h28v8zm31-8v27h-11v-9l-7 1-9-2-2-9v-8h11v7l1 3 2 1 4-1v-10h11zm5 0h11v12l10-12h10v27h-11v-12l-9 12h-11v-27zm50 18h-2v9h-11v-27h11v9h2l6-9h12l-9 13 10 14h-14l-5-9z" stroke="#fff" stroke-width="6" mask="url(#a)"/></g><defs><linearGradient id="paint0_linear" x1="287.4" y1="435.8" x2="287.4" y2="-9.4" gradientUnits="userSpaceOnUse"><stop stop-color="#FFFFE9"/><stop offset=".3" stop-color="#FFD88B"/><stop offset=".8" stop-color="#FB5E57"/><stop offset="1" stop-color="#CC3B57"/></linearGradient><linearGradient id="paint1_linear" x1="287.4" y1="435.8" x2="287.4" y2="326.9" gradientUnits="userSpaceOnUse"><stop stop-color="#D9485C"/><stop offset="1" stop-color="#E76056"/></linearGradient><linearGradient id="paint2_linear" x1="523.6" y1="326.9" x2="523.6" y2="182.6" gradientUnits="userSpaceOnUse"><stop stop-color="#FFC881"/><stop offset="1" stop-color="#FE897A"/></linearGradient><linearGradient id="paint3_linear" x1="69.2" y1="326.9" x2="69.2" y2="188" gradientUnits="userSpaceOnUse"><stop stop-color="#FFC881"/><stop offset="1" stop-color="#FE897A"/></linearGradient><linearGradient id="paint4_linear" x1="234.3" y1="326.9" x2="234.3" y2="188" gradientUnits="userSpaceOnUse"><stop stop-color="#FFA956"/><stop offset="1" stop-color="#FE6F5C"/></linearGradient><linearGradient id="paint5_linear" x1="802.3" y1="326.9" x2="802.3" y2="188" gradientUnits="userSpaceOnUse"><stop stop-color="#FFA956"/><stop offset="1" stop-color="#FE6F5C"/></linearGradient><linearGradient id="paint6_linear" x1="355.9" y1="329" x2="355.9" y2="310.4" gradientUnits="userSpaceOnUse"><stop stop-color="#E76056"/><stop offset="1" stop-color="#D9485C"/></linearGradient><linearGradient id="paint7_linear" x1="133.8" y1="379" x2="133.8" y2="110.7" gradientUnits="userSpaceOnUse"><stop stop-color="#CB3347"/><stop offset="1" stop-color="#D9493E"/></linearGradient><linearGradient id="paint8_linear" x1="84" y1="318.7" x2="84" y2="292.6" gradientUnits="userSpaceOnUse"><stop stop-color="#CB3347"/><stop offset="1" stop-color="#D9493E"/></linearGradient><linearGradient id="paint9_linear" x1="140.2" y1="367.4" x2="140.2" y2="310.3" gradientUnits="userSpaceOnUse"><stop stop-color="#CB3347"/><stop offset="1" stop-color="#D9493E"/></linearGradient><linearGradient id="paint10_linear" x1="143.7" y1="325" x2="143.7" y2="311.9" gradientUnits="userSpaceOnUse"><stop stop-color="#BC2238"/><stop offset="1" stop-color="#C43229"/></linearGradient><linearGradient id="paint11_linear" x1="82.6" y1="305.7" x2="82.6" y2="295.1" gradientUnits="userSpaceOnUse"><stop stop-color="#BC2238"/><stop offset="1" stop-color="#C43229"/></linearGradient><linearGradient id="paint12_linear" x1="36.6" y1="300.4" x2="36.6" y2="240.2" gradientUnits="userSpaceOnUse"><stop stop-color="#CB3347"/><stop offset="1" stop-color="#D9493E"/></linearGradient><linearGradient id="paint13_linear" x1="31.3" y1="245.8" x2="31.3" y2="241.7" gradientUnits="userSpaceOnUse"><stop stop-color="#BC2238"/><stop offset="1" stop-color="#C43229"/></linearGradient><linearGradient id="paint14_linear" x1="10.9" y1="403" x2="10.9" y2="384.3" gradientUnits="userSpaceOnUse"><stop stop-color="#91151E"/><stop offset="1" stop-color="#A12622"/></linearGradient><linearGradient id="paint15_linear" x1="-8.3" y1="399.3" x2="-8.3" y2="365.8" gradientUnits="userSpaceOnUse"><stop stop-color="#91151E"/><stop offset="1" stop-color="#A12622"/></linearGradient><linearGradient id="paint17_linear" x1="415.2" y1="387.2" x2="415.2" y2="250.3" gradientUnits="userSpaceOnUse"><stop stop-color="#91151E"/><stop offset="1" stop-color="#A12622"/></linearGradient><linearGradient id="paint18_linear" x1="515.8" y1="381.6" x2="515.8" y2="363.1" gradientUnits="userSpaceOnUse"><stop stop-color="#91151E"/><stop offset="1" stop-color="#A12622"/></linearGradient><linearGradient id="paint19_linear" x1="253.9" y1="386.9" x2="253.9" y2="375" gradientUnits="userSpaceOnUse"><stop stop-color="#91151E"/><stop offset="1" stop-color="#A12622"/></linearGradient><linearGradient id="paint20_linear" x1="287.4" y1="435.8" x2="287.4" y2="-9.4" gradientUnits="userSpaceOnUse"><stop stop-color="#63163D"/><stop offset="1" stop-color="#95294D"/></linearGradient><linearGradient id="paint23_linear" x1="473.3" y1="180.4" x2="473.3" y2="166" gradientUnits="userSpaceOnUse"><stop offset="0" stop-color="#FFBAAA"/><stop offset="1" stop-color="#FFDD98"/></linearGradient><linearGradient id="paint24_linear" x1="56.9" y1="153.8" x2="56.9" y2="125.7" gradientUnits="userSpaceOnUse"><stop offset="0" stop-color="#FFBAAA"/><stop offset="1" stop-color="#FFDD98"/></linearGradient><linearGradient id="paint25_linear" x1="-12.2" y1="63.6" x2="-12.2" y2="11.3" gradientUnits="userSpaceOnUse"><stop offset="0" stop-color="#FFBAAA"/><stop offset="1" stop-color="#FFDD98"/></linearGradient><linearGradient id="paint26_linear" x1="460" y1="232.9" x2="460" y2="219.8" gradientUnits="userSpaceOnUse"><stop offset="0" stop-color="#FFBAAA"/><stop offset="1" stop-color="#FFDD98"/></linearGradient><linearGradient id="paint27_linear" x1="276.4" y1="170.4" x2="275.6" y2="156" gradientUnits="userSpaceOnUse"><stop offset="0" stop-color="#FFBAAA"/><stop offset="1" stop-color="#FFDD98"/></linearGradient><linearGradient id="paint28_linear" x1="256" y1="171.9" x2="256" y2="-26.3" gradientUnits="userSpaceOnUse"><stop offset="0" stop-color="#FFBAAA"/><stop offset="1" stop-color="#FFDD98"/></linearGradient><linearGradient id="paint29_linear" x1="454.8" y1="127.9" x2="454.8" y2="-9.4" gradientUnits="userSpaceOnUse"><stop offset="0" stop-color="#FFBAAA"/><stop offset="1" stop-color="#FFDD98"/></linearGradient><radialGradient id="paint16_radial" cx="0" cy="0" r="1" gradientUnits="userSpaceOnUse" gradientTransform="matrix(24.679 0 0 24.6603 -8 375)"><stop stop-color="#005EFF"/><stop offset=".1" stop-color="#004DD1"/><stop offset=".3" stop-color="#003692"/><stop offset=".5" stop-color="#00235E"/><stop offset=".6" stop-color="#001435"/><stop offset=".8" stop-color="#000918"/><stop offset=".9" stop-color="#000206"/><stop offset="1"/></radialGradient><radialGradient id="paint21_radial" cx="0" cy="0" r="1" gradientUnits="userSpaceOnUse" gradientTransform="matrix(135.462 0 0 135.36 127 150)"><stop offset=".6" stop-color="#DE595B"/><stop offset="1" stop-color="#FE835C"/></radialGradient><radialGradient id="paint22_radial" cx="0" cy="0" r="1" gradientUnits="userSpaceOnUse" gradientTransform="matrix(65.87623 -14.20901 14.19916 65.83058 430 214)"><stop offset=".6" stop-color="#DE595B"/><stop offset="1" stop-color="#FE835C"/></radialGradient><radialGradient id="paint30_radial" cx="0" cy="0" r="1" gradientUnits="userSpaceOnUse" gradientTransform="matrix(1.58907 1.71545 -211.87716 196.26772 146 183)"><stop stop-color="#EDFF6A"/><stop offset=".1" stop-color="#C2D157"/><stop offset=".3" stop-color="#88923D"/><stop offset=".5" stop-color="#575E27"/><stop offset=".6" stop-color="#313516"/><stop offset=".8" stop-color="#16180A"/><stop offset=".9" stop-color="#060603"/><stop offset="1"/></radialGradient><clipPath id="clip0"><path fill="#fff" d="M0 0h648v427H0z"/></clipPath><clipPath id="clip1"><path fill="#fff" transform="translate(-221 -76)" d="M0 0h1310v522H0z"/></clipPath></defs></svg>